<?xml version="1.0" encoding="utf-8"?>
<!-- Generator: Adobe Illustrator 24.0.1, SVG Export Plug-In . SVG Version: 6.00 Build 0)  -->
<svg version="1.1" id="Layer_1" xmlns="http://www.w3.org/2000/svg" xmlns:xlink="http://www.w3.org/1999/xlink" x="0px" y="0px"
	 viewBox="0 0 755 474" style="enable-background:new 0 0 755 474;" xml:space="preserve">
<style type="text/css">
	.st0{fill:#5E36AC;}
	.st1{fill:#64BFDC;}
	.st2{fill:none;stroke:#DFDFDF;stroke-width:2;}
	.st3{fill:#333333;}
	.st4{fill:#868686;}
</style>
<path class="st0" d="M448.3,157.4c0-2.8-1.9-4.8-5-4.8h-7v14.6h3.2V162h2.4l2.9,5.2h3.6l-3.4-5.6C446.6,161.4,448.3,160,448.3,157.4
	z"/>
<path class="st0" d="M457.2,152.4c-4.5,0-7.8,3.2-7.8,7.6s3.3,7.6,7.8,7.6c4.5,0,7.8-3.2,7.8-7.6S461.7,152.4,457.2,152.4z
	 M457.2,164.8c-2.7,0-4.5-2.1-4.5-4.8s1.8-4.8,4.5-4.8c2.7,0,4.5,2.1,4.5,4.8S459.9,164.8,457.2,164.8z"/>
<path class="st0" d="M474,155.2c1.7,0,3,0.9,3.6,2.1l2.7-1.3c-1.1-1.8-2.9-3.6-6.4-3.6c-4.3,0-7.8,3.1-7.8,7.6s3.4,7.6,7.8,7.6
	c3.4,0,5.3-1.8,6.4-3.6l-2.7-1.2c-0.6,1.2-2,2.1-3.6,2.1c-2.6,0-4.6-2.1-4.6-4.8S471.4,155.2,474,155.2z"/>
<path class="st0" d="M494.3,152.7h-3.9l-5.3,6.5v-6.5H482v14.6h3.2v-4.5l1.1-1.4l4.5,5.9h3.9l-6.3-7.8L494.3,152.7z"/>
<path class="st0" d="M501.4,158.4c-1.7-0.4-3-0.7-3-1.7c0-0.9,0.8-1.5,2.2-1.5c1.5,0,3.1,0.5,4.3,1.6l1.8-2.3
	c-1.5-1.3-3.4-2.1-5.8-2.1c-3.5,0-5.7,2-5.7,4.4c0,3.2,3.1,3.9,5.5,4.5c1.7,0.4,3,0.8,3,1.9c0,0.8-0.8,1.6-2.6,1.6
	c-2,0-3.7-0.9-4.7-2l-1.7,2.4c1.4,1.4,3.4,2.3,6.3,2.3c4,0,6-2,6-4.7C506.9,159.6,503.8,158.9,501.4,158.4z"/>
<path class="st0" d="M508.8,167.3h10.6v-2.7H512v-3.4h7.3v-2.7H512v-3.1h7.4v-2.7h-10.6V167.3z"/>
<path class="st0" d="M520.6,152.7v2.8h4.3v11.9h3.2v-11.9h4.4v-2.8H520.6z"/>
<path class="st1" d="M437.2,148v-3H428v1.5v1.5v24v1.5v1.5h9.2v-3h-6.2v-24H437.2z"/>
<path class="st1" d="M530.8,148v-3h9.2v1.5v1.5v24v1.5v1.5h-9.2v-3h6.2v-24H530.8z"/>
<line class="st2" x1="369" y1="42" x2="369" y2="424"/>
<path class="st2" d="M376.6,48.8l-7.8-7.8l-7.8,7.8"/>
<path class="st2" d="M361,416.2l7.8,7.8l7.8-7.8"/>
<line class="st2" x1="592.8" y1="232.7" x2="143.6" y2="232.7"/>
<path class="st2" d="M584.9,240.3l9.1-7.8l-9.1-7.8"/>
<path class="st2" d="M152.7,224.7l-9.1,7.8l9.1,7.8"/>
<path class="st3" d="M314.6,12V4.2h4.7v1.2H316v2.2h2.9v1.2H316V12H314.6z M323,7.8l-0.3,1h2l-0.3-1c-0.1-0.4-0.3-0.8-0.4-1.3
	c-0.1-0.4-0.2-0.9-0.3-1.3h0c-0.1,0.4-0.2,0.9-0.3,1.3C323.3,7,323.2,7.4,323,7.8z M320.4,12l2.6-7.8h1.6l2.6,7.8h-1.5l-0.6-2.1
	h-2.6l-0.6,2.1H320.4z M331.6,12.1c-0.5,0-1-0.1-1.5-0.3c-0.5-0.2-0.9-0.5-1.3-0.9l0.8-0.9c0.3,0.3,0.6,0.5,1,0.6
	c0.4,0.2,0.7,0.2,1.1,0.2c0.4,0,0.8-0.1,1-0.3s0.3-0.4,0.3-0.7c0-0.2,0-0.3-0.1-0.4c-0.1-0.1-0.1-0.2-0.3-0.3
	c-0.1-0.1-0.2-0.2-0.4-0.2c-0.1-0.1-0.3-0.1-0.5-0.2l-1.1-0.5c-0.2-0.1-0.4-0.2-0.6-0.3c-0.2-0.1-0.4-0.3-0.5-0.4
	c-0.2-0.2-0.3-0.4-0.4-0.6c-0.1-0.2-0.1-0.5-0.1-0.8c0-0.3,0.1-0.6,0.2-0.9c0.1-0.3,0.3-0.5,0.6-0.7c0.2-0.2,0.5-0.4,0.8-0.5
	c0.3-0.1,0.7-0.2,1.1-0.2c0.5,0,0.9,0.1,1.3,0.3c0.4,0.2,0.8,0.4,1.1,0.7l-0.7,0.9c-0.3-0.2-0.5-0.4-0.8-0.5s-0.6-0.2-0.9-0.2
	c-0.4,0-0.7,0.1-0.9,0.3c-0.2,0.2-0.3,0.4-0.3,0.7c0,0.2,0,0.3,0.1,0.4c0.1,0.1,0.2,0.2,0.3,0.3c0.1,0.1,0.3,0.2,0.4,0.2
	c0.2,0.1,0.3,0.1,0.5,0.2l1.1,0.4c0.2,0.1,0.4,0.2,0.6,0.3c0.2,0.1,0.4,0.3,0.5,0.4c0.1,0.2,0.3,0.4,0.3,0.6
	c0.1,0.2,0.1,0.5,0.1,0.8c0,0.3-0.1,0.6-0.2,0.9c-0.1,0.3-0.3,0.5-0.6,0.7c-0.2,0.2-0.5,0.4-0.9,0.5C332.4,12.1,332,12.1,331.6,12.1
	z M338.4,12V5.3h-2.3V4.2h5.9v1.2h-2.3V12H338.4z M351.2,11c0.3,0,0.6-0.1,0.8-0.2c0.2-0.1,0.5-0.3,0.6-0.6c0.2-0.3,0.3-0.6,0.4-0.9
	c0.1-0.4,0.1-0.8,0.1-1.2c0-0.9-0.2-1.6-0.6-2.1c-0.4-0.5-0.9-0.8-1.5-0.8c-0.6,0-1.1,0.3-1.5,0.8c-0.4,0.5-0.5,1.2-0.5,2.1
	c0,0.5,0,0.9,0.1,1.2c0.1,0.4,0.2,0.7,0.4,0.9c0.2,0.3,0.4,0.5,0.6,0.6C350.6,10.9,350.9,11,351.2,11z M353.7,14.1
	c-0.8,0-1.4-0.2-2-0.6c-0.5-0.4-0.9-0.9-1.2-1.4c-0.4-0.1-0.8-0.2-1.2-0.4c-0.3-0.2-0.6-0.5-0.9-0.9c-0.2-0.3-0.4-0.7-0.6-1.2
	c-0.1-0.5-0.2-1-0.2-1.5c0-0.6,0.1-1.2,0.3-1.7c0.2-0.5,0.4-0.9,0.7-1.3c0.3-0.3,0.7-0.6,1.1-0.8c0.4-0.2,0.9-0.3,1.4-0.3
	c0.5,0,1,0.1,1.4,0.3c0.4,0.2,0.8,0.4,1.1,0.8c0.3,0.3,0.6,0.8,0.7,1.3c0.2,0.5,0.3,1.1,0.3,1.7c0,0.5-0.1,1-0.2,1.5
	c-0.1,0.4-0.3,0.8-0.5,1.2s-0.5,0.6-0.8,0.9c-0.3,0.2-0.7,0.4-1.1,0.5c0.2,0.3,0.4,0.5,0.8,0.7c0.3,0.1,0.7,0.2,1.1,0.2
	c0.2,0,0.3,0,0.5,0c0.1,0,0.3,0,0.4-0.1l0.3,1c-0.1,0.1-0.3,0.1-0.5,0.2C354.2,14.1,354,14.1,353.7,14.1z M360.4,12.1
	c-0.5,0-0.9-0.1-1.2-0.2c-0.4-0.1-0.7-0.3-0.9-0.6c-0.3-0.3-0.5-0.7-0.6-1.1c-0.1-0.5-0.2-1-0.2-1.7V4.2h1.4v4.5
	c0,0.4,0,0.8,0.1,1.1c0.1,0.3,0.2,0.5,0.3,0.7c0.1,0.2,0.3,0.3,0.5,0.4c0.2,0.1,0.4,0.1,0.6,0.1c0.2,0,0.5,0,0.7-0.1
	c0.2-0.1,0.4-0.2,0.5-0.4c0.1-0.2,0.3-0.4,0.3-0.7c0.1-0.3,0.1-0.7,0.1-1.1V4.2h1.3v4.4c0,0.6-0.1,1.2-0.2,1.7
	c-0.1,0.4-0.3,0.8-0.6,1.1c-0.3,0.3-0.6,0.5-0.9,0.6C361.3,12.1,360.9,12.1,360.4,12.1z M366.5,12V4.2h4.7v1.2h-3.3v2h2.8v1.2h-2.8
	v2.3h3.5V12H366.5z M374.2,12V4.2h2.7c0.4,0,0.8,0,1.1,0.1c0.4,0.1,0.7,0.2,0.9,0.4c0.3,0.2,0.5,0.4,0.6,0.7
	c0.2,0.3,0.2,0.7,0.2,1.1c0,0.6-0.1,1.1-0.4,1.5c-0.3,0.4-0.7,0.6-1.1,0.8L380,12h-1.6l-1.7-3.1h-1.2V12H374.2z M375.6,7.8h1.1
	c0.5,0,0.9-0.1,1.2-0.3c0.3-0.2,0.4-0.6,0.4-1c0-0.5-0.1-0.8-0.4-0.9c-0.3-0.2-0.7-0.3-1.2-0.3h-1.1V7.8z M382.5,12V4.2h1.4V12
	H382.5z M387.1,12V4.2h4.7v1.2h-3.3v2h2.8v1.2h-2.8v2.3h3.5V12H387.1z M397,12.1c-0.5,0-1-0.1-1.5-0.3c-0.5-0.2-0.9-0.5-1.3-0.9
	L395,10c0.3,0.3,0.6,0.5,1,0.6c0.4,0.2,0.7,0.2,1.1,0.2c0.4,0,0.8-0.1,1-0.3s0.3-0.4,0.3-0.7c0-0.2,0-0.3-0.1-0.4
	c-0.1-0.1-0.1-0.2-0.3-0.3c-0.1-0.1-0.2-0.2-0.4-0.2c-0.1-0.1-0.3-0.1-0.5-0.2l-1.1-0.5c-0.2-0.1-0.4-0.2-0.6-0.3
	c-0.2-0.1-0.4-0.3-0.5-0.4c-0.2-0.2-0.3-0.4-0.4-0.6c-0.1-0.2-0.1-0.5-0.1-0.8c0-0.3,0.1-0.6,0.2-0.9c0.1-0.3,0.3-0.5,0.6-0.7
	c0.2-0.2,0.5-0.4,0.8-0.5c0.3-0.1,0.7-0.2,1.1-0.2c0.5,0,0.9,0.1,1.3,0.3c0.4,0.2,0.8,0.4,1.1,0.7l-0.7,0.9
	c-0.3-0.2-0.5-0.4-0.8-0.5s-0.6-0.2-0.9-0.2c-0.4,0-0.7,0.1-0.9,0.3c-0.2,0.2-0.3,0.4-0.3,0.7c0,0.2,0,0.3,0.1,0.4
	c0.1,0.1,0.2,0.2,0.3,0.3c0.1,0.1,0.3,0.2,0.4,0.2c0.2,0.1,0.3,0.1,0.5,0.2l1.1,0.4c0.2,0.1,0.4,0.2,0.6,0.3
	c0.2,0.1,0.4,0.3,0.5,0.4c0.1,0.2,0.3,0.4,0.3,0.6c0.1,0.2,0.1,0.5,0.1,0.8c0,0.3-0.1,0.6-0.2,0.9c-0.1,0.3-0.3,0.5-0.6,0.7
	c-0.2,0.2-0.5,0.4-0.9,0.5C397.8,12.1,397.5,12.1,397,12.1z M409.1,12.1c-0.5,0-1-0.1-1.4-0.3c-0.4-0.2-0.8-0.5-1.1-0.8
	c-0.3-0.4-0.5-0.8-0.7-1.3c-0.2-0.5-0.3-1.1-0.3-1.7c0-0.6,0.1-1.2,0.3-1.7c0.2-0.5,0.4-0.9,0.7-1.3c0.3-0.3,0.7-0.6,1.1-0.8
	s0.9-0.3,1.4-0.3c0.5,0,1,0.1,1.4,0.3c0.4,0.2,0.8,0.4,1.1,0.8c0.3,0.3,0.6,0.8,0.7,1.3c0.2,0.5,0.3,1.1,0.3,1.7
	c0,0.6-0.1,1.2-0.3,1.7c-0.2,0.5-0.4,0.9-0.7,1.3c-0.3,0.4-0.7,0.6-1.1,0.8C410.1,12.1,409.6,12.1,409.1,12.1z M409.1,10.9
	c0.3,0,0.6-0.1,0.8-0.2c0.2-0.1,0.5-0.3,0.6-0.6c0.2-0.3,0.3-0.6,0.4-0.9c0.1-0.4,0.1-0.8,0.1-1.2c0-0.9-0.2-1.6-0.6-2.1
	c-0.4-0.5-0.9-0.8-1.5-0.8c-0.6,0-1.1,0.3-1.5,0.8c-0.4,0.5-0.5,1.2-0.5,2.1c0,0.4,0,0.8,0.1,1.2c0.1,0.4,0.2,0.7,0.4,0.9
	c0.2,0.2,0.4,0.4,0.6,0.6C408.5,10.9,408.8,10.9,409.1,10.9z M415.4,12V4.2h1.4l2.4,4.4l0.8,1.7h0c0-0.4-0.1-0.8-0.1-1.3
	c0-0.5-0.1-0.9-0.1-1.4V4.2h1.3V12h-1.4l-2.4-4.4l-0.8-1.7h0c0,0.4,0.1,0.9,0.1,1.3c0,0.5,0.1,0.9,0.1,1.3V12H415.4z M312.8,27.1
	c-0.5,0-1-0.1-1.4-0.3c-0.4-0.2-0.8-0.5-1.1-0.8c-0.3-0.4-0.5-0.8-0.7-1.3s-0.3-1.1-0.3-1.7c0-0.6,0.1-1.2,0.3-1.7
	c0.2-0.5,0.4-0.9,0.7-1.3c0.3-0.3,0.7-0.6,1.1-0.8c0.4-0.2,0.9-0.3,1.4-0.3s1,0.1,1.4,0.3c0.4,0.2,0.8,0.4,1.1,0.8
	c0.3,0.3,0.6,0.8,0.7,1.3c0.2,0.5,0.3,1.1,0.3,1.7c0,0.6-0.1,1.2-0.3,1.7s-0.4,0.9-0.7,1.3c-0.3,0.4-0.7,0.6-1.1,0.8
	C313.7,27.1,313.3,27.1,312.8,27.1z M312.8,25.9c0.3,0,0.6-0.1,0.8-0.2c0.2-0.1,0.5-0.3,0.6-0.6c0.2-0.3,0.3-0.6,0.4-0.9
	c0.1-0.4,0.1-0.8,0.1-1.2c0-0.9-0.2-1.6-0.6-2.1c-0.4-0.5-0.9-0.8-1.5-0.8s-1.1,0.3-1.5,0.8c-0.4,0.5-0.5,1.2-0.5,2.1
	c0,0.4,0,0.8,0.1,1.2c0.1,0.4,0.2,0.7,0.4,0.9c0.2,0.2,0.4,0.4,0.6,0.6C312.2,25.9,312.5,25.9,312.8,25.9z M319,27v-7.8h2.5
	c0.4,0,0.8,0,1.2,0.1c0.4,0.1,0.7,0.2,1,0.4c0.3,0.2,0.5,0.4,0.6,0.8c0.2,0.3,0.2,0.7,0.2,1.1c0,0.4-0.1,0.8-0.2,1.1
	s-0.4,0.6-0.6,0.8c-0.3,0.2-0.6,0.4-0.9,0.5c-0.4,0.1-0.8,0.1-1.2,0.1h-1.1V27H319z M320.4,23h1c1.2,0,1.7-0.5,1.7-1.4
	c0-0.5-0.2-0.8-0.5-1c-0.3-0.2-0.7-0.3-1.3-0.3h-1V23z M327.2,27v-7.8h4.7v1.2h-3.3v2h2.8v1.2h-2.8v2.3h3.5V27H327.2z M334.8,27
	v-7.8h2.7c0.4,0,0.8,0,1.1,0.1s0.7,0.2,0.9,0.4c0.3,0.2,0.5,0.4,0.6,0.7c0.2,0.3,0.2,0.7,0.2,1.1c0,0.6-0.1,1.1-0.4,1.5
	c-0.3,0.4-0.7,0.6-1.1,0.8l1.9,3.3h-1.6l-1.7-3.1h-1.2V27H334.8z M336.2,22.8h1.1c0.5,0,0.9-0.1,1.2-0.3c0.3-0.2,0.4-0.6,0.4-1
	c0-0.5-0.1-0.8-0.4-0.9c-0.3-0.2-0.7-0.3-1.2-0.3h-1.1V22.8z M344.7,22.8l-0.3,1h2l-0.3-1c-0.1-0.4-0.3-0.8-0.4-1.3
	c-0.1-0.4-0.2-0.9-0.3-1.3h0c-0.1,0.4-0.2,0.9-0.3,1.3C344.9,22,344.8,22.4,344.7,22.8z M342.1,27l2.6-7.8h1.6l2.6,7.8h-1.5
	l-0.6-2.1h-2.6l-0.6,2.1H342.1z M351.8,27v-6.7h-2.3v-1.2h5.9v1.2h-2.3V27H351.8z M357.9,27v-7.8h1.4V27H357.9z M365.6,27.1
	c-0.5,0-1-0.1-1.4-0.3c-0.4-0.2-0.8-0.5-1.1-0.8c-0.3-0.4-0.5-0.8-0.7-1.3s-0.3-1.1-0.3-1.7c0-0.6,0.1-1.2,0.3-1.7
	c0.2-0.5,0.4-0.9,0.7-1.3c0.3-0.3,0.7-0.6,1.1-0.8s0.9-0.3,1.4-0.3s1,0.1,1.4,0.3c0.4,0.2,0.8,0.4,1.1,0.8c0.3,0.3,0.6,0.8,0.7,1.3
	c0.2,0.5,0.3,1.1,0.3,1.7c0,0.6-0.1,1.2-0.3,1.7s-0.4,0.9-0.7,1.3c-0.3,0.4-0.7,0.6-1.1,0.8C366.6,27.1,366.1,27.1,365.6,27.1z
	 M365.6,25.9c0.3,0,0.6-0.1,0.8-0.2c0.2-0.1,0.5-0.3,0.6-0.6c0.2-0.3,0.3-0.6,0.4-0.9c0.1-0.4,0.1-0.8,0.1-1.2
	c0-0.9-0.2-1.6-0.6-2.1c-0.4-0.5-0.9-0.8-1.5-0.8s-1.1,0.3-1.5,0.8c-0.4,0.5-0.5,1.2-0.5,2.1c0,0.4,0,0.8,0.1,1.2
	c0.1,0.4,0.2,0.7,0.4,0.9c0.2,0.2,0.4,0.4,0.6,0.6C365,25.9,365.3,25.9,365.6,25.9z M371.8,27v-7.8h1.4l2.4,4.4l0.8,1.7h0
	c0-0.4-0.1-0.8-0.1-1.3c0-0.5-0.1-0.9-0.1-1.4v-3.4h1.3V27h-1.4l-2.4-4.4l-0.8-1.7h0c0,0.4,0.1,0.9,0.1,1.3c0,0.5,0.1,0.9,0.1,1.3
	V27H371.8z M382.5,22.8l-0.3,1h2l-0.3-1c-0.1-0.4-0.3-0.8-0.4-1.3c-0.1-0.4-0.2-0.9-0.3-1.3h0c-0.1,0.4-0.2,0.9-0.3,1.3
	C382.8,22,382.6,22.4,382.5,22.8z M379.9,27l2.6-7.8h1.6l2.6,7.8h-1.5l-0.6-2.1h-2.6l-0.6,2.1H379.9z M388.8,27v-7.8h1.4v6.7h3.3V27
	H388.8z M399.6,27v-7.8h2.1c1.2,0,2.1,0.3,2.8,1c0.7,0.6,1,1.6,1,2.9c0,0.6-0.1,1.2-0.3,1.7c-0.2,0.5-0.4,0.9-0.7,1.2
	c-0.3,0.3-0.7,0.6-1.2,0.7c-0.5,0.2-1,0.3-1.6,0.3H399.6z M401,25.9h0.6c0.8,0,1.4-0.2,1.8-0.7c0.4-0.5,0.6-1.2,0.6-2.1
	c0-1-0.2-1.7-0.6-2.1c-0.4-0.4-1-0.7-1.8-0.7H401V25.9z M409.8,22.8l-0.3,1h2l-0.3-1c-0.1-0.4-0.3-0.8-0.4-1.3
	c-0.1-0.4-0.2-0.9-0.3-1.3h0c-0.1,0.4-0.2,0.9-0.3,1.3C410,22,409.9,22.4,409.8,22.8z M407.2,27l2.6-7.8h1.6l2.6,7.8h-1.5l-0.6-2.1
	h-2.6l-0.6,2.1H407.2z M416.9,27v-6.7h-2.3v-1.2h5.9v1.2h-2.3V27H416.9z M424.2,22.8l-0.3,1h2l-0.3-1c-0.1-0.4-0.3-0.8-0.4-1.3
	c-0.1-0.4-0.2-0.9-0.3-1.3h0c-0.1,0.4-0.2,0.9-0.3,1.3C424.4,22,424.3,22.4,424.2,22.8z M421.6,27l2.6-7.8h1.6l2.6,7.8h-1.5
	l-0.6-2.1h-2.6L423,27H421.6z"/>
<path class="st4" d="M196.5,102V91.4h-3.6V89H203v2.5h-3.6V102H196.5z M204,102v-9.9h2.4l0.2,1.7h0.1c0.4-0.7,0.8-1.2,1.3-1.5
	s1-0.5,1.5-0.5c0.3,0,0.5,0,0.7,0.1c0.2,0,0.4,0.1,0.5,0.1l-0.5,2.5c-0.2-0.1-0.4-0.1-0.5-0.1s-0.3,0-0.6,0c-0.4,0-0.8,0.1-1.2,0.4
	c-0.4,0.3-0.7,0.7-1,1.4v5.8H204z M213.9,102.2c-0.5,0-0.9-0.1-1.2-0.2c-0.4-0.1-0.7-0.4-0.9-0.6c-0.3-0.3-0.5-0.6-0.6-1
	c-0.1-0.4-0.2-0.8-0.2-1.2c0-1,0.4-1.9,1.3-2.4c0.9-0.6,2.3-1,4.3-1.2c0-0.4-0.2-0.8-0.4-1c-0.2-0.3-0.6-0.4-1.2-0.4
	c-0.4,0-0.9,0.1-1.3,0.2c-0.4,0.2-0.9,0.4-1.3,0.7l-1.1-1.9c0.6-0.4,1.3-0.7,2-0.9c0.7-0.2,1.5-0.4,2.2-0.4c1.3,0,2.3,0.4,2.9,1.1
	c0.7,0.7,1,1.8,1,3.4v5.7H217l-0.2-1h-0.1c-0.4,0.4-0.9,0.7-1.3,0.9C214.9,102.1,214.4,102.2,213.9,102.2z M214.9,100
	c0.3,0,0.6-0.1,0.9-0.2c0.2-0.1,0.5-0.4,0.8-0.6v-1.7c-1,0.1-1.8,0.4-2.2,0.6c-0.4,0.3-0.6,0.6-0.6,1c0,0.3,0.1,0.6,0.3,0.7
	C214.2,99.9,214.5,100,214.9,100z M221.9,102v-9.9h2.4l0.2,1.3h0.1c0.4-0.4,0.9-0.7,1.4-1c0.5-0.3,1.1-0.5,1.8-0.5
	c1.1,0,1.9,0.4,2.3,1.1c0.5,0.7,0.7,1.7,0.7,2.9v6.2h-2.9v-5.8c0-0.7-0.1-1.2-0.3-1.5c-0.2-0.3-0.5-0.4-0.9-0.4
	c-0.4,0-0.7,0.1-1,0.3c-0.3,0.2-0.6,0.4-0.9,0.7v6.7H221.9z M236.3,102.2c-0.7,0-1.3-0.1-2-0.4c-0.7-0.3-1.3-0.6-1.8-1l1.3-1.8
	c0.5,0.3,0.9,0.6,1.3,0.8c0.4,0.2,0.8,0.3,1.3,0.3c0.4,0,0.8-0.1,1-0.2c0.2-0.1,0.3-0.4,0.3-0.6c0-0.2-0.1-0.3-0.2-0.4
	c-0.1-0.1-0.3-0.3-0.5-0.4c-0.2-0.1-0.4-0.2-0.6-0.3c-0.2-0.1-0.5-0.2-0.7-0.3c-0.3-0.1-0.6-0.3-0.9-0.4c-0.3-0.2-0.6-0.4-0.8-0.6
	c-0.3-0.2-0.5-0.5-0.6-0.8c-0.2-0.3-0.2-0.7-0.2-1.1c0-0.5,0.1-0.9,0.3-1.3c0.2-0.4,0.4-0.7,0.8-1c0.3-0.3,0.7-0.5,1.2-0.6
	c0.5-0.2,1-0.2,1.6-0.2c0.8,0,1.4,0.1,2,0.4c0.6,0.3,1.1,0.5,1.5,0.9l-1.3,1.8c-0.4-0.3-0.7-0.5-1.1-0.6c-0.3-0.1-0.7-0.2-1-0.2
	c-0.7,0-1.1,0.3-1.1,0.8c0,0.2,0.1,0.3,0.2,0.4c0.1,0.1,0.2,0.2,0.4,0.3c0.2,0.1,0.4,0.2,0.6,0.3c0.2,0.1,0.5,0.2,0.7,0.3
	c0.3,0.1,0.6,0.3,0.9,0.4c0.3,0.1,0.6,0.3,0.9,0.6c0.3,0.2,0.5,0.5,0.6,0.8c0.2,0.3,0.2,0.7,0.2,1.2s-0.1,0.9-0.3,1.3
	c-0.2,0.4-0.4,0.7-0.8,1c-0.3,0.3-0.8,0.5-1.3,0.7C237.5,102.2,236.9,102.2,236.3,102.2z M244.7,102.2c-0.5,0-0.9-0.1-1.2-0.2
	c-0.4-0.1-0.7-0.4-0.9-0.6c-0.3-0.3-0.5-0.6-0.6-1c-0.1-0.4-0.2-0.8-0.2-1.2c0-1,0.4-1.9,1.3-2.4s2.3-1,4.3-1.2c0-0.4-0.2-0.8-0.4-1
	c-0.2-0.3-0.6-0.4-1.2-0.4c-0.4,0-0.9,0.1-1.3,0.2c-0.4,0.2-0.9,0.4-1.3,0.7l-1.1-1.9c0.6-0.4,1.3-0.7,2-0.9
	c0.7-0.2,1.5-0.4,2.2-0.4c1.3,0,2.3,0.4,2.9,1.1c0.7,0.7,1,1.8,1,3.4v5.7h-2.4l-0.2-1h-0.1c-0.4,0.4-0.9,0.7-1.3,0.9
	C245.8,102.1,245.3,102.2,244.7,102.2z M245.7,100c0.3,0,0.6-0.1,0.9-0.2c0.2-0.1,0.5-0.4,0.8-0.6v-1.7c-1,0.1-1.8,0.4-2.2,0.6
	c-0.4,0.3-0.6,0.6-0.6,1c0,0.3,0.1,0.6,0.3,0.7C245.1,99.9,245.4,100,245.7,100z M257.1,102.2c-0.7,0-1.3-0.1-1.9-0.3
	c-0.6-0.2-1.1-0.6-1.5-1c-0.4-0.4-0.8-1-1-1.6c-0.3-0.7-0.4-1.4-0.4-2.2s0.1-1.6,0.4-2.2c0.3-0.7,0.7-1.2,1.1-1.6
	c0.5-0.4,1-0.8,1.7-1c0.6-0.2,1.3-0.4,2-0.4c0.6,0,1.2,0.1,1.6,0.3c0.5,0.2,0.9,0.5,1.3,0.8l-1.4,1.9c-0.5-0.4-0.9-0.6-1.3-0.6
	c-0.7,0-1.3,0.3-1.7,0.8c-0.4,0.5-0.6,1.2-0.6,2.1s0.2,1.6,0.6,2.1c0.4,0.5,1,0.8,1.6,0.8c0.3,0,0.6-0.1,0.9-0.2
	c0.3-0.1,0.6-0.3,0.9-0.5l1.2,1.9c-0.5,0.4-1,0.7-1.6,0.9C258.2,102.2,257.6,102.2,257.1,102.2z M265.7,102.2
	c-0.6,0-1.1-0.1-1.6-0.3c-0.4-0.2-0.8-0.4-1.1-0.8c-0.3-0.3-0.5-0.7-0.6-1.2c-0.1-0.5-0.2-1-0.2-1.6v-4H261v-2.2l1.5-0.1l0.3-2.6
	h2.4v2.6h2.4v2.3h-2.4v4c0,0.6,0.1,1,0.3,1.2c0.2,0.2,0.6,0.4,0.9,0.4c0.2,0,0.3,0,0.5-0.1c0.2,0,0.3-0.1,0.5-0.1l0.5,2.1
	c-0.3,0.1-0.6,0.2-0.9,0.2C266.6,102.2,266.2,102.2,265.7,102.2z M269.6,102v-9.9h2.9v9.9H269.6z M271,90.6c-0.5,0-0.9-0.1-1.2-0.4
	c-0.3-0.3-0.5-0.7-0.5-1.1s0.2-0.8,0.5-1.1c0.3-0.3,0.7-0.4,1.2-0.4c0.5,0,0.9,0.1,1.2,0.4c0.3,0.3,0.5,0.6,0.5,1.1
	s-0.2,0.8-0.5,1.1C271.9,90.5,271.5,90.6,271,90.6z M279.4,102.2c-0.6,0-1.2-0.1-1.8-0.3c-0.6-0.2-1.1-0.6-1.6-1
	c-0.4-0.4-0.8-1-1.1-1.6c-0.3-0.7-0.4-1.4-0.4-2.2s0.1-1.6,0.4-2.2c0.3-0.7,0.6-1.2,1.1-1.6c0.5-0.4,1-0.8,1.6-1
	c0.6-0.2,1.2-0.4,1.8-0.4c0.6,0,1.2,0.1,1.8,0.4c0.6,0.2,1.1,0.6,1.5,1c0.5,0.4,0.8,1,1.1,1.6c0.3,0.6,0.4,1.4,0.4,2.2
	s-0.1,1.6-0.4,2.2c-0.3,0.6-0.6,1.2-1.1,1.6c-0.4,0.4-1,0.8-1.5,1C280.6,102.1,280,102.2,279.4,102.2z M279.4,99.9
	c0.6,0,1.1-0.3,1.4-0.8c0.3-0.5,0.5-1.2,0.5-2.1s-0.2-1.6-0.5-2.1c-0.3-0.5-0.8-0.8-1.4-0.8c-0.6,0-1.1,0.3-1.4,0.8
	c-0.3,0.5-0.4,1.2-0.4,2.1s0.1,1.6,0.4,2.1C278.3,99.6,278.7,99.9,279.4,99.9z M286.2,102v-9.9h2.4l0.2,1.3h0.1
	c0.4-0.4,0.9-0.7,1.4-1c0.5-0.3,1.1-0.5,1.8-0.5c1.1,0,1.9,0.4,2.3,1.1c0.5,0.7,0.7,1.7,0.7,2.9v6.2h-2.9v-5.8
	c0-0.7-0.1-1.2-0.3-1.5c-0.2-0.3-0.5-0.4-0.9-0.4c-0.4,0-0.7,0.1-1,0.3c-0.3,0.2-0.6,0.4-0.9,0.7v6.7H286.2z M300.1,102.2
	c-0.5,0-0.9-0.1-1.2-0.2c-0.4-0.1-0.7-0.4-0.9-0.6c-0.3-0.3-0.5-0.6-0.6-1c-0.1-0.4-0.2-0.8-0.2-1.2c0-1,0.4-1.9,1.3-2.4
	c0.9-0.6,2.3-1,4.3-1.2c0-0.4-0.2-0.8-0.4-1c-0.2-0.3-0.6-0.4-1.2-0.4c-0.4,0-0.9,0.1-1.3,0.2c-0.4,0.2-0.9,0.4-1.3,0.7l-1.1-1.9
	c0.6-0.4,1.3-0.7,2-0.9c0.7-0.2,1.5-0.4,2.2-0.4c1.3,0,2.3,0.4,2.9,1.1c0.7,0.7,1,1.8,1,3.4v5.7h-2.4l-0.2-1H303
	c-0.4,0.4-0.9,0.7-1.3,0.9C301.2,102.1,300.7,102.2,300.1,102.2z M301.1,100c0.3,0,0.6-0.1,0.9-0.2c0.2-0.1,0.5-0.4,0.8-0.6v-1.7
	c-1,0.1-1.8,0.4-2.2,0.6c-0.4,0.3-0.6,0.6-0.6,1c0,0.3,0.1,0.6,0.3,0.7C300.5,99.9,300.8,100,301.1,100z M310.9,102.2
	c-0.5,0-0.9-0.1-1.3-0.2c-0.3-0.2-0.6-0.4-0.8-0.7c-0.2-0.3-0.3-0.6-0.4-1c-0.1-0.4-0.1-0.9-0.1-1.4V88h2.9V99
	c0,0.3,0.1,0.5,0.2,0.6c0.1,0.1,0.2,0.2,0.4,0.2c0.1,0,0.1,0,0.2,0c0.1,0,0.1,0,0.2,0l0.4,2.2c-0.2,0.1-0.4,0.1-0.6,0.2
	C311.5,102.2,311.2,102.2,310.9,102.2z M208.7,126v-13h3.7c1,0,1.9,0.1,2.7,0.4c0.8,0.3,1.5,0.6,2.1,1.2c0.6,0.5,1,1.2,1.3,2
	c0.3,0.8,0.5,1.8,0.5,2.9c0,1.1-0.2,2.1-0.5,2.9c-0.3,0.8-0.7,1.5-1.3,2.1c-0.6,0.5-1.2,0.9-2,1.2c-0.8,0.3-1.6,0.4-2.6,0.4H208.7z
	 M211.7,123.6h0.6c0.6,0,1.1-0.1,1.5-0.2c0.5-0.1,0.8-0.4,1.2-0.7c0.3-0.3,0.6-0.8,0.7-1.3c0.2-0.5,0.3-1.2,0.3-2
	c0-0.8-0.1-1.4-0.3-1.9c-0.2-0.5-0.4-1-0.7-1.3c-0.3-0.3-0.7-0.5-1.2-0.7c-0.5-0.1-1-0.2-1.5-0.2h-0.6V123.6z M223.7,126.2
	c-0.5,0-0.9-0.1-1.2-0.2c-0.4-0.1-0.7-0.4-0.9-0.6c-0.3-0.3-0.5-0.6-0.6-1c-0.1-0.4-0.2-0.8-0.2-1.2c0-1,0.4-1.9,1.3-2.4
	c0.9-0.6,2.3-1,4.3-1.2c0-0.4-0.2-0.8-0.4-1c-0.2-0.3-0.6-0.4-1.2-0.4c-0.4,0-0.9,0.1-1.3,0.2c-0.4,0.2-0.9,0.4-1.3,0.7l-1.1-1.9
	c0.6-0.4,1.3-0.7,2-0.9c0.7-0.2,1.5-0.4,2.2-0.4c1.3,0,2.3,0.4,2.9,1.1c0.7,0.7,1,1.8,1,3.4v5.7h-2.4l-0.2-1h-0.1
	c-0.4,0.4-0.9,0.7-1.3,0.9C224.8,126.1,224.3,126.2,223.7,126.2z M224.7,124c0.3,0,0.6-0.1,0.9-0.2c0.2-0.1,0.5-0.4,0.8-0.6v-1.7
	c-1,0.1-1.8,0.4-2.2,0.6c-0.4,0.3-0.6,0.6-0.6,1c0,0.3,0.1,0.6,0.3,0.7C224.1,123.9,224.4,124,224.7,124z M235.2,126.2
	c-0.6,0-1.1-0.1-1.6-0.3c-0.4-0.2-0.8-0.4-1.1-0.8c-0.3-0.3-0.5-0.7-0.6-1.2c-0.1-0.5-0.2-1-0.2-1.6v-4h-1.4v-2.2l1.5-0.1l0.3-2.6
	h2.4v2.6h2.4v2.3h-2.4v4c0,0.6,0.1,1,0.3,1.2c0.2,0.2,0.6,0.4,0.9,0.4c0.2,0,0.3,0,0.5-0.1c0.2,0,0.3-0.1,0.5-0.1l0.5,2.1
	c-0.3,0.1-0.6,0.2-0.9,0.2C236.1,126.2,235.7,126.2,235.2,126.2z M241.2,126.2c-0.5,0-0.9-0.1-1.2-0.2c-0.4-0.1-0.7-0.4-0.9-0.6
	c-0.3-0.3-0.5-0.6-0.6-1c-0.1-0.4-0.2-0.8-0.2-1.2c0-1,0.4-1.9,1.3-2.4c0.9-0.6,2.3-1,4.3-1.2c0-0.4-0.2-0.8-0.4-1
	c-0.2-0.3-0.6-0.4-1.2-0.4c-0.4,0-0.9,0.1-1.3,0.2c-0.4,0.2-0.9,0.4-1.3,0.7l-1.1-1.9c0.6-0.4,1.3-0.7,2-0.9
	c0.7-0.2,1.5-0.4,2.2-0.4c1.3,0,2.3,0.4,2.9,1.1c0.7,0.7,1,1.8,1,3.4v5.7h-2.4l-0.2-1H244c-0.4,0.4-0.9,0.7-1.3,0.9
	C242.2,126.1,241.7,126.2,241.2,126.2z M242.2,124c0.3,0,0.6-0.1,0.9-0.2c0.2-0.1,0.5-0.4,0.8-0.6v-1.7c-1,0.1-1.8,0.4-2.2,0.6
	c-0.4,0.3-0.6,0.6-0.6,1c0,0.3,0.1,0.6,0.3,0.7C241.5,123.9,241.8,124,242.2,124z M254.4,126.2c-0.4,0-0.9-0.1-1.3-0.3
	c-0.4-0.2-0.9-0.6-1.2-1h-0.1l-0.2,1.1h-2.3v-14h2.9v3.4l-0.1,1.5c0.4-0.3,0.8-0.6,1.2-0.8c0.5-0.2,0.9-0.3,1.4-0.3
	c0.6,0,1.1,0.1,1.6,0.4c0.5,0.2,0.9,0.6,1.2,1c0.3,0.4,0.6,1,0.8,1.6c0.2,0.6,0.3,1.3,0.3,2.1c0,0.9-0.1,1.6-0.4,2.3
	c-0.2,0.7-0.5,1.2-0.9,1.7c-0.4,0.5-0.8,0.8-1.3,1C255.5,126.1,254.9,126.2,254.4,126.2z M253.7,123.8c0.5,0,0.9-0.2,1.3-0.7
	c0.4-0.5,0.5-1.2,0.5-2.2c0-1.8-0.6-2.7-1.7-2.7c-0.6,0-1.2,0.3-1.7,0.9v4.1c0.3,0.2,0.5,0.4,0.8,0.5
	C253.2,123.8,253.5,123.8,253.7,123.8z M263,126.2c-0.5,0-0.9-0.1-1.2-0.2c-0.4-0.1-0.7-0.4-0.9-0.6c-0.3-0.3-0.5-0.6-0.6-1
	c-0.1-0.4-0.2-0.8-0.2-1.2c0-1,0.4-1.9,1.3-2.4c0.9-0.6,2.3-1,4.3-1.2c0-0.4-0.2-0.8-0.4-1c-0.2-0.3-0.6-0.4-1.2-0.4
	c-0.4,0-0.9,0.1-1.3,0.2c-0.4,0.2-0.9,0.4-1.3,0.7l-1.1-1.9c0.6-0.4,1.3-0.7,2-0.9c0.7-0.2,1.5-0.4,2.2-0.4c1.3,0,2.3,0.4,2.9,1.1
	c0.7,0.7,1,1.8,1,3.4v5.7h-2.4l-0.2-1h-0.1c-0.4,0.4-0.9,0.7-1.3,0.9C264,126.1,263.5,126.2,263,126.2z M264,124
	c0.3,0,0.6-0.1,0.9-0.2c0.2-0.1,0.5-0.4,0.8-0.6v-1.7c-1,0.1-1.8,0.4-2.2,0.6c-0.4,0.3-0.6,0.6-0.6,1c0,0.3,0.1,0.6,0.3,0.7
	C263.3,123.9,263.6,124,264,124z M273.9,126.2c-0.7,0-1.3-0.1-2-0.4c-0.7-0.3-1.3-0.6-1.8-1l1.3-1.8c0.5,0.3,0.9,0.6,1.3,0.8
	c0.4,0.2,0.8,0.3,1.3,0.3c0.4,0,0.8-0.1,1-0.2c0.2-0.1,0.3-0.4,0.3-0.6c0-0.2-0.1-0.3-0.2-0.4c-0.1-0.1-0.3-0.3-0.5-0.4
	c-0.2-0.1-0.4-0.2-0.6-0.3c-0.2-0.1-0.5-0.2-0.7-0.3c-0.3-0.1-0.6-0.3-0.9-0.4c-0.3-0.2-0.6-0.4-0.8-0.6c-0.3-0.2-0.5-0.5-0.6-0.8
	c-0.2-0.3-0.2-0.7-0.2-1.1c0-0.5,0.1-0.9,0.3-1.3c0.2-0.4,0.4-0.7,0.8-1c0.3-0.3,0.7-0.5,1.2-0.6c0.5-0.2,1-0.2,1.6-0.2
	c0.8,0,1.4,0.1,2,0.4c0.6,0.3,1.1,0.5,1.5,0.9l-1.3,1.8c-0.4-0.3-0.7-0.5-1.1-0.6c-0.3-0.1-0.7-0.2-1-0.2c-0.7,0-1.1,0.3-1.1,0.8
	c0,0.2,0.1,0.3,0.2,0.4c0.1,0.1,0.2,0.2,0.4,0.3c0.2,0.1,0.4,0.2,0.6,0.3c0.2,0.1,0.5,0.2,0.7,0.3c0.3,0.1,0.6,0.3,0.9,0.4
	c0.3,0.1,0.6,0.3,0.9,0.6c0.3,0.2,0.5,0.5,0.6,0.8c0.2,0.3,0.2,0.7,0.2,1.2c0,0.5-0.1,0.9-0.3,1.3c-0.2,0.4-0.4,0.7-0.8,1
	c-0.3,0.3-0.8,0.5-1.3,0.7C275.2,126.2,274.6,126.2,273.9,126.2z M284.3,126.2c-0.7,0-1.4-0.1-2-0.3c-0.6-0.2-1.1-0.6-1.6-1
	c-0.5-0.5-0.8-1-1.1-1.6c-0.3-0.6-0.4-1.4-0.4-2.2c0-0.8,0.1-1.5,0.4-2.2c0.3-0.7,0.6-1.2,1-1.6c0.4-0.5,0.9-0.8,1.5-1
	c0.6-0.2,1.1-0.4,1.7-0.4c0.7,0,1.3,0.1,1.8,0.4c0.5,0.2,1,0.6,1.3,1c0.4,0.4,0.6,0.9,0.8,1.5c0.2,0.6,0.3,1.2,0.3,1.9
	c0,0.3,0,0.5,0,0.8c0,0.2-0.1,0.4-0.1,0.5h-5.9c0.1,0.7,0.4,1.3,0.9,1.6c0.5,0.3,1,0.5,1.7,0.5c0.7,0,1.4-0.2,2.1-0.7l1,1.8
	c-0.5,0.3-1.1,0.6-1.7,0.8C285.5,126.1,284.9,126.2,284.3,126.2z M282.1,120h3.6c0-0.6-0.1-1-0.4-1.4c-0.3-0.3-0.7-0.5-1.3-0.5
	c-0.5,0-0.9,0.2-1.2,0.5C282.4,118.8,282.2,119.3,282.1,120z M293.1,126.2c-0.7,0-1.3-0.1-2-0.4c-0.7-0.3-1.3-0.6-1.8-1l1.3-1.8
	c0.5,0.3,0.9,0.6,1.3,0.8c0.4,0.2,0.8,0.3,1.3,0.3c0.4,0,0.8-0.1,1-0.2c0.2-0.1,0.3-0.4,0.3-0.6c0-0.2-0.1-0.3-0.2-0.4
	c-0.1-0.1-0.3-0.3-0.5-0.4c-0.2-0.1-0.4-0.2-0.6-0.3c-0.2-0.1-0.5-0.2-0.7-0.3c-0.3-0.1-0.6-0.3-0.9-0.4c-0.3-0.2-0.6-0.4-0.8-0.6
	c-0.3-0.2-0.5-0.5-0.6-0.8c-0.2-0.3-0.2-0.7-0.2-1.1c0-0.5,0.1-0.9,0.3-1.3c0.2-0.4,0.4-0.7,0.8-1c0.3-0.3,0.7-0.5,1.2-0.6
	c0.5-0.2,1-0.2,1.6-0.2c0.8,0,1.4,0.1,2,0.4c0.6,0.3,1.1,0.5,1.5,0.9l-1.3,1.8c-0.4-0.3-0.7-0.5-1.1-0.6c-0.3-0.1-0.7-0.2-1-0.2
	c-0.7,0-1.1,0.3-1.1,0.8c0,0.2,0.1,0.3,0.2,0.4c0.1,0.1,0.2,0.2,0.4,0.3c0.2,0.1,0.4,0.2,0.6,0.3c0.2,0.1,0.5,0.2,0.7,0.3
	c0.3,0.1,0.6,0.3,0.9,0.4c0.3,0.1,0.6,0.3,0.9,0.6c0.3,0.2,0.5,0.5,0.6,0.8c0.2,0.3,0.2,0.7,0.2,1.2c0,0.5-0.1,0.9-0.3,1.3
	c-0.2,0.4-0.4,0.7-0.8,1c-0.3,0.3-0.8,0.5-1.3,0.7C294.4,126.2,293.8,126.2,293.1,126.2z"/>
<path class="st4" d="M464.7,304v-13h3.7c1,0,1.9,0.1,2.7,0.4c0.8,0.3,1.5,0.6,2.1,1.2c0.6,0.5,1,1.2,1.3,2c0.3,0.8,0.5,1.8,0.5,2.9
	c0,1.1-0.2,2.1-0.5,2.9c-0.3,0.8-0.7,1.5-1.3,2.1c-0.6,0.5-1.2,0.9-2,1.2c-0.8,0.3-1.6,0.4-2.6,0.4H464.7z M467.6,301.6h0.6
	c0.6,0,1.1-0.1,1.5-0.2c0.5-0.1,0.8-0.4,1.2-0.7c0.3-0.3,0.6-0.8,0.7-1.3c0.2-0.5,0.3-1.2,0.3-2c0-0.8-0.1-1.4-0.3-1.9
	c-0.2-0.5-0.4-1-0.7-1.3c-0.3-0.3-0.7-0.5-1.2-0.7c-0.5-0.1-1-0.2-1.5-0.2h-0.6V301.6z M479.6,304.2c-0.5,0-0.9-0.1-1.2-0.2
	c-0.4-0.1-0.7-0.4-0.9-0.6c-0.3-0.3-0.5-0.6-0.6-1c-0.1-0.4-0.2-0.8-0.2-1.2c0-1,0.4-1.9,1.3-2.4c0.9-0.6,2.3-1,4.3-1.2
	c0-0.4-0.2-0.8-0.4-1c-0.2-0.3-0.6-0.4-1.2-0.4c-0.4,0-0.9,0.1-1.3,0.2c-0.4,0.2-0.9,0.4-1.3,0.7l-1.1-1.9c0.6-0.4,1.3-0.7,2-0.9
	c0.7-0.2,1.5-0.4,2.2-0.4c1.3,0,2.3,0.4,2.9,1.1c0.7,0.7,1,1.8,1,3.4v5.7h-2.4l-0.2-1h-0.1c-0.4,0.4-0.9,0.7-1.3,0.9
	C480.7,304.1,480.2,304.2,479.6,304.2z M480.6,302c0.3,0,0.6-0.1,0.9-0.2s0.5-0.4,0.8-0.6v-1.7c-1,0.1-1.8,0.4-2.2,0.6
	s-0.6,0.6-0.6,1c0,0.3,0.1,0.6,0.3,0.7C480,301.9,480.3,302,480.6,302z M491.2,304.2c-0.6,0-1.1-0.1-1.6-0.3
	c-0.4-0.2-0.8-0.4-1.1-0.8c-0.3-0.3-0.5-0.7-0.6-1.2c-0.1-0.5-0.2-1-0.2-1.6v-4h-1.4v-2.2l1.5-0.1l0.3-2.6h2.4v2.6h2.4v2.3h-2.4v4
	c0,0.6,0.1,1,0.3,1.2c0.2,0.2,0.6,0.4,0.9,0.4c0.2,0,0.3,0,0.5-0.1c0.2,0,0.3-0.1,0.5-0.1l0.5,2.1c-0.3,0.1-0.6,0.2-0.9,0.2
	C492.1,304.2,491.6,304.2,491.2,304.2z M497.1,304.2c-0.5,0-0.9-0.1-1.2-0.2c-0.4-0.1-0.7-0.4-0.9-0.6c-0.3-0.3-0.5-0.6-0.6-1
	c-0.1-0.4-0.2-0.8-0.2-1.2c0-1,0.4-1.9,1.3-2.4c0.9-0.6,2.3-1,4.3-1.2c0-0.4-0.2-0.8-0.4-1c-0.2-0.3-0.6-0.4-1.2-0.4
	c-0.4,0-0.9,0.1-1.3,0.2c-0.4,0.2-0.9,0.4-1.3,0.7l-1.1-1.9c0.6-0.4,1.3-0.7,2-0.9c0.7-0.2,1.5-0.4,2.2-0.4c1.3,0,2.3,0.4,2.9,1.1
	c0.7,0.7,1,1.8,1,3.4v5.7h-2.4l-0.2-1H500c-0.4,0.4-0.9,0.7-1.3,0.9C498.2,304.1,497.7,304.2,497.1,304.2z M498.1,302
	c0.3,0,0.6-0.1,0.9-0.2s0.5-0.4,0.8-0.6v-1.7c-1,0.1-1.8,0.4-2.2,0.6s-0.6,0.6-0.6,1c0,0.3,0.1,0.6,0.3,0.7
	C497.5,301.9,497.8,302,498.1,302z M432.9,328l-2.4-13h3l0.9,6.1c0.1,0.7,0.2,1.4,0.3,2.1c0.1,0.7,0.2,1.4,0.3,2.1h0.1
	c0.1-0.7,0.3-1.4,0.4-2.1c0.1-0.7,0.3-1.4,0.4-2.1l1.4-6.1h2.5l1.4,6.1c0.1,0.7,0.3,1.3,0.4,2c0.1,0.7,0.3,1.4,0.4,2.1h0.1
	c0.1-0.7,0.2-1.4,0.3-2.1c0.1-0.7,0.2-1.4,0.3-2l0.9-6.1h2.8l-2.3,13h-3.7l-1.3-5.9c-0.1-0.5-0.2-1-0.3-1.5c-0.1-0.5-0.2-1-0.2-1.5
	h-0.1c-0.1,0.5-0.2,1-0.3,1.5c-0.1,0.5-0.2,1-0.3,1.5l-1.2,5.9H432.9z M450,328.2c-0.5,0-0.9-0.1-1.2-0.2c-0.4-0.1-0.7-0.4-0.9-0.6
	c-0.3-0.3-0.5-0.6-0.6-1c-0.1-0.4-0.2-0.8-0.2-1.2c0-1,0.4-1.9,1.3-2.4c0.9-0.6,2.3-1,4.3-1.2c0-0.4-0.2-0.8-0.4-1
	c-0.2-0.3-0.6-0.4-1.2-0.4c-0.4,0-0.9,0.1-1.3,0.2c-0.4,0.2-0.9,0.4-1.3,0.7l-1.1-1.9c0.6-0.4,1.3-0.7,2-0.9
	c0.7-0.2,1.5-0.4,2.2-0.4c1.3,0,2.3,0.4,2.9,1.1c0.7,0.7,1,1.8,1,3.4v5.7h-2.4l-0.2-1h-0.1c-0.4,0.4-0.9,0.7-1.3,0.9
	C451.1,328.1,450.6,328.2,450,328.2z M451,326c0.3,0,0.6-0.1,0.9-0.2c0.2-0.1,0.5-0.4,0.8-0.6v-1.7c-1,0.1-1.8,0.4-2.2,0.6
	c-0.4,0.3-0.6,0.6-0.6,1c0,0.3,0.1,0.6,0.3,0.7C450.4,325.9,450.6,326,451,326z M458,328v-9.9h2.4l0.2,1.7h0.1
	c0.4-0.7,0.8-1.2,1.3-1.5c0.5-0.3,1-0.5,1.5-0.5c0.3,0,0.5,0,0.7,0.1c0.2,0,0.4,0.1,0.5,0.1l-0.5,2.5c-0.2-0.1-0.4-0.1-0.5-0.1
	c-0.2,0-0.3,0-0.6,0c-0.4,0-0.8,0.1-1.2,0.4c-0.4,0.3-0.7,0.7-1,1.4v5.8H458z M470.3,328.2c-0.7,0-1.4-0.1-2-0.3
	c-0.6-0.2-1.1-0.6-1.6-1c-0.5-0.5-0.8-1-1.1-1.6c-0.3-0.6-0.4-1.4-0.4-2.2c0-0.8,0.1-1.5,0.4-2.2c0.3-0.7,0.6-1.2,1-1.6
	c0.4-0.5,0.9-0.8,1.5-1c0.6-0.2,1.1-0.4,1.7-0.4c0.7,0,1.3,0.1,1.8,0.4c0.5,0.2,1,0.6,1.3,1c0.4,0.4,0.6,0.9,0.8,1.5
	c0.2,0.6,0.3,1.2,0.3,1.9c0,0.3,0,0.5,0,0.8c0,0.2-0.1,0.4-0.1,0.5h-5.9c0.1,0.7,0.4,1.3,0.9,1.6c0.5,0.3,1,0.5,1.7,0.5
	c0.7,0,1.4-0.2,2.1-0.7l1,1.8c-0.5,0.3-1.1,0.6-1.7,0.8C471.5,328.1,470.9,328.2,470.3,328.2z M468.1,322h3.6c0-0.6-0.1-1-0.4-1.4
	c-0.3-0.3-0.7-0.5-1.3-0.5c-0.5,0-0.9,0.2-1.2,0.5C468.4,320.8,468.2,321.3,468.1,322z M476.2,328v-14h2.9v3.4l-0.1,1.8
	c0.4-0.3,0.8-0.6,1.3-0.9c0.5-0.3,1.1-0.4,1.8-0.4c1.1,0,1.9,0.4,2.3,1.1c0.5,0.7,0.7,1.7,0.7,2.9v6.2h-2.9v-5.8
	c0-0.7-0.1-1.2-0.3-1.5c-0.2-0.3-0.5-0.4-0.9-0.4c-0.4,0-0.7,0.1-1,0.3c-0.3,0.2-0.6,0.4-0.9,0.7v6.7H476.2z M491.9,328.2
	c-0.6,0-1.2-0.1-1.8-0.3c-0.6-0.2-1.1-0.6-1.6-1c-0.4-0.4-0.8-1-1.1-1.6c-0.3-0.7-0.4-1.4-0.4-2.2s0.1-1.6,0.4-2.2
	c0.3-0.7,0.6-1.2,1.1-1.6c0.5-0.4,1-0.8,1.6-1c0.6-0.2,1.2-0.4,1.8-0.4c0.6,0,1.2,0.1,1.8,0.4c0.6,0.2,1.1,0.6,1.5,1
	c0.5,0.4,0.8,1,1.1,1.6c0.3,0.6,0.4,1.4,0.4,2.2s-0.1,1.6-0.4,2.2c-0.3,0.6-0.6,1.2-1.1,1.6c-0.4,0.4-1,0.8-1.5,1
	C493.1,328.1,492.5,328.2,491.9,328.2z M491.9,325.9c0.6,0,1.1-0.3,1.4-0.8c0.3-0.5,0.5-1.2,0.5-2.1s-0.2-1.6-0.5-2.1
	c-0.3-0.5-0.8-0.8-1.4-0.8c-0.6,0-1.1,0.3-1.4,0.8c-0.3,0.5-0.4,1.2-0.4,2.1s0.1,1.6,0.4,2.1C490.8,325.6,491.2,325.9,491.9,325.9z
	 M501.7,328.2c-1.1,0-1.9-0.4-2.4-1.1c-0.5-0.7-0.7-1.7-0.7-2.9v-6.2h2.9v5.8c0,0.7,0.1,1.2,0.3,1.5c0.2,0.3,0.5,0.4,0.9,0.4
	c0.4,0,0.7-0.1,0.9-0.3c0.3-0.2,0.5-0.5,0.8-0.8v-6.6h2.9v9.9h-2.4l-0.2-1.4h-0.1c-0.4,0.5-0.9,0.9-1.4,1.2
	C502.9,328.1,502.3,328.2,501.7,328.2z M513,328.2c-0.7,0-1.3-0.1-2-0.4c-0.7-0.3-1.3-0.6-1.8-1l1.3-1.8c0.5,0.3,0.9,0.6,1.3,0.8
	c0.4,0.2,0.8,0.3,1.3,0.3c0.4,0,0.8-0.1,1-0.2c0.2-0.1,0.3-0.4,0.3-0.6c0-0.2-0.1-0.3-0.2-0.4c-0.1-0.1-0.3-0.3-0.5-0.4
	c-0.2-0.1-0.4-0.2-0.6-0.3c-0.2-0.1-0.5-0.2-0.7-0.3c-0.3-0.1-0.6-0.3-0.9-0.4s-0.6-0.4-0.8-0.6c-0.3-0.2-0.5-0.5-0.6-0.8
	c-0.2-0.3-0.2-0.7-0.2-1.1c0-0.5,0.1-0.9,0.3-1.3c0.2-0.4,0.4-0.7,0.8-1c0.3-0.3,0.7-0.5,1.2-0.6c0.5-0.2,1-0.2,1.6-0.2
	c0.8,0,1.4,0.1,2,0.4c0.6,0.3,1.1,0.5,1.5,0.9l-1.3,1.8c-0.4-0.3-0.7-0.5-1.1-0.6s-0.7-0.2-1-0.2c-0.7,0-1.1,0.3-1.1,0.8
	c0,0.2,0.1,0.3,0.2,0.4c0.1,0.1,0.2,0.2,0.4,0.3c0.2,0.1,0.4,0.2,0.6,0.3c0.2,0.1,0.5,0.2,0.7,0.3c0.3,0.1,0.6,0.3,0.9,0.4
	c0.3,0.1,0.6,0.3,0.9,0.6c0.3,0.2,0.5,0.5,0.6,0.8c0.2,0.3,0.2,0.7,0.2,1.2s-0.1,0.9-0.3,1.3c-0.2,0.4-0.4,0.7-0.8,1
	c-0.3,0.3-0.8,0.5-1.3,0.7C514.2,328.2,513.6,328.2,513,328.2z M523.4,328.2c-0.7,0-1.4-0.1-2-0.3c-0.6-0.2-1.1-0.6-1.6-1
	c-0.5-0.5-0.8-1-1.1-1.6c-0.3-0.6-0.4-1.4-0.4-2.2c0-0.8,0.1-1.5,0.4-2.2c0.3-0.7,0.6-1.2,1-1.6c0.4-0.5,0.9-0.8,1.5-1
	c0.6-0.2,1.1-0.4,1.7-0.4c0.7,0,1.3,0.1,1.8,0.4c0.5,0.2,1,0.6,1.3,1c0.4,0.4,0.6,0.9,0.8,1.5c0.2,0.6,0.3,1.2,0.3,1.9
	c0,0.3,0,0.5,0,0.8c0,0.2-0.1,0.4-0.1,0.5h-5.9c0.1,0.7,0.4,1.3,0.9,1.6c0.5,0.3,1,0.5,1.7,0.5c0.7,0,1.4-0.2,2.1-0.7l1,1.8
	c-0.5,0.3-1.1,0.6-1.7,0.8C524.6,328.1,524,328.2,523.4,328.2z M521.2,322h3.6c0-0.6-0.1-1-0.4-1.4c-0.3-0.3-0.7-0.5-1.3-0.5
	c-0.5,0-0.9,0.2-1.2,0.5C521.5,320.8,521.3,321.3,521.2,322z M532.2,328.2c-0.7,0-1.3-0.1-2-0.4c-0.7-0.3-1.3-0.6-1.8-1l1.3-1.8
	c0.5,0.3,0.9,0.6,1.3,0.8c0.4,0.2,0.8,0.3,1.3,0.3c0.4,0,0.8-0.1,1-0.2c0.2-0.1,0.3-0.4,0.3-0.6c0-0.2-0.1-0.3-0.2-0.4
	c-0.1-0.1-0.3-0.3-0.5-0.4c-0.2-0.1-0.4-0.2-0.6-0.3c-0.2-0.1-0.5-0.2-0.7-0.3c-0.3-0.1-0.6-0.3-0.9-0.4c-0.3-0.2-0.6-0.4-0.8-0.6
	c-0.3-0.2-0.5-0.5-0.6-0.8c-0.2-0.3-0.2-0.7-0.2-1.1c0-0.5,0.1-0.9,0.3-1.3c0.2-0.4,0.4-0.7,0.8-1c0.3-0.3,0.7-0.5,1.2-0.6
	c0.5-0.2,1-0.2,1.6-0.2c0.8,0,1.4,0.1,2,0.4c0.6,0.3,1.1,0.5,1.5,0.9l-1.3,1.8c-0.4-0.3-0.7-0.5-1.1-0.6c-0.3-0.1-0.7-0.2-1-0.2
	c-0.7,0-1.1,0.3-1.1,0.8c0,0.2,0.1,0.3,0.2,0.4c0.1,0.1,0.2,0.2,0.4,0.3c0.2,0.1,0.4,0.2,0.6,0.3c0.2,0.1,0.5,0.2,0.7,0.3
	c0.3,0.1,0.6,0.3,0.9,0.4c0.3,0.1,0.6,0.3,0.9,0.6c0.3,0.2,0.5,0.5,0.6,0.8c0.2,0.3,0.2,0.7,0.2,1.2s-0.1,0.9-0.3,1.3
	c-0.2,0.4-0.4,0.7-0.8,1c-0.3,0.3-0.8,0.5-1.3,0.7C533.4,328.2,532.9,328.2,532.2,328.2z"/>
<path class="st4" d="M204.9,160.2c-0.5,0-1-0.1-1.5-0.3c-0.4-0.2-0.8-0.5-1.2-0.8c-0.3-0.4-0.6-0.8-0.8-1.3
	c-0.2-0.5-0.3-1.1-0.3-1.7s0.1-1.2,0.3-1.7c0.2-0.5,0.5-0.9,0.8-1.3c0.3-0.4,0.7-0.6,1.1-0.8c0.4-0.2,0.8-0.3,1.3-0.3
	c0.5,0,0.9,0.1,1.3,0.3c0.4,0.2,0.7,0.4,1,0.7c0.3,0.3,0.5,0.7,0.6,1.2c0.1,0.4,0.2,0.9,0.2,1.5c0,0.1,0,0.3,0,0.4
	c0,0.1,0,0.2,0,0.3h-5.2c0.1,0.8,0.3,1.5,0.8,2c0.5,0.5,1.1,0.7,1.8,0.7c0.4,0,0.7-0.1,1-0.2c0.3-0.1,0.6-0.3,0.9-0.4l0.5,0.9
	c-0.3,0.2-0.7,0.4-1.1,0.6C205.9,160.1,205.4,160.2,204.9,160.2z M202.4,155.5h4.2c0-0.8-0.2-1.4-0.5-1.8c-0.3-0.4-0.8-0.6-1.4-0.6
	c-0.3,0-0.5,0.1-0.8,0.2c-0.2,0.1-0.5,0.3-0.7,0.5c-0.2,0.2-0.4,0.5-0.5,0.8C202.6,154.8,202.5,155.1,202.4,155.5z M210.3,160.2
	c-0.3,0-0.5-0.1-0.7-0.3c-0.2-0.2-0.3-0.4-0.3-0.7c0-0.3,0.1-0.6,0.3-0.7c0.2-0.2,0.4-0.3,0.7-0.3c0.3,0,0.5,0.1,0.7,0.3
	c0.2,0.2,0.3,0.4,0.3,0.7c0,0.3-0.1,0.5-0.3,0.7C210.8,160.1,210.6,160.2,210.3,160.2z M216.3,163.6c-0.5,0-0.9,0-1.3-0.1
	c-0.4-0.1-0.7-0.2-1-0.4c-0.3-0.2-0.5-0.4-0.7-0.7c-0.1-0.3-0.2-0.6-0.2-0.9c0-0.3,0.1-0.6,0.3-0.9c0.2-0.3,0.5-0.6,0.8-0.8v-0.1
	c-0.2-0.1-0.4-0.3-0.5-0.5c-0.1-0.2-0.2-0.5-0.2-0.8c0-0.3,0.1-0.6,0.3-0.9c0.2-0.2,0.4-0.4,0.6-0.6v-0.1c-0.3-0.2-0.5-0.5-0.7-0.8
	c-0.2-0.4-0.3-0.8-0.3-1.2c0-0.4,0.1-0.8,0.2-1.2c0.2-0.3,0.4-0.6,0.6-0.9c0.3-0.2,0.6-0.4,0.9-0.6c0.4-0.1,0.7-0.2,1.1-0.2
	c0.2,0,0.4,0,0.6,0.1c0.2,0,0.4,0.1,0.5,0.1h2.7v1h-1.6c0.2,0.2,0.3,0.4,0.4,0.7c0.1,0.3,0.2,0.6,0.2,0.9c0,0.4-0.1,0.8-0.2,1.1
	c-0.1,0.3-0.4,0.6-0.6,0.8c-0.3,0.2-0.6,0.4-0.9,0.5c-0.3,0.1-0.7,0.2-1.1,0.2c-0.2,0-0.4,0-0.6-0.1c-0.2-0.1-0.4-0.1-0.6-0.2
	c-0.1,0.1-0.3,0.3-0.4,0.4c-0.1,0.1-0.1,0.3-0.1,0.5c0,0.2,0.1,0.4,0.3,0.6s0.6,0.2,1.1,0.2h1.5c0.9,0,1.6,0.1,2,0.4
	c0.5,0.3,0.7,0.8,0.7,1.4c0,0.4-0.1,0.7-0.3,1c-0.2,0.3-0.4,0.6-0.8,0.9c-0.3,0.2-0.8,0.4-1.2,0.6
	C217.4,163.5,216.9,163.6,216.3,163.6z M216.3,156.7c0.2,0,0.4,0,0.6-0.1c0.2-0.1,0.4-0.2,0.5-0.4c0.2-0.2,0.3-0.4,0.4-0.6
	c0.1-0.2,0.1-0.5,0.1-0.8c0-0.6-0.2-1-0.5-1.3c-0.3-0.3-0.7-0.5-1.2-0.5c-0.5,0-0.8,0.2-1.2,0.5c-0.3,0.3-0.5,0.8-0.5,1.3
	c0,0.3,0,0.5,0.1,0.8c0.1,0.2,0.2,0.4,0.4,0.6c0.2,0.2,0.3,0.3,0.5,0.4C215.8,156.6,216,156.7,216.3,156.7z M216.5,162.7
	c0.4,0,0.7,0,1-0.1c0.3-0.1,0.6-0.2,0.8-0.4c0.2-0.1,0.4-0.3,0.5-0.5c0.1-0.2,0.2-0.4,0.2-0.6c0-0.4-0.1-0.6-0.4-0.8
	c-0.3-0.1-0.7-0.2-1.2-0.2H216c-0.1,0-0.3,0-0.5,0c-0.2,0-0.3,0-0.5-0.1c-0.3,0.2-0.5,0.4-0.6,0.6c-0.1,0.2-0.2,0.4-0.2,0.7
	c0,0.4,0.2,0.7,0.6,1C215.2,162.5,215.8,162.7,216.5,162.7z M222.4,160.2c-0.3,0-0.5-0.1-0.7-0.3c-0.2-0.2-0.3-0.4-0.3-0.7
	c0-0.3,0.1-0.6,0.3-0.7c0.2-0.2,0.4-0.3,0.7-0.3c0.3,0,0.5,0.1,0.7,0.3c0.2,0.2,0.3,0.4,0.3,0.7c0,0.3-0.1,0.5-0.3,0.7
	C222.9,160.1,222.6,160.2,222.4,160.2z M229,160v-10.5h3c0.6,0,1.1,0.1,1.6,0.2c0.5,0.1,0.9,0.3,1.2,0.5c0.3,0.2,0.6,0.5,0.8,0.9
	s0.3,0.9,0.3,1.5c0,0.6-0.1,1-0.3,1.4c-0.2,0.4-0.4,0.7-0.8,1c-0.3,0.3-0.8,0.5-1.2,0.6c-0.5,0.1-1,0.2-1.6,0.2h-1.7v4.2H229z
	 M230.3,154.8h1.6c0.9,0,1.6-0.2,2-0.5c0.4-0.4,0.7-0.9,0.7-1.6c0-0.8-0.2-1.3-0.7-1.6c-0.5-0.3-1.1-0.4-2.1-0.4h-1.5V154.8z
	 M240.6,160.2c-0.5,0-0.9-0.1-1.4-0.3c-0.4-0.2-0.8-0.4-1.1-0.8c-0.3-0.4-0.6-0.8-0.8-1.3c-0.2-0.5-0.3-1.1-0.3-1.7
	c0-0.7,0.1-1.2,0.3-1.7c0.2-0.5,0.5-0.9,0.8-1.3c0.3-0.4,0.7-0.6,1.1-0.8c0.4-0.2,0.9-0.3,1.4-0.3s0.9,0.1,1.4,0.3
	c0.4,0.2,0.8,0.4,1.2,0.8c0.3,0.4,0.6,0.8,0.8,1.3c0.2,0.5,0.3,1.1,0.3,1.7c0,0.6-0.1,1.2-0.3,1.7c-0.2,0.5-0.5,0.9-0.8,1.3
	c-0.3,0.3-0.7,0.6-1.2,0.8C241.5,160.1,241.1,160.2,240.6,160.2z M240.6,159.1c0.3,0,0.6-0.1,0.9-0.2c0.3-0.1,0.5-0.4,0.7-0.6
	c0.2-0.3,0.4-0.6,0.5-0.9c0.1-0.4,0.2-0.8,0.2-1.2c0-0.4-0.1-0.9-0.2-1.2c-0.1-0.4-0.3-0.7-0.5-1c-0.2-0.3-0.4-0.5-0.7-0.6
	c-0.3-0.1-0.6-0.2-0.9-0.2c-0.3,0-0.6,0.1-0.9,0.2c-0.3,0.1-0.5,0.3-0.7,0.6c-0.2,0.3-0.3,0.6-0.4,1c-0.1,0.4-0.2,0.8-0.2,1.2
	c0,0.4,0.1,0.9,0.2,1.2c0.1,0.4,0.3,0.7,0.4,0.9c0.2,0.3,0.4,0.5,0.7,0.6C240,159,240.3,159.1,240.6,159.1z M248.3,160.2
	c-0.6,0-1.1-0.1-1.6-0.3c-0.5-0.2-0.9-0.5-1.3-0.8l0.7-0.9c0.3,0.3,0.7,0.5,1,0.7c0.4,0.2,0.8,0.3,1.2,0.3c0.5,0,0.9-0.1,1.2-0.4
	s0.4-0.5,0.4-0.9c0-0.2-0.1-0.4-0.2-0.5c-0.1-0.1-0.2-0.3-0.4-0.4c-0.2-0.1-0.3-0.2-0.6-0.3c-0.2-0.1-0.4-0.2-0.6-0.3
	c-0.3-0.1-0.6-0.2-0.8-0.3c-0.3-0.1-0.5-0.3-0.8-0.4c-0.2-0.2-0.4-0.4-0.5-0.6c-0.1-0.2-0.2-0.5-0.2-0.8c0-0.3,0.1-0.6,0.2-0.9
	c0.1-0.3,0.3-0.5,0.5-0.7c0.2-0.2,0.5-0.4,0.8-0.5c0.3-0.1,0.7-0.2,1.1-0.2c0.5,0,0.9,0.1,1.3,0.3c0.4,0.2,0.8,0.4,1.1,0.6l-0.6,0.8
	c-0.3-0.2-0.5-0.4-0.8-0.5s-0.6-0.2-0.9-0.2c-0.5,0-0.9,0.1-1.1,0.3c-0.2,0.2-0.3,0.5-0.3,0.8c0,0.2,0,0.3,0.1,0.5
	c0.1,0.1,0.2,0.2,0.4,0.4c0.2,0.1,0.3,0.2,0.5,0.3c0.2,0.1,0.4,0.2,0.7,0.2c0.3,0.1,0.6,0.2,0.8,0.3c0.3,0.1,0.5,0.3,0.8,0.4
	c0.2,0.2,0.4,0.4,0.5,0.6c0.1,0.3,0.2,0.6,0.2,0.9c0,0.3-0.1,0.6-0.2,0.9c-0.1,0.3-0.3,0.5-0.5,0.7c-0.2,0.2-0.5,0.4-0.9,0.5
	C249.1,160.1,248.7,160.2,248.3,160.2z M255.1,160.2c-0.4,0-0.8-0.1-1.1-0.2c-0.3-0.1-0.5-0.3-0.7-0.5c-0.2-0.2-0.3-0.5-0.4-0.8
	c-0.1-0.3-0.1-0.7-0.1-1.1v-4.3h-1.2v-1l1.2-0.1l0.2-2.2h1.1v2.2h2.1v1.1h-2.1v4.3c0,0.5,0.1,0.9,0.3,1.1c0.2,0.3,0.5,0.4,0.9,0.4
	c0.1,0,0.3,0,0.4-0.1s0.3-0.1,0.4-0.1l0.3,1c-0.2,0.1-0.4,0.1-0.7,0.2C255.6,160.2,255.3,160.2,255.1,160.2z M260.5,163.6
	c-0.5,0-0.9,0-1.3-0.1c-0.4-0.1-0.7-0.2-1-0.4c-0.3-0.2-0.5-0.4-0.7-0.7c-0.1-0.3-0.2-0.6-0.2-0.9c0-0.3,0.1-0.6,0.3-0.9
	c0.2-0.3,0.5-0.6,0.8-0.8v-0.1c-0.2-0.1-0.4-0.3-0.5-0.5c-0.1-0.2-0.2-0.5-0.2-0.8c0-0.3,0.1-0.6,0.3-0.9c0.2-0.2,0.4-0.4,0.6-0.6
	v-0.1c-0.3-0.2-0.5-0.5-0.7-0.8c-0.2-0.4-0.3-0.8-0.3-1.2c0-0.4,0.1-0.8,0.2-1.2c0.2-0.3,0.4-0.6,0.6-0.9c0.3-0.2,0.6-0.4,0.9-0.6
	c0.4-0.1,0.7-0.2,1.1-0.2c0.2,0,0.4,0,0.6,0.1c0.2,0,0.4,0.1,0.5,0.1h2.7v1h-1.6c0.2,0.2,0.3,0.4,0.4,0.7c0.1,0.3,0.2,0.6,0.2,0.9
	c0,0.4-0.1,0.8-0.2,1.1c-0.1,0.3-0.4,0.6-0.6,0.8c-0.3,0.2-0.6,0.4-0.9,0.5c-0.3,0.1-0.7,0.2-1.1,0.2c-0.2,0-0.4,0-0.6-0.1
	c-0.2-0.1-0.4-0.1-0.6-0.2c-0.1,0.1-0.3,0.3-0.4,0.4c-0.1,0.1-0.1,0.3-0.1,0.5c0,0.2,0.1,0.4,0.3,0.6c0.2,0.2,0.6,0.2,1.1,0.2h1.5
	c0.9,0,1.6,0.1,2,0.4c0.5,0.3,0.7,0.8,0.7,1.4c0,0.4-0.1,0.7-0.3,1c-0.2,0.3-0.4,0.6-0.8,0.9c-0.3,0.2-0.8,0.4-1.2,0.6
	C261.7,163.5,261.1,163.6,260.5,163.6z M260.5,156.7c0.2,0,0.4,0,0.6-0.1c0.2-0.1,0.4-0.2,0.5-0.4c0.2-0.2,0.3-0.4,0.4-0.6
	c0.1-0.2,0.1-0.5,0.1-0.8c0-0.6-0.2-1-0.5-1.3c-0.3-0.3-0.7-0.5-1.2-0.5c-0.5,0-0.8,0.2-1.2,0.5c-0.3,0.3-0.5,0.8-0.5,1.3
	c0,0.3,0,0.5,0.1,0.8c0.1,0.2,0.2,0.4,0.4,0.6c0.2,0.2,0.3,0.3,0.5,0.4C260.1,156.6,260.3,156.7,260.5,156.7z M260.7,162.7
	c0.4,0,0.7,0,1-0.1c0.3-0.1,0.6-0.2,0.8-0.4c0.2-0.1,0.4-0.3,0.5-0.5c0.1-0.2,0.2-0.4,0.2-0.6c0-0.4-0.1-0.6-0.4-0.8
	c-0.3-0.1-0.7-0.2-1.2-0.2h-1.3c-0.2,0-0.3,0-0.5,0c-0.2,0-0.3,0-0.5-0.1c-0.3,0.2-0.5,0.4-0.6,0.6c-0.1,0.2-0.2,0.4-0.2,0.7
	c0,0.4,0.2,0.7,0.6,1C259.4,162.5,260,162.7,260.7,162.7z M265.9,160v-7.8h1.1l0.1,1.4h0c0.3-0.5,0.6-0.9,1-1.2
	c0.4-0.3,0.8-0.4,1.2-0.4c0.3,0,0.6,0.1,0.8,0.2l-0.3,1.2c-0.1,0-0.2-0.1-0.4-0.1s-0.2,0-0.4,0c-0.3,0-0.7,0.1-1,0.4
	c-0.4,0.3-0.7,0.7-0.9,1.4v5H265.9z M274.5,160.2c-0.5,0-1-0.1-1.5-0.3c-0.4-0.2-0.8-0.5-1.2-0.8c-0.3-0.4-0.6-0.8-0.8-1.3
	c-0.2-0.5-0.3-1.1-0.3-1.7s0.1-1.2,0.3-1.7c0.2-0.5,0.5-0.9,0.8-1.3c0.3-0.4,0.7-0.6,1.1-0.8c0.4-0.2,0.8-0.3,1.3-0.3
	c0.5,0,0.9,0.1,1.3,0.3c0.4,0.2,0.7,0.4,1,0.7c0.3,0.3,0.5,0.7,0.6,1.2c0.1,0.4,0.2,0.9,0.2,1.5c0,0.1,0,0.3,0,0.4
	c0,0.1,0,0.2,0,0.3H272c0.1,0.8,0.3,1.5,0.8,2c0.5,0.5,1.1,0.7,1.8,0.7c0.4,0,0.7-0.1,1-0.2c0.3-0.1,0.6-0.3,0.9-0.4l0.5,0.9
	c-0.3,0.2-0.7,0.4-1.1,0.6C275.5,160.1,275,160.2,274.5,160.2z M272,155.5h4.2c0-0.8-0.2-1.4-0.5-1.8c-0.3-0.4-0.8-0.6-1.4-0.6
	c-0.3,0-0.5,0.1-0.8,0.2c-0.2,0.1-0.5,0.3-0.7,0.5c-0.2,0.2-0.4,0.5-0.5,0.8C272.2,154.8,272.1,155.1,272,155.5z M282,160.2
	c-0.7,0-1.4-0.1-2-0.4c-0.6-0.3-1.2-0.7-1.6-1.1l0.8-0.9c0.4,0.4,0.8,0.7,1.3,1c0.5,0.2,1,0.4,1.6,0.4c0.7,0,1.2-0.2,1.6-0.5
	c0.4-0.3,0.6-0.7,0.6-1.2c0-0.3,0-0.5-0.1-0.7c-0.1-0.2-0.2-0.4-0.4-0.5c-0.1-0.1-0.3-0.3-0.5-0.4c-0.2-0.1-0.4-0.2-0.7-0.3
	l-1.5-0.7c-0.2-0.1-0.5-0.2-0.8-0.4c-0.3-0.1-0.5-0.3-0.7-0.5c-0.2-0.2-0.4-0.5-0.5-0.8c-0.1-0.3-0.2-0.6-0.2-1
	c0-0.4,0.1-0.8,0.2-1.1c0.2-0.3,0.4-0.6,0.7-0.9c0.3-0.3,0.6-0.5,1-0.6c0.4-0.1,0.8-0.2,1.3-0.2c0.6,0,1.2,0.1,1.7,0.4
	c0.5,0.2,1,0.5,1.4,0.9l-0.7,0.9c-0.3-0.3-0.7-0.5-1.1-0.7c-0.4-0.2-0.8-0.3-1.3-0.3c-0.6,0-1.1,0.1-1.4,0.4
	c-0.4,0.3-0.5,0.6-0.5,1.1c0,0.3,0,0.5,0.1,0.7c0.1,0.2,0.2,0.3,0.4,0.5c0.2,0.1,0.4,0.2,0.6,0.4c0.2,0.1,0.4,0.2,0.6,0.3l1.5,0.6
	c0.3,0.1,0.6,0.3,0.8,0.4c0.3,0.2,0.5,0.4,0.7,0.6c0.2,0.2,0.3,0.5,0.4,0.8c0.1,0.3,0.2,0.6,0.2,1c0,0.4-0.1,0.8-0.3,1.2
	c-0.2,0.4-0.4,0.7-0.7,1c-0.3,0.3-0.7,0.5-1.1,0.6C283,160.1,282.5,160.2,282,160.2z M291.5,159.1c0.5,0,0.9-0.1,1.3-0.3
	c0.4-0.2,0.7-0.5,1-0.9c0.3-0.4,0.5-0.8,0.6-1.4c0.1-0.5,0.2-1.2,0.2-1.8c0-0.7-0.1-1.2-0.2-1.8c-0.1-0.5-0.4-1-0.6-1.3
	c-0.3-0.4-0.6-0.6-1-0.8c-0.4-0.2-0.8-0.3-1.3-0.3c-0.5,0-0.9,0.1-1.3,0.3c-0.4,0.2-0.7,0.5-1,0.8c-0.3,0.4-0.5,0.8-0.6,1.3
	c-0.1,0.5-0.2,1.1-0.2,1.8c0,0.7,0.1,1.3,0.2,1.8c0.1,0.5,0.4,1,0.6,1.4c0.3,0.4,0.6,0.7,1,0.9C290.6,159,291,159.1,291.5,159.1z
	 M294.7,162.6c-0.5,0-0.9-0.1-1.3-0.2c-0.4-0.1-0.8-0.3-1.1-0.5c-0.3-0.2-0.6-0.5-0.8-0.8c-0.2-0.3-0.4-0.6-0.6-1
	c-0.6-0.1-1.1-0.3-1.6-0.5c-0.5-0.3-0.9-0.7-1.2-1.1c-0.3-0.5-0.6-1-0.8-1.6c-0.2-0.6-0.3-1.3-0.3-2.1c0-0.8,0.1-1.6,0.3-2.3
	c0.2-0.7,0.5-1.2,0.9-1.7c0.4-0.5,0.9-0.8,1.4-1.1c0.6-0.2,1.2-0.4,1.8-0.4c0.7,0,1.3,0.1,1.8,0.4c0.6,0.2,1,0.6,1.4,1.1
	c0.4,0.5,0.7,1,0.9,1.7c0.2,0.7,0.3,1.4,0.3,2.2c0,0.8-0.1,1.5-0.3,2.1c-0.2,0.6-0.4,1.2-0.8,1.6c-0.3,0.5-0.7,0.8-1.2,1.1
	c-0.5,0.3-1,0.5-1.5,0.6c0.2,0.5,0.6,0.8,1,1c0.4,0.2,1,0.4,1.5,0.4c0.2,0,0.4,0,0.6,0c0.2,0,0.3-0.1,0.5-0.1l0.3,1
	c-0.2,0.1-0.4,0.1-0.6,0.2C295.3,162.6,295,162.6,294.7,162.6z M298.3,160v-10.5h1.3v9.4h4.6v1.1H298.3z"/>
<path class="st4" d="M447.1,360.2c-0.5,0-1-0.1-1.5-0.3c-0.4-0.2-0.8-0.5-1.2-0.8c-0.3-0.4-0.6-0.8-0.8-1.3
	c-0.2-0.5-0.3-1.1-0.3-1.7c0-0.6,0.1-1.2,0.3-1.7c0.2-0.5,0.5-0.9,0.8-1.3c0.3-0.4,0.7-0.6,1.1-0.8c0.4-0.2,0.8-0.3,1.3-0.3
	c0.5,0,0.9,0.1,1.3,0.3c0.4,0.2,0.7,0.4,1,0.7c0.3,0.3,0.5,0.7,0.6,1.2c0.1,0.4,0.2,0.9,0.2,1.5c0,0.1,0,0.3,0,0.4
	c0,0.1,0,0.2,0,0.3h-5.2c0.1,0.8,0.3,1.5,0.8,2c0.5,0.5,1.1,0.7,1.8,0.7c0.4,0,0.7-0.1,1-0.2c0.3-0.1,0.6-0.3,0.9-0.4l0.5,0.9
	c-0.3,0.2-0.7,0.4-1.1,0.6C448.1,360.1,447.6,360.2,447.1,360.2z M444.6,355.5h4.2c0-0.8-0.2-1.4-0.5-1.8c-0.3-0.4-0.8-0.6-1.4-0.6
	c-0.3,0-0.5,0.1-0.8,0.2c-0.2,0.1-0.5,0.3-0.7,0.5c-0.2,0.2-0.4,0.5-0.5,0.8C444.8,354.8,444.7,355.1,444.6,355.5z M452.5,360.2
	c-0.3,0-0.5-0.1-0.7-0.3c-0.2-0.2-0.3-0.4-0.3-0.7c0-0.3,0.1-0.6,0.3-0.7c0.2-0.2,0.4-0.3,0.7-0.3c0.3,0,0.5,0.1,0.7,0.3
	c0.2,0.2,0.3,0.4,0.3,0.7c0,0.3-0.1,0.5-0.3,0.7C453,360.1,452.8,360.2,452.5,360.2z M458.5,363.6c-0.5,0-0.9,0-1.3-0.1
	c-0.4-0.1-0.7-0.2-1-0.4c-0.3-0.2-0.5-0.4-0.7-0.7c-0.1-0.3-0.2-0.6-0.2-0.9c0-0.3,0.1-0.6,0.3-0.9c0.2-0.3,0.5-0.6,0.8-0.8v-0.1
	c-0.2-0.1-0.4-0.3-0.5-0.5c-0.1-0.2-0.2-0.5-0.2-0.8c0-0.3,0.1-0.6,0.3-0.9c0.2-0.2,0.4-0.4,0.6-0.6v-0.1c-0.3-0.2-0.5-0.5-0.7-0.8
	c-0.2-0.4-0.3-0.8-0.3-1.2c0-0.4,0.1-0.8,0.2-1.2c0.2-0.3,0.4-0.6,0.6-0.9c0.3-0.2,0.6-0.4,0.9-0.6c0.4-0.1,0.7-0.2,1.1-0.2
	c0.2,0,0.4,0,0.6,0.1c0.2,0,0.4,0.1,0.5,0.1h2.7v1h-1.6c0.2,0.2,0.3,0.4,0.4,0.7c0.1,0.3,0.2,0.6,0.2,0.9c0,0.4-0.1,0.8-0.2,1.1
	c-0.1,0.3-0.4,0.6-0.6,0.8c-0.3,0.2-0.6,0.4-0.9,0.5c-0.3,0.1-0.7,0.2-1.1,0.2c-0.2,0-0.4,0-0.6-0.1c-0.2-0.1-0.4-0.1-0.6-0.2
	c-0.1,0.1-0.3,0.3-0.4,0.4c-0.1,0.1-0.1,0.3-0.1,0.5c0,0.2,0.1,0.4,0.3,0.6c0.2,0.2,0.6,0.2,1.1,0.2h1.5c0.9,0,1.6,0.1,2,0.4
	c0.5,0.3,0.7,0.8,0.7,1.4c0,0.4-0.1,0.7-0.3,1c-0.2,0.3-0.4,0.6-0.8,0.9c-0.3,0.2-0.8,0.4-1.2,0.6
	C459.6,363.5,459.1,363.6,458.5,363.6z M458.5,356.7c0.2,0,0.4,0,0.6-0.1c0.2-0.1,0.4-0.2,0.5-0.4c0.2-0.2,0.3-0.4,0.4-0.6
	c0.1-0.2,0.1-0.5,0.1-0.8c0-0.6-0.2-1-0.5-1.3c-0.3-0.3-0.7-0.5-1.2-0.5c-0.5,0-0.8,0.2-1.2,0.5c-0.3,0.3-0.5,0.8-0.5,1.3
	c0,0.3,0,0.5,0.1,0.8c0.1,0.2,0.2,0.4,0.4,0.6c0.2,0.2,0.3,0.3,0.5,0.4C458,356.6,458.2,356.7,458.5,356.7z M458.7,362.7
	c0.4,0,0.7,0,1-0.1c0.3-0.1,0.6-0.2,0.8-0.4c0.2-0.1,0.4-0.3,0.5-0.5c0.1-0.2,0.2-0.4,0.2-0.6c0-0.4-0.1-0.6-0.4-0.8
	c-0.3-0.1-0.7-0.2-1.2-0.2h-1.3c-0.1,0-0.3,0-0.5,0c-0.2,0-0.3,0-0.5-0.1c-0.3,0.2-0.5,0.4-0.6,0.6c-0.1,0.2-0.2,0.4-0.2,0.7
	c0,0.4,0.2,0.7,0.6,1C457.4,362.5,458,362.7,458.7,362.7z M464.6,360.2c-0.3,0-0.5-0.1-0.7-0.3c-0.2-0.2-0.3-0.4-0.3-0.7
	c0-0.3,0.1-0.6,0.3-0.7c0.2-0.2,0.4-0.3,0.7-0.3c0.3,0,0.5,0.1,0.7,0.3c0.2,0.2,0.3,0.4,0.3,0.7c0,0.3-0.1,0.5-0.3,0.7
	C465.1,360.1,464.9,360.2,464.6,360.2z M471.2,360v-10.5h3.3c0.5,0,1,0.1,1.5,0.2c0.5,0.1,0.8,0.3,1.2,0.5c0.3,0.2,0.6,0.5,0.8,0.9
	c0.2,0.4,0.3,0.8,0.3,1.4c0,0.8-0.2,1.5-0.6,2c-0.4,0.5-1,0.8-1.7,1l2.7,4.6H477l-2.5-4.4h-1.9v4.4H471.2z M472.5,354.5h1.8
	c0.8,0,1.5-0.2,1.9-0.5c0.4-0.3,0.7-0.9,0.7-1.5c0-0.7-0.2-1.2-0.7-1.5c-0.4-0.3-1.1-0.4-1.9-0.4h-1.8V354.5z M483.2,360.2
	c-0.5,0-1-0.1-1.5-0.3c-0.4-0.2-0.8-0.5-1.2-0.8c-0.3-0.4-0.6-0.8-0.8-1.3c-0.2-0.5-0.3-1.1-0.3-1.7c0-0.6,0.1-1.2,0.3-1.7
	c0.2-0.5,0.5-0.9,0.8-1.3c0.3-0.4,0.7-0.6,1.1-0.8c0.4-0.2,0.8-0.3,1.3-0.3c0.5,0,0.9,0.1,1.3,0.3c0.4,0.2,0.7,0.4,1,0.7
	c0.3,0.3,0.5,0.7,0.6,1.2c0.1,0.4,0.2,0.9,0.2,1.5c0,0.1,0,0.3,0,0.4c0,0.1,0,0.2,0,0.3h-5.2c0.1,0.8,0.3,1.5,0.8,2
	c0.5,0.5,1.1,0.7,1.8,0.7c0.4,0,0.7-0.1,1-0.2c0.3-0.1,0.6-0.3,0.9-0.4l0.5,0.9c-0.3,0.2-0.7,0.4-1.1,0.6
	C484.2,360.1,483.7,360.2,483.2,360.2z M480.8,355.5h4.2c0-0.8-0.2-1.4-0.5-1.8c-0.3-0.4-0.8-0.6-1.4-0.6c-0.3,0-0.5,0.1-0.8,0.2
	c-0.2,0.1-0.5,0.3-0.7,0.5c-0.2,0.2-0.4,0.5-0.5,0.8C480.9,354.8,480.8,355.1,480.8,355.5z M490.6,360.2c-1,0-1.8-0.4-2.4-1.1
	c-0.6-0.7-0.9-1.7-0.9-3c0-0.6,0.1-1.2,0.3-1.7c0.2-0.5,0.4-0.9,0.8-1.3c0.3-0.4,0.7-0.6,1.1-0.8c0.4-0.2,0.8-0.3,1.3-0.3
	s0.8,0.1,1.2,0.2c0.3,0.2,0.7,0.4,1,0.7l-0.1-1.3v-3h1.3V360h-1.1l-0.1-0.9h0c-0.3,0.3-0.7,0.6-1.1,0.8
	C491.5,360.1,491.1,360.2,490.6,360.2z M490.9,359.1c0.4,0,0.7-0.1,1-0.3c0.3-0.2,0.6-0.5,1-0.8V354c-0.3-0.3-0.7-0.5-1-0.6
	c-0.3-0.1-0.6-0.2-0.9-0.2c-0.3,0-0.6,0.1-0.9,0.2c-0.3,0.1-0.5,0.3-0.7,0.6c-0.2,0.3-0.4,0.6-0.5,0.9s-0.2,0.8-0.2,1.2
	c0,0.9,0.2,1.7,0.6,2.2C489.7,358.8,490.2,359.1,490.9,359.1z M498.9,360.2c-0.6,0-1.1-0.1-1.6-0.3s-0.9-0.5-1.3-0.8l0.7-0.9
	c0.3,0.3,0.7,0.5,1,0.7c0.4,0.2,0.8,0.3,1.2,0.3c0.5,0,0.9-0.1,1.2-0.4c0.3-0.2,0.4-0.5,0.4-0.9c0-0.2-0.1-0.4-0.2-0.5
	c-0.1-0.1-0.2-0.3-0.4-0.4c-0.2-0.1-0.3-0.2-0.6-0.3c-0.2-0.1-0.4-0.2-0.6-0.3c-0.3-0.1-0.6-0.2-0.8-0.3c-0.3-0.1-0.5-0.3-0.8-0.4
	c-0.2-0.2-0.4-0.4-0.5-0.6c-0.1-0.2-0.2-0.5-0.2-0.8c0-0.3,0.1-0.6,0.2-0.9c0.1-0.3,0.3-0.5,0.5-0.7c0.2-0.2,0.5-0.4,0.8-0.5
	c0.3-0.1,0.7-0.2,1.1-0.2c0.5,0,0.9,0.1,1.3,0.3c0.4,0.2,0.8,0.4,1.1,0.6l-0.6,0.8c-0.3-0.2-0.5-0.4-0.8-0.5
	c-0.3-0.1-0.6-0.2-0.9-0.2c-0.5,0-0.9,0.1-1.1,0.3c-0.2,0.2-0.3,0.5-0.3,0.8c0,0.2,0,0.3,0.1,0.5c0.1,0.1,0.2,0.2,0.4,0.4
	c0.2,0.1,0.3,0.2,0.5,0.3c0.2,0.1,0.4,0.2,0.7,0.2c0.3,0.1,0.6,0.2,0.8,0.3c0.3,0.1,0.5,0.3,0.8,0.4c0.2,0.2,0.4,0.4,0.5,0.6
	c0.1,0.3,0.2,0.6,0.2,0.9c0,0.3-0.1,0.6-0.2,0.9c-0.1,0.3-0.3,0.5-0.5,0.7c-0.2,0.2-0.5,0.4-0.9,0.5
	C499.8,360.1,499.4,360.2,498.9,360.2z M503.6,360v-11.4h1.3v3.1l0,1.6c0.4-0.4,0.8-0.7,1.2-0.9c0.4-0.3,0.9-0.4,1.4-0.4
	c0.8,0,1.4,0.3,1.8,0.8c0.4,0.5,0.6,1.3,0.6,2.3v4.9h-1.3v-4.8c0-0.7-0.1-1.3-0.4-1.6c-0.2-0.3-0.6-0.5-1.1-0.5
	c-0.4,0-0.8,0.1-1.1,0.3c-0.3,0.2-0.7,0.5-1.1,0.9v5.6H503.6z M512.3,360v-7.8h1.3v7.8H512.3z M512.9,350.6c-0.3,0-0.5-0.1-0.7-0.2
	c-0.2-0.2-0.3-0.4-0.3-0.6c0-0.3,0.1-0.5,0.3-0.6c0.2-0.2,0.4-0.2,0.7-0.2s0.5,0.1,0.6,0.2c0.2,0.1,0.3,0.4,0.3,0.6
	c0,0.2-0.1,0.4-0.3,0.6C513.4,350.5,513.2,350.6,512.9,350.6z M516.4,360v-6.7h-1.1v-1l1.1-0.1V351c0-0.8,0.2-1.4,0.5-1.9
	c0.4-0.5,0.9-0.7,1.7-0.7c0.2,0,0.5,0,0.7,0.1c0.2,0,0.4,0.1,0.6,0.2l-0.3,1c-0.3-0.1-0.6-0.2-0.9-0.2c-0.7,0-1.1,0.5-1.1,1.5v1.2
	h2.8l0.2-2.2h1.1v2.2h2.1v1.1h-2.1v4.3c0,0.5,0.1,0.9,0.3,1.1c0.2,0.3,0.5,0.4,0.9,0.4c0.1,0,0.3,0,0.4-0.1c0.2,0,0.3-0.1,0.4-0.1
	l0.3,1c-0.2,0.1-0.4,0.1-0.7,0.2c-0.2,0.1-0.5,0.1-0.7,0.1c-0.4,0-0.8-0.1-1.1-0.2c-0.3-0.1-0.5-0.3-0.7-0.5
	c-0.2-0.2-0.3-0.5-0.4-0.8c-0.1-0.3-0.1-0.7-0.1-1.1v-4.3h-2.8v6.7H516.4z"/>
<path class="st3" d="M306.4,451.1c-0.5,0-1-0.1-1.4-0.3c-0.4-0.2-0.8-0.5-1.1-0.8c-0.3-0.4-0.5-0.8-0.7-1.3s-0.3-1.1-0.3-1.7
	c0-0.6,0.1-1.2,0.3-1.7c0.2-0.5,0.4-0.9,0.7-1.3c0.3-0.3,0.7-0.6,1.1-0.8c0.4-0.2,0.9-0.3,1.4-0.3c0.5,0,1,0.1,1.4,0.3
	s0.8,0.4,1.1,0.8c0.3,0.3,0.6,0.8,0.7,1.3c0.2,0.5,0.3,1.1,0.3,1.7c0,0.6-0.1,1.2-0.3,1.7s-0.4,0.9-0.7,1.3
	c-0.3,0.4-0.7,0.6-1.1,0.8C307.4,451.1,306.9,451.1,306.4,451.1z M306.4,449.9c0.3,0,0.6-0.1,0.8-0.2c0.2-0.1,0.5-0.3,0.6-0.6
	c0.2-0.3,0.3-0.6,0.4-0.9c0.1-0.4,0.1-0.8,0.1-1.2c0-0.9-0.2-1.6-0.6-2.1c-0.4-0.5-0.9-0.8-1.5-0.8c-0.6,0-1.1,0.3-1.5,0.8
	c-0.4,0.5-0.5,1.2-0.5,2.1c0,0.4,0,0.8,0.1,1.2c0.1,0.4,0.2,0.7,0.4,0.9c0.2,0.2,0.4,0.4,0.6,0.6
	C305.8,449.9,306.1,449.9,306.4,449.9z M312.6,451v-7.8h4.7v1.2H314v2.2h2.9v1.2H314v3.3H312.6z M319.9,451v-7.8h4.7v1.2h-3.3v2.2
	h2.9v1.2h-2.9v3.3H319.9z M327.3,451v-7.8h1.4v6.7h3.3v1.2H327.3z M334.5,451v-7.8h1.4v7.8H334.5z M339.1,451v-7.8h1.4l2.4,4.4
	l0.8,1.7h0c0-0.4-0.1-0.8-0.1-1.3c0-0.5-0.1-0.9-0.1-1.4v-3.4h1.3v7.8h-1.4l-2.4-4.4l-0.8-1.7h0c0,0.4,0.1,0.9,0.1,1.3
	c0,0.5,0.1,0.9,0.1,1.3v3.4H339.1z M348.1,451v-7.8h4.7v1.2h-3.3v2h2.8v1.2h-2.8v2.3h3.5v1.2H348.1z M362.4,450
	c0.3,0,0.6-0.1,0.8-0.2c0.2-0.1,0.5-0.3,0.6-0.6c0.2-0.3,0.3-0.6,0.4-0.9c0.1-0.4,0.1-0.8,0.1-1.2c0-0.9-0.2-1.6-0.6-2.1
	c-0.4-0.5-0.9-0.8-1.5-0.8s-1.1,0.3-1.5,0.8c-0.4,0.5-0.5,1.2-0.5,2.1c0,0.5,0,0.9,0.1,1.2s0.2,0.7,0.4,0.9c0.2,0.3,0.4,0.5,0.6,0.6
	C361.9,449.9,362.1,450,362.4,450z M364.9,453.1c-0.8,0-1.4-0.2-2-0.6c-0.5-0.4-0.9-0.9-1.2-1.4c-0.4-0.1-0.8-0.2-1.2-0.4
	c-0.3-0.2-0.6-0.5-0.9-0.9c-0.2-0.3-0.4-0.7-0.6-1.2c-0.1-0.5-0.2-1-0.2-1.5c0-0.6,0.1-1.2,0.3-1.7c0.2-0.5,0.4-0.9,0.7-1.3
	c0.3-0.3,0.7-0.6,1.1-0.8c0.4-0.2,0.9-0.3,1.4-0.3s1,0.1,1.4,0.3s0.8,0.4,1.1,0.8c0.3,0.3,0.6,0.8,0.7,1.3c0.2,0.5,0.3,1.1,0.3,1.7
	c0,0.5-0.1,1-0.2,1.5c-0.1,0.4-0.3,0.8-0.5,1.2s-0.5,0.6-0.8,0.9c-0.3,0.2-0.7,0.4-1.1,0.5c0.2,0.3,0.4,0.5,0.8,0.7
	c0.3,0.1,0.7,0.2,1.1,0.2c0.2,0,0.3,0,0.5,0c0.1,0,0.3,0,0.4-0.1l0.3,1c-0.1,0.1-0.3,0.1-0.5,0.2
	C365.5,453.1,365.2,453.1,364.9,453.1z M371.6,451.1c-0.5,0-0.9-0.1-1.2-0.2c-0.4-0.1-0.7-0.3-0.9-0.6c-0.3-0.3-0.5-0.7-0.6-1.1
	c-0.1-0.5-0.2-1-0.2-1.7v-4.4h1.4v4.5c0,0.4,0,0.8,0.1,1.1c0.1,0.3,0.2,0.5,0.3,0.7c0.1,0.2,0.3,0.3,0.5,0.4
	c0.2,0.1,0.4,0.1,0.6,0.1c0.2,0,0.5,0,0.7-0.1c0.2-0.1,0.4-0.2,0.5-0.4c0.1-0.2,0.3-0.4,0.3-0.7c0.1-0.3,0.1-0.7,0.1-1.1v-4.5h1.3
	v4.4c0,0.6-0.1,1.2-0.2,1.7c-0.1,0.4-0.3,0.8-0.6,1.1c-0.3,0.3-0.6,0.5-0.9,0.6C372.5,451.1,372.1,451.1,371.6,451.1z M377.8,451
	v-7.8h4.7v1.2h-3.3v2h2.8v1.2h-2.8v2.3h3.5v1.2H377.8z M385.4,451v-7.8h2.7c0.4,0,0.8,0,1.1,0.1c0.4,0.1,0.7,0.2,0.9,0.4
	c0.3,0.2,0.5,0.4,0.6,0.7c0.2,0.3,0.2,0.7,0.2,1.1c0,0.6-0.1,1.1-0.4,1.5c-0.3,0.4-0.7,0.6-1.1,0.8l1.9,3.3h-1.6l-1.7-3.1h-1.2v3.1
	H385.4z M386.8,446.8h1.1c0.5,0,0.9-0.1,1.2-0.3c0.3-0.2,0.4-0.6,0.4-1c0-0.5-0.1-0.8-0.4-0.9c-0.3-0.2-0.7-0.3-1.2-0.3h-1.1V446.8z
	 M393.7,451v-7.8h1.4v7.8H393.7z M398.3,451v-7.8h4.7v1.2h-3.3v2h2.8v1.2h-2.8v2.3h3.5v1.2H398.3z M408.2,451.1
	c-0.5,0-1-0.1-1.5-0.3c-0.5-0.2-0.9-0.5-1.3-0.9l0.8-0.9c0.3,0.3,0.6,0.5,1,0.6c0.4,0.2,0.7,0.2,1.1,0.2c0.4,0,0.8-0.1,1-0.3
	c0.2-0.2,0.3-0.4,0.3-0.7c0-0.2,0-0.3-0.1-0.4c-0.1-0.1-0.1-0.2-0.3-0.3c-0.1-0.1-0.2-0.2-0.4-0.2c-0.1-0.1-0.3-0.1-0.5-0.2
	l-1.1-0.5c-0.2-0.1-0.4-0.2-0.6-0.3c-0.2-0.1-0.4-0.3-0.5-0.4c-0.2-0.2-0.3-0.4-0.4-0.6c-0.1-0.2-0.1-0.5-0.1-0.8
	c0-0.3,0.1-0.6,0.2-0.9c0.1-0.3,0.3-0.5,0.6-0.7c0.2-0.2,0.5-0.4,0.8-0.5c0.3-0.1,0.7-0.2,1.1-0.2c0.5,0,0.9,0.1,1.3,0.3
	c0.4,0.2,0.8,0.4,1.1,0.7l-0.7,0.9c-0.3-0.2-0.5-0.4-0.8-0.5s-0.6-0.2-0.9-0.2c-0.4,0-0.7,0.1-0.9,0.3c-0.2,0.2-0.3,0.4-0.3,0.7
	c0,0.2,0,0.3,0.1,0.4c0.1,0.1,0.2,0.2,0.3,0.3c0.1,0.1,0.3,0.2,0.4,0.2c0.2,0.1,0.3,0.1,0.5,0.2l1.1,0.4c0.2,0.1,0.4,0.2,0.6,0.3
	c0.2,0.1,0.4,0.3,0.5,0.4c0.1,0.2,0.3,0.4,0.3,0.6c0.1,0.2,0.1,0.5,0.1,0.8c0,0.3-0.1,0.6-0.2,0.9c-0.1,0.3-0.3,0.5-0.6,0.7
	c-0.2,0.2-0.5,0.4-0.9,0.5C409.1,451.1,408.7,451.1,408.2,451.1z M420.3,451.1c-0.5,0-1-0.1-1.4-0.3c-0.4-0.2-0.8-0.5-1.1-0.8
	c-0.3-0.4-0.5-0.8-0.7-1.3s-0.3-1.1-0.3-1.7c0-0.6,0.1-1.2,0.3-1.7c0.2-0.5,0.4-0.9,0.7-1.3c0.3-0.3,0.7-0.6,1.1-0.8
	c0.4-0.2,0.9-0.3,1.4-0.3c0.5,0,1,0.1,1.4,0.3s0.8,0.4,1.1,0.8c0.3,0.3,0.6,0.8,0.7,1.3c0.2,0.5,0.3,1.1,0.3,1.7
	c0,0.6-0.1,1.2-0.3,1.7s-0.4,0.9-0.7,1.3c-0.3,0.4-0.7,0.6-1.1,0.8C421.3,451.1,420.9,451.1,420.3,451.1z M420.3,449.9
	c0.3,0,0.6-0.1,0.8-0.2c0.2-0.1,0.5-0.3,0.6-0.6c0.2-0.3,0.3-0.6,0.4-0.9c0.1-0.4,0.1-0.8,0.1-1.2c0-0.9-0.2-1.6-0.6-2.1
	c-0.4-0.5-0.9-0.8-1.5-0.8c-0.6,0-1.1,0.3-1.5,0.8c-0.4,0.5-0.5,1.2-0.5,2.1c0,0.4,0,0.8,0.1,1.2c0.1,0.4,0.2,0.7,0.4,0.9
	c0.2,0.2,0.4,0.4,0.6,0.6C419.8,449.9,420,449.9,420.3,449.9z M426.6,451v-7.8h1.4l2.4,4.4l0.8,1.7h0c0-0.4-0.1-0.8-0.1-1.3
	c0-0.5-0.1-0.9-0.1-1.4v-3.4h1.3v7.8H431l-2.4-4.4l-0.8-1.7h0c0,0.4,0.1,0.9,0.1,1.3c0,0.5,0.1,0.9,0.1,1.3v3.4H426.6z M315.8,466
	v-7.8h1.4v3.2h3.2v-3.2h1.4v7.8h-1.4v-3.5h-3.2v3.5H315.8z M325,466v-7.8h1.4v7.8H325z M331.9,466.1c-0.5,0-1-0.1-1.5-0.3
	c-0.5-0.2-0.9-0.5-1.3-0.9l0.8-0.9c0.3,0.3,0.6,0.5,1,0.6c0.4,0.2,0.7,0.2,1.1,0.2c0.4,0,0.8-0.1,1-0.3c0.2-0.2,0.3-0.4,0.3-0.7
	c0-0.2,0-0.3-0.1-0.4c-0.1-0.1-0.1-0.2-0.3-0.3c-0.1-0.1-0.2-0.2-0.4-0.2c-0.1-0.1-0.3-0.1-0.5-0.2l-1.1-0.5
	c-0.2-0.1-0.4-0.2-0.6-0.3c-0.2-0.1-0.4-0.3-0.5-0.4s-0.3-0.4-0.4-0.6c-0.1-0.2-0.1-0.5-0.1-0.8c0-0.3,0.1-0.6,0.2-0.9
	c0.1-0.3,0.3-0.5,0.6-0.7c0.2-0.2,0.5-0.4,0.8-0.5c0.3-0.1,0.7-0.2,1.1-0.2c0.5,0,0.9,0.1,1.3,0.3c0.4,0.2,0.8,0.4,1.1,0.7l-0.7,0.9
	c-0.3-0.2-0.5-0.4-0.8-0.5s-0.6-0.2-0.9-0.2c-0.4,0-0.7,0.1-0.9,0.3c-0.2,0.2-0.3,0.4-0.3,0.7c0,0.2,0,0.3,0.1,0.4
	c0.1,0.1,0.2,0.2,0.3,0.3c0.1,0.1,0.3,0.2,0.4,0.2c0.2,0.1,0.3,0.1,0.5,0.2l1.1,0.4c0.2,0.1,0.4,0.2,0.6,0.3
	c0.2,0.1,0.4,0.3,0.5,0.4c0.1,0.2,0.3,0.4,0.3,0.6c0.1,0.2,0.1,0.5,0.1,0.8c0,0.3-0.1,0.6-0.2,0.9c-0.1,0.3-0.3,0.5-0.6,0.7
	c-0.2,0.2-0.5,0.4-0.9,0.5C332.7,466.1,332.3,466.1,331.9,466.1z M338.7,466v-6.7h-2.3v-1.2h5.9v1.2H340v6.7H338.7z M347.6,466.1
	c-0.5,0-1-0.1-1.4-0.3c-0.4-0.2-0.8-0.5-1.1-0.8c-0.3-0.4-0.5-0.8-0.7-1.3c-0.2-0.5-0.3-1.1-0.3-1.7c0-0.6,0.1-1.2,0.3-1.7
	c0.2-0.5,0.4-0.9,0.7-1.3c0.3-0.3,0.7-0.6,1.1-0.8s0.9-0.3,1.4-0.3s1,0.1,1.4,0.3c0.4,0.2,0.8,0.4,1.1,0.8c0.3,0.3,0.6,0.8,0.7,1.3
	c0.2,0.5,0.3,1.1,0.3,1.7c0,0.6-0.1,1.2-0.3,1.7s-0.4,0.9-0.7,1.3c-0.3,0.4-0.7,0.6-1.1,0.8C348.5,466.1,348.1,466.1,347.6,466.1z
	 M347.6,464.9c0.3,0,0.6-0.1,0.8-0.2c0.2-0.1,0.5-0.3,0.6-0.6c0.2-0.3,0.3-0.6,0.4-0.9c0.1-0.4,0.1-0.8,0.1-1.2
	c0-0.9-0.2-1.6-0.6-2.1c-0.4-0.5-0.9-0.8-1.5-0.8s-1.1,0.3-1.5,0.8c-0.4,0.5-0.5,1.2-0.5,2.1c0,0.4,0,0.8,0.1,1.2
	c0.1,0.4,0.2,0.7,0.4,0.9c0.2,0.2,0.4,0.4,0.6,0.6C347,464.9,347.2,464.9,347.6,464.9z M353.8,466v-7.8h2.7c0.4,0,0.8,0,1.1,0.1
	c0.4,0.1,0.7,0.2,0.9,0.4c0.3,0.2,0.5,0.4,0.6,0.7c0.2,0.3,0.2,0.7,0.2,1.1c0,0.6-0.1,1.1-0.4,1.5c-0.3,0.4-0.7,0.6-1.1,0.8l1.9,3.3
	h-1.6l-1.7-3.1h-1.2v3.1H353.8z M355.2,461.8h1.1c0.5,0,0.9-0.1,1.2-0.3c0.3-0.2,0.4-0.6,0.4-1c0-0.5-0.1-0.8-0.4-0.9
	c-0.3-0.2-0.7-0.3-1.2-0.3h-1.1V461.8z M362.1,466v-7.8h1.4v7.8H362.1z M369.8,466.1c-0.5,0-1-0.1-1.4-0.3s-0.8-0.4-1.1-0.8
	c-0.3-0.3-0.6-0.8-0.7-1.3c-0.2-0.5-0.3-1.1-0.3-1.7c0-0.6,0.1-1.2,0.3-1.7c0.2-0.5,0.4-0.9,0.8-1.3c0.3-0.4,0.7-0.6,1.1-0.8
	c0.4-0.2,0.9-0.3,1.4-0.3s0.9,0.1,1.3,0.3c0.4,0.2,0.7,0.4,0.9,0.7l-0.7,0.9c-0.2-0.2-0.4-0.4-0.7-0.5c-0.2-0.1-0.5-0.2-0.8-0.2
	c-0.3,0-0.6,0.1-0.9,0.2c-0.3,0.1-0.5,0.3-0.7,0.6c-0.2,0.2-0.3,0.5-0.5,0.9c-0.1,0.4-0.2,0.7-0.2,1.2c0,0.9,0.2,1.6,0.6,2.1
	c0.4,0.5,0.9,0.8,1.6,0.8c0.4,0,0.7-0.1,0.9-0.2c0.3-0.2,0.5-0.3,0.7-0.6l0.7,0.9c-0.3,0.4-0.7,0.7-1.1,0.9
	C370.8,466,370.3,466.1,369.8,466.1z M376.4,461.8l-0.3,1h2l-0.3-1c-0.1-0.4-0.3-0.8-0.4-1.3c-0.1-0.4-0.2-0.9-0.3-1.3h0
	c-0.1,0.4-0.2,0.9-0.3,1.3C376.6,461,376.5,461.4,376.4,461.8z M373.8,466l2.6-7.8h1.6l2.6,7.8h-1.5l-0.6-2.1h-2.6l-0.6,2.1H373.8z
	 M382.7,466v-7.8h1.4v6.7h3.3v1.2H382.7z M393.5,466v-7.8h2.1c1.2,0,2.1,0.3,2.8,1c0.7,0.6,1,1.6,1,2.9c0,0.6-0.1,1.2-0.3,1.7
	c-0.2,0.5-0.4,0.9-0.7,1.2c-0.3,0.3-0.7,0.6-1.2,0.7c-0.5,0.2-1,0.3-1.6,0.3H393.5z M394.9,464.9h0.6c0.8,0,1.4-0.2,1.8-0.7
	c0.4-0.5,0.6-1.2,0.6-2.1c0-1-0.2-1.7-0.6-2.1s-1-0.7-1.8-0.7h-0.6V464.9z M403.7,461.8l-0.3,1h2l-0.3-1c-0.1-0.4-0.3-0.8-0.4-1.3
	c-0.1-0.4-0.2-0.9-0.3-1.3h0c-0.1,0.4-0.2,0.9-0.3,1.3C403.9,461,403.8,461.4,403.7,461.8z M401.1,466l2.6-7.8h1.6l2.6,7.8h-1.5
	l-0.6-2.1h-2.6l-0.6,2.1H401.1z M410.8,466v-6.7h-2.3v-1.2h5.9v1.2h-2.3v6.7H410.8z M418.1,461.8l-0.3,1h2l-0.3-1
	c-0.1-0.4-0.3-0.8-0.4-1.3c-0.1-0.4-0.2-0.9-0.3-1.3h0c-0.1,0.4-0.2,0.9-0.3,1.3C418.3,461,418.2,461.4,418.1,461.8z M415.5,466
	l2.6-7.8h1.6l2.6,7.8h-1.5l-0.6-2.1h-2.6l-0.6,2.1H415.5z"/>
<path class="st3" d="M609.8,231.1c-0.5,0-1-0.1-1.4-0.3c-0.4-0.2-0.8-0.4-1.1-0.8c-0.3-0.3-0.6-0.8-0.7-1.3
	c-0.2-0.5-0.3-1.1-0.3-1.7c0-0.6,0.1-1.2,0.3-1.7c0.2-0.5,0.4-0.9,0.8-1.3c0.3-0.4,0.7-0.6,1.1-0.8c0.4-0.2,0.9-0.3,1.4-0.3
	c0.5,0,0.9,0.1,1.3,0.3c0.4,0.2,0.7,0.4,0.9,0.7l-0.7,0.9c-0.2-0.2-0.4-0.4-0.7-0.5c-0.2-0.1-0.5-0.2-0.8-0.2
	c-0.3,0-0.6,0.1-0.9,0.2c-0.3,0.1-0.5,0.3-0.7,0.6c-0.2,0.2-0.3,0.5-0.5,0.9c-0.1,0.4-0.2,0.7-0.2,1.2c0,0.9,0.2,1.6,0.6,2.1
	c0.4,0.5,0.9,0.8,1.6,0.8c0.4,0,0.7-0.1,0.9-0.2c0.3-0.2,0.5-0.3,0.7-0.6l0.7,0.9c-0.3,0.4-0.7,0.7-1.1,0.9
	C610.7,231,610.3,231.1,609.8,231.1z M617.4,231.1c-0.5,0-1-0.1-1.4-0.3c-0.4-0.2-0.8-0.5-1.1-0.8c-0.3-0.4-0.5-0.8-0.7-1.3
	c-0.2-0.5-0.3-1.1-0.3-1.7c0-0.6,0.1-1.2,0.3-1.7c0.2-0.5,0.4-0.9,0.7-1.3c0.3-0.3,0.7-0.6,1.1-0.8c0.4-0.2,0.9-0.3,1.4-0.3
	c0.5,0,1,0.1,1.4,0.3c0.4,0.2,0.8,0.4,1.1,0.8c0.3,0.3,0.6,0.8,0.7,1.3c0.2,0.5,0.3,1.1,0.3,1.7c0,0.6-0.1,1.2-0.3,1.7
	c-0.2,0.5-0.4,0.9-0.7,1.3c-0.3,0.4-0.7,0.6-1.1,0.8C618.4,231.1,617.9,231.1,617.4,231.1z M617.4,229.9c0.3,0,0.6-0.1,0.8-0.2
	s0.5-0.3,0.6-0.6c0.2-0.3,0.3-0.6,0.4-0.9c0.1-0.4,0.1-0.8,0.1-1.2c0-0.9-0.2-1.6-0.6-2.1c-0.4-0.5-0.9-0.8-1.5-0.8
	c-0.6,0-1.1,0.3-1.5,0.8c-0.4,0.5-0.5,1.2-0.5,2.1c0,0.4,0,0.8,0.1,1.2c0.1,0.4,0.2,0.7,0.4,0.9c0.2,0.2,0.4,0.4,0.6,0.6
	S617.1,229.9,617.4,229.9z M623.6,231v-7.8h1.6l1.4,3.8c0.1,0.2,0.2,0.5,0.3,0.8c0.1,0.3,0.2,0.5,0.3,0.8h0c0.1-0.3,0.2-0.5,0.2-0.8
	c0.1-0.3,0.2-0.5,0.3-0.8l1.4-3.8h1.6v7.8h-1.3v-3.6c0-0.2,0-0.4,0-0.6c0-0.2,0-0.4,0-0.6c0-0.2,0-0.4,0.1-0.6c0-0.2,0-0.4,0.1-0.6
	h0l-0.6,1.8l-1.3,3.5h-0.8l-1.3-3.5l-0.6-1.8h0c0,0.2,0,0.4,0,0.6c0,0.2,0,0.4,0.1,0.6c0,0.2,0,0.4,0,0.6c0,0.2,0,0.4,0,0.6v3.6
	H623.6z M633.8,231v-7.8h2.5c0.4,0,0.8,0,1.2,0.1c0.4,0.1,0.7,0.2,1,0.4c0.3,0.2,0.5,0.4,0.6,0.8c0.2,0.3,0.2,0.7,0.2,1.1
	c0,0.4-0.1,0.8-0.2,1.1c-0.2,0.3-0.4,0.6-0.6,0.8c-0.3,0.2-0.6,0.4-0.9,0.5c-0.4,0.1-0.8,0.1-1.2,0.1h-1.1v2.9H633.8z M635.2,227h1
	c1.2,0,1.7-0.5,1.7-1.4c0-0.5-0.2-0.8-0.5-1c-0.3-0.2-0.7-0.3-1.3-0.3h-1V227z M641.9,231v-7.8h1.4v6.7h3.3v1.2H641.9z M649.2,231
	v-7.8h4.7v1.2h-3.3v2h2.8v1.2h-2.8v2.3h3.5v1.2H649.2z M656,231l2.2-4l-2.1-3.8h1.5l0.9,1.7c0.1,0.2,0.2,0.4,0.3,0.6
	c0.1,0.2,0.2,0.4,0.3,0.6h0c0.1-0.2,0.2-0.4,0.3-0.6c0.1-0.2,0.2-0.4,0.3-0.6l0.8-1.7h1.5l-2.1,3.9l2.2,4h-1.5l-1-1.8
	c-0.1-0.2-0.2-0.4-0.3-0.6c-0.1-0.2-0.2-0.4-0.3-0.7h0c-0.1,0.2-0.2,0.5-0.3,0.7c-0.1,0.2-0.2,0.4-0.3,0.6l-0.9,1.8H656z M671.2,230
	c0.3,0,0.6-0.1,0.8-0.2s0.5-0.3,0.6-0.6c0.2-0.3,0.3-0.6,0.4-0.9s0.1-0.8,0.1-1.2c0-0.9-0.2-1.6-0.6-2.1c-0.4-0.5-0.9-0.8-1.5-0.8
	c-0.6,0-1.1,0.3-1.5,0.8c-0.4,0.5-0.5,1.2-0.5,2.1c0,0.5,0,0.9,0.1,1.2s0.2,0.7,0.4,0.9c0.2,0.3,0.4,0.5,0.6,0.6
	S670.9,230,671.2,230z M673.7,233.1c-0.8,0-1.4-0.2-2-0.6c-0.5-0.4-0.9-0.9-1.2-1.4c-0.4-0.1-0.8-0.2-1.2-0.4
	c-0.3-0.2-0.6-0.5-0.9-0.9c-0.2-0.3-0.4-0.7-0.6-1.2c-0.1-0.5-0.2-1-0.2-1.5c0-0.6,0.1-1.2,0.3-1.7c0.2-0.5,0.4-0.9,0.7-1.3
	c0.3-0.3,0.7-0.6,1.1-0.8c0.4-0.2,0.9-0.3,1.4-0.3c0.5,0,1,0.1,1.4,0.3c0.4,0.2,0.8,0.4,1.1,0.8c0.3,0.3,0.6,0.8,0.7,1.3
	c0.2,0.5,0.3,1.1,0.3,1.7c0,0.5-0.1,1-0.2,1.5c-0.1,0.4-0.3,0.8-0.5,1.2c-0.2,0.3-0.5,0.6-0.8,0.9c-0.3,0.2-0.7,0.4-1.1,0.5
	c0.2,0.3,0.4,0.5,0.8,0.7c0.3,0.1,0.7,0.2,1.1,0.2c0.2,0,0.3,0,0.5,0c0.1,0,0.3,0,0.4-0.1l0.3,1c-0.1,0.1-0.3,0.1-0.5,0.2
	C674.2,233.1,673.9,233.1,673.7,233.1z M680.3,231.1c-0.5,0-0.9-0.1-1.2-0.2c-0.4-0.1-0.7-0.3-0.9-0.6c-0.3-0.3-0.5-0.7-0.6-1.1
	c-0.1-0.5-0.2-1-0.2-1.7v-4.4h1.4v4.5c0,0.4,0,0.8,0.1,1.1c0.1,0.3,0.2,0.5,0.3,0.7c0.1,0.2,0.3,0.3,0.5,0.4
	c0.2,0.1,0.4,0.1,0.6,0.1s0.5,0,0.7-0.1c0.2-0.1,0.4-0.2,0.5-0.4c0.1-0.2,0.3-0.4,0.3-0.7c0.1-0.3,0.1-0.7,0.1-1.1v-4.5h1.3v4.4
	c0,0.6-0.1,1.2-0.2,1.7c-0.1,0.4-0.3,0.8-0.6,1.1c-0.3,0.3-0.6,0.5-0.9,0.6C681.2,231.1,680.8,231.1,680.3,231.1z M686.5,231v-7.8
	h4.7v1.2h-3.3v2h2.8v1.2h-2.8v2.3h3.5v1.2H686.5z M694.1,231v-7.8h2.7c0.4,0,0.8,0,1.1,0.1c0.4,0.1,0.7,0.2,0.9,0.4
	c0.3,0.2,0.5,0.4,0.6,0.7c0.2,0.3,0.2,0.7,0.2,1.1c0,0.6-0.1,1.1-0.4,1.5c-0.3,0.4-0.7,0.6-1.1,0.8l1.9,3.3h-1.6l-1.7-3.1h-1.2v3.1
	H694.1z M695.5,226.8h1.1c0.5,0,0.9-0.1,1.2-0.3c0.3-0.2,0.4-0.6,0.4-1c0-0.5-0.1-0.8-0.4-0.9c-0.3-0.2-0.7-0.3-1.2-0.3h-1.1V226.8z
	 M702.4,231v-7.8h1.4v7.8H702.4z M707,231v-7.8h4.7v1.2h-3.3v2h2.8v1.2h-2.8v2.3h3.5v1.2H707z M717,231.1c-0.5,0-1-0.1-1.5-0.3
	c-0.5-0.2-0.9-0.5-1.3-0.9l0.8-0.9c0.3,0.3,0.6,0.5,1,0.6c0.4,0.2,0.7,0.2,1.1,0.2c0.4,0,0.8-0.1,1-0.3c0.2-0.2,0.3-0.4,0.3-0.7
	c0-0.2,0-0.3-0.1-0.4c-0.1-0.1-0.1-0.2-0.3-0.3c-0.1-0.1-0.2-0.2-0.4-0.2c-0.1-0.1-0.3-0.1-0.5-0.2l-1.1-0.5
	c-0.2-0.1-0.4-0.2-0.6-0.3c-0.2-0.1-0.4-0.3-0.5-0.4c-0.2-0.2-0.3-0.4-0.4-0.6c-0.1-0.2-0.1-0.5-0.1-0.8c0-0.3,0.1-0.6,0.2-0.9
	c0.1-0.3,0.3-0.5,0.6-0.7s0.5-0.4,0.8-0.5c0.3-0.1,0.7-0.2,1.1-0.2c0.5,0,0.9,0.1,1.3,0.3c0.4,0.2,0.8,0.4,1.1,0.7l-0.7,0.9
	c-0.3-0.2-0.5-0.4-0.8-0.5c-0.3-0.1-0.6-0.2-0.9-0.2c-0.4,0-0.7,0.1-0.9,0.3c-0.2,0.2-0.3,0.4-0.3,0.7c0,0.2,0,0.3,0.1,0.4
	c0.1,0.1,0.2,0.2,0.3,0.3c0.1,0.1,0.3,0.2,0.4,0.2c0.2,0.1,0.3,0.1,0.5,0.2l1.1,0.4c0.2,0.1,0.4,0.2,0.6,0.3s0.4,0.3,0.5,0.4
	c0.1,0.2,0.3,0.4,0.3,0.6c0.1,0.2,0.1,0.5,0.1,0.8c0,0.3-0.1,0.6-0.2,0.9s-0.3,0.5-0.6,0.7c-0.2,0.2-0.5,0.4-0.9,0.5
	C717.8,231.1,717.4,231.1,717,231.1z M729.1,231.1c-0.5,0-1-0.1-1.4-0.3c-0.4-0.2-0.8-0.5-1.1-0.8c-0.3-0.4-0.5-0.8-0.7-1.3
	c-0.2-0.5-0.3-1.1-0.3-1.7c0-0.6,0.1-1.2,0.3-1.7c0.2-0.5,0.4-0.9,0.7-1.3c0.3-0.3,0.7-0.6,1.1-0.8c0.4-0.2,0.9-0.3,1.4-0.3
	c0.5,0,1,0.1,1.4,0.3c0.4,0.2,0.8,0.4,1.1,0.8c0.3,0.3,0.6,0.8,0.7,1.3c0.2,0.5,0.3,1.1,0.3,1.7c0,0.6-0.1,1.2-0.3,1.7
	c-0.2,0.5-0.4,0.9-0.7,1.3c-0.3,0.4-0.7,0.6-1.1,0.8C730,231.1,729.6,231.1,729.1,231.1z M729.1,229.9c0.3,0,0.6-0.1,0.8-0.2
	s0.5-0.3,0.6-0.6c0.2-0.3,0.3-0.6,0.4-0.9c0.1-0.4,0.1-0.8,0.1-1.2c0-0.9-0.2-1.6-0.6-2.1c-0.4-0.5-0.9-0.8-1.5-0.8
	c-0.6,0-1.1,0.3-1.5,0.8c-0.4,0.5-0.5,1.2-0.5,2.1c0,0.4,0,0.8,0.1,1.2c0.1,0.4,0.2,0.7,0.4,0.9c0.2,0.2,0.4,0.4,0.6,0.6
	S728.7,229.9,729.1,229.9z M735.3,231v-7.8h1.4l2.4,4.4l0.8,1.7h0c0-0.4-0.1-0.8-0.1-1.3c0-0.5-0.1-0.9-0.1-1.4v-3.4h1.3v7.8h-1.4
	l-2.4-4.4l-0.8-1.7h0c0,0.4,0.1,0.9,0.1,1.3c0,0.5,0.1,0.9,0.1,1.3v3.4H735.3z M621.9,246v-7.8h1.4v6.7h3.3v1.2H621.9z M630.7,241.8
	l-0.3,1h2l-0.3-1c-0.1-0.4-0.3-0.8-0.4-1.3c-0.1-0.4-0.2-0.9-0.3-1.3h0c-0.1,0.4-0.2,0.9-0.3,1.3C631,241,630.9,241.4,630.7,241.8z
	 M628.1,246l2.6-7.8h1.6l2.6,7.8h-1.5l-0.6-2.1h-2.6l-0.6,2.1H628.1z M637,246v-7.8h2.7c0.4,0,0.8,0,1.1,0.1s0.7,0.2,0.9,0.4
	c0.3,0.2,0.5,0.4,0.6,0.7c0.2,0.3,0.2,0.7,0.2,1.1c0,0.6-0.1,1.1-0.4,1.5c-0.3,0.4-0.7,0.6-1.1,0.8l1.9,3.3h-1.6l-1.7-3.1h-1.2v3.1
	H637z M638.4,241.8h1.1c0.5,0,0.9-0.1,1.2-0.3c0.3-0.2,0.4-0.6,0.4-1c0-0.5-0.1-0.8-0.4-0.9c-0.3-0.2-0.7-0.3-1.2-0.3h-1.1V241.8z
	 M648.6,246.1c-0.5,0-1-0.1-1.5-0.3c-0.4-0.2-0.8-0.4-1.2-0.8c-0.3-0.3-0.6-0.8-0.8-1.3s-0.3-1.1-0.3-1.7c0-0.6,0.1-1.2,0.3-1.7
	c0.2-0.5,0.5-0.9,0.8-1.3c0.3-0.4,0.7-0.6,1.2-0.8c0.5-0.2,0.9-0.3,1.5-0.3c0.6,0,1,0.1,1.4,0.3c0.4,0.2,0.7,0.4,1,0.7l-0.7,0.9
	c-0.2-0.2-0.4-0.4-0.7-0.5c-0.2-0.1-0.5-0.2-0.9-0.2c-0.4,0-0.7,0.1-1,0.2c-0.3,0.1-0.5,0.3-0.7,0.6c-0.2,0.2-0.4,0.5-0.5,0.9
	c-0.1,0.4-0.2,0.7-0.2,1.2c0,0.9,0.2,1.6,0.6,2.1c0.4,0.5,1,0.8,1.8,0.8c0.2,0,0.4,0,0.6-0.1c0.2-0.1,0.4-0.2,0.5-0.3v-1.7h-1.5
	v-1.1h2.7v3.5c-0.3,0.3-0.6,0.5-1.1,0.7C649.6,246.1,649.1,246.1,648.6,246.1z M654.1,246v-7.8h4.7v1.2h-3.3v2h2.8v1.2h-2.8v2.3h3.5
	v1.2H654.1z M665.3,246v-7.8h2.1c1.2,0,2.1,0.3,2.8,1c0.7,0.6,1,1.6,1,2.9c0,0.6-0.1,1.2-0.3,1.7c-0.2,0.5-0.4,0.9-0.7,1.2
	c-0.3,0.3-0.7,0.6-1.2,0.7c-0.5,0.2-1,0.3-1.6,0.3H665.3z M666.7,244.9h0.6c0.8,0,1.4-0.2,1.8-0.7c0.4-0.5,0.6-1.2,0.6-2.1
	c0-1-0.2-1.7-0.6-2.1s-1-0.7-1.8-0.7h-0.6V244.9z M675.5,241.8l-0.3,1h2l-0.3-1c-0.1-0.4-0.3-0.8-0.4-1.3c-0.1-0.4-0.2-0.9-0.3-1.3
	h0c-0.1,0.4-0.2,0.9-0.3,1.3C675.8,241,675.6,241.4,675.5,241.8z M672.9,246l2.6-7.8h1.6l2.6,7.8h-1.5l-0.6-2.1h-2.6l-0.6,2.1H672.9
	z M682.6,246v-6.7h-2.3v-1.2h5.9v1.2H684v6.7H682.6z M689.9,241.8l-0.3,1h2l-0.3-1c-0.1-0.4-0.3-0.8-0.4-1.3
	c-0.1-0.4-0.2-0.9-0.3-1.3h0c-0.1,0.4-0.2,0.9-0.3,1.3C690.1,241,690,241.4,689.9,241.8z M687.3,246l2.6-7.8h1.6l2.6,7.8h-1.5
	l-0.6-2.1h-2.6l-0.6,2.1H687.3z M702.1,246.1c-0.5,0-1-0.1-1.5-0.3c-0.5-0.2-0.9-0.5-1.3-0.9l0.8-0.9c0.3,0.3,0.6,0.5,1,0.6
	c0.4,0.2,0.7,0.2,1.1,0.2c0.4,0,0.8-0.1,1-0.3c0.2-0.2,0.3-0.4,0.3-0.7c0-0.2,0-0.3-0.1-0.4c-0.1-0.1-0.1-0.2-0.3-0.3
	c-0.1-0.1-0.2-0.2-0.4-0.2c-0.1-0.1-0.3-0.1-0.5-0.2l-1.1-0.5c-0.2-0.1-0.4-0.2-0.6-0.3c-0.2-0.1-0.4-0.3-0.5-0.4
	c-0.2-0.2-0.3-0.4-0.4-0.6c-0.1-0.2-0.1-0.5-0.1-0.8c0-0.3,0.1-0.6,0.2-0.9c0.1-0.3,0.3-0.5,0.6-0.7s0.5-0.4,0.8-0.5
	c0.3-0.1,0.7-0.2,1.1-0.2c0.5,0,0.9,0.1,1.3,0.3c0.4,0.2,0.8,0.4,1.1,0.7l-0.7,0.9c-0.3-0.2-0.5-0.4-0.8-0.5
	c-0.3-0.1-0.6-0.2-0.9-0.2c-0.4,0-0.7,0.1-0.9,0.3c-0.2,0.2-0.3,0.4-0.3,0.7c0,0.2,0,0.3,0.1,0.4c0.1,0.1,0.2,0.2,0.3,0.3
	c0.1,0.1,0.3,0.2,0.4,0.2c0.2,0.1,0.3,0.1,0.5,0.2l1.1,0.4c0.2,0.1,0.4,0.2,0.6,0.3s0.4,0.3,0.5,0.4c0.1,0.2,0.3,0.4,0.3,0.6
	c0.1,0.2,0.1,0.5,0.1,0.8c0,0.3-0.1,0.6-0.2,0.9s-0.3,0.5-0.6,0.7c-0.2,0.2-0.5,0.4-0.9,0.5C702.9,246.1,702.5,246.1,702.1,246.1z
	 M707.5,246v-7.8h4.7v1.2h-3.3v2h2.8v1.2h-2.8v2.3h3.5v1.2H707.5z M716.8,246v-6.7h-2.3v-1.2h5.9v1.2h-2.3v6.7H716.8z M724.8,246.1
	c-0.5,0-1-0.1-1.5-0.3c-0.5-0.2-0.9-0.5-1.3-0.9l0.8-0.9c0.3,0.3,0.6,0.5,1,0.6c0.4,0.2,0.7,0.2,1.1,0.2c0.4,0,0.8-0.1,1-0.3
	c0.2-0.2,0.3-0.4,0.3-0.7c0-0.2,0-0.3-0.1-0.4c-0.1-0.1-0.1-0.2-0.3-0.3c-0.1-0.1-0.2-0.2-0.4-0.2c-0.1-0.1-0.3-0.1-0.5-0.2
	l-1.1-0.5c-0.2-0.1-0.4-0.2-0.6-0.3c-0.2-0.1-0.4-0.3-0.5-0.4c-0.2-0.2-0.3-0.4-0.4-0.6c-0.1-0.2-0.1-0.5-0.1-0.8
	c0-0.3,0.1-0.6,0.2-0.9c0.1-0.3,0.3-0.5,0.6-0.7s0.5-0.4,0.8-0.5c0.3-0.1,0.7-0.2,1.1-0.2c0.5,0,0.9,0.1,1.3,0.3
	c0.4,0.2,0.8,0.4,1.1,0.7l-0.7,0.9c-0.3-0.2-0.5-0.4-0.8-0.5c-0.3-0.1-0.6-0.2-0.9-0.2c-0.4,0-0.7,0.1-0.9,0.3
	c-0.2,0.2-0.3,0.4-0.3,0.7c0,0.2,0,0.3,0.1,0.4c0.1,0.1,0.2,0.2,0.3,0.3c0.1,0.1,0.3,0.2,0.4,0.2c0.2,0.1,0.3,0.1,0.5,0.2l1.1,0.4
	c0.2,0.1,0.4,0.2,0.6,0.3s0.4,0.3,0.5,0.4c0.1,0.2,0.3,0.4,0.3,0.6c0.1,0.2,0.1,0.5,0.1,0.8c0,0.3-0.1,0.6-0.2,0.9s-0.3,0.5-0.6,0.7
	c-0.2,0.2-0.5,0.4-0.9,0.5C725.7,246.1,725.3,246.1,724.8,246.1z"/>
<path class="st3" d="M6.1,231.1c-0.5,0-1-0.1-1.5-0.3c-0.5-0.2-0.9-0.5-1.3-0.9l0.8-0.9c0.3,0.3,0.6,0.5,1,0.6
	c0.4,0.2,0.7,0.2,1.1,0.2c0.4,0,0.8-0.1,1-0.3c0.2-0.2,0.3-0.4,0.3-0.7c0-0.2,0-0.3-0.1-0.4c-0.1-0.1-0.1-0.2-0.3-0.3
	c-0.1-0.1-0.2-0.2-0.4-0.2c-0.1-0.1-0.3-0.1-0.5-0.2l-1.1-0.5c-0.2-0.1-0.4-0.2-0.6-0.3c-0.2-0.1-0.4-0.3-0.5-0.4
	c-0.2-0.2-0.3-0.4-0.4-0.6c-0.1-0.2-0.1-0.5-0.1-0.8c0-0.3,0.1-0.6,0.2-0.9c0.1-0.3,0.3-0.5,0.6-0.7s0.5-0.4,0.8-0.5
	c0.3-0.1,0.7-0.2,1.1-0.2c0.5,0,0.9,0.1,1.3,0.3c0.4,0.2,0.8,0.4,1.1,0.7L8,224.9c-0.3-0.2-0.5-0.4-0.8-0.5
	c-0.3-0.1-0.6-0.2-0.9-0.2c-0.4,0-0.7,0.1-0.9,0.3c-0.2,0.2-0.3,0.4-0.3,0.7c0,0.2,0,0.3,0.1,0.4c0.1,0.1,0.2,0.2,0.3,0.3
	c0.1,0.1,0.3,0.2,0.4,0.2c0.2,0.1,0.3,0.1,0.5,0.2l1.1,0.4c0.2,0.1,0.4,0.2,0.6,0.3s0.4,0.3,0.5,0.4c0.1,0.2,0.3,0.4,0.3,0.6
	c0.1,0.2,0.1,0.5,0.1,0.8c0,0.3-0.1,0.6-0.2,0.9s-0.3,0.5-0.6,0.7c-0.2,0.2-0.5,0.4-0.9,0.5C6.9,231.1,6.5,231.1,6.1,231.1z
	 M11.5,231v-7.8h1.4v7.8H11.5z M16.1,231v-7.8h1.6l1.4,3.8c0.1,0.2,0.2,0.5,0.3,0.8c0.1,0.3,0.2,0.5,0.3,0.8h0
	c0.1-0.3,0.2-0.5,0.2-0.8c0.1-0.3,0.2-0.5,0.3-0.8l1.4-3.8h1.6v7.8h-1.3v-3.6c0-0.2,0-0.4,0-0.6c0-0.2,0-0.4,0-0.6
	c0-0.2,0-0.4,0.1-0.6c0-0.2,0-0.4,0.1-0.6h0l-0.6,1.8l-1.3,3.5h-0.8l-1.3-3.5l-0.6-1.8h0c0,0.2,0,0.4,0,0.6c0,0.2,0,0.4,0.1,0.6
	c0,0.2,0,0.4,0,0.6c0,0.2,0,0.4,0,0.6v3.6H16.1z M26.3,231v-7.8h2.5c0.4,0,0.8,0,1.2,0.1c0.4,0.1,0.7,0.2,1,0.4
	c0.3,0.2,0.5,0.4,0.6,0.8c0.2,0.3,0.2,0.7,0.2,1.1c0,0.4-0.1,0.8-0.2,1.1c-0.2,0.3-0.4,0.6-0.6,0.8c-0.3,0.2-0.6,0.4-0.9,0.5
	c-0.4,0.1-0.8,0.1-1.2,0.1h-1.1v2.9H26.3z M27.7,227h1c1.2,0,1.7-0.5,1.7-1.4c0-0.5-0.2-0.8-0.5-1c-0.3-0.2-0.7-0.3-1.3-0.3h-1V227z
	 M34.5,231v-7.8h1.4v6.7h3.3v1.2H34.5z M41.7,231v-7.8h4.7v1.2h-3.3v2h2.8v1.2h-2.8v2.3h3.5v1.2H41.7z M56,230
	c0.3,0,0.6-0.1,0.8-0.2s0.5-0.3,0.6-0.6c0.2-0.3,0.3-0.6,0.4-0.9c0.1-0.4,0.1-0.8,0.1-1.2c0-0.9-0.2-1.6-0.6-2.1
	c-0.4-0.5-0.9-0.8-1.5-0.8s-1.1,0.3-1.5,0.8c-0.4,0.5-0.5,1.2-0.5,2.1c0,0.5,0,0.9,0.1,1.2s0.2,0.7,0.4,0.9c0.2,0.3,0.4,0.5,0.6,0.6
	S55.7,230,56,230z M58.5,233.1c-0.8,0-1.4-0.2-2-0.6c-0.5-0.4-0.9-0.9-1.2-1.4c-0.4-0.1-0.8-0.2-1.2-0.4c-0.3-0.2-0.6-0.5-0.9-0.9
	c-0.2-0.3-0.4-0.7-0.6-1.2c-0.1-0.5-0.2-1-0.2-1.5c0-0.6,0.1-1.2,0.3-1.7c0.2-0.5,0.4-0.9,0.7-1.3c0.3-0.3,0.7-0.6,1.1-0.8
	c0.4-0.2,0.9-0.3,1.4-0.3s1,0.1,1.4,0.3c0.4,0.2,0.8,0.4,1.1,0.8c0.3,0.3,0.6,0.8,0.7,1.3c0.2,0.5,0.3,1.1,0.3,1.7
	c0,0.5-0.1,1-0.2,1.5c-0.1,0.4-0.3,0.8-0.5,1.2c-0.2,0.3-0.5,0.6-0.8,0.9c-0.3,0.2-0.7,0.4-1.1,0.5c0.2,0.3,0.4,0.5,0.8,0.7
	c0.3,0.1,0.7,0.2,1.1,0.2c0.2,0,0.3,0,0.5,0c0.1,0,0.3,0,0.4-0.1l0.3,1c-0.1,0.1-0.3,0.1-0.5,0.2C59,233.1,58.8,233.1,58.5,233.1z
	 M65.2,231.1c-0.5,0-0.9-0.1-1.2-0.2c-0.4-0.1-0.7-0.3-0.9-0.6c-0.3-0.3-0.5-0.7-0.6-1.1c-0.1-0.5-0.2-1-0.2-1.7v-4.4h1.4v4.5
	c0,0.4,0,0.8,0.1,1.1c0.1,0.3,0.2,0.5,0.3,0.7c0.1,0.2,0.3,0.3,0.5,0.4c0.2,0.1,0.4,0.1,0.6,0.1s0.5,0,0.7-0.1
	c0.2-0.1,0.4-0.2,0.5-0.4c0.1-0.2,0.3-0.4,0.3-0.7c0.1-0.3,0.1-0.7,0.1-1.1v-4.5h1.3v4.4c0,0.6-0.1,1.2-0.2,1.7
	c-0.1,0.4-0.3,0.8-0.6,1.1c-0.3,0.3-0.6,0.5-0.9,0.6C66,231.1,65.6,231.1,65.2,231.1z M71.3,231v-7.8H76v1.2h-3.3v2h2.8v1.2h-2.8
	v2.3h3.5v1.2H71.3z M78.9,231v-7.8h2.7c0.4,0,0.8,0,1.1,0.1c0.4,0.1,0.7,0.2,0.9,0.4c0.3,0.2,0.5,0.4,0.6,0.7
	c0.2,0.3,0.2,0.7,0.2,1.1c0,0.6-0.1,1.1-0.4,1.5c-0.3,0.4-0.7,0.6-1.1,0.8l1.9,3.3h-1.6l-1.7-3.1h-1.2v3.1H78.9z M80.3,226.8h1.1
	c0.5,0,0.9-0.1,1.2-0.3c0.3-0.2,0.4-0.6,0.4-1c0-0.5-0.1-0.8-0.4-0.9c-0.3-0.2-0.7-0.3-1.2-0.3h-1.1V226.8z M87.2,231v-7.8h1.4v7.8
	H87.2z M91.8,231v-7.8h4.7v1.2h-3.3v2H96v1.2h-2.8v2.3h3.5v1.2H91.8z M101.8,231.1c-0.5,0-1-0.1-1.5-0.3c-0.5-0.2-0.9-0.5-1.3-0.9
	l0.8-0.9c0.3,0.3,0.6,0.5,1,0.6c0.4,0.2,0.7,0.2,1.1,0.2c0.4,0,0.8-0.1,1-0.3c0.2-0.2,0.3-0.4,0.3-0.7c0-0.2,0-0.3-0.1-0.4
	c-0.1-0.1-0.1-0.2-0.3-0.3c-0.1-0.1-0.2-0.2-0.4-0.2c-0.1-0.1-0.3-0.1-0.5-0.2l-1.1-0.5c-0.2-0.1-0.4-0.2-0.6-0.3
	c-0.2-0.1-0.4-0.3-0.5-0.4s-0.3-0.4-0.4-0.6c-0.1-0.2-0.1-0.5-0.1-0.8c0-0.3,0.1-0.6,0.2-0.9c0.1-0.3,0.3-0.5,0.6-0.7
	c0.2-0.2,0.5-0.4,0.8-0.5c0.3-0.1,0.7-0.2,1.1-0.2c0.5,0,0.9,0.1,1.3,0.3c0.4,0.2,0.8,0.4,1.1,0.7l-0.7,0.9
	c-0.3-0.2-0.5-0.4-0.8-0.5c-0.3-0.1-0.6-0.2-0.9-0.2c-0.4,0-0.7,0.1-0.9,0.3c-0.2,0.2-0.3,0.4-0.3,0.7c0,0.2,0,0.3,0.1,0.4
	c0.1,0.1,0.2,0.2,0.3,0.3c0.1,0.1,0.3,0.2,0.4,0.2c0.2,0.1,0.3,0.1,0.5,0.2l1.1,0.4c0.2,0.1,0.4,0.2,0.6,0.3s0.4,0.3,0.5,0.4
	c0.1,0.2,0.3,0.4,0.3,0.6c0.1,0.2,0.1,0.5,0.1,0.8c0,0.3-0.1,0.6-0.2,0.9c-0.1,0.3-0.3,0.5-0.6,0.7c-0.2,0.2-0.5,0.4-0.9,0.5
	C102.6,231.1,102.2,231.1,101.8,231.1z M113.9,231.1c-0.5,0-1-0.1-1.4-0.3c-0.4-0.2-0.8-0.5-1.1-0.8c-0.3-0.4-0.5-0.8-0.7-1.3
	c-0.2-0.5-0.3-1.1-0.3-1.7c0-0.6,0.1-1.2,0.3-1.7c0.2-0.5,0.4-0.9,0.7-1.3c0.3-0.3,0.7-0.6,1.1-0.8c0.4-0.2,0.9-0.3,1.4-0.3
	s1,0.1,1.4,0.3c0.4,0.2,0.8,0.4,1.1,0.8c0.3,0.3,0.6,0.8,0.7,1.3c0.2,0.5,0.3,1.1,0.3,1.7c0,0.6-0.1,1.2-0.3,1.7s-0.4,0.9-0.7,1.3
	c-0.3,0.4-0.7,0.6-1.1,0.8C114.9,231.1,114.4,231.1,113.9,231.1z M113.9,229.9c0.3,0,0.6-0.1,0.8-0.2c0.2-0.1,0.5-0.3,0.6-0.6
	c0.2-0.3,0.3-0.6,0.4-0.9c0.1-0.4,0.1-0.8,0.1-1.2c0-0.9-0.2-1.6-0.6-2.1c-0.4-0.5-0.9-0.8-1.5-0.8s-1.1,0.3-1.5,0.8
	c-0.4,0.5-0.5,1.2-0.5,2.1c0,0.4,0,0.8,0.1,1.2c0.1,0.4,0.2,0.7,0.4,0.9c0.2,0.2,0.4,0.4,0.6,0.6S113.6,229.9,113.9,229.9z
	 M120.1,231v-7.8h1.4l2.4,4.4l0.8,1.7h0c0-0.4-0.1-0.8-0.1-1.3c0-0.5-0.1-0.9-0.1-1.4v-3.4h1.3v7.8h-1.4l-2.4-4.4l-0.8-1.7h0
	c0,0.4,0.1,0.9,0.1,1.3c0,0.5,0.1,0.9,0.1,1.3v3.4H120.1z M15,246.1c-0.5,0-1-0.1-1.5-0.3c-0.5-0.2-0.9-0.5-1.3-0.9L13,244
	c0.3,0.3,0.6,0.5,1,0.6c0.4,0.2,0.7,0.2,1.1,0.2c0.4,0,0.8-0.1,1-0.3c0.2-0.2,0.3-0.4,0.3-0.7c0-0.2,0-0.3-0.1-0.4
	c-0.1-0.1-0.1-0.2-0.3-0.3c-0.1-0.1-0.2-0.2-0.4-0.2c-0.1-0.1-0.3-0.1-0.5-0.2l-1.1-0.5c-0.2-0.1-0.4-0.2-0.6-0.3
	c-0.2-0.1-0.4-0.3-0.5-0.4c-0.2-0.2-0.3-0.4-0.4-0.6c-0.1-0.2-0.1-0.5-0.1-0.8c0-0.3,0.1-0.6,0.2-0.9c0.1-0.3,0.3-0.5,0.6-0.7
	c0.2-0.2,0.5-0.4,0.8-0.5c0.3-0.1,0.7-0.2,1.1-0.2c0.5,0,0.9,0.1,1.3,0.3c0.4,0.2,0.8,0.4,1.1,0.7l-0.7,0.9
	c-0.3-0.2-0.5-0.4-0.8-0.5c-0.3-0.1-0.6-0.2-0.9-0.2c-0.4,0-0.7,0.1-0.9,0.3c-0.2,0.2-0.3,0.4-0.3,0.7c0,0.2,0,0.3,0.1,0.4
	c0.1,0.1,0.2,0.2,0.3,0.3c0.1,0.1,0.3,0.2,0.4,0.2c0.2,0.1,0.3,0.1,0.5,0.2l1.1,0.4c0.2,0.1,0.4,0.2,0.6,0.3
	c0.2,0.1,0.4,0.3,0.5,0.4c0.1,0.2,0.3,0.4,0.3,0.6c0.1,0.2,0.1,0.5,0.1,0.8c0,0.3-0.1,0.6-0.2,0.9s-0.3,0.5-0.6,0.7
	c-0.2,0.2-0.5,0.4-0.9,0.5C15.8,246.1,15.4,246.1,15,246.1z M20.4,246v-7.8H22l1.4,3.8c0.1,0.2,0.2,0.5,0.3,0.8
	c0.1,0.3,0.2,0.5,0.3,0.8h0c0.1-0.3,0.2-0.5,0.2-0.8c0.1-0.3,0.2-0.5,0.3-0.8l1.4-3.8h1.6v7.8h-1.3v-3.6c0-0.2,0-0.4,0-0.6
	c0-0.2,0-0.4,0-0.6c0-0.2,0-0.4,0.1-0.6c0-0.2,0-0.4,0.1-0.6h0l-0.6,1.8l-1.3,3.5h-0.8l-1.3-3.5l-0.6-1.8h0c0,0.2,0,0.4,0,0.6
	c0,0.2,0,0.4,0.1,0.6c0,0.2,0,0.4,0,0.6c0,0.2,0,0.4,0,0.6v3.6H20.4z M32.2,241.8l-0.3,1h2l-0.3-1c-0.1-0.4-0.3-0.8-0.4-1.3
	c-0.1-0.4-0.2-0.9-0.3-1.3h0c-0.1,0.4-0.2,0.9-0.3,1.3C32.4,241,32.3,241.4,32.2,241.8z M29.6,246l2.6-7.8h1.6l2.6,7.8h-1.5
	l-0.6-2.1h-2.6L31,246H29.6z M38.5,246v-7.8h1.4v6.7h3.3v1.2H38.5z M45.7,246v-7.8h1.4v6.7h3.3v1.2H45.7z M56.5,246v-7.8h2.1
	c1.2,0,2.1,0.3,2.8,1c0.7,0.6,1,1.6,1,2.9c0,0.6-0.1,1.2-0.3,1.7c-0.2,0.5-0.4,0.9-0.7,1.2c-0.3,0.3-0.7,0.6-1.2,0.7
	c-0.5,0.2-1,0.3-1.6,0.3H56.5z M57.9,244.9h0.6c0.8,0,1.4-0.2,1.8-0.7c0.4-0.5,0.6-1.2,0.6-2.1c0-1-0.2-1.7-0.6-2.1
	c-0.4-0.4-1-0.7-1.8-0.7h-0.6V244.9z M66.7,241.8l-0.3,1h2l-0.3-1c-0.1-0.4-0.3-0.8-0.4-1.3c-0.1-0.4-0.2-0.9-0.3-1.3h0
	c-0.1,0.4-0.2,0.9-0.3,1.3C67,241,66.8,241.4,66.7,241.8z M64.1,246l2.6-7.8h1.6l2.6,7.8h-1.5l-0.6-2.1h-2.6l-0.6,2.1H64.1z
	 M73.8,246v-6.7h-2.3v-1.2h5.9v1.2h-2.3v6.7H73.8z M81.1,241.8l-0.3,1h2l-0.3-1c-0.1-0.4-0.3-0.8-0.4-1.3c-0.1-0.4-0.2-0.9-0.3-1.3
	h0c-0.1,0.4-0.2,0.9-0.3,1.3C81.4,241,81.2,241.4,81.1,241.8z M78.5,246l2.6-7.8h1.6l2.6,7.8h-1.5l-0.6-2.1h-2.6l-0.6,2.1H78.5z
	 M93.3,246.1c-0.5,0-1-0.1-1.5-0.3c-0.5-0.2-0.9-0.5-1.3-0.9l0.8-0.9c0.3,0.3,0.6,0.5,1,0.6c0.4,0.2,0.7,0.2,1.1,0.2
	c0.4,0,0.8-0.1,1-0.3c0.2-0.2,0.3-0.4,0.3-0.7c0-0.2,0-0.3-0.1-0.4c-0.1-0.1-0.1-0.2-0.3-0.3c-0.1-0.1-0.2-0.2-0.4-0.2
	c-0.1-0.1-0.3-0.1-0.5-0.2l-1.1-0.5c-0.2-0.1-0.4-0.2-0.6-0.3c-0.2-0.1-0.4-0.3-0.5-0.4s-0.3-0.4-0.4-0.6c-0.1-0.2-0.1-0.5-0.1-0.8
	c0-0.3,0.1-0.6,0.2-0.9c0.1-0.3,0.3-0.5,0.6-0.7c0.2-0.2,0.5-0.4,0.8-0.5c0.3-0.1,0.7-0.2,1.1-0.2c0.5,0,0.9,0.1,1.3,0.3
	c0.4,0.2,0.8,0.4,1.1,0.7l-0.7,0.9c-0.3-0.2-0.5-0.4-0.8-0.5c-0.3-0.1-0.6-0.2-0.9-0.2c-0.4,0-0.7,0.1-0.9,0.3
	c-0.2,0.2-0.3,0.4-0.3,0.7c0,0.2,0,0.3,0.1,0.4c0.1,0.1,0.2,0.2,0.3,0.3c0.1,0.1,0.3,0.2,0.4,0.2c0.2,0.1,0.3,0.1,0.5,0.2l1.1,0.4
	c0.2,0.1,0.4,0.2,0.6,0.3c0.2,0.1,0.4,0.3,0.5,0.4c0.1,0.2,0.3,0.4,0.3,0.6c0.1,0.2,0.1,0.5,0.1,0.8c0,0.3-0.1,0.6-0.2,0.9
	s-0.3,0.5-0.6,0.7c-0.2,0.2-0.5,0.4-0.9,0.5C94.1,246.1,93.7,246.1,93.3,246.1z M98.7,246v-7.8h4.7v1.2h-3.3v2h2.8v1.2h-2.8v2.3h3.5
	v1.2H98.7z M108,246v-6.7h-2.3v-1.2h5.9v1.2h-2.3v6.7H108z M116,246.1c-0.5,0-1-0.1-1.5-0.3c-0.5-0.2-0.9-0.5-1.3-0.9l0.8-0.9
	c0.3,0.3,0.6,0.5,1,0.6c0.4,0.2,0.7,0.2,1.1,0.2c0.4,0,0.8-0.1,1-0.3c0.2-0.2,0.3-0.4,0.3-0.7c0-0.2,0-0.3-0.1-0.4
	c-0.1-0.1-0.1-0.2-0.3-0.3c-0.1-0.1-0.2-0.2-0.4-0.2c-0.1-0.1-0.3-0.1-0.5-0.2l-1.1-0.5c-0.2-0.1-0.4-0.2-0.6-0.3
	c-0.2-0.1-0.4-0.3-0.5-0.4c-0.2-0.2-0.3-0.4-0.4-0.6c-0.1-0.2-0.1-0.5-0.1-0.8c0-0.3,0.1-0.6,0.2-0.9c0.1-0.3,0.3-0.5,0.6-0.7
	c0.2-0.2,0.5-0.4,0.8-0.5c0.3-0.1,0.7-0.2,1.1-0.2c0.5,0,0.9,0.1,1.3,0.3c0.4,0.2,0.8,0.4,1.1,0.7l-0.7,0.9
	c-0.3-0.2-0.5-0.4-0.8-0.5c-0.3-0.1-0.6-0.2-0.9-0.2c-0.4,0-0.7,0.1-0.9,0.3c-0.2,0.2-0.3,0.4-0.3,0.7c0,0.2,0,0.3,0.1,0.4
	c0.1,0.1,0.2,0.2,0.3,0.3c0.1,0.1,0.3,0.2,0.4,0.2c0.2,0.1,0.3,0.1,0.5,0.2l1.1,0.4c0.2,0.1,0.4,0.2,0.6,0.3s0.4,0.3,0.5,0.4
	c0.1,0.2,0.3,0.4,0.3,0.6c0.1,0.2,0.1,0.5,0.1,0.8c0,0.3-0.1,0.6-0.2,0.9s-0.3,0.5-0.6,0.7c-0.2,0.2-0.5,0.4-0.9,0.5
	C116.9,246.1,116.5,246.1,116,246.1z"/>
<text transform="matrix(1 0 0 1 2043 832.5)"><tspan x="0" y="0" style="font-family:'MyriadPro-Regular'; font-size:12px;">Our Team</tspan><tspan x="0" y="14.4" style="font-family:'MyriadPro-Regular'; font-size:12px;">Headline: </tspan><tspan x="0" y="28.8" style="font-family:'MyriadPro-Regular'; font-size:12px;">Subhead: </tspan></text>
<g>
	<g>
		<path d="M2043.5,828.6c0-2.6,1.3-4,3.1-4c1.9,0,3.1,1.4,3.1,4c0,2.7-1.3,4.1-3.1,4.1C2044.7,832.6,2043.5,831.2,2043.5,828.6z
			 M2047.9,828.6c0-1.6-0.5-2.5-1.3-2.5c-0.8,0-1.3,0.9-1.3,2.5c0,1.7,0.5,2.6,1.3,2.6C2047.4,831.1,2047.9,830.2,2047.9,828.6z"/>
		<path d="M2050.9,830.2v-3.7h1.8v3.4c0,0.8,0.2,1.1,0.9,1.1c0.4,0,0.7-0.2,1.2-0.7v-3.9h1.8v6h-1.4l-0.1-0.9h0c-0.5,0.6-1.2,1-2,1
			C2051.5,832.6,2050.9,831.7,2050.9,830.2z"/>
		<path d="M2058.8,826.5h1.5l0.1,1.3h0c0.6-1,1.5-1.4,2.4-1.4c0.5,0,0.8,0.1,1.1,0.2l-0.4,1.5c-0.4-0.1-0.6-0.2-1.1-0.2
			c-0.7,0-1.5,0.4-2,1.5v3.1h-1.8V826.5z"/>
		<path d="M2074.5,826.2h-2.3v-1.5h6.5v1.5h-2.3v6.3h-1.8V826.2z"/>
		<path d="M2079.7,829.5c0-1.9,1.5-3.1,3.1-3.1c1.8,0,2.8,1.2,2.8,2.9c0,0.3,0,0.6-0.1,0.8h-4.5v-1.2h3.3l-0.3,0.3
			c0-1-0.4-1.5-1.2-1.5c-0.9,0-1.4,0.6-1.4,1.8c0,1.2,0.7,1.8,1.8,1.8c0.5,0,1-0.1,1.5-0.4l0.6,1.1c-0.7,0.4-1.6,0.7-2.4,0.7
			C2081.1,832.6,2079.7,831.5,2079.7,829.5z"/>
		<path d="M2086.9,830.9c0-1.3,1.1-2,3.9-2.2c-0.1-0.5-0.5-0.9-1.3-0.9c-0.6,0-1.1,0.2-1.8,0.6l-0.6-1.2c0.8-0.5,1.8-0.8,2.8-0.8
			c1.7,0,2.7,0.9,2.7,2.7v3.4h-1.4l-0.1-0.7h0c-0.6,0.5-1.3,0.8-2.1,0.8C2087.7,832.6,2086.9,831.9,2086.9,830.9z M2090.8,830.7v-1
			c-1.8,0.1-2.2,0.5-2.2,1c0,0.4,0.3,0.6,0.8,0.6C2090,831.3,2090.4,831,2090.8,830.7z"/>
		<path d="M2093.8,826.5h1.3l0.1,0.7h0c0.2-0.5,0.6-0.9,1.3-0.9c0.5,0,0.9,0.3,1,1c0.2-0.5,0.6-1,1.3-1c0.9,0,1.3,0.7,1.3,1.9v4.2
			h-1.7v-4c0-0.4-0.1-0.5-0.3-0.5c-0.2,0-0.4,0.2-0.5,0.6v4h-1.4v-4c0-0.4-0.1-0.5-0.3-0.5c-0.2,0-0.4,0.2-0.5,0.6v4h-1.7V826.5z"/>
		<path d="M2043.8,839.1h1.8v3h2.1v-3h1.8v7.8h-1.8v-3.3h-2.1v3.3h-1.8V839.1z"/>
		<path d="M2050.9,843.9c0-1.9,1.5-3.1,3.1-3.1c1.8,0,2.8,1.2,2.8,2.9c0,0.3,0,0.6-0.1,0.8h-4.5v-1.2h3.3l-0.3,0.3
			c0-1-0.4-1.5-1.2-1.5c-0.9,0-1.4,0.6-1.4,1.8c0,1.2,0.7,1.8,1.8,1.8c0.5,0,1-0.1,1.5-0.4l0.6,1.1c-0.7,0.4-1.6,0.7-2.4,0.7
			C2052.3,847,2050.9,845.9,2050.9,843.9z"/>
		<path d="M2058.1,845.3c0-1.3,1.1-2,3.9-2.2c-0.1-0.5-0.5-0.9-1.3-0.9c-0.6,0-1.1,0.2-1.8,0.6l-0.6-1.2c0.8-0.5,1.8-0.8,2.8-0.8
			c1.7,0,2.7,0.9,2.7,2.7v3.4h-1.4l-0.1-0.7h0c-0.6,0.5-1.3,0.8-2.1,0.8C2058.9,847,2058.1,846.3,2058.1,845.3z M2062,845.1v-1
			c-1.8,0.1-2.2,0.5-2.2,1c0,0.4,0.3,0.6,0.8,0.6C2061.2,845.7,2061.6,845.4,2062,845.1z"/>
		<path d="M2065.2,843.9c0-1.9,1.3-3.1,2.5-3.1c0.7,0,1.1,0.2,1.5,0.6h0l-0.1-0.9v-2h1.8v8.4h-1.4l-0.1-0.6h0
			c-0.4,0.4-1.1,0.8-1.6,0.8C2066.2,847,2065.2,845.9,2065.2,843.9z M2069.2,845v-2.4c-0.3-0.3-0.6-0.4-1-0.4
			c-0.6,0-1.2,0.5-1.2,1.7c0,1.2,0.4,1.7,1.2,1.7C2068.5,845.6,2068.9,845.4,2069.2,845z"/>
		<path d="M2074.3,844.6v-4.7h-1.9v-1.4h3.6v6.1c0,0.7,0.5,1,1,1c0.3,0,0.6-0.1,0.9-0.2l0.4,1.3c-0.6,0.2-1,0.3-1.8,0.3
			C2075,847,2074.3,846.1,2074.3,844.6z"/>
		<path d="M2082.3,842.3h-2.4V841h4.2v6h-1.8V842.3z M2082,838.9c0-0.6,0.5-1.1,1.2-1.1s1.2,0.5,1.2,1.1c0,0.6-0.5,1.1-1.2,1.1
			S2082,839.6,2082,838.9z"/>
		<path d="M2087.1,841h1.4l0.1,0.8h0c0.5-0.5,1.2-0.9,2.1-0.9c1.3,0,1.9,0.9,1.9,2.4v3.7h-1.8v-3.4c0-0.8-0.2-1.1-0.9-1.1
			c-0.5,0-0.8,0.2-1.2,0.6v4h-1.8V841z"/>
		<path d="M2094.1,843.9c0-1.9,1.5-3.1,3.1-3.1c1.8,0,2.8,1.2,2.8,2.9c0,0.3,0,0.6-0.1,0.8h-4.5v-1.2h3.3l-0.3,0.3
			c0-1-0.4-1.5-1.2-1.5c-0.9,0-1.4,0.6-1.4,1.8c0,1.2,0.7,1.8,1.8,1.8c0.5,0,1-0.1,1.5-0.4l0.6,1.1c-0.7,0.4-1.6,0.7-2.4,0.7
			C2095.5,847,2094.1,845.9,2094.1,843.9z"/>
		<path d="M2102.8,841.8c0-0.8,0.6-1.4,1.4-1.4s1.4,0.6,1.4,1.4c0,0.8-0.6,1.4-1.4,1.4S2102.8,842.6,2102.8,841.8z M2102.8,845.6
			c0-0.8,0.6-1.4,1.4-1.4s1.4,0.6,1.4,1.4c0,0.8-0.6,1.4-1.4,1.4S2102.8,846.4,2102.8,845.6z"/>
		<path d="M2043.6,860.3l1-1.2c0.6,0.5,1.3,0.8,2.1,0.8c0.8,0,1.1-0.3,1.1-0.7c0-0.6-0.5-0.7-1.2-1l-1-0.4c-0.9-0.3-1.7-1-1.7-2.1
			c0-1.3,1.2-2.3,2.9-2.3c0.9,0,1.9,0.4,2.6,1l-0.9,1.1c-0.5-0.4-1-0.6-1.8-0.6c-0.6,0-1,0.2-1,0.7c0,0.5,0.5,0.6,1.3,0.9l1,0.4
			c1,0.4,1.7,1,1.7,2.1c0,1.3-1.1,2.4-3,2.4C2045.5,861.4,2044.4,861.1,2043.6,860.3z"/>
		<path d="M2050.9,859v-3.7h1.8v3.4c0,0.8,0.2,1.1,0.9,1.1c0.4,0,0.7-0.2,1.2-0.7v-3.9h1.8v6h-1.4l-0.1-0.9h0c-0.5,0.6-1.2,1-2,1
			C2051.5,861.4,2050.9,860.5,2050.9,859z"/>
		<path d="M2059.8,860.7L2059.8,860.7l-0.2,0.6h-1.4v-8.4h1.8v2l-0.1,0.9h0c0.4-0.4,1-0.7,1.6-0.7c1.5,0,2.4,1.2,2.4,3
			c0,2.1-1.2,3.2-2.6,3.2C2060.9,861.4,2060.3,861.2,2059.8,860.7z M2062.2,858.2c0-1.1-0.3-1.6-1.1-1.6c-0.4,0-0.7,0.2-1.1,0.6v2.4
			c0.3,0.3,0.7,0.4,1,0.4C2061.7,860,2062.2,859.5,2062.2,858.2z"/>
		<path d="M2065.5,852.9h1.8v2l-0.1,1.1h0c0.4-0.5,1.1-0.9,2-0.9c1.3,0,1.9,0.9,1.9,2.4v3.7h-1.8v-3.4c0-0.8-0.2-1.1-0.9-1.1
			c-0.5,0-0.8,0.2-1.2,0.6v4h-1.8V852.9z"/>
		<path d="M2072.5,858.3c0-1.9,1.5-3.1,3.1-3.1c1.8,0,2.8,1.2,2.8,2.9c0,0.3,0,0.6-0.1,0.8h-4.5v-1.2h3.3l-0.3,0.3
			c0-1-0.4-1.5-1.2-1.5c-0.9,0-1.4,0.6-1.4,1.8c0,1.2,0.7,1.8,1.8,1.8c0.5,0,1-0.1,1.5-0.4l0.6,1.1c-0.7,0.4-1.6,0.7-2.4,0.7
			C2073.9,861.4,2072.5,860.3,2072.5,858.3z"/>
		<path d="M2079.7,859.7c0-1.3,1.1-2,3.9-2.2c-0.1-0.5-0.5-0.9-1.3-0.9c-0.6,0-1.1,0.2-1.8,0.6l-0.6-1.2c0.8-0.5,1.8-0.8,2.8-0.8
			c1.7,0,2.7,0.9,2.7,2.7v3.4h-1.4l-0.1-0.7h0c-0.6,0.5-1.3,0.8-2.1,0.8C2080.5,861.4,2079.7,860.7,2079.7,859.7z M2083.6,859.5v-1
			c-1.8,0.1-2.2,0.5-2.2,1c0,0.4,0.3,0.6,0.8,0.6C2082.8,860.1,2083.2,859.8,2083.6,859.5z"/>
		<path d="M2086.8,858.3c0-1.9,1.3-3.1,2.5-3.1c0.7,0,1.1,0.2,1.5,0.6h0l-0.1-0.9v-2h1.8v8.4h-1.4l-0.1-0.6h0
			c-0.4,0.4-1.1,0.8-1.6,0.8C2087.8,861.4,2086.8,860.3,2086.8,858.3z M2090.8,859.4V857c-0.3-0.3-0.6-0.4-1-0.4
			c-0.6,0-1.2,0.5-1.2,1.7c0,1.2,0.4,1.7,1.2,1.7C2090.1,860,2090.5,859.8,2090.8,859.4z"/>
		<path d="M2095.6,856.2c0-0.8,0.6-1.4,1.4-1.4s1.4,0.6,1.4,1.4c0,0.8-0.6,1.4-1.4,1.4S2095.6,857,2095.6,856.2z M2095.6,860
			c0-0.8,0.6-1.4,1.4-1.4s1.4,0.6,1.4,1.4c0,0.8-0.6,1.4-1.4,1.4S2095.6,860.8,2095.6,860z"/>
	</g>
</g>
<g>
	<path d="M440.5,90h4.7c2.8,0,5,1,5,4.1c0,3-2.3,4.3-5,4.3h-1.7v4.7h-2.9V90z M444.9,96c1.6,0,2.4-0.7,2.4-1.9
		c0-1.3-0.8-1.7-2.4-1.7h-1.5V96H444.9z M444.6,97.5l2-1.9l4.2,7.4h-3.3L444.6,97.5z"/>
	<path d="M451.7,98c0-3.2,2.3-5.2,4.7-5.2c2.8,0,4.2,2.1,4.2,4.8c0,0.5-0.1,1.1-0.1,1.3h-5.9c0.3,1.4,1.2,2.1,2.6,2.1
		c0.8,0,1.4-0.2,2.1-0.6l1,1.8c-1,0.7-2.3,1.1-3.5,1.1C453.9,103.2,451.7,101.3,451.7,98z M458.1,97c0-1.1-0.5-1.9-1.6-1.9
		c-0.9,0-1.7,0.6-1.9,1.9H458.1z"/>
	<path d="M462,100.2c0-2.1,1.7-3.2,5.6-3.6c-0.1-0.9-0.5-1.4-1.6-1.4c-0.8,0-1.7,0.4-2.6,0.9l-1-1.9c1.3-0.8,2.7-1.3,4.2-1.3
		c2.5,0,3.9,1.4,3.9,4.5v5.7h-2.4l-0.2-1h-0.1c-0.8,0.7-1.8,1.3-2.9,1.3C463.1,103.2,462,101.9,462,100.2z M467.6,100.1v-1.7
		c-2.1,0.3-2.8,0.9-2.8,1.6c0,0.6,0.4,1,1.1,1C466.6,101,467,100.6,467.6,100.1z"/>
	<path d="M473,99.9V89h2.9V100c0,0.6,0.3,0.8,0.5,0.8c0.1,0,0.2,0,0.4,0l0.4,2.2c-0.3,0.1-0.8,0.2-1.5,0.2
		C473.7,103.2,473,101.9,473,99.9z"/>
	<path d="M478.3,96.9h4.9V99h-4.9V96.9z"/>
	<path d="M487,92.4h-3.6V90h10.1v2.5H490V103H487V92.4z"/>
	<path d="M495.1,90.1c0-0.9,0.7-1.5,1.7-1.5s1.7,0.6,1.7,1.5c0,0.9-0.7,1.5-1.7,1.5S495.1,91,495.1,90.1z M495.3,93.1h2.9v9.9h-2.9
		V93.1z"/>
	<path d="M500.9,93.1h2.4l0.2,1.3h0.1c0.8-0.8,1.7-1.5,3-1.5c1.4,0,2.2,0.6,2.7,1.7c0.9-0.9,1.8-1.7,3.1-1.7c2.1,0,3.1,1.5,3.1,4
		v6.2h-2.9v-5.8c0-1.4-0.4-1.9-1.2-1.9c-0.5,0-1.1,0.3-1.7,1v6.7h-2.9v-5.8c0-1.4-0.4-1.9-1.2-1.9c-0.5,0-1.1,0.3-1.7,1v6.7h-2.9
		V93.1z"/>
	<path d="M517.4,98c0-3.2,2.3-5.2,4.7-5.2c2.8,0,4.2,2.1,4.2,4.8c0,0.5-0.1,1.1-0.1,1.3h-5.9c0.3,1.4,1.2,2.1,2.6,2.1
		c0.8,0,1.4-0.2,2.1-0.6l1,1.8c-1,0.7-2.3,1.1-3.5,1.1C519.6,103.2,517.4,101.3,517.4,98z M523.8,97c0-1.1-0.5-1.9-1.6-1.9
		c-0.9,0-1.7,0.6-1.9,1.9H523.8z"/>
	<path d="M446.5,113h3.5l4.1,13H451l-1.7-6.6c-0.4-1.3-0.7-2.8-1.1-4.2h-0.1c-0.3,1.4-0.7,2.9-1,4.2l-1.7,6.6h-3L446.5,113z
		 M445.1,120.6h6.3v2.3h-6.3V120.6z"/>
	<path d="M455.3,116.1h2.4l0.2,1.3h0.1c0.8-0.8,1.8-1.5,3.2-1.5c2.2,0,3.1,1.5,3.1,4v6.2h-2.9v-5.8c0-1.4-0.4-1.9-1.2-1.9
		c-0.7,0-1.2,0.3-1.8,1v6.7h-2.9V116.1z"/>
	<path d="M466.3,123.2c0-2.1,1.7-3.2,5.6-3.6c-0.1-0.9-0.5-1.4-1.6-1.4c-0.8,0-1.7,0.4-2.6,0.9l-1-1.9c1.3-0.8,2.7-1.3,4.2-1.3
		c2.5,0,3.9,1.4,3.9,4.5v5.7h-2.4l-0.2-1h-0.1c-0.8,0.7-1.8,1.3-2.9,1.3C467.4,126.2,466.3,124.9,466.3,123.2z M471.8,123.1v-1.7
		c-2.1,0.3-2.8,0.9-2.8,1.6c0,0.6,0.4,1,1.1,1C470.9,124,471.3,123.6,471.8,123.1z"/>
	<path d="M477.3,122.9V112h2.9V123c0,0.6,0.3,0.8,0.5,0.8c0.1,0,0.2,0,0.4,0l0.4,2.2c-0.3,0.1-0.8,0.2-1.5,0.2
		C477.9,126.2,477.3,124.9,477.3,122.9z"/>
	<path d="M482.7,129.7l0.5-2.2c0.2,0,0.5,0.1,0.7,0.1c1,0,1.5-0.5,1.7-1.3l0.1-0.5l-3.8-9.7h3l1.4,4.3c0.3,0.9,0.5,1.8,0.8,2.8h0.1
		c0.2-0.9,0.4-1.9,0.7-2.8l1.2-4.3h2.8l-3.4,10c-0.9,2.5-2,3.8-4.3,3.8C483.5,129.9,483.1,129.8,482.7,129.7z"/>
	<path d="M493.8,122.4v-4h-1.4v-2.2l1.5-0.1l0.3-2.6h2.4v2.6h2.4v2.3h-2.4v4c0,1.1,0.5,1.6,1.3,1.6c0.3,0,0.7-0.1,0.9-0.2l0.5,2.1
		c-0.5,0.2-1.2,0.4-2.2,0.4C494.8,126.2,493.8,124.7,493.8,122.4z"/>
	<path d="M500.8,113.1c0-0.9,0.7-1.5,1.7-1.5s1.7,0.6,1.7,1.5c0,0.9-0.7,1.5-1.7,1.5S500.8,114,500.8,113.1z M501.1,116.1h2.9v9.9
		h-2.9V116.1z"/>
	<path d="M506,121c0-3.3,2.4-5.2,5.2-5.2c1.2,0,2.2,0.4,2.9,1.1l-1.4,1.9c-0.5-0.4-0.9-0.6-1.3-0.6c-1.4,0-2.3,1.1-2.3,2.8
		c0,1.7,0.9,2.8,2.2,2.8c0.7,0,1.3-0.3,1.8-0.7l1.2,1.9c-1,0.9-2.2,1.2-3.3,1.2C508.1,126.2,506,124.3,506,121z"/>
	<path d="M515,124.9l1.3-1.8c0.9,0.7,1.7,1,2.6,1c0.9,0,1.3-0.3,1.3-0.9c0-0.7-1-1-2-1.4c-1.2-0.5-2.6-1.3-2.6-2.9
		c0-1.8,1.5-3.1,3.8-3.1c1.5,0,2.7,0.6,3.5,1.3l-1.3,1.8c-0.7-0.5-1.4-0.8-2.1-0.8c-0.8,0-1.1,0.3-1.1,0.8c0,0.6,0.9,0.9,2,1.2
		c1.3,0.5,2.7,1.2,2.7,3c0,1.8-1.4,3.2-4.1,3.2C517.5,126.2,516,125.7,515,124.9z"/>
</g>
</svg>
