<?xml version="1.0" encoding="utf-8"?>
<!-- Generator: Adobe Illustrator 16.0.0, SVG Export Plug-In . SVG Version: 6.00 Build 0)  -->
<!DOCTYPE svg PUBLIC "-//W3C//DTD SVG 1.1//EN" "http://www.w3.org/Graphics/SVG/1.1/DTD/svg11.dtd">
<svg version="1.1" id="Layer_1" xmlns="http://www.w3.org/2000/svg" xmlns:xlink="http://www.w3.org/1999/xlink" x="0px" y="0px"
	 width="326.297px" height="125.978px" viewBox="0 0 326.297 125.978" enable-background="new 0 0 326.297 125.978"
	 xml:space="preserve">
<g>
	<g>
		<path fill="#1392D1" d="M167.213,117.802V92.136h3.219v25.667L167.213,117.802L167.213,117.802z"/>
		<path fill="#1392D1" d="M178.324,102.313h0.076c1.084-2.357,3.217-4.003,5.91-4.003c2.283,0,4.191,0.974,5.389,2.955
			c0.973,1.609,0.896,4.153,0.896,6.023v10.514h-2.918v-11.748c0-1.123,0.037-2.544-0.523-3.517
			c-0.637-1.085-2.02-1.721-3.256-1.721c-1.533,0-2.918,0.711-3.928,1.907c-1.234,1.497-1.496,3.219-1.496,5.126v9.952h-2.918
			V98.796h2.768V102.313z"/>
		<path fill="#1392D1" d="M195.686,112.19c0.412,2.582,3.441,3.555,5.725,3.555c2.021,0,4.602-0.711,4.602-3.143
			c0-2.021-2.057-2.582-3.703-2.882l-3.104-0.561c-2.92-0.562-5.576-1.908-5.576-5.275c0-3.929,3.631-5.574,7.107-5.574
			c3.406,0,6.588,1.271,7.521,4.788l-2.693,0.562c-0.748-2.095-2.693-2.993-4.863-2.993c-1.721,0-4.041,0.673-4.041,2.77
			c0,2.058,1.721,2.507,3.404,2.769l2.77,0.486c1.385,0.262,2.807,0.523,3.967,1.31c1.496,1.01,2.281,2.582,2.281,4.303
			c0,4.304-4.189,5.874-7.895,5.874s-7.371-1.533-8.344-5.425L195.686,112.19z"/>
		<path fill="#1392D1" d="M216.076,95.428h-3.219v-3.292h3.219V95.428z M215.926,117.802h-2.918V98.796h2.918V117.802z"/>
		<path fill="#1392D1" d="M233.023,92.136h2.918v25.667h-2.656v-3.366h-0.074c-1.197,2.395-3.145,3.74-5.949,3.74
			c-2.506,0-4.414-1.196-5.799-3.218c-1.311-1.945-1.795-4.34-1.795-6.66c0-4.751,2.355-9.99,7.855-9.99
			c2.434,0,4.152,1.16,5.5,3.068V92.136L233.023,92.136z M233.023,106.541c0-1.31-0.188-2.656-0.973-3.779
			c-0.938-1.347-2.619-2.133-4.266-2.133s-3.068,1.01-3.855,2.396c-0.859,1.497-1.121,3.218-1.121,4.938
			c0,3.105,0.822,7.782,4.9,7.782c1.684,0,3.219-0.937,4.189-2.282c0.898-1.234,1.123-2.47,1.123-3.892v-3.03H233.023z"/>
		<path fill="#1392D1" d="M255.922,112.603c-1.123,3.479-4.453,5.574-8.082,5.574c-5.762,0-8.717-4.563-8.717-9.877
			c0-5.237,3.104-9.989,8.791-9.989c5.912,0,8.457,4.938,8.307,10.214h-13.807c0,1.497,0.074,2.881,0.787,4.303
			c0.896,1.796,2.881,2.881,4.861,2.881c2.471,0,4.268-1.422,5.09-3.667L255.922,112.603z M253.004,106.354
			c0.037-3.144-1.723-5.8-5.09-5.8c-3.182,0-5.238,2.807-5.352,5.8H253.004z"/>
		<path fill="#1392D1" d="M262.543,98.796v4.453h0.076c0.896-2.582,2.506-4.976,5.572-4.976l1.086,0.074v2.807h-0.6
			c-2.244,0-3.816,1.085-4.9,2.993c-0.785,1.384-0.936,2.582-0.936,4.077v9.578h-2.918V98.796H262.543z"/>
		<path fill="#1392D1" d="M272.98,117.802h-4.152v-4.228h4.152V117.802L272.98,117.802z"/>
		<path fill="#1392D1" d="M280.986,102.313h0.074c1.086-2.357,3.219-4.003,5.912-4.003c2.283,0,4.189,0.974,5.387,2.955
			c0.975,1.609,0.898,4.153,0.898,6.023v10.514h-2.918v-11.748c0-1.123,0.037-2.544-0.523-3.517
			c-0.637-1.085-2.02-1.721-3.256-1.721c-1.533,0-2.918,0.711-3.928,1.907c-1.234,1.497-1.496,3.219-1.496,5.126v9.952h-2.92V98.796
			h2.77V102.313L280.986,102.313z"/>
		<path fill="#1392D1" d="M313.312,112.603c-1.121,3.479-4.451,5.574-8.082,5.574c-5.762,0-8.717-4.563-8.717-9.877
			c0-5.237,3.105-9.989,8.791-9.989c5.912,0,8.457,4.938,8.309,10.214h-13.809c0,1.497,0.076,2.881,0.787,4.303
			c0.896,1.796,2.881,2.881,4.863,2.881c2.469,0,4.266-1.422,5.088-3.667L313.312,112.603z M310.395,106.354
			c0.039-3.144-1.721-5.8-5.088-5.8c-3.18,0-5.238,2.807-5.35,5.8H310.395z"/>
		<path fill="#1392D1" d="M326.297,117.952l-2.807,0.225c-4.152,0-5.389-2.432-5.389-6.211v-10.999h-3.367v-2.319h3.367v-4.716
			l2.92-0.3v5.015h4.229v2.319h-4.229v11.486c0,2.208,0.637,3.367,3.029,3.367l2.246-0.188V117.952z"/>
	</g>
	<rect x="89.267" y="26.096" fill="#1392D1" width="6.033" height="6.025"/>
	<rect x="104.251" y="28.942" fill="#1392D1" width="6.026" height="6.025"/>
	<rect x="115.512" y="41.739" fill="#1392D1" width="6.027" height="6.027"/>
	<rect x="128.254" y="41.739" fill="#1392D1" width="6.028" height="6.027"/>
	<rect x="140.729" y="41.739" fill="#1392D1" width="6.028" height="6.027"/>
	<rect x="113.184" y="19.39" fill="#1392D1" width="6.025" height="6.028"/>
	<rect x="122.619" y="10.205" fill="#1392D1" width="6.027" height="6.029"/>
	<rect x="89.267" y="13.248" fill="#1392D1" width="6.033" height="6.028"/>
	<rect x="89.267" fill="#1392D1" width="6.033" height="6.028"/>
	<rect x="70.118" y="28.909" fill="#1392D1" width="6.022" height="6.024"/>
	<rect x="61.188" y="19.349" fill="#1392D1" width="6.029" height="6.03"/>
	<rect x="51.752" y="10.17" fill="#1392D1" width="6.025" height="6.028"/>
	<path fill="#1392D1" d="M145.857,125.781l-3.564-4.698c0.379-0.291,9.244-7.24,8.905-19.438
		c-0.083-8.219-2.522-14.628-7.253-19.104c-8.367-7.914-21.162-7.432-21.289-7.422l-2.959,0.135l-0.121-2.958
		c-0.624-15.228-13.051-27.156-28.289-27.156c-9.996,0-19.056,5.113-24.234,13.679l-5.045-3.053
		c6.255-10.346,17.201-16.522,29.279-16.522c17.477,0,31.891,12.981,33.955,30.034c4.917,0.285,15.142,1.777,22.756,8.98
		c5.938,5.617,8.998,13.449,9.095,23.275C157.517,116.785,146.334,125.421,145.857,125.781z"/>
	<path fill="#1DADE4" d="M25.979,117.413H13.973l-2.756,7.974H0l13.973-40.511h14.564l14.104,40.511H28.537L25.979,117.413z
		 M23.616,108.556l-3.673-11.75l-3.674,11.75H23.616z"/>
	<path fill="#1392D1" d="M83.358,125.387H71.747l-6.232-22.321l-5.97,22.321h-12.07L35.469,84.876h12.989l6.233,23.385h0.129
		l6.103-23.385h10.824l6.626,23.385h0.131l6.231-23.385h10.562L83.358,125.387z"/>
	<path fill="#1DADE4" d="M105.748,111.568c1.182,3.603,4.199,4.9,8.201,4.9c1.771,0,5.313-0.236,5.313-2.479
		c0-2.48-3.478-2.952-5.511-3.308c-8.463-1.477-18.5-3.543-18.5-13.17c0-3.955,2.164-7.853,5.773-10.155
		c3.674-2.304,8.463-3.07,12.924-3.07c7.807,0,15.351,2.893,18.105,9.921l-11.415,3.129c-1.312-3.012-3.804-4.074-7.282-4.074
		c-1.836,0-4.46,0.473-4.46,2.599s3.28,2.539,4.986,2.893c4.264,0.769,8.79,1.417,12.726,3.248
		c4.396,2.126,6.692,5.906,6.692,10.334c0,9.745-10.76,13.643-20.073,13.643c-9.447,0-17.845-3.545-20.273-12.343L105.748,111.568z"
		/>
	<path fill="#1392D1" d="M95.261,79.746c-2.8-14.061-15.241-24.267-29.584-24.267c-12.785,0-26.784,10.203-29.584,24.267
		l-0.108,0.545h5.855l0.084-0.35c2.649-11.027,12.416-18.729,23.753-18.729c11.337,0,21.104,7.7,23.753,18.729l0.084,0.35h5.855
		L95.261,79.746z"/>
</g>
<g>
</g>
<g>
</g>
<g>
</g>
<g>
</g>
<g>
</g>
<g>
</g>
</svg>
