<svg width="58" height="58" viewBox="0 0 58 58" fill="none" xmlns="http://www.w3.org/2000/svg">
<path fill-rule="evenodd" clip-rule="evenodd" d="M21.5255 5.94946C21.6592 5.95399 21.7929 5.97892 21.9175 6.02876C22.0421 6.07634 22.1576 6.14884 22.2596 6.23493C22.3615 6.32329 22.4453 6.42978 22.511 6.54533C22.5767 6.66314 22.6198 6.79002 22.6425 6.92368C22.6628 7.05509 22.6628 7.19103 22.6379 7.32243C22.613 7.45384 22.5654 7.58071 22.4975 7.69626C22.3615 7.92736 22.144 8.10861 21.8902 8.19923C15.4354 10.6302 10.8383 16.8633 10.8383 24.1835C10.8383 29.1429 12.9499 33.5951 16.3189 36.719C16.4571 36.8481 16.5636 37.0113 16.627 37.1902C16.6882 37.3692 16.7063 37.5618 16.6769 37.7499L15.2042 47.1818L33.2909 51.9034L34.1586 45.256C34.179 45.0974 34.2334 44.9411 34.3172 44.8028C34.4011 44.6646 34.5143 44.5446 34.6457 44.4539C34.7772 44.3611 34.9289 44.2976 35.0875 44.2682C35.2461 44.2364 35.4093 44.241 35.5679 44.275L40.9759 45.5075L41.9026 39.8479C41.9252 39.7143 41.9705 39.5829 42.0385 39.465C42.1065 39.3472 42.1926 39.2408 42.2968 39.1524C42.401 39.064 42.5211 38.9938 42.6479 38.9485C42.7748 38.9009 42.913 38.8783 43.049 38.8783H46.8983L44.721 28.538C44.7029 28.4474 44.6938 28.3522 44.6961 28.2593L44.8954 22.3167C44.2135 16.0434 40.1331 10.7915 34.5349 8.43494C34.3922 8.3783 34.263 8.29221 34.1543 8.18346C34.0455 8.07471 33.9572 7.94557 33.8983 7.8051C33.8394 7.66463 33.8099 7.51057 33.8099 7.35651C33.8099 7.20244 33.8416 7.05065 33.9005 6.90791C33.9594 6.76744 34.0478 6.6383 34.1565 6.52955C34.2653 6.42307 34.3967 6.33698 34.5394 6.28033C34.6822 6.22369 34.8362 6.19651 34.988 6.19878C35.1421 6.20104 35.2939 6.23502 35.4344 6.2962C41.8213 8.98548 46.4636 14.9892 47.2113 22.1511C47.2158 22.2032 47.2181 22.2576 47.2158 22.3097L47.0164 28.1955L49.4587 39.7978C49.495 39.9655 49.4905 40.1422 49.4519 40.3099C49.4112 40.4775 49.3341 40.6339 49.2254 40.7675C49.1166 40.9012 48.9784 41.0099 48.8244 41.0847C48.668 41.1595 48.4981 41.198 48.3259 41.198H44.0326L43.0674 47.1047C43.0425 47.261 42.9836 47.4106 42.8998 47.5442C42.8137 47.6779 42.7026 47.7912 42.5712 47.8795C42.4398 47.9679 42.2903 48.0291 42.1362 48.0585C41.9822 48.088 41.819 48.0835 41.665 48.0495L36.2955 46.826L35.4232 53.514C35.4028 53.6771 35.3462 53.8335 35.2601 53.9739C35.174 54.1144 35.0584 54.2345 34.9225 54.3251C34.7866 54.4157 34.6302 54.4792 34.4694 54.5063C34.3085 54.5335 34.1409 54.5267 33.9823 54.486L13.6075 49.1662C13.4692 49.13 13.3401 49.0688 13.2246 48.985C13.109 48.9012 13.0093 48.797 12.9323 48.6791C12.8553 48.5613 12.7986 48.4277 12.7692 48.2872C12.7397 48.149 12.7352 48.004 12.7578 47.8635L14.3008 37.9919C10.7415 34.4734 8.52795 29.5819 8.52795 24.1873C8.52795 15.8951 13.7434 8.79704 21.0821 6.03276C21.2271 5.97612 21.3811 5.94893 21.5352 5.95346L21.5255 5.94946Z" fill="url(#paint0_linear)"/>
<path fill-rule="evenodd" clip-rule="evenodd" d="M31.2359 3.47998C31.3877 3.47998 31.5395 3.50943 31.6799 3.56834C31.8204 3.62724 31.9495 3.71334 32.056 3.81982C32.1625 3.9263 32.2486 4.05545 32.3075 4.19592C32.3664 4.33639 32.3959 4.48818 32.3959 4.63997V21.7384C34.7725 23.0706 36.3856 25.6126 36.3856 28.5174C36.3856 30.9688 35.2392 33.1619 33.4539 34.5871L36.1591 39.2702C36.2384 39.4016 36.2882 39.5488 36.3109 39.7006C36.3313 39.8524 36.3245 40.0088 36.2837 40.156C36.2452 40.3033 36.1772 40.4437 36.0843 40.5661C35.9914 40.6884 35.8736 40.7904 35.7422 40.8674C35.6108 40.9445 35.4613 40.9943 35.3095 41.0124C35.1577 41.0328 35.0013 41.0215 34.8541 40.9807C34.7068 40.9399 34.5663 40.8697 34.4463 40.7768C34.3262 40.6816 34.2242 40.5638 34.1495 40.4302L31.4466 35.7516C30.5675 36.0983 29.6114 36.2886 28.6123 36.2886C24.3325 36.2886 20.8414 32.7973 20.8414 28.5178C20.8414 25.6132 22.4545 23.0689 24.8312 21.7387V4.64031C24.8312 4.48851 24.8606 4.33672 24.9195 4.19625C24.9785 4.05578 25.0645 3.92665 25.171 3.82016C25.2775 3.71368 25.4067 3.62758 25.5471 3.56868C25.6876 3.50977 25.8394 3.48032 25.9912 3.48032L31.2359 3.47998ZM30.0759 5.79998H27.1532V20.8916C27.6267 20.801 28.1161 20.7534 28.6145 20.7534C29.1129 20.7534 29.6023 20.801 30.0758 20.8916L30.0759 5.79998ZM28.6146 23.073C25.5877 23.073 23.1635 25.4972 23.1635 28.5195C23.1635 31.5464 25.5877 33.9706 28.6146 33.9706C31.6346 33.9706 34.0656 31.5464 34.0656 28.5195C34.0656 25.4995 31.6346 23.073 28.6146 23.073Z" fill="url(#paint1_linear)"/>
<defs>
<linearGradient id="paint0_linear" x1="8.52795" y1="30.2566" x2="49.549" y2="30.2566" gradientUnits="userSpaceOnUse">
<stop stop-color="#660099"/>
<stop offset="1" stop-color="#133675"/>
</linearGradient>
<linearGradient id="paint1_linear" x1="20.8414" y1="22.267" x2="36.4105" y2="22.267" gradientUnits="userSpaceOnUse">
<stop stop-color="#660099"/>
<stop offset="1" stop-color="#133675"/>
</linearGradient>
</defs>
</svg>
