<svg width="56" height="56" viewBox="0 0 56 56" fill="none" xmlns="http://www.w3.org/2000/svg">
<path d="M36.3431 22.1771H34.72V17.6402C34.72 13.9433 31.6969 10.9202 28 10.9202C24.3031 10.9202 21.28 13.9433 21.28 17.6402V22.1771H19.6569C19.0969 22.1771 18.6484 22.6255 18.6484 23.1855V39.1455C18.6484 39.7055 19.0969 40.154 19.6569 40.154H36.3454C36.9054 40.154 37.3539 39.7055 37.3539 39.1455L37.3517 23.1833C37.3517 22.6233 36.9033 22.177 36.3433 22.177L36.3431 22.1771ZM23.2402 17.6971C23.2402 15.0655 25.3687 12.9371 28.0002 12.9371C30.6318 12.9371 32.7602 15.0655 32.7602 17.6971V22.234H23.2402V17.6971ZM35.3917 38.1371H20.6088V24.1371H35.3373V38.1371H35.3917Z" fill="url(#paint0_linear)"/>
<path d="M26.9915 32.1427V34.9427C26.9915 35.5027 27.4399 35.9512 27.9999 35.9512C28.56 35.9512 29.0084 35.5027 29.0084 34.9427V32.1427C30.1284 31.7511 30.9684 30.6312 30.9684 29.3996C30.9684 27.7765 29.6253 26.4312 27.9999 26.4312C26.3768 26.4312 25.0315 27.7743 25.0315 29.3996C25.0315 30.6312 25.8715 31.6965 26.9915 32.1427ZM27.9999 28.3912C28.5599 28.3912 29.0084 28.8396 29.0084 29.3996C29.0084 29.9596 28.56 30.3512 27.9999 30.3512C27.4399 30.3512 26.9915 29.9027 26.9915 29.3427C26.9915 28.7827 27.4399 28.3912 27.9999 28.3912Z" fill="url(#paint1_linear)"/>
<path d="M7.2229 36.68V39.3685C5.93445 39.8716 5.09445 41.2169 5.37445 42.6716C5.59757 43.7916 6.49445 44.6885 7.61445 44.9116C9.51755 45.3032 11.1429 43.9032 11.1429 42.0547C11.1429 40.7663 10.3029 39.7032 9.1829 39.3116V37.6316H16.2943C16.4628 37.6316 16.6312 37.52 16.6312 37.2947V35.9516C16.6312 35.7832 16.5196 35.6147 16.2943 35.6147L8.23146 35.6169C7.67146 35.7285 7.22301 36.1769 7.22301 36.68L7.2229 36.68ZM8.23134 43.0629C7.72822 43.0629 7.27979 42.6145 7.27979 42.1114C7.27979 41.6083 7.72823 41.1598 8.23134 41.1598C8.73447 41.1598 9.1829 41.6083 9.1829 42.1114C9.1829 42.6714 8.73664 43.0629 8.23134 43.0629Z" fill="url(#paint2_linear)"/>
<path d="M9.18297 22.9029C10.4714 22.4544 11.3661 21.1113 11.0861 19.5998C10.8629 18.4798 9.96608 17.5829 8.84608 17.3598C6.94297 16.9682 5.31763 18.3682 5.31763 20.2167C5.31763 21.4482 6.10073 22.5135 7.22073 22.9598V25.6482C7.22073 26.2082 7.66917 26.6567 8.22918 26.6567H16.2921C16.4605 26.6567 16.6289 26.5451 16.6289 26.3198V24.9767C16.6289 24.8082 16.5174 24.6398 16.2921 24.6398H9.18286L9.18297 22.9029ZM8.23142 19.2081C8.73455 19.2081 9.18297 19.6566 9.18297 20.1597C9.18297 20.6628 8.73453 21.1113 8.23142 21.1113C7.72829 21.1113 7.27987 20.7197 7.27987 20.1597C7.27987 19.6566 7.7283 19.2081 8.23142 19.2081Z" fill="url(#paint3_linear)"/>
<path d="M4.31165 28.2229C2.5201 28.2229 1.06321 29.9029 1.45476 31.7513C1.67788 32.8713 2.57476 33.7682 3.69476 33.9913C5.20631 34.2713 6.55165 33.4313 6.99786 32.1429H16.2379C16.4063 32.1429 16.5747 32.0313 16.5747 31.806V30.4629C16.5747 30.2945 16.4632 30.126 16.2379 30.126L7.05666 30.1282C6.66291 29.0629 5.59976 28.2229 4.31137 28.2229L4.31165 28.2229ZM4.31165 32.0882C3.80853 32.0882 3.3601 31.6398 3.3601 31.1366C3.3601 30.6335 3.80854 30.1851 4.31165 30.1851C4.81478 30.1851 5.26321 30.6335 5.26321 31.1366C5.26321 31.6966 4.81695 32.0882 4.31165 32.0882Z" fill="url(#paint4_linear)"/>
<path d="M48.7773 25.5913V22.9029C50.0657 22.3997 50.9057 21.0544 50.6257 19.5998C50.4026 18.4798 49.5057 17.5829 48.3857 17.3598C46.4826 16.9682 44.8573 18.3682 44.8573 20.2167C44.8573 21.5051 45.6973 22.5682 46.8173 22.9598V24.6398H39.7036C39.5351 24.6398 39.3667 24.7513 39.3667 24.9766V26.3197C39.3667 26.4882 39.4783 26.6566 39.7036 26.6566H47.7665C48.3286 26.5997 48.7771 26.1513 48.7771 25.5913L48.7773 25.5913ZM47.7688 19.2084C48.2719 19.2084 48.7204 19.6569 48.7204 20.16C48.7204 20.6631 48.2719 21.1115 47.7688 21.1115C47.2657 21.1115 46.8173 20.6631 46.8173 20.16C46.8173 19.6569 47.2635 19.2084 47.7688 19.2084Z" fill="url(#paint5_linear)"/>
<path d="M48.7771 39.423V36.7345C48.7771 36.1745 48.3287 35.7261 47.7687 35.7261L39.7036 35.7283C39.5351 35.7283 39.3667 35.8398 39.3667 36.0651V37.4082C39.3667 37.5767 39.4783 37.7451 39.7036 37.7451H46.815V39.4251C45.5266 39.8736 44.6319 41.2167 44.9119 42.7282C45.135 43.8482 46.0319 44.7451 47.1519 44.9682C49.055 45.3598 50.6804 43.9598 50.6804 42.1113C50.6804 40.8798 49.8973 39.8166 48.7773 39.4229L48.7771 39.423ZM47.7687 43.063C47.2656 43.063 46.8171 42.6145 46.8171 42.1114C46.8171 41.6083 47.2656 41.1599 47.7687 41.1599C48.2718 41.1599 48.7202 41.6083 48.7202 42.1114C48.7202 42.6714 48.2718 43.063 47.7687 43.063Z" fill="url(#paint6_linear)"/>
<path d="M52.3031 28.28C50.7915 28 49.4462 28.84 49 30.1284H39.7028C39.5344 30.1284 39.366 30.24 39.366 30.4653V31.8084C39.366 31.9768 39.4775 32.1453 39.7028 32.1453H48.9428C49.3344 33.2653 50.3997 34.0484 51.6859 34.0484C53.4775 34.0484 54.9344 32.3684 54.5428 30.5199C54.3197 29.3999 53.3681 28.503 52.3028 28.2799L52.3031 28.28ZM51.6884 32.0884C51.1852 32.0884 50.7368 31.64 50.7368 31.1369C50.7368 30.6337 51.1852 30.1853 51.6884 30.1853C52.1915 30.1853 52.6399 30.6337 52.6399 31.1369C52.6399 31.6969 52.1915 32.0884 51.6884 32.0884Z" fill="url(#paint7_linear)"/>
<defs>
<linearGradient id="paint0_linear" x1="18.6484" y1="25.5494" x2="37.3838" y2="25.5494" gradientUnits="userSpaceOnUse">
<stop stop-color="#660099"/>
<stop offset="1" stop-color="#133675"/>
</linearGradient>
<linearGradient id="paint1_linear" x1="25.0315" y1="31.1952" x2="30.9779" y2="31.1952" gradientUnits="userSpaceOnUse">
<stop stop-color="#660099"/>
<stop offset="1" stop-color="#133675"/>
</linearGradient>
<linearGradient id="paint2_linear" x1="5.32056" y1="40.3002" x2="16.6493" y2="40.3002" gradientUnits="userSpaceOnUse">
<stop stop-color="#660099"/>
<stop offset="1" stop-color="#133675"/>
</linearGradient>
<linearGradient id="paint3_linear" x1="5.31763" y1="21.9791" x2="16.647" y2="21.9791" gradientUnits="userSpaceOnUse">
<stop stop-color="#660099"/>
<stop offset="1" stop-color="#133675"/>
</linearGradient>
<linearGradient id="paint4_linear" x1="1.39062" y1="31.1365" x2="16.599" y2="31.1365" gradientUnits="userSpaceOnUse">
<stop stop-color="#660099"/>
<stop offset="1" stop-color="#133675"/>
</linearGradient>
<linearGradient id="paint5_linear" x1="39.3667" y1="21.9791" x2="50.6977" y2="21.9791" gradientUnits="userSpaceOnUse">
<stop stop-color="#660099"/>
<stop offset="1" stop-color="#133675"/>
</linearGradient>
<linearGradient id="paint6_linear" x1="39.3667" y1="40.3841" x2="50.6985" y2="40.3841" gradientUnits="userSpaceOnUse">
<stop stop-color="#660099"/>
<stop offset="1" stop-color="#133675"/>
</linearGradient>
<linearGradient id="paint7_linear" x1="39.366" y1="31.1397" x2="54.6314" y2="31.1397" gradientUnits="userSpaceOnUse">
<stop stop-color="#660099"/>
<stop offset="1" stop-color="#133675"/>
</linearGradient>
</defs>
</svg>
