<svg width="83" height="24" viewBox="0 0 83 24" fill="none" xmlns="http://www.w3.org/2000/svg">
<path d="M19.3586 0.15332C19.3586 2.45957 19.3702 4.77701 19.3702 7.08326C19.3702 10.5874 19.3702 14.0916 19.3702 17.5957C19.3702 17.786 19.3702 17.9652 19.3702 18.1891C18.6592 18.5809 17.9598 18.9728 17.2604 19.3534C15.1622 20.5065 13.064 21.6485 10.9659 22.8016C10.826 22.8799 10.6861 22.9359 10.5579 23.0255C10.1616 23.2942 9.78855 23.2494 9.38058 23.0255C6.73454 21.5589 4.07685 20.1035 1.41917 18.6593C1.16272 18.5026 0.917936 18.2898 0.591553 18.2898C0.591553 12.2443 0.591553 6.19883 0.591553 0.15332C6.85111 0.15332 13.099 0.15332 19.3586 0.15332ZM16.8524 15.6701C15.1739 12.4682 13.4953 9.26636 11.7935 6.00851C11.4554 6.41154 11.1057 6.73621 10.8493 7.09446C10.6278 7.39673 10.4064 7.73259 10.1616 8.03487C9.7769 8.51627 9.35726 8.98648 8.9726 9.45668C8.61125 9.8933 8.28486 10.3747 7.93517 10.8337C7.48056 11.4271 7.62044 12.2779 8.27321 12.6586C9.25235 13.2519 10.2432 13.8005 11.3505 14.1587C11.4554 14.1923 11.607 14.2259 11.6536 14.3043C11.7469 14.4834 11.8751 14.4722 12.0383 14.461C12.1781 14.4498 12.2947 14.517 12.4346 14.5506C13.064 14.7185 13.6469 15.0208 14.2996 15.1327C14.8591 15.2335 15.407 15.4462 15.9665 15.5582C16.2346 15.6253 16.5027 15.7933 16.8524 15.6701ZM12.4579 15.5582C12.2831 15.3231 12.0266 15.3119 11.8168 15.2783C10.6511 15.0992 9.55542 14.7297 8.47137 14.2931C7.51553 13.9012 6.64129 13.3527 5.74374 12.8489C5.4057 12.6586 5.07932 12.681 4.75293 12.7257C4.49649 12.7705 4.48483 13.0504 4.39158 13.2519C4.2517 13.5542 4.07686 13.8453 3.92532 14.1364C3.63391 14.6737 3.35415 15.2111 3.02777 15.8269C4.08851 15.8269 5.06766 15.8269 6.05847 15.8269C7.02596 15.8269 8.00511 15.8045 8.9726 15.8269C9.95175 15.8492 10.9192 15.6813 12.0033 15.7485C12.0616 15.7037 12.2364 15.5918 12.4579 15.5582ZM9.98672 2.48196C8.51799 5.34798 7.07258 8.15802 5.63883 10.9569C5.77871 11.0464 5.8603 11.0016 5.9419 10.9345C7.97014 9.31114 9.66033 7.37434 11.4788 5.56069C10.9775 4.51952 10.4996 3.53433 9.98672 2.48196Z" fill="#0B7E6F"/>
<path d="M82.1872 15.8259C81.3596 15.8259 80.532 15.8259 79.6811 15.8259C79.6111 15.5237 79.6461 15.2662 79.6461 15.0423C79.7627 14.8744 79.9258 14.9863 80.0424 14.8968C80.0541 14.8632 80.089 14.8296 80.089 14.796C80.089 14.2923 80.1007 13.7885 80.089 13.2847C80.0774 12.6802 79.8093 12.5347 79.2381 12.7922C79.1332 12.837 79.0399 12.9041 78.9234 12.9713C78.9234 13.6094 78.9234 14.2363 78.9234 14.8632C79.005 14.9751 79.1449 14.8856 79.2614 14.9975C79.2614 15.2214 79.2614 15.4789 79.2614 15.7587C78.4338 15.7587 77.6179 15.7587 76.7553 15.7587C76.6737 15.5125 76.732 15.255 76.7203 15.0311C76.8369 14.852 77.035 14.9863 77.1866 14.852C77.1866 14.1355 77.1866 13.3967 77.1866 12.6467C77.0467 12.4899 76.8252 12.6355 76.627 12.5235C76.5454 12.3108 76.662 12.0757 76.6037 11.7847C77.2915 11.6839 77.9559 11.5832 78.597 11.4824C78.8068 11.628 78.7369 11.8742 78.8884 12.0421C79.1682 11.9078 79.4363 11.7623 79.716 11.6391C80.7418 11.2026 81.7093 11.7735 81.7443 12.8594C81.7676 13.531 81.7443 14.1915 81.7443 14.8744C81.8841 14.9751 82.0473 14.9191 82.1872 14.9191C82.1872 15.2326 82.1872 15.5237 82.1872 15.8259Z" fill="#474749"/>
<path d="M43.7207 0.152553C43.744 0.298093 43.8956 0.264507 43.9888 0.320483C44.4201 0.600368 44.525 1.08177 44.2336 1.47361C43.9538 1.85425 43.3127 1.9662 42.9397 1.70871C42.3918 1.31687 42.4152 0.678735 42.9863 0.320483C43.0796 0.264507 43.2311 0.298093 43.2544 0.141357C43.406 0.152553 43.5692 0.152553 43.7207 0.152553Z" fill="#474749"/>
<path d="M68.1294 14.8735C68.2226 14.9855 68.3625 14.9071 68.4791 14.9855C68.6073 15.2429 68.5024 15.5116 68.4091 15.7915C67.6981 15.7915 66.987 15.7915 66.241 15.7915C66.1361 15.534 66.2061 15.2765 66.1944 15.0526C66.2643 14.8959 66.4159 14.9743 66.5558 14.8623C66.5558 14.2914 66.5674 13.6869 66.5558 13.0712C66.5441 12.7129 66.3926 12.6122 66.0196 12.6682C65.938 12.6794 65.868 12.6906 65.7981 12.7241C65.6932 12.7689 65.5766 12.8137 65.495 12.9368C65.495 13.5637 65.495 14.213 65.495 14.8511C65.5766 14.9855 65.7748 14.8847 65.8447 15.0191C65.8447 15.2541 65.8447 15.5004 65.8447 15.7691C65.0054 15.7691 64.1778 15.7691 63.3386 15.7691C63.3386 15.5004 63.3386 15.2429 63.3386 15.0079C63.4901 14.8623 63.7116 15.019 63.8631 14.8399C63.8631 14.1235 63.8631 13.3846 63.8631 12.657C63.7116 12.5226 63.5134 12.6458 63.3269 12.5338C63.3269 12.3211 63.3269 12.086 63.3269 11.8062C63.968 11.6606 64.6208 11.5599 65.2502 11.5375C65.4834 11.6494 65.3202 11.8845 65.5183 12.0189C66.3226 11.5151 67.1502 11.0897 67.9545 12.0748C68.1993 11.9517 68.4208 11.851 68.6423 11.739C69.8778 11.1009 70.8687 11.9517 70.8803 13.004C70.8803 13.6197 70.8803 14.2354 70.8803 14.8623C70.9736 14.9743 71.1601 14.8959 71.3349 14.9743C71.3466 15.2317 71.4282 15.5116 71.2417 15.7691C71.1834 15.7803 71.1251 15.7915 71.0668 15.8027C70.3441 15.8027 69.6331 15.8027 68.8987 15.8027C68.7355 15.5452 68.8521 15.2877 68.8171 15.0638C68.8987 14.8847 69.0736 14.9743 69.2484 14.8511C69.1668 14.1794 69.4116 13.4294 69.0852 12.7465C68.7122 12.6122 68.4324 12.7129 68.141 12.8921C68.1294 13.5302 68.1294 14.1794 68.1294 14.8735Z" fill="#474749"/>
<path d="M41.4476 15.7926C40.5734 15.7926 39.7458 15.7926 38.8949 15.7926C38.8133 15.5351 38.8599 15.2776 38.8599 15.0537C38.9998 14.8746 39.2212 15.0201 39.3728 14.8857C39.3728 13.3632 39.3728 11.8406 39.3728 10.3181C39.1979 10.1613 38.9531 10.3181 38.7666 10.1949C38.6501 9.91505 38.8249 9.65756 38.8249 9.38887C39.5593 9.29931 40.2703 9.22094 41.0163 9.14258C41.0163 10.0718 41.0163 10.9786 41.0163 11.9302C41.3544 11.8966 41.5992 11.7511 41.844 11.6391C42.928 11.1353 43.9654 12.0869 43.9305 13.0049C43.9072 13.5199 43.9888 14.0461 43.8605 14.5611C43.8372 14.6618 43.8605 14.7738 43.8605 14.8634C44.0121 15.0425 44.2336 14.8857 44.3734 15.0425C44.3734 15.2776 44.3734 15.5351 44.3734 15.815C43.5458 15.815 42.7299 15.815 41.9022 15.815C41.7973 15.5687 41.8789 15.3112 41.8556 15.1208C41.9489 14.9417 42.1004 15.0089 42.182 14.9417C42.1937 14.9081 42.2286 14.8746 42.2286 14.841C42.2286 14.3372 42.2403 13.8334 42.2286 13.3296C42.217 12.7139 41.9838 12.5571 41.401 12.7475C41.2961 12.781 41.2028 12.8594 41.0746 12.9266C41.0746 13.5871 41.0746 14.2588 41.0746 14.9193C41.1679 15.0425 41.3311 14.9193 41.4826 15.0537C41.5292 15.2216 41.5059 15.4791 41.4476 15.7926Z" fill="#474749"/>
<path d="M33.7195 12.6691C33.5564 12.5235 33.3582 12.6579 33.1717 12.5235C33.1017 12.322 33.1717 12.0869 33.1367 11.8295C33.8128 11.6392 34.4889 11.628 35.1183 11.4824C35.3515 11.5944 35.2582 11.8295 35.3864 12.0086C35.6195 11.8966 35.8527 11.7847 36.0975 11.6727C37.2631 11.113 38.1257 11.8966 38.3239 12.7363C38.522 13.5759 38.4171 14.4043 37.8459 15.1208C37.4613 15.6133 36.96 15.8932 36.3073 15.8596C36.0392 15.8484 35.7711 15.8596 35.4447 15.8596C35.3864 16.2515 35.433 16.6769 35.4214 17.0911C35.6312 17.259 35.8876 17.0911 36.1324 17.2366C36.2024 17.4381 36.1674 17.6732 36.1557 17.9643C35.1999 18.0202 34.2557 17.9195 33.3232 18.0762C33.1484 17.8075 33.2883 17.5389 33.23 17.3374C33.3465 17.1023 33.603 17.2702 33.7195 17.0911C33.7195 15.6245 33.7195 14.1356 33.7195 12.6691ZM35.4447 12.893C35.4097 13.3744 35.4447 13.8334 35.3748 14.2923C35.3165 14.7289 35.4564 14.8745 35.8643 14.964C36.2024 15.0312 36.4705 14.8745 36.587 14.4939C36.6803 14.1804 36.7386 13.8445 36.7153 13.5087C36.6337 12.6355 36.3073 12.4676 35.4447 12.893Z" fill="#474749"/>
<path d="M29.4064 14.8963C29.5929 14.9299 29.7445 14.9523 29.9077 14.9747C29.9077 15.2434 29.9077 15.5009 29.9077 15.7808C28.9751 15.7808 28.0543 15.7808 27.0984 15.7808C27.0984 15.5121 27.0984 15.2546 27.0984 15.0195C27.215 14.8739 27.4132 14.9747 27.5297 14.8515C27.5414 14.65 27.4598 14.4597 27.3316 14.2694C26.7487 14.2694 26.1776 14.2246 25.5831 14.3589C25.4898 14.5045 25.4549 14.6836 25.4199 14.8627C25.5598 14.9971 25.7696 14.8963 25.9328 14.9971C25.9328 15.2658 25.9328 15.5121 25.9328 15.792C25.1401 15.792 24.3708 15.792 23.5665 15.792C23.4849 15.5345 23.5199 15.2882 23.5432 15.0531C23.6831 14.8851 23.9045 15.0083 24.0794 14.818C24.7322 13.1163 25.4199 11.3586 26.1076 9.5897C26.5506 9.52253 26.9935 9.57851 27.5064 9.54492C28.1475 11.3138 28.7653 13.0827 29.4064 14.8963ZM27.1684 13.4521C26.9469 12.758 26.7487 12.1311 26.5156 11.381C26.2592 12.1311 26.026 12.758 25.8628 13.4521C26.3058 13.4521 26.7021 13.4521 27.1684 13.4521Z" fill="#474749"/>
<path d="M32.6702 5.76048C32.7984 5.90601 32.9966 5.78287 33.1481 5.97317C33.2181 6.14109 33.1831 6.36497 33.1598 6.63364C32.3322 6.712 31.5162 6.58886 30.7003 6.73438C30.5721 6.46572 30.6536 6.20825 30.6303 5.97317C30.7119 5.81645 30.9101 5.9284 31.015 5.76048C31.05 5.21196 31.0267 4.61866 31.015 4.02537C31.0033 3.79029 30.8868 3.64476 30.6536 3.55521C30.3855 3.62237 30.1058 3.70073 29.861 3.91342C29.861 4.51792 29.861 5.1448 29.861 5.79406C29.9193 5.9172 30.1058 5.85004 30.199 5.96198C30.199 6.18586 30.199 6.39856 30.199 6.66722C29.3481 6.712 28.5089 6.64483 27.6812 6.73438C27.623 6.43214 27.6346 6.19706 27.6579 5.97317C27.7978 5.80526 28.0193 5.96198 28.1825 5.80526C28.1825 5.08882 28.1825 4.35 28.1825 3.58879C28.0426 3.44326 27.8211 3.58879 27.6579 3.47685C27.553 3.15221 27.553 3.15221 27.623 2.69325C28.2641 2.60369 28.9285 2.50294 29.5463 2.41339C29.7794 2.55892 29.6862 2.794 29.8144 2.9731C30.1058 2.89474 30.3389 2.70444 30.607 2.5813C31.5512 2.16712 32.2273 2.50294 32.6003 3.29774C32.6935 3.48804 32.6819 3.70073 32.6819 3.90223C32.6819 4.21567 32.6819 4.5403 32.6819 4.85374C32.6702 5.1448 32.6702 5.45824 32.6702 5.76048Z" fill="#474749"/>
<path d="M52.3815 15.7808C52.3815 15.5121 52.3815 15.2658 52.3815 15.0307C52.498 14.8627 52.7195 15.0083 52.8944 14.8739C52.8944 13.4409 52.8944 11.9743 52.8944 10.5189C52.7545 10.3957 52.5447 10.5301 52.3698 10.3734C52.3698 10.1494 52.3232 9.90314 52.4164 9.61206C53.3606 9.61206 54.3048 9.61206 55.2606 9.61206C55.3889 9.86956 55.3189 10.1382 55.3189 10.3957C55.1091 10.5301 54.8993 10.4181 54.6778 10.5189C54.6778 11.9519 54.6778 13.4073 54.6778 14.8851C55.0042 15.0083 55.3306 14.9299 55.657 14.9075C55.8784 14.8963 55.9833 14.7284 56.0533 14.5493C56.1582 14.2694 56.2048 13.9783 56.403 13.7096C56.6944 13.8439 57.0208 13.788 57.3355 13.9559C57.2423 14.5605 57.1257 15.165 56.9275 15.7919C55.4238 15.7808 53.9318 15.7808 52.3815 15.7808Z" fill="#474749"/>
<path d="M54.1882 2.50313C54.1882 3.58897 54.1882 4.64123 54.1882 5.6599C54.3631 5.82782 54.5613 5.71587 54.7478 5.80543C54.8294 6.0629 54.7711 6.32036 54.6895 6.58902C54.1766 6.73455 53.652 6.76813 53.1508 6.76813C52.906 6.67858 52.8128 6.4435 52.603 6.32036C52.4165 6.40992 52.2416 6.52186 52.0434 6.60022C50.9594 7.04799 49.8753 6.39872 49.8404 5.25691C49.817 4.66362 49.8404 4.05913 49.8404 3.48822C49.7588 3.32031 49.5723 3.40987 49.4673 3.29792C49.4091 3.05165 49.4557 2.80538 49.4907 2.51433C50.1667 2.51433 50.8195 2.51433 51.5072 2.51433C51.6588 3.533 51.2974 4.59645 51.6821 5.59274C52.0551 5.68229 52.3349 5.6599 52.568 5.41363C52.568 4.76437 52.568 4.09271 52.568 3.44345C52.4281 3.30912 52.2416 3.40986 52.0901 3.32031C52.0901 3.07404 52.0901 2.82777 52.0901 2.54791C52.7778 2.44716 53.4655 2.48074 54.1882 2.50313Z" fill="#474749"/>
<path d="M60.6926 14.572C60.6926 13.9115 60.6926 13.2286 60.6926 12.5569C60.576 12.4002 60.3662 12.5457 60.2496 12.3666C60.2496 12.1427 60.2146 11.8852 60.2846 11.6053C60.9723 11.6053 61.6367 11.6053 62.3478 11.6053C62.4177 12.6577 62.3245 13.71 62.3594 14.7511C62.511 14.9414 62.7558 14.7847 62.919 14.9638C62.9889 15.1765 62.919 15.4116 62.9539 15.6579C62.441 15.8818 61.9165 15.8482 61.4036 15.8594C61.1122 15.8706 61.0423 15.6131 60.8558 15.49C60.6459 15.4564 60.4944 15.5907 60.3196 15.6691C59.5036 16.0721 58.8159 15.8594 58.3496 15.2885C58.1514 15.0422 58.0465 14.7847 58.0465 14.4712C58.0698 13.8443 58.0465 13.2062 58.0465 12.6017C57.9533 12.4114 57.7435 12.5121 57.6152 12.4002C57.6152 12.1763 57.6152 11.9636 57.6152 11.7173C58.268 11.4934 58.9441 11.6613 59.6784 11.5605C59.6784 11.9524 59.6784 12.2994 59.6784 12.6465C59.6784 13.1167 59.7134 13.5756 59.6668 14.0458C59.6085 14.6728 60.0398 15.0534 60.6926 14.572Z" fill="#474749"/>
<path d="M47.4158 13.2847C47.3575 12.7025 47.136 12.5457 46.6348 12.6689C46.2734 12.7584 45.9703 12.96 45.6323 13.1279C45.3992 12.9488 45.2476 12.7248 45.0961 12.4449C45.7722 11.8292 46.5648 11.4933 47.4857 11.4821C48.3483 11.4709 49.001 12.1426 49.0244 12.9824C49.036 13.5981 49.0244 14.2139 49.0244 14.8073C49.1642 14.9753 49.3391 14.7737 49.5139 14.9193C49.6072 15.1208 49.5256 15.3783 49.5489 15.6582C49.0127 15.8934 48.4415 15.8374 47.9286 15.8486C47.7305 15.7702 47.6489 15.6135 47.509 15.5015C47.4507 15.5127 47.3924 15.5239 47.3458 15.5463C46.8796 15.759 46.4133 15.9046 45.8888 15.8598C45.2243 15.8038 44.7231 15.2552 44.7581 14.6618C44.7697 14.4267 44.8863 14.2363 45.0378 14.0684C45.4108 13.6653 45.8888 13.4302 46.4483 13.363C46.763 13.3182 47.0777 13.3854 47.4158 13.2847ZM47.474 14.6618C47.4158 14.4603 47.5323 14.2587 47.3924 14.046C47.0777 14.0124 46.7863 14.0684 46.5415 14.2811C46.4133 14.3931 46.355 14.5274 46.4133 14.6842C46.4716 14.8409 46.5998 14.9081 46.7747 14.9193C47.0078 14.9417 47.2176 14.8409 47.474 14.6618Z" fill="#474749"/>
<path d="M61.6367 2.39129C61.9864 2.41367 62.2312 2.38009 62.4876 2.45845C63.7232 2.7943 64.3527 3.98095 63.933 5.19C63.595 6.15276 62.849 6.7013 61.7766 6.76847C61.4618 6.79086 61.1588 6.79086 60.8557 6.72369C59.6318 6.46621 58.9673 5.34673 59.2821 4.1041C59.5735 2.91744 60.6925 2.31292 61.6367 2.39129ZM62.2778 4.58548C62.2895 4.21605 62.2895 3.83542 62.1263 3.48838C61.9398 3.09656 61.5201 3.05178 61.252 3.39882C61.1821 3.48838 61.1355 3.58913 61.1005 3.68989C60.9256 4.29441 60.9256 4.89893 61.1005 5.50345C61.1937 5.8281 61.4036 5.98483 61.6717 5.97364C61.9164 5.96244 62.1146 5.79452 62.2079 5.46987C62.2895 5.1788 62.2661 4.87654 62.2778 4.58548Z" fill="#474749"/>
<path d="M73.5263 14.0681C73.6429 14.6503 73.8061 14.8071 74.2607 14.8519C74.7969 14.8966 75.2981 14.7623 75.8227 14.6167C75.9276 14.8742 76.0208 15.1318 76.0092 15.4341C75.1233 15.8595 74.1908 15.9715 73.2466 15.7923C72.3723 15.6356 71.8478 14.9302 71.8012 14.0681C71.7545 13.2956 71.976 12.635 72.5822 12.1088C73.3049 11.4818 74.1558 11.3363 75.065 11.6162C75.7411 11.8289 76.2889 12.8142 76.1374 13.4859C76.0791 13.7434 75.7411 14.0233 75.4264 14.0457C74.8086 14.0905 74.1908 14.1353 73.5263 14.0681ZM74.5987 13.2508C74.5871 12.579 74.4356 12.3439 74.0742 12.3439C73.7128 12.3439 73.538 12.6014 73.4914 13.2396C73.8411 13.2844 74.2024 13.2732 74.5987 13.2508Z" fill="#474749"/>
<path d="M32.3556 9.11963C32.3556 11.0675 32.3556 12.9818 32.3556 14.8849C32.5072 14.9968 32.6937 14.8849 32.8802 14.9856C32.9967 15.2319 32.9734 15.5006 32.8802 15.7916C31.9826 15.7916 31.0967 15.7916 30.2108 15.7916C30.0593 15.5342 30.1525 15.2767 30.1409 15.0752C30.3041 14.8625 30.5255 15.0304 30.6654 14.8625C30.6654 13.3512 30.6654 11.8287 30.6654 10.3063C30.5022 10.1607 30.2807 10.2951 30.0942 10.1943C30.0942 9.93684 30.0942 9.67936 30.0942 9.3883C30.8519 9.29874 31.5863 9.20919 32.3556 9.11963Z" fill="#474749"/>
<path d="M24.056 6.73477C23.986 6.38772 24.0327 6.14143 24.056 5.90634C24.2192 5.772 24.429 5.89514 24.5922 5.72722C24.5922 4.31664 24.5922 2.87248 24.5922 1.43951C24.4523 1.29398 24.2425 1.40593 24.056 1.29398C23.9977 1.07008 24.0327 0.812591 24.0443 0.532715C25.0351 0.532715 26.0143 0.532715 27.0167 0.532715C27.0167 0.801396 27.0167 1.04769 27.0167 1.32756C26.8186 1.34995 26.6321 1.38354 26.3989 1.40593C26.329 2.83889 26.3523 4.26066 26.3523 5.67124C26.5388 5.87275 26.7953 5.80558 27.0284 5.87275C27.04 6.14143 27.0867 6.39892 26.9468 6.70118C26.0026 6.6676 25.0468 6.58923 24.056 6.73477Z" fill="#474749"/>
<path d="M45.8307 3.39829C45.6092 3.39829 45.411 3.39829 45.2362 3.39829C45.038 3.09601 45.2478 2.82732 45.2362 2.55863C45.4227 2.43548 45.6675 2.54743 45.8656 2.41308C45.8773 2.3795 45.9239 2.33472 45.9239 2.27874C45.8423 1.70777 46.1337 1.42788 46.7049 1.32712C46.9614 1.28234 47.2061 1.12561 47.5209 1.1368C47.5209 1.56223 47.5209 1.97646 47.5209 2.41308C48.0221 2.54743 48.5117 2.42428 49.0013 2.50265C49.0595 2.79373 49.0829 3.08481 48.908 3.38709C48.4651 3.38709 48.0221 3.38709 47.5325 3.38709C47.5325 3.76774 47.5325 4.1148 47.5325 4.46186C47.5325 4.80892 47.5325 5.16717 47.5325 5.49184C48.0104 5.97325 48.535 5.50304 49.0129 5.64858C49.1178 5.86129 49.0712 6.10759 49.1062 6.3315C48.943 6.55541 48.6865 6.55541 48.4767 6.61139C47.9871 6.74573 47.4859 6.76812 46.9847 6.75693C46.2736 6.73454 45.8423 6.30911 45.8307 5.62619C45.8307 4.90968 45.8307 4.19317 45.8307 3.39829Z" fill="#474749"/>
<path d="M33.766 6.56693C33.7193 6.16391 33.6611 5.7497 33.6028 5.33548C33.9059 5.15636 34.2206 5.18995 34.512 5.17875C34.547 5.24592 34.5819 5.3019 34.5936 5.34668C34.7335 5.82806 35.1181 6.02957 35.596 5.86165C35.7126 5.81687 35.7942 5.7385 35.8175 5.62655C35.8408 5.50341 35.7942 5.39146 35.6776 5.34668C35.5378 5.27951 35.3862 5.23473 35.2463 5.18995C34.9549 5.10039 34.6519 5.02203 34.3838 4.8653C33.5445 4.37272 33.5095 3.39876 34.3022 2.82782C34.5703 2.6375 34.8733 2.52555 35.1997 2.45839C35.7709 2.34644 36.7617 2.38002 37.2046 2.55914C37.3329 2.93977 37.2979 3.35398 37.3212 3.77939C37.0531 3.91373 36.7617 3.85775 36.5053 3.95851C36.2954 3.77939 36.3421 3.5219 36.1905 3.34278C36.0273 3.24203 35.8292 3.25323 35.6427 3.28681C35.4678 3.3092 35.3629 3.40995 35.3396 3.57788C35.3163 3.73461 35.4329 3.81297 35.5727 3.85775C35.7942 3.92492 36.0157 4.00329 36.2372 4.07046C36.4003 4.12643 36.5752 4.14882 36.7384 4.22719C37.5077 4.57423 37.7175 5.46982 37.1697 6.09674C36.9132 6.38781 36.6102 6.58932 36.2022 6.67888C35.4095 6.82441 34.4071 6.80202 33.766 6.56693Z" fill="#474749"/>
<path d="M55.7619 1.60786C56.2748 1.40635 56.741 1.21603 57.3239 1.12646C57.3239 1.60786 57.3239 2.02208 57.3239 2.48109C57.8368 2.48109 58.2914 2.48109 58.746 2.48109C58.9325 2.79456 58.711 3.06324 58.7576 3.34312C58.2797 3.45508 57.7901 3.34312 57.2539 3.42149C57.2539 4.03723 57.2423 4.66416 57.2656 5.2911C57.2772 5.57098 57.522 5.7501 57.8368 5.72771C58.1398 5.71652 58.4429 5.64934 58.7576 5.60456C58.9558 5.85086 58.8392 6.11955 58.9208 6.38823C58.1049 6.72409 57.2889 6.82485 56.4613 6.71289C55.9833 6.65692 55.6453 6.18672 55.6336 5.70532C55.622 4.94404 55.6336 4.18277 55.6336 3.44388C55.4122 3.32073 55.214 3.4103 55.0042 3.34312C54.9226 3.08563 54.9342 2.82814 55.0042 2.57065C55.214 2.41392 55.4938 2.57065 55.7036 2.36914C55.7152 2.15643 55.7385 1.89894 55.7619 1.60786Z" fill="#474749"/>
<path d="M38.5685 3.40987C38.3121 3.39867 38.1256 3.38748 37.9158 3.37629C37.9158 3.09642 37.9158 2.83895 37.9158 2.58147C38.0906 2.42475 38.3704 2.59267 38.5802 2.41356C38.6268 2.16728 38.6734 1.88741 38.7317 1.61874C39.1863 1.37246 39.6642 1.24932 40.1888 1.11499C40.3054 1.57397 40.1888 2.01055 40.2704 2.48072C40.7483 2.48072 41.2262 2.48072 41.7508 2.48072C41.7391 2.79417 41.7275 3.06284 41.7041 3.38748C41.2029 3.38748 40.725 3.38748 40.2121 3.38748C40.2121 4.04796 40.2004 4.66366 40.2121 5.26816C40.2238 5.604 40.4336 5.74953 40.7949 5.72714C41.0863 5.70475 41.3661 5.604 41.6808 5.62639C41.7974 5.85028 41.7857 6.10775 41.8557 6.35403C41.4827 6.6227 41.063 6.63389 40.6784 6.70106C40.317 6.76823 39.944 6.76823 39.5827 6.74584C38.9649 6.71226 38.5918 6.32045 38.5918 5.73833C38.5685 4.9883 38.5685 4.22707 38.5685 3.40987Z" fill="#474749"/>
<path d="M42.2171 6.73525C42.2171 6.41057 42.2171 6.17546 42.2171 5.94035C42.3453 5.77241 42.5668 5.92915 42.73 5.76122C42.73 5.06708 42.73 4.32816 42.73 3.56684C42.5901 3.4101 42.3337 3.58924 42.1355 3.4213C42.1355 3.19738 42.1355 2.93988 42.1355 2.64879C42.8815 2.55922 43.6159 2.46966 44.3852 2.3689C44.3852 3.53326 44.3852 4.64164 44.3852 5.70524C44.5367 5.91796 44.7582 5.78361 44.9331 5.94035C44.9913 6.11948 44.9447 6.35459 44.9447 6.62329C44.0355 6.71286 43.1496 6.57851 42.2171 6.73525Z" fill="#474749"/>
<path d="M25.2684 19.2061C25.4782 19.1837 25.6297 19.1725 25.8395 19.2285C26.026 20.1913 26.2009 21.1654 26.3874 22.117C26.2125 22.229 26.0843 22.2178 25.9328 22.1394C25.8628 21.9715 25.9095 21.7475 25.7346 21.546C25.3033 21.49 24.8254 21.5348 24.3358 21.5236C24.1843 21.7475 24.0328 21.9603 23.8929 22.1618C23.7414 22.2178 23.6015 22.2178 23.4033 22.1394C23.9978 21.143 24.6506 20.1913 25.2684 19.2061ZM25.4898 19.6763C25.1285 20.1801 24.8138 20.628 24.5573 21.1654C25.0003 21.1766 25.3616 21.1989 25.7579 21.143C25.6647 20.6727 25.5831 20.2137 25.4898 19.6763Z" fill="#0B7E6F"/>
<path d="M27.2265 19.9458C27.5762 20.0801 27.8793 19.9682 28.194 19.957C28.8118 19.9122 29.1265 20.2145 29.1382 20.8189C29.1382 20.9533 29.1499 21.0876 29.1149 21.2107C28.9167 22.1286 28.1474 22.442 27.1915 21.9943C27.0983 22.3189 27.005 22.6323 26.9234 22.9346C26.8069 23.0129 26.7253 22.9905 26.5737 22.9682C26.7136 21.9607 27.005 21.0092 27.2265 19.9458ZM27.2615 21.5689C27.5645 21.8712 27.8676 21.9719 28.194 21.804C28.5321 21.6361 28.6836 21.345 28.7069 20.9868C28.7302 20.595 28.5903 20.36 28.2756 20.2928C27.9142 20.2145 27.5645 20.3936 27.448 20.7406C27.3664 21.0092 27.3198 21.2779 27.2615 21.5689Z" fill="#0B7E6F"/>
<path d="M38.8948 20.1805C39.0813 20.0014 39.0813 20.0014 39.396 20.0238C39.2328 20.7402 39.0697 21.4566 38.8948 22.1953C38.5451 22.1282 38.2187 22.1617 37.8924 22.2065C37.3562 22.2737 37.0065 21.9491 36.9715 21.4342C36.9598 21.2327 36.9948 21.0312 37.0414 20.8297C37.2513 20.035 38.1371 19.6432 38.8948 20.1805ZM38.8249 20.6059C38.6966 20.4156 38.5451 20.3036 38.3003 20.2924C37.8108 20.27 37.4378 20.6282 37.3911 21.1767C37.3678 21.5685 37.5543 21.8259 37.8924 21.8819C38.2071 21.9267 38.5684 21.7364 38.65 21.423C38.7316 21.1431 38.8482 20.8857 38.8249 20.6059Z" fill="#0B7E6F"/>
<path d="M46.6698 22.2182C46.4134 22.1286 46.2036 22.1174 45.9588 22.1734C45.2361 22.3525 44.6999 21.8375 44.8281 21.1323C44.8398 21.0427 44.8631 20.9532 44.8864 20.8636C45.0962 20.0576 45.7606 19.7441 46.5766 20.0688C46.6232 20.0912 46.6815 20.1024 46.7281 20.1247C46.8563 20.0464 46.9613 19.912 47.1478 19.9904C47.2643 20.1024 46.9729 21.4793 46.6698 22.2182ZM46.6349 20.5054C46.3551 20.2815 46.0404 20.2031 45.7257 20.371C45.3876 20.5389 45.271 20.8636 45.2361 21.2106C45.2128 21.5353 45.4226 21.8151 45.7257 21.8711C46.0287 21.9271 46.4367 21.7368 46.5066 21.4345C46.5766 21.1435 46.7165 20.8636 46.6349 20.5054Z" fill="#0B7E6F"/>
<path d="M34.3955 19.9566C35.0366 19.8671 35.4562 20.4044 35.4446 20.8746C35.4329 21.6134 34.9084 22.2067 34.1973 22.2179C33.5445 22.2291 33.1016 21.8485 33.1133 21.2552C33.1366 20.4828 33.7893 19.8447 34.3955 19.9566ZM35.0133 20.8634C35.0249 20.7067 34.9783 20.4604 34.7102 20.3484C34.4538 20.2365 34.1857 20.2365 33.9409 20.4268C33.6495 20.6619 33.5212 20.9529 33.5562 21.3224C33.6028 21.7701 34.0108 21.994 34.4421 21.8149C34.8384 21.647 35.0016 21.3559 35.0133 20.8634Z" fill="#0B7E6F"/>
<path d="M56.2979 19.9571C57.1256 19.8676 57.4753 20.6064 57.3121 21.2108C57.1605 21.7705 56.7409 22.1623 56.2047 22.2183C55.5286 22.2854 54.9691 21.9272 55.0274 21.1437C55.0857 20.4385 55.5869 19.9571 56.2979 19.9571ZM55.4587 21.1661C55.4354 21.5914 55.6452 21.8377 56.0182 21.8713C56.4728 21.9048 56.9041 21.4683 56.9158 20.9534C56.9274 20.5392 56.6943 20.2929 56.3096 20.2817C55.8433 20.2817 55.482 20.6623 55.4587 21.1661Z" fill="#0B7E6F"/>
<path d="M41.9487 20.9087C41.9603 21.6363 41.3891 22.2073 40.6781 22.2185C40.0253 22.2185 39.6523 21.8378 39.629 21.2221C39.6057 20.5952 40.2934 19.9011 40.8762 19.9459C41.5523 19.9907 41.937 20.2817 41.9487 20.9087ZM40.6781 21.8826C41.0394 21.8602 41.2726 21.6811 41.4241 21.3676C41.564 21.0542 41.5756 20.7631 41.3658 20.4721C41.2842 20.3601 41.156 20.3153 41.0161 20.3041C40.6315 20.2482 40.3867 20.4273 40.2002 20.7072C40.0253 20.9646 40.0137 21.446 40.1652 21.6587C40.2934 21.8154 40.4566 21.8938 40.6781 21.8826Z" fill="#0B7E6F"/>
<path d="M30.7354 19.9568C31.3882 19.9568 31.8195 20.371 31.7962 20.9532C31.7612 21.681 31.19 22.2296 30.4673 22.2296C29.8262 22.2184 29.4648 21.8601 29.4648 21.2555C29.4765 20.4606 29.9777 19.9568 30.7354 19.9568ZM30.5023 21.8713C30.9685 21.8825 31.3765 21.4123 31.3532 20.886C31.3299 20.4718 31.0501 20.2479 30.6305 20.2927C30.036 20.3598 29.6513 21.1659 30.001 21.625C30.106 21.7929 30.2691 21.8825 30.5023 21.8713Z" fill="#0B7E6F"/>
<path d="M50.7496 21.2098C50.1318 21.2098 49.5606 21.2098 48.9894 21.2098C49.036 21.8927 49.3624 22.0158 50.3066 21.7472C50.4348 21.8703 50.4232 21.9934 50.2717 22.0606C49.8287 22.2733 49.3741 22.2845 48.9428 22.0382C48.5581 21.8255 48.4998 21.4561 48.5348 21.0643C48.6047 20.2919 49.3741 19.7658 50.1551 19.9561C50.4349 20.0232 50.6214 20.2024 50.7263 20.471C50.7846 20.6949 50.8195 20.9188 50.7496 21.2098ZM50.3416 20.9188C50.3649 20.4934 50.1784 20.2471 49.817 20.2247C49.444 20.2024 49.1409 20.471 49.036 20.9188C49.4673 20.9188 49.9103 20.9188 50.3416 20.9188Z" fill="#0B7E6F"/>
<path d="M52.5679 22.1734C52.6029 21.7143 52.7311 21.3337 52.8127 20.9307C52.8477 20.7291 52.9642 20.4828 52.6961 20.3261C52.4863 20.203 52.1133 20.3037 51.9035 20.5052C51.7986 20.606 51.7636 20.7179 51.7403 20.8523C51.6703 21.1994 51.5888 21.5352 51.5072 21.8823C51.4489 22.1174 51.4489 22.1174 51.0642 22.1845C51.1225 21.4345 51.3789 20.7403 51.5072 20.0462C51.717 19.9119 51.8569 19.9455 51.9501 20.1694C52.2066 19.9679 52.5096 19.9231 52.8243 19.9567C53.1391 20.0014 53.3139 20.1694 53.3023 20.4828C53.2673 21.0202 53.0924 21.5352 52.9759 22.0614C52.9176 22.2293 52.7661 22.1957 52.5679 22.1734Z" fill="#0B7E6F"/>
<path d="M54.5961 19.9115C54.701 20.0234 54.8642 19.9115 54.9691 20.0234C55.0157 20.3929 54.666 20.2586 54.4678 20.3481C54.3862 20.8184 54.1648 21.2886 54.1997 21.7476C54.3163 21.9492 54.5494 21.7476 54.6194 21.9716C54.631 22.0499 54.5844 22.1283 54.4911 22.1731C54.3396 22.2291 54.1881 22.2179 54.0365 22.1843C53.8151 22.1283 53.7102 21.9716 53.7451 21.77C53.7801 21.4901 53.85 21.2214 53.9083 20.9527C53.9433 20.7736 53.9899 20.5944 54.0249 20.4601C53.9666 20.2698 53.6868 20.3369 53.7568 20.113C53.8151 19.9003 54.0365 20.0234 54.1298 19.9339C54.2813 19.7995 54.1764 19.5868 54.3046 19.4748C54.4212 19.3741 54.5261 19.4301 54.6194 19.4301C54.7476 19.6092 54.5261 19.7547 54.5961 19.9115Z" fill="#0B7E6F"/>
<path d="M43.9652 21.681C44.0585 21.9721 44.4897 21.7258 44.3965 22.0952C44.3149 22.2296 44.1634 22.2184 44.0351 22.2184C43.6272 22.2072 43.4873 22.0393 43.5572 21.6474C43.6388 21.2331 43.7437 20.8189 43.837 20.4158C43.767 20.2703 43.6155 20.3486 43.5456 20.2815C43.4523 19.9232 43.7904 20.0239 43.9302 19.9232C43.9885 19.7552 44.0351 19.6097 44.0934 19.4641C44.1983 19.3858 44.2916 19.4081 44.3848 19.4305C44.5014 19.5761 44.3615 19.7552 44.4198 19.912C44.5131 20.0239 44.8744 19.8896 44.7345 20.2255C44.6296 20.3822 44.3965 20.2367 44.245 20.4046C44.1517 20.8301 44.0585 21.2779 43.9652 21.681Z" fill="#0B7E6F"/>
<path d="M47.4158 22.1399C47.5906 21.1437 47.8354 20.1923 48.0569 19.2632C48.1851 19.1513 48.29 19.1737 48.4066 19.2073C48.4299 19.2408 48.4649 19.2744 48.4532 19.2968C48.2667 20.1251 48.0919 20.9646 47.882 21.7929C47.8354 21.972 47.8587 22.2854 47.4158 22.1399Z" fill="#0B7E6F"/>
<path d="M32.3905 22.1841C32.2273 22.1841 32.1224 22.2288 32.0059 22.1281C32.169 21.4453 32.3322 20.7289 32.4838 20.0572C32.6236 19.9565 32.7285 19.9565 32.8917 20.0572C32.7285 20.7513 32.5654 21.4789 32.3905 22.1841Z" fill="#0B7E6F"/>
<path d="M33.1022 19.4755C33.0322 19.6437 32.9271 19.767 32.717 19.711C32.6586 19.6885 32.5769 19.6213 32.5652 19.554C32.5185 19.3521 32.6586 19.2512 32.8337 19.2063C32.9855 19.2399 33.0789 19.3297 33.1022 19.4755Z" fill="#0B7E6F"/>
</svg>
