<svg width="21" height="24" viewBox="0 0 21 24" fill="none" xmlns="http://www.w3.org/2000/svg">
<path d="M10.7325 1.07084C10.3698 1.41625 10.3441 2.00038 10.6735 2.38056L11.5281 3.36342C13.8315 6.01528 16.1905 8.75051 18.3182 11.6227C16.037 11.6204 13.57 11.5705 11.1575 11.5207C7.64114 11.4465 4.00597 11.37 0.870178 11.443C0.37944 11.45 -4.85663e-07 11.8394 -4.63815e-07 12.3865C0.0089016 12.8999 0.416159 13.3045 0.908007 13.2952C4.00706 13.2245 7.6257 13.301 11.1219 13.3728C13.5098 13.4227 15.9534 13.4725 18.2235 13.4771C17.6538 14.2004 17.0841 14.9236 16.5121 15.6468C15.4906 16.9415 14.4669 18.2361 13.4376 19.5504C12.6331 20.5773 11.8753 21.5474 10.9851 22.3842C10.6201 22.7273 10.59 23.3149 10.9205 23.6951C11.2499 24.0752 11.8129 24.1042 12.1779 23.7611C13.1694 22.8304 14.0062 21.7583 14.8341 20.7015C15.8422 19.4091 16.8638 18.118 17.8853 16.8279C18.8589 15.5947 19.8348 14.3615 20.7986 13.1282C20.832 13.0853 20.8498 13.0331 20.8754 12.9868C20.8954 12.9497 20.9199 12.9161 20.9355 12.8755C20.9744 12.7677 21 12.6565 21 12.5417L21 12.5301C20.9978 12.3505 20.9343 12.1929 20.8464 12.0514C20.8353 12.0352 20.8409 12.012 20.8286 11.9981C18.3928 8.49901 15.5743 5.25476 12.8402 2.10814L11.9911 1.13222C11.6584 0.752077 11.0954 0.725402 10.7326 1.07079L10.7325 1.07084Z" fill="#9737AB"/>
</svg>
