<svg width="11" height="11" viewBox="0 0 11 11" fill="none" xmlns="http://www.w3.org/2000/svg">
<path d="M5.62179 0.115078C5.43178 0.279043 5.41836 0.556338 5.5909 0.736811L6.03854 1.20338C7.24508 2.46225 8.48074 3.76069 9.59523 5.12414C8.40035 5.12304 7.10812 5.09938 5.84441 5.07572C4.0025 5.04051 2.09837 5.00419 0.455807 5.03885C0.198754 5.04216 -3.29938e-07 5.22702 -3.15095e-07 5.48672C0.00466267 5.73046 0.217988 5.92249 0.475623 5.91808C2.09893 5.88452 3.99441 5.92083 5.82573 5.95494C7.07657 5.9786 8.35657 6.00226 9.54566 6.00446C9.24723 6.34779 8.9488 6.69111 8.64921 7.03444C8.11414 7.64902 7.57789 8.2636 7.03873 8.88749C6.61732 9.37496 6.22037 9.83549 5.75408 10.2327C5.5629 10.3956 5.54716 10.6745 5.72027 10.855C5.89279 11.0355 6.18773 11.0492 6.37892 10.8864C6.89826 10.4446 7.33658 9.93563 7.77023 9.43392C8.29832 8.82044 8.83339 8.20752 9.36848 7.5951C9.87849 7.00969 10.3897 6.42426 10.8945 5.83881C10.912 5.81846 10.9213 5.7937 10.9347 5.77169C10.9452 5.75408 10.958 5.73813 10.9662 5.71887C10.9866 5.6677 11 5.61488 11 5.56041L11 5.55491C10.9988 5.46963 10.9656 5.3948 10.9196 5.32767C10.9137 5.31997 10.9166 5.30897 10.9102 5.30236C9.63433 3.6413 8.15796 2.10122 6.7258 0.60749L6.28106 0.144214C6.10678 -0.0362456 5.81185 -0.0489075 5.62183 0.115054L5.62179 0.115078Z" fill="#92B9FF"/>
</svg>
