<svg width="21" height="24" viewBox="0 0 21 24" fill="none" xmlns="http://www.w3.org/2000/svg">
<path d="M10.2675 22.9305C10.6302 22.5851 10.6559 22.0009 10.3265 21.6207L9.47188 20.6379C7.16848 17.986 4.80949 15.2507 2.68183 12.3785C4.96297 12.3808 7.42996 12.4306 9.84248 12.4805C13.3589 12.5547 16.994 12.6312 20.1298 12.5581C20.6206 12.5512 21 12.1618 21 11.6147C20.9911 11.1012 20.5838 10.6967 20.092 10.706C16.9929 10.7767 13.3743 10.7002 9.87815 10.6283C7.49018 10.5785 5.04655 10.5286 2.77646 10.524C3.34619 9.80076 3.91592 9.07751 4.48787 8.35427C5.50937 7.05961 6.53312 5.76494 7.56242 4.45067C8.36694 3.42377 9.12474 2.45362 10.0149 1.61679C10.3799 1.27373 10.41 0.686084 10.0795 0.305902C9.75012 -0.0742506 9.18705 -0.10324 8.82206 0.239835C7.83058 1.17054 6.99379 2.24267 6.16592 3.29957C5.15775 4.59192 4.13625 5.88308 3.11472 7.1732C2.14105 8.40641 1.16516 9.63965 0.20141 10.873C0.168026 10.9158 0.15022 10.968 0.124628 11.0144C0.104599 11.0514 0.0801196 11.0851 0.0645404 11.1256C0.0255924 11.2334 -4.53033e-07 11.3447 -4.57616e-07 11.4594L-4.58078e-07 11.471C0.00222541 11.6507 0.0656543 11.8083 0.15356 11.9497C0.164688 11.9659 0.159124 11.9891 0.171365 12.003C2.60719 15.5022 5.4257 18.7465 8.15984 21.8932L9.00888 22.8691C9.3416 23.2493 9.90464 23.2759 10.2674 22.9305L10.2675 22.9305Z" fill="#9737AB"/>
</svg>
