<svg width="118" height="118" viewBox="0 0 118 118" fill="none" xmlns="http://www.w3.org/2000/svg">
<rect width="118" height="118" fill="#34327C"/>
<path d="M37.166 38.2C36.5911 38.2 36.126 38.6651 36.126 39.24C36.126 39.8148 36.5911 40.28 37.166 40.28H42.7071C45.366 46.8533 47.9721 53.4386 50.6049 60.0238L48.1674 65.8738C47.8992 66.5035 48.4416 67.3201 49.1261 67.3201H75.1261C75.6746 67.3282 76.1803 66.8305 76.1803 66.2801C76.1803 65.7296 75.6745 65.2319 75.1261 65.2401H50.6861L52.4411 61.0151L77.8073 58.9838C78.2419 58.9473 78.634 58.6101 78.7335 58.1876L81.8535 44.6676C81.9896 44.0643 81.4655 43.4042 80.846 43.4001H46.1849L44.3649 38.8501C44.2105 38.4703 43.8164 38.2021 43.4061 38.2001L37.166 38.2ZM47.0137 45.48H57.966V51.2H49.3049L47.0137 45.48ZM60.046 45.48H67.326V51.2H60.046V45.48ZM69.406 45.48H79.546L78.2135 51.2H69.4057L69.406 45.48ZM50.1337 53.28H57.966V58.4961L52.4082 58.9348L50.1337 53.28ZM60.046 53.28H67.326V57.7487L60.046 58.3337V53.28ZM69.406 53.28H77.7421L76.8809 56.985L69.4059 57.5862L69.406 53.28ZM54.326 70.4399C51.7544 70.4399 49.646 72.5484 49.646 75.1199C49.646 77.6915 51.7544 79.7999 54.326 79.7999C56.8975 79.7999 59.006 77.6915 59.006 75.1199C59.006 72.5484 56.8975 70.4399 54.326 70.4399ZM69.926 70.4399C67.3544 70.4399 65.246 72.5484 65.246 75.1199C65.246 77.6915 67.3544 79.7999 69.926 79.7999C72.4975 79.7999 74.606 77.6915 74.606 75.1199C74.606 72.5484 72.4975 70.4399 69.926 70.4399ZM54.326 72.52C55.7743 72.52 56.926 73.6716 56.926 75.1199C56.926 76.5683 55.7743 77.7199 54.326 77.7199C52.8777 77.7199 51.726 76.5683 51.726 75.1199C51.726 73.6716 52.8777 72.52 54.326 72.52ZM69.926 72.52C71.3743 72.52 72.526 73.6716 72.526 75.1199C72.526 76.5683 71.3743 77.7199 69.926 77.7199C68.4777 77.7199 67.326 76.5683 67.326 75.1199C67.326 73.6716 68.4777 72.52 69.926 72.52Z" fill="white"/>
</svg>
