<svg width="25" height="23" viewBox="0 0 25 23" fill="none" xmlns="http://www.w3.org/2000/svg">
<path d="M22.4901 0.160034H2.5101C1.32253 0.160034 0.350098 1.13247 0.350098 2.32003V20.68C0.350098 21.8676 1.32253 22.84 2.5101 22.84H22.4901C23.6777 22.84 24.6501 21.8676 24.6501 20.68V2.32003C24.6501 1.13247 23.6777 0.160034 22.4901 0.160034ZM23.5701 2.32003V2.86003H21.9501V1.24003H22.4901C23.0839 1.24003 23.5701 1.72625 23.5701 2.32003ZM2.5101 1.24003H20.8701V2.86003H1.4301V2.32003C1.4301 1.72625 1.91631 1.24003 2.5101 1.24003ZM22.4901 21.76H2.5101C1.91631 21.76 1.4301 21.2738 1.4301 20.68V3.94003H23.5701V20.68C23.5701 21.2738 23.0839 21.76 22.4901 21.76ZM21.4101 5.56003H3.5901C3.29267 5.56003 3.0501 5.80261 3.0501 6.10004V8.80004C3.0501 9.09747 3.29268 9.34004 3.5901 9.34004H21.4101C21.7075 9.34004 21.9501 9.09746 21.9501 8.80004V6.10004C21.9501 5.8026 21.7075 5.56003 21.4101 5.56003ZM20.8701 8.26004H4.1301V6.64004H20.8701V8.26004ZM21.9501 11.5C21.9501 11.7975 21.7075 12.04 21.4101 12.04H3.5901C3.29267 12.04 3.0501 11.7975 3.0501 11.5C3.0501 11.2026 3.29268 10.96 3.5901 10.96H21.4101C21.7075 10.96 21.9501 11.2026 21.9501 11.5ZM11.1501 13.66H3.5901C3.29267 13.66 3.0501 13.9026 3.0501 14.2V19.6C3.0501 19.8975 3.29268 20.14 3.5901 20.14H11.1501C11.4475 20.14 11.6901 19.8975 11.6901 19.6V14.2C11.6901 13.9026 11.4475 13.66 11.1501 13.66ZM10.6101 19.06H4.1301V14.74H10.6101V19.06ZM21.4101 13.66H13.8501C13.5527 13.66 13.3101 13.9026 13.3101 14.2V19.6C13.3101 19.8975 13.5527 20.14 13.8501 20.14H21.4101C21.7075 20.14 21.9501 19.8975 21.9501 19.6V14.2C21.9501 13.9026 21.7075 13.66 21.4101 13.66ZM20.8701 19.06H14.3901V14.74H20.8701V19.06Z" fill="url(#paint0_linear)"/>
<defs>
<linearGradient id="paint0_linear" x1="0.000122229" y1="-2.24794e-07" x2="25.0001" y2="23" gradientUnits="userSpaceOnUse">
<stop stop-color="#5E36AC"/>
<stop offset="1" stop-color="#9737AB"/>
</linearGradient>
</defs>
</svg>
