<svg width="28" height="28" viewBox="0 0 28 28" fill="none" xmlns="http://www.w3.org/2000/svg">
<path d="M2.62622 3.82469C2.62622 5.16563 3.4345 6.37423 4.67263 6.88733C5.91185 7.40029 7.33809 7.11701 8.28631 6.16873C9.23349 5.22046 9.51786 3.79529 9.0049 2.55617C8.49085 1.31695 7.28226 0.509766 5.94142 0.509766C4.11156 0.51086 2.62846 1.99508 2.62622 3.82497V3.82469ZM7.85662 3.82469C7.85662 4.59905 7.39067 5.29796 6.67426 5.59437C5.95895 5.89078 5.13536 5.72671 4.5874 5.17874C4.03944 4.63078 3.87645 3.80719 4.17286 3.09187C4.46926 2.37655 5.16708 1.90951 5.94145 1.90951C6.99909 1.91061 7.8555 2.76701 7.85659 3.82466L7.85662 3.82469Z" fill="url(#paint0_linear)"/>
<path d="M0.980104 16.0409C1.07417 16.8962 1.5751 17.652 2.32433 18.0742L3.41588 26.0651C3.50885 26.8766 4.19574 27.4902 5.01166 27.4902H6.8262C7.64433 27.4902 8.3312 26.8755 8.42197 26.0618L8.9601 21.1651L10.0298 12.9894L11.2285 13.9782C11.9285 14.5557 12.937 14.5677 13.6501 14.0055L17.2615 11.1585C18.0457 10.5536 18.2568 9.45878 17.7515 8.60674C17.465 8.13642 16.9892 7.81159 16.4467 7.71424C15.9042 7.61689 15.3463 7.75689 14.9132 8.09815L12.4829 10.0133L10.0296 7.98875C9.68399 7.70329 9.25088 7.54688 8.80353 7.54579H7.68353C7.43087 7.53813 7.18916 7.64642 7.02838 7.84001L5.90838 9.22361L4.81574 7.85424C4.66152 7.65846 4.42637 7.5447 4.1781 7.54579H3.31841C2.45106 7.54688 1.62419 7.91766 1.04887 8.56625C0.472464 9.21484 0.201228 10.0778 0.301832 10.9397L0.980104 16.0409ZM2.1001 9.49477C2.40746 9.13931 2.8537 8.93477 3.32401 8.93477H3.90042L5.15496 10.4999C5.3409 10.734 5.62418 10.8707 5.92387 10.8707C6.22246 10.8707 6.50574 10.734 6.69168 10.4999L7.94841 8.93147H8.80591C8.92841 8.93147 9.04763 8.97412 9.14168 9.05178L12.0402 11.4515C12.2973 11.6593 12.6626 11.6593 12.9196 11.4515L15.7952 9.18632C15.8882 9.11304 16.0041 9.07366 16.1223 9.07476C16.3082 9.07476 16.4799 9.17101 16.5762 9.3296C16.7096 9.57679 16.6385 9.88414 16.411 10.0493L12.7819 12.905C12.5872 13.057 12.3138 13.057 12.1191 12.905L9.94583 11.1101C9.75005 10.9483 9.48098 10.9056 9.24474 10.9986C9.0074 11.0916 8.84006 11.3059 8.80615 11.5586L7.56037 20.9999L7.03428 25.9086C7.02225 26.0125 6.93475 26.0923 6.82975 26.0934H5.01193C4.90256 26.0901 4.81287 26.0037 4.80522 25.8944L3.66007 17.5086C3.62398 17.2527 3.45117 17.0372 3.20944 16.9486C2.7468 16.7802 2.41976 16.3624 2.36944 15.8735L1.68039 10.7691C1.62789 10.3032 1.77992 9.83724 2.09711 9.4916L2.1001 9.49477Z" fill="url(#paint1_linear)"/>
<path d="M10.8982 1.39993V6.43993C10.8982 6.82603 11.211 7.13993 11.5982 7.13993C11.9843 7.13993 12.2982 6.82603 12.2982 6.43993V2.09657H26.32V15.8418H11.5982C11.211 15.8418 10.8982 16.1557 10.8982 16.5418C10.8982 16.929 11.211 17.2418 11.5982 17.2418H18.5982V21.9013H14.2243C13.8448 21.9013 13.497 22.1123 13.3198 22.4481L11.7601 25.3652C11.5796 25.7075 11.7098 26.1308 12.051 26.3113C12.3934 26.4928 12.8167 26.3627 12.9982 26.0203L14.4376 23.3045H24.1665L25.6058 26.0203C25.7874 26.3627 26.2107 26.4928 26.5519 26.3113C26.8943 26.1308 27.0244 25.7075 26.844 25.3652L25.2985 22.4481C25.1213 22.1123 24.7735 21.9013 24.394 21.9013H20.0092V17.2418H27.0092C27.194 17.2418 27.3723 17.1685 27.5035 17.0372C27.6348 16.906 27.7092 16.7277 27.7092 16.5418V1.39994C27.7092 1.21401 27.6348 1.03572 27.5035 0.904483C27.3723 0.773247 27.194 0.699951 27.0092 0.699951H11.5982C11.2111 0.699951 10.8982 1.01386 10.8982 1.39995L10.8982 1.39993Z" fill="url(#paint2_linear)"/>
<defs>
<linearGradient id="paint0_linear" x1="2.53072" y1="0.462983" x2="9.78014" y2="6.68865" gradientUnits="userSpaceOnUse">
<stop stop-color="#1D6EFE"/>
<stop offset="1" stop-color="#34327C"/>
</linearGradient>
<linearGradient id="paint1_linear" x1="0.0256927" y1="7.40468" x2="21.3108" y2="23.6649" gradientUnits="userSpaceOnUse">
<stop stop-color="#1D6EFE"/>
<stop offset="1" stop-color="#34327C"/>
</linearGradient>
<linearGradient id="paint2_linear" x1="10.6561" y1="0.518655" x2="34.9286" y2="14.1554" gradientUnits="userSpaceOnUse">
<stop stop-color="#1D6EFE"/>
<stop offset="1" stop-color="#34327C"/>
</linearGradient>
</defs>
</svg>
