<svg width="13" height="12" viewBox="0 0 13 12" fill="none" xmlns="http://www.w3.org/2000/svg">
<path d="M3.98147 6.87872C2.96897 6.8881 2.06195 6.9045 1.15019 6.90216C0.39082 6.90216 -0.0474682 6.567 0.00409584 5.99982C0.072065 5.29669 0.536128 5.12326 1.11737 5.12326C2.0291 5.1256 2.94077 5.10919 3.96269 5.09982C3.958 4.61701 3.9416 4.17872 3.95332 3.73806C3.97207 3.09353 4.19941 2.9318 4.66816 3.27634C5.68769 4.024 6.6838 4.80682 7.68688 5.58022C8.00328 5.82396 8.01265 6.09584 7.69391 6.34662C6.68375 7.15052 5.67827 7.96386 4.65407 8.74662C4.22984 9.07239 4.01423 8.83568 3.99547 8.34349C3.98141 7.89818 3.9861 7.44818 3.98141 6.87865L3.98147 6.87872Z" fill="#33B354"/>
<path d="M5.66653 11.9999C3.30397 11.9999 1.15249 10.7671 0.0532868 8.78198C-0.0639004 8.5687 0.0228176 8.3062 0.247819 8.19604C0.472819 8.08354 0.749383 8.16558 0.866563 8.37885C1.8064 10.0758 3.64624 11.1305 5.66656 11.1305C8.65252 11.1305 11.083 8.82885 11.083 5.99997C11.083 3.17109 8.65492 0.869496 5.66656 0.869496C3.74464 0.869496 1.95172 1.84684 0.983803 3.42189C0.857239 3.63049 0.575995 3.69846 0.355675 3.57893C0.137707 3.45705 0.0627068 3.1922 0.189271 2.98362C0.737707 2.09299 1.52283 1.34538 2.46267 0.82266C3.43064 0.283596 4.53927 0 5.66655 0C7.35879 0 8.95011 0.623436 10.1454 1.75776C11.3407 2.89213 12.0017 4.3968 12.0017 6C12.0017 7.6032 11.3431 9.11016 10.1454 10.2422C8.95012 11.3766 7.35867 12 5.66655 12L5.66653 11.9999Z" fill="#33B354"/>
</svg>
