<svg width="44" height="44" viewBox="0 0 44 44" fill="none" xmlns="http://www.w3.org/2000/svg">
<path d="M23.28 29.264C22.136 29.264 21.1827 29.0733 20.42 28.692C19.6573 28.3107 19.0267 27.8413 18.528 27.284L19.738 25.656C20.1633 26.0813 20.6473 26.448 21.19 26.756C21.7327 27.0493 22.356 27.196 23.06 27.196C23.8227 27.196 24.4387 27.0127 24.908 26.646C25.392 26.2647 25.634 25.744 25.634 25.084C25.634 24.7173 25.568 24.3873 25.436 24.094C25.304 23.8007 25.0767 23.5513 24.754 23.346C24.446 23.1407 24.028 22.9867 23.5 22.884C22.972 22.7667 22.312 22.708 21.52 22.708V20.86C22.2093 20.86 22.7813 20.8087 23.236 20.706C23.7053 20.5887 24.0793 20.4347 24.358 20.244C24.6513 20.0387 24.8567 19.7967 24.974 19.518C25.106 19.2393 25.172 18.9387 25.172 18.616C25.172 18.0293 24.9887 17.5747 24.622 17.252C24.2553 16.9147 23.7493 16.746 23.104 16.746C22.5467 16.746 22.0407 16.8707 21.586 17.12C21.146 17.3547 20.7133 17.67 20.288 18.066L18.99 16.504C19.5913 15.976 20.2293 15.5507 20.904 15.228C21.5933 14.9053 22.356 14.744 23.192 14.744C23.8667 14.744 24.4827 14.8247 25.04 14.986C25.5973 15.1473 26.074 15.3893 26.47 15.712C26.866 16.02 27.174 16.4087 27.394 16.878C27.614 17.3327 27.724 17.8533 27.724 18.44C27.724 19.232 27.504 19.892 27.064 20.42C26.6387 20.948 26.0447 21.3587 25.282 21.652V21.74C26.118 21.96 26.8073 22.3633 27.35 22.95C27.9073 23.5367 28.186 24.292 28.186 25.216C28.186 25.8613 28.054 26.4333 27.79 26.932C27.5407 27.4307 27.1887 27.856 26.734 28.208C26.294 28.5453 25.7733 28.8093 25.172 29C24.5853 29.176 23.9547 29.264 23.28 29.264Z" fill="url(#paint0_linear)"/>
<circle cx="22" cy="22" r="20.5" stroke="url(#paint1_linear)" stroke-width="3"/>
<defs>
<linearGradient id="paint0_linear" x1="18" y1="21.4974" x2="30" y2="21.4974" gradientUnits="userSpaceOnUse">
<stop stop-color="#660099"/>
<stop offset="1" stop-color="#133675"/>
</linearGradient>
<linearGradient id="paint1_linear" x1="0" y1="21.996" x2="44" y2="21.996" gradientUnits="userSpaceOnUse">
<stop stop-color="#660099"/>
<stop offset="1" stop-color="#133675"/>
</linearGradient>
</defs>
</svg>
