<svg width="44" height="44" viewBox="0 0 44 44" fill="none" xmlns="http://www.w3.org/2000/svg">
<path d="M17.836 29V27.526C18.804 26.5873 19.6767 25.722 20.454 24.93C21.246 24.138 21.9133 23.4047 22.456 22.73C23.0133 22.0553 23.4387 21.4247 23.732 20.838C24.0253 20.2513 24.172 19.694 24.172 19.166C24.172 18.418 23.974 17.8313 23.578 17.406C23.182 16.966 22.61 16.746 21.862 16.746C21.3193 16.746 20.8207 16.9 20.366 17.208C19.926 17.516 19.5153 17.8827 19.134 18.308L17.726 16.9C18.3713 16.2107 19.0313 15.6827 19.706 15.316C20.3953 14.9347 21.224 14.744 22.192 14.744C22.8667 14.744 23.4753 14.8467 24.018 15.052C24.5607 15.2573 25.0227 15.5507 25.404 15.932C25.7853 16.2987 26.0787 16.746 26.284 17.274C26.504 17.802 26.614 18.3887 26.614 19.034C26.614 19.65 26.4747 20.2807 26.196 20.926C25.932 21.5567 25.5653 22.202 25.096 22.862C24.6413 23.5073 24.106 24.1747 23.49 24.864C22.874 25.5533 22.2213 26.2647 21.532 26.998C21.8987 26.9687 22.2947 26.9393 22.72 26.91C23.1453 26.866 23.5267 26.844 23.864 26.844H27.296V29H17.836Z" fill="url(#paint0_linear)"/>
<circle cx="22" cy="22" r="20.5" stroke="url(#paint1_linear)" stroke-width="3"/>
<defs>
<linearGradient id="paint0_linear" x1="17" y1="21.4974" x2="29" y2="21.4974" gradientUnits="userSpaceOnUse">
<stop stop-color="#660099"/>
<stop offset="1" stop-color="#133675"/>
</linearGradient>
<linearGradient id="paint1_linear" x1="0" y1="21.996" x2="44" y2="21.996" gradientUnits="userSpaceOnUse">
<stop stop-color="#660099"/>
<stop offset="1" stop-color="#133675"/>
</linearGradient>
</defs>
</svg>
