<svg width="76" height="15" viewBox="0 0 76 15" fill="none" xmlns="http://www.w3.org/2000/svg">
<path fill-rule="evenodd" clip-rule="evenodd" d="M25.0047 7.03084C25.0047 9.71022 24.146 11.7198 22.0383 13.0595C18.9938 14.9946 13.7636 14.2503 12.4365 9.33809C11.734 6.73313 12.2024 4.27703 14.3101 2.34192C17.2764 -0.486312 22.3505 0.406815 24.2241 4.05375C24.7705 5.09573 25.0827 6.21214 25.0047 7.03084ZM22.7409 7.47741C22.7409 6.13772 22.5847 4.87245 22.0383 3.68161C21.3357 2.34192 20.2428 1.52322 18.6816 1.52322C17.1203 1.52322 15.9494 2.2675 15.4029 3.60719C14.3101 6.06329 14.232 8.66824 15.4029 11.1243C16.0274 12.464 17.1203 13.2083 18.6816 13.2083C20.3209 13.2083 21.4138 12.464 22.1164 11.1243C22.5847 9.93351 22.8189 8.74267 22.7409 7.47741ZM0.364653 5.74335C0.329982 5.82222 0.294386 5.9032 0.258789 5.98805V8.96516C0.414915 9.18845 0.492978 9.41173 0.571041 9.63501C1.03942 11.2724 2.05424 12.6121 3.69356 13.5797C6.58189 14.9194 10.0167 13.8774 11.3437 11.198C11.5779 10.677 11.5779 10.4537 10.9534 10.3793C10.8754 10.4909 10.8168 10.6026 10.7583 10.7142L10.7583 10.7142C10.6997 10.8259 10.6412 10.9375 10.5631 11.0491C10.378 11.2257 10.2108 11.4107 10.0463 11.5927C9.72531 11.948 9.41477 12.2916 9.00185 12.5377C6.97221 13.7286 4.47419 12.9098 3.30325 10.7514C2.44455 9.11402 2.36649 7.40218 2.60068 5.69033C2.83487 4.57391 3.14712 3.60635 3.84969 2.71322C5.0987 1.29908 8.06509 0.629233 9.47023 3.23421C9.66935 3.61391 9.80498 4.02388 9.93785 4.42551L9.93786 4.42552L9.93786 4.42553L9.93787 4.42556C10.0134 4.65373 10.088 4.8792 10.1728 5.09491C10.407 5.54148 10.6412 5.54148 10.9534 5.39262V0.926945C10.6412 1.00137 10.407 1.0758 10.2509 1.15023C10.0772 1.20543 9.98936 1.30157 9.89189 1.40828C9.85794 1.44546 9.82281 1.48391 9.78248 1.52237C9.72284 1.49394 9.6746 1.47637 9.63339 1.46136C9.56672 1.43708 9.51847 1.41951 9.47023 1.37351C6.65996 -0.115046 2.1323 0.703661 0.649104 4.94605C0.588839 5.23335 0.48205 5.47628 0.364653 5.74335ZM74.8951 13.3648L74.8951 13.3646C75.0202 12.8391 75.1356 12.3539 75.1992 11.8687V10.1568C74.8089 10.008 74.4967 10.0824 74.3406 10.529C74.1844 10.7895 74.0283 11.0686 73.8721 11.3478C73.716 11.6268 73.5599 11.9059 73.4038 12.1664C73.0915 12.6874 72.6232 12.9851 71.9987 12.9851C71.0619 13.0595 70.1252 13.134 69.1884 13.0595C68.0955 13.0595 67.8613 12.7618 67.7833 11.7198C67.731 10.9232 67.7487 10.0933 67.7661 9.27463C67.7747 8.86949 67.7833 8.46711 67.7833 8.07288C67.7833 7.96391 67.8251 7.89483 67.8781 7.80723C67.8976 7.77517 67.9185 7.74063 67.9394 7.70074C68.0565 7.70074 68.1541 7.68213 68.2516 7.66353C68.3492 7.64492 68.4468 7.62631 68.5639 7.62631C70.5935 7.55189 70.7497 7.62631 71.4522 9.41257C71.6084 9.78471 71.8425 9.78471 72.2329 9.63586V5.24463V5.17021C72.2202 5.1461 72.2076 5.12004 72.1946 5.09329L72.1945 5.09312C72.1274 4.95475 72.0514 4.79807 71.9206 4.79807C71.8425 4.79807 71.6084 4.8725 71.5303 5.02135C71.4522 5.13299 71.4132 5.26324 71.3742 5.39349C71.3351 5.52374 71.2961 5.65398 71.218 5.76563C70.9839 6.13776 70.7497 6.5099 70.3594 6.65876C69.5007 6.95647 68.72 6.88204 67.8613 6.73318V1.74654C68.0465 1.74654 68.2316 1.75508 68.4137 1.76348C68.7691 1.77988 69.1129 1.79575 69.4226 1.74654C71.218 1.52326 72.7012 1.96982 73.4038 3.75608C73.4819 4.12822 73.7941 4.12822 74.1064 3.97936V1.07669C73.8722 1.00226 73.638 1.00226 73.4038 1.00226H64.5046C64.2704 1.00226 64.0363 1.15112 63.9582 1.29997C63.8951 1.54045 64.0868 1.58668 64.2862 1.6348C64.3336 1.64625 64.3815 1.6578 64.4266 1.67211C65.6756 2.04425 65.7536 2.11868 65.7536 3.45837V11.4221V11.7943C65.7536 12.6874 65.5975 12.9107 64.6608 13.0595C64.5437 13.0967 64.4266 13.1153 64.3095 13.134C64.1924 13.1526 64.0753 13.1712 63.9582 13.2084C63.8913 13.8459 64.2254 13.8281 64.5679 13.8099C64.6252 13.8069 64.6828 13.8038 64.7388 13.8038H74.1844C74.2546 13.8038 74.3406 13.7888 74.4352 13.7722C74.5511 13.7519 74.68 13.7294 74.8089 13.7294C74.8378 13.6055 74.8667 13.4841 74.8951 13.3648ZM51.0778 3.16036V6.65854V10.0079C51.0778 11.6453 51.9365 12.6873 53.4197 13.3572C54.5906 13.8782 55.8396 13.9526 57.1667 13.7293C59.1183 13.3572 60.9918 12.0919 60.8357 9.41242C60.7838 8.72057 60.8008 8.06154 60.8181 7.39175V7.39167C60.8269 7.05269 60.8357 6.71096 60.8357 6.36082C60.8357 5.24438 60.8357 4.12794 60.9137 3.0115C60.9918 2.04392 61.226 1.74621 62.2408 1.52292C62.3969 1.52292 62.5531 1.52292 62.7092 1.44849L62.7092 1.44846C62.7873 1.37402 62.9434 1.22519 62.9434 1.15077C62.9434 1.07636 62.7873 0.92753 62.7092 0.85309L62.7092 0.853057H62.1627H58.4938C58.4331 0.853057 58.3665 0.847435 58.2981 0.841654C58.0142 0.817688 57.698 0.790984 57.6351 1.15077C57.5155 1.60681 57.8538 1.62625 58.1591 1.6438C58.2524 1.64917 58.3426 1.65435 58.4157 1.67178C59.2744 1.89507 59.7428 2.34164 59.8209 3.16036C59.8209 3.31991 59.8433 3.45808 59.8641 3.58633V3.58636V3.58639C59.8821 3.69744 59.8989 3.80105 59.8989 3.90465C59.8989 4.60493 59.9077 5.2968 59.9165 5.98309C59.9338 7.3392 59.9508 8.67353 59.8989 10.0079C59.8209 11.943 58.4157 13.0594 56.3861 13.0594C54.3565 13.0594 53.1855 12.0174 53.1074 10.0079C53.0554 8.42011 53.0727 6.83238 53.0901 5.24464V5.24438C53.0988 4.45047 53.1074 3.65656 53.1074 2.86265C53.1074 2.11835 53.3416 1.9695 54.1223 1.74621C54.2784 1.74621 54.4345 1.74621 54.5906 1.67178C54.6687 1.59735 54.8248 1.44849 54.8248 1.37406C54.8248 1.2252 54.6687 1.07634 54.5126 1.00192H54.1223H50.063C50.0184 1.00192 49.9682 0.996523 49.9155 0.990869C49.6915 0.966821 49.4236 0.938058 49.3604 1.29963C49.3604 1.64389 49.5924 1.67853 49.8059 1.71043C49.8694 1.71992 49.9313 1.72915 49.9849 1.74621C50.9217 2.04392 51.0778 2.19278 51.0778 3.16036ZM37.807 13.2084C37.8851 13.7294 37.6509 13.8038 37.2606 13.8038H32.8891C32.4988 13.8038 32.2646 13.7294 32.4207 13.2084C32.5768 13.1712 32.7525 13.134 32.9281 13.0968C33.1038 13.0595 33.2794 13.0223 33.4355 12.9851C33.9039 12.9107 34.06 12.613 33.9039 12.1664C33.5916 11.2733 33.2013 10.3057 32.811 9.33819H28.5956C28.4395 9.33819 28.1272 9.56147 28.0492 9.71032C27.7369 10.4546 27.5027 11.1989 27.2685 11.9431C27.1124 12.4641 27.4247 12.7618 27.893 12.9107C28.2287 13.0387 28.6221 13.1117 28.9739 13.1769C29.0312 13.1876 29.0874 13.198 29.142 13.2084C29.2201 13.5805 29.064 13.8038 28.7517 13.8038H24.6925C24.5988 13.8038 24.5051 13.7234 24.4114 13.6431C24.349 13.5895 24.2865 13.5359 24.2241 13.5061C24.2794 13.4534 24.3249 13.3913 24.3676 13.3331C24.4453 13.2271 24.5136 13.134 24.6144 13.134C25.6292 12.9107 26.0976 12.1664 26.4879 11.2733C27.2145 9.4115 27.9675 7.57489 28.7162 5.74882C29.2545 4.43593 29.7906 3.12848 30.313 1.82104C30.352 1.78383 30.3715 1.72801 30.3911 1.67218C30.4106 1.61636 30.4301 1.56054 30.4691 1.52333C30.6252 1.30005 30.8594 1.00234 31.0936 0.927913C31.4839 0.779058 31.6401 1.15119 31.7181 1.4489C32.9671 4.57485 34.2161 7.70079 35.4651 10.7523L35.4652 10.7523C35.6213 11.05 35.7774 11.3477 35.8555 11.6454C36.1677 12.613 36.9483 12.9851 37.807 13.2084ZM32.4988 8.44506C32.4336 8.27413 32.3692 8.10482 32.3055 7.93705C31.7585 6.49769 31.2545 5.1715 30.6252 3.905H30.3911C29.9968 4.97893 29.5619 6.05286 29.1158 7.15475C28.9435 7.58015 28.7695 8.00972 28.5956 8.44506H32.4988ZM37.9633 3.38351C38.822 1.8205 39.6026 1.44835 41.5542 1.8205C41.5542 1.87321 41.5586 1.93007 41.5631 1.9901C41.578 2.18435 41.5954 2.41178 41.4761 2.63922V11.5707V12.0917C41.3981 12.5383 41.1639 12.9104 40.6174 12.9849C40.1491 13.0593 39.7588 13.1337 39.3684 13.2082C39.2904 13.6547 39.4465 13.8036 39.8368 13.8036H41.1639H44.989C45.3793 13.8036 45.6915 13.8036 45.5354 13.2082C45.3403 13.1709 45.1256 13.1151 44.9109 13.0593C44.6962 13.0035 44.4816 12.9476 44.2864 12.9104C43.818 12.7616 43.5838 12.4639 43.5058 12.0173V11.4963V2.56479C43.5058 2.45315 43.5253 2.3229 43.5448 2.19264C43.5643 2.06239 43.5838 1.93214 43.5838 1.8205C45.6915 1.52278 46.3941 1.8205 47.2528 3.45794C47.318 3.58222 47.3695 3.70649 47.4189 3.82535C47.4877 3.99124 47.5522 4.14658 47.6431 4.27666C47.7212 4.42552 47.9554 4.49995 48.0334 4.49995C48.1896 4.49995 48.3457 4.27666 48.3457 4.20223V1.15064C47.0186 0.92735 37.4949 1.00178 36.7924 1.22507V2.41593C36.7924 2.61725 36.7834 2.81005 36.7746 3.0001C36.7574 3.37217 36.7407 3.73368 36.7924 4.1278C36.7924 4.27666 36.9485 4.42552 37.1046 4.49995C37.1827 4.49995 37.4169 4.35109 37.4949 4.27666L37.9633 3.38351Z" fill="#111111"/>
</svg>
