<svg width="118" height="118" viewBox="0 0 118 118" fill="none" xmlns="http://www.w3.org/2000/svg">
<rect width="118" height="118" fill="#414141"/>
<path fill-rule="evenodd" clip-rule="evenodd" d="M42.6996 58.1453C42.6996 61.5777 41.5996 64.1519 38.8996 65.8681C34.9996 68.347 28.2996 67.3936 26.5996 61.101C25.6996 57.764 26.2996 54.6177 28.9996 52.1387C32.7996 48.5157 39.2996 49.6598 41.6996 54.3316C42.3996 55.6664 42.7996 57.0966 42.6996 58.1453ZM39.7996 58.7174C39.7996 57.0012 39.5996 55.3804 38.8996 53.8549C37.9996 52.1387 36.5996 51.09 34.5996 51.09C32.5996 51.09 31.0996 52.0434 30.3996 53.7596C28.9996 56.9059 28.8996 60.2429 30.3996 63.3892C31.1996 65.1054 32.5996 66.0588 34.5996 66.0588C36.6996 66.0588 38.0996 65.1054 38.9996 63.3892C39.5996 61.8637 39.8996 60.3382 39.7996 58.7174ZM11.1356 56.4961L11.1356 56.4961L11.1356 56.4962L11.1355 56.4962C11.0912 56.5972 11.0456 56.7009 11 56.8095V60.6233C11.2 60.9093 11.3 61.1954 11.4 61.4814C12 63.5789 13.3 65.2951 15.4 66.5346C19.1 68.2508 23.5 66.916 25.2 63.4836C25.5 62.8162 25.5 62.5302 24.7 62.4348C24.6 62.5778 24.525 62.7209 24.45 62.8639C24.375 63.0069 24.3 63.1499 24.2 63.2929C23.9629 63.519 23.7487 63.7561 23.538 63.9893C23.1268 64.4443 22.729 64.8846 22.2 65.1998C19.6 66.7253 16.4 65.6765 14.9 62.9115C13.8 60.814 13.7 58.6211 14 56.4282C14.3 54.998 14.7 53.7585 15.6 52.6144C17.2 50.8029 21 49.9448 22.8 53.2818C23.0551 53.7682 23.2289 54.2934 23.3991 54.8079L23.3991 54.8079L23.3991 54.8079L23.3991 54.8079C23.4958 55.1002 23.5913 55.3891 23.7 55.6654C24 56.2375 24.3 56.2375 24.7 56.0468V50.3262C24.3 50.4215 24 50.5169 23.8 50.6122C23.5775 50.6829 23.4651 50.8061 23.3402 50.9428C23.2967 50.9904 23.2517 51.0397 23.2 51.0889C23.1236 51.0525 23.0618 51.03 23.0091 51.0108C22.9236 50.9797 22.8618 50.9572 22.8 50.8982C19.2 48.9914 13.4 50.0401 11.5 55.4747C11.4228 55.8428 11.286 56.154 11.1356 56.4961ZM106.61 66.2593L106.61 66.2591C106.77 65.5859 106.918 64.9643 107 64.3427V62.1498C106.5 61.9591 106.1 62.0545 105.9 62.6265C105.7 62.9602 105.5 63.3178 105.3 63.6753C105.1 64.0329 104.9 64.3904 104.7 64.7241C104.3 65.3915 103.7 65.7729 102.9 65.7729C101.7 65.8682 100.5 65.9636 99.2999 65.8682C97.8999 65.8682 97.5999 65.4868 97.4999 64.152C97.433 63.1316 97.4556 62.0684 97.4779 61.0197C97.4889 60.5007 97.4999 59.9852 97.4999 59.4802C97.4999 59.3406 97.5535 59.2521 97.6214 59.1399C97.6463 59.0988 97.6731 59.0546 97.6999 59.0035C97.8499 59.0035 97.9749 58.9797 98.0999 58.9558C98.2249 58.932 98.3499 58.9082 98.4999 58.9082C101.1 58.8128 101.3 58.9082 102.2 61.1964C102.4 61.6731 102.7 61.6731 103.2 61.4824V55.8572V55.7618C103.184 55.7309 103.167 55.6974 103.151 55.6631C103.065 55.4858 102.967 55.2851 102.8 55.2851C102.7 55.2851 102.4 55.3805 102.3 55.5712C102.2 55.7142 102.15 55.881 102.1 56.0479C102.05 56.2147 102 56.3816 101.9 56.5246C101.6 57.0013 101.3 57.478 100.8 57.6687C99.6999 58.0501 98.6999 57.9547 97.5999 57.764V51.3761C97.837 51.3761 98.0742 51.387 98.3074 51.3978C98.7627 51.4188 99.2031 51.4391 99.5999 51.3761C101.9 51.09 103.8 51.6621 104.7 53.9503C104.8 54.427 105.2 54.427 105.6 54.2363V50.518C105.3 50.4226 105 50.4226 104.7 50.4226H93.2999C92.9999 50.4226 92.6999 50.6133 92.5999 50.804C92.5191 51.1121 92.7645 51.1713 93.02 51.2329C93.0808 51.2476 93.1422 51.2624 93.1999 51.2807C94.7999 51.7574 94.8999 51.8528 94.8999 53.5689V63.7707V64.2474C94.8999 65.3915 94.6999 65.6775 93.4999 65.8682C93.3499 65.9159 93.1999 65.9397 93.0499 65.9636C92.8999 65.9874 92.7499 66.0112 92.5999 66.0589C92.5142 66.8756 92.9421 66.8528 93.3809 66.8295C93.4544 66.8256 93.5281 66.8216 93.5999 66.8216H105.7C105.79 66.8216 105.9 66.8024 106.021 66.7812C106.17 66.7552 106.335 66.7263 106.5 66.7263C106.537 66.5677 106.574 66.4123 106.61 66.2596L106.61 66.2593ZM76.1003 53.1872V57.6685V61.959C76.1003 64.0566 77.2003 65.3914 79.1003 66.2495C80.6003 66.917 82.2003 67.0123 83.9003 66.7263C86.4003 66.2495 88.8003 64.6287 88.6003 61.1962C88.5339 60.3099 88.5556 59.4657 88.5778 58.6076C88.589 58.1734 88.6003 57.7356 88.6003 57.2871C88.6003 55.8569 88.6003 54.4267 88.7003 52.9965C88.8003 51.7571 89.1003 51.3757 90.4003 51.0896C90.6003 51.0896 90.8003 51.0896 91.0003 50.9943L91.0003 50.9943C91.1003 50.8989 91.3003 50.7082 91.3003 50.6129C91.3003 50.5176 91.1003 50.3269 91.0003 50.2315L91.0003 50.2315H90.3003H85.6003C85.5225 50.2315 85.4372 50.2243 85.3495 50.2169C84.986 50.1862 84.5808 50.152 84.5003 50.6129C84.3471 51.1971 84.7805 51.222 85.1715 51.2445C85.2911 51.2514 85.4066 51.258 85.5003 51.2803C86.6003 51.5664 87.2003 52.1384 87.3003 53.1872C87.3003 53.3916 87.329 53.5686 87.3557 53.7329C87.3787 53.8752 87.4003 54.0079 87.4003 54.1407C87.4003 55.0377 87.4116 55.9239 87.4228 56.803V56.8031V56.8032C87.4449 58.5404 87.4667 60.2497 87.4003 61.959C87.3003 64.438 85.5003 65.8682 82.9003 65.8682C80.3003 65.8682 78.8003 64.5333 78.7003 61.959C78.6336 59.925 78.6558 57.8909 78.678 55.8569C78.6891 54.8399 78.7003 53.8229 78.7003 52.8058C78.7003 51.8524 79.0003 51.6617 80.0003 51.3757C80.2003 51.3757 80.4003 51.3757 80.6003 51.2803C80.7003 51.185 80.9003 50.9943 80.9003 50.8989C80.9003 50.7083 80.7003 50.5176 80.5003 50.4222H80.0003H74.8003C74.7431 50.4222 74.6788 50.4153 74.6113 50.4081C74.3244 50.3773 73.9812 50.3404 73.9003 50.8036C73.9003 51.2446 74.1974 51.289 74.471 51.3298C74.5523 51.342 74.6315 51.3538 74.7003 51.3757C75.9003 51.7571 76.1003 51.9477 76.1003 53.1872ZM60.4255 65.775C60.5255 66.4424 60.2255 66.5377 59.7255 66.5377H54.1255C53.6255 66.5377 53.3255 66.4424 53.5255 65.775C53.7254 65.7273 53.9504 65.6796 54.1754 65.632L54.1755 65.6319L54.1756 65.6319C54.4005 65.5843 54.6255 65.5366 54.8255 65.4889C55.4255 65.3936 55.6255 65.0122 55.4255 64.4402C55.0255 63.296 54.5255 62.0566 54.0255 60.8171H48.6254C48.4254 60.8171 48.0254 61.1032 47.9254 61.2939C47.5255 62.2472 47.2255 63.2006 46.9255 64.154L46.9254 64.1541C46.7254 64.8215 47.1254 65.2029 47.7254 65.3936C48.1554 65.5576 48.6593 65.651 49.11 65.7346L49.1103 65.7347C49.1836 65.7483 49.2555 65.7616 49.3254 65.775C49.4254 66.2517 49.2254 66.5377 48.8254 66.5377H43.6254C43.5054 66.5377 43.3854 66.4347 43.2654 66.3318L43.2654 66.3317C43.1854 66.2631 43.1054 66.1945 43.0254 66.1563C43.0963 66.0888 43.1546 66.0093 43.2092 65.9347C43.3088 65.7989 43.3963 65.6796 43.5254 65.6796C44.8254 65.3936 45.4254 64.4402 45.9254 63.296C46.8562 60.9111 47.8208 58.5584 48.7799 56.2193L48.78 56.219C49.4695 54.5372 50.1562 52.8624 50.8254 51.1875C50.8754 51.1399 50.9004 51.0683 50.9254 50.9968C50.9504 50.9253 50.9754 50.8538 51.0254 50.8062C51.2254 50.5201 51.5254 50.1388 51.8254 50.0434C52.3254 49.8527 52.5254 50.3294 52.6254 50.7108L52.626 50.7121C54.2258 54.7161 55.8256 58.72 57.4255 62.6287C57.6255 63.01 57.8255 63.3914 57.9255 63.7728C58.3255 65.0122 59.3255 65.4889 60.4255 65.775ZM53.6255 59.673C53.5419 59.454 53.4595 59.2371 53.3778 59.0222L53.3778 59.0221C52.6771 57.1783 52.0315 55.4795 51.2254 53.8571H50.9254C50.4204 55.2329 49.8633 56.6086 49.2917 58.0202C49.0711 58.5651 48.8483 59.1154 48.6254 59.673H53.6255ZM59.3004 53.4731C60.4004 51.4708 61.4004 50.9941 63.9004 51.4708C63.9004 51.5384 63.906 51.6112 63.9119 51.6881C63.9309 51.9369 63.9532 52.2283 63.8004 52.5196V63.9611V64.6285C63.7004 65.2005 63.4004 65.6773 62.7004 65.7726C62.1004 65.868 61.6004 65.9633 61.1004 66.0586C61.0004 66.6307 61.2004 66.8214 61.7004 66.8214H63.4004H68.3004C68.8004 66.8214 69.2004 66.8214 69.0004 66.0586C68.7504 66.011 68.4754 65.9395 68.2004 65.868C67.9254 65.7964 67.6504 65.7249 67.4004 65.6773C66.8004 65.4866 66.5004 65.1052 66.4004 64.5331V63.8657V52.4243C66.4004 52.2813 66.4254 52.1144 66.4504 51.9476C66.4754 51.7807 66.5004 51.6139 66.5004 51.4708C69.2004 51.0895 70.1004 51.4708 71.2004 53.5684C71.2839 53.7276 71.35 53.8868 71.4132 54.0391C71.5014 54.2516 71.5839 54.4506 71.7005 54.6172C71.8004 54.8079 72.1005 54.9033 72.2005 54.9033C72.4005 54.9033 72.6004 54.6172 72.6004 54.5219V50.6127C70.9004 50.3267 58.7004 50.422 57.8004 50.7081V52.2336C57.8004 52.4915 57.789 52.7385 57.7777 52.9819C57.7557 53.4586 57.7342 53.9217 57.8004 54.4265C57.8004 54.6172 58.0004 54.8079 58.2004 54.9033C58.3004 54.9033 58.6004 54.7126 58.7004 54.6172L59.3004 53.4731Z" fill="white"/>
</svg>
