<svg width="689" height="339" viewBox="0 0 689 339" fill="none" xmlns="http://www.w3.org/2000/svg">
<line x1="85.6821" y1="281.33" x2="599.722" y2="281.33" stroke="#C4C4C4"/>
<line x1="93.4067" y1="285.819" x2="93.4067" y2="6.61649" stroke="#C4C4C4"/>
<line x1="593.053" y1="285.819" x2="593.053" y2="6.61649" stroke="#C4C4C4"/>
<path d="M269.628 333.068V321.332H272.94C273.84 321.332 274.65 321.446 275.37 321.674C276.09 321.902 276.708 322.256 277.224 322.736C277.74 323.204 278.136 323.804 278.412 324.536C278.688 325.268 278.826 326.138 278.826 327.146C278.826 328.154 278.688 329.03 278.412 329.774C278.136 330.518 277.746 331.136 277.242 331.628C276.738 332.108 276.132 332.468 275.424 332.708C274.728 332.948 273.948 333.068 273.084 333.068H269.628ZM272.274 330.926H272.778C273.282 330.926 273.738 330.86 274.146 330.728C274.554 330.596 274.902 330.386 275.19 330.098C275.478 329.798 275.7 329.408 275.856 328.928C276.024 328.448 276.108 327.854 276.108 327.146C276.108 326.45 276.024 325.868 275.856 325.4C275.7 324.92 275.478 324.542 275.19 324.266C274.902 323.978 274.554 323.774 274.146 323.654C273.738 323.534 273.282 323.474 272.778 323.474H272.274V330.926ZM283.088 333.284C282.68 333.284 282.308 333.212 281.972 333.068C281.648 332.936 281.372 332.75 281.144 332.51C280.916 332.258 280.736 331.97 280.604 331.646C280.484 331.322 280.424 330.968 280.424 330.584C280.424 329.648 280.82 328.916 281.612 328.388C282.404 327.86 283.682 327.506 285.446 327.326C285.422 326.93 285.302 326.618 285.086 326.39C284.882 326.15 284.534 326.03 284.042 326.03C283.658 326.03 283.274 326.102 282.89 326.246C282.518 326.39 282.116 326.588 281.684 326.84L280.73 325.094C281.306 324.746 281.906 324.464 282.53 324.248C283.166 324.032 283.838 323.924 284.546 323.924C285.698 323.924 286.574 324.254 287.174 324.914C287.786 325.562 288.092 326.576 288.092 327.956V333.068H285.932L285.752 332.15H285.68C285.296 332.486 284.894 332.762 284.474 332.978C284.054 333.182 283.592 333.284 283.088 333.284ZM283.988 331.232C284.288 331.232 284.546 331.166 284.762 331.034C284.978 330.902 285.206 330.716 285.446 330.476V328.91C284.51 329.042 283.862 329.234 283.502 329.486C283.142 329.738 282.962 330.038 282.962 330.386C282.962 330.674 283.052 330.89 283.232 331.034C283.424 331.166 283.676 331.232 283.988 331.232ZM293.451 333.284C292.899 333.284 292.425 333.2 292.029 333.032C291.645 332.864 291.327 332.63 291.075 332.33C290.835 332.03 290.655 331.67 290.535 331.25C290.427 330.818 290.373 330.344 290.373 329.828V326.21H289.149V324.248L290.517 324.14L290.823 321.764H293.019V324.14H295.161V326.21H293.019V329.792C293.019 330.296 293.121 330.662 293.325 330.89C293.541 331.106 293.823 331.214 294.171 331.214C294.315 331.214 294.459 331.196 294.603 331.16C294.759 331.124 294.897 331.082 295.017 331.034L295.431 332.96C295.191 333.032 294.909 333.104 294.585 333.176C294.261 333.248 293.883 333.284 293.451 333.284ZM298.802 333.284C298.394 333.284 298.022 333.212 297.686 333.068C297.362 332.936 297.086 332.75 296.858 332.51C296.63 332.258 296.45 331.97 296.318 331.646C296.198 331.322 296.138 330.968 296.138 330.584C296.138 329.648 296.534 328.916 297.326 328.388C298.118 327.86 299.396 327.506 301.16 327.326C301.136 326.93 301.016 326.618 300.8 326.39C300.596 326.15 300.248 326.03 299.756 326.03C299.372 326.03 298.988 326.102 298.604 326.246C298.232 326.39 297.83 326.588 297.398 326.84L296.444 325.094C297.02 324.746 297.62 324.464 298.244 324.248C298.88 324.032 299.552 323.924 300.26 323.924C301.412 323.924 302.288 324.254 302.888 324.914C303.5 325.562 303.806 326.576 303.806 327.956V333.068H301.646L301.466 332.15H301.394C301.01 332.486 300.608 332.762 300.188 332.978C299.768 333.182 299.306 333.284 298.802 333.284ZM299.702 331.232C300.002 331.232 300.26 331.166 300.476 331.034C300.692 330.902 300.92 330.716 301.16 330.476V328.91C300.224 329.042 299.576 329.234 299.216 329.486C298.856 329.738 298.676 330.038 298.676 330.386C298.676 330.674 298.766 330.89 298.946 331.034C299.138 331.166 299.39 331.232 299.702 331.232ZM313.446 333.284C312.678 333.284 311.91 333.146 311.142 332.87C310.386 332.582 309.708 332.156 309.108 331.592L310.62 329.774C311.04 330.134 311.502 330.428 312.006 330.656C312.522 330.884 313.026 330.998 313.518 330.998C314.07 330.998 314.478 330.896 314.742 330.692C315.018 330.488 315.156 330.212 315.156 329.864C315.156 329.684 315.114 329.528 315.03 329.396C314.958 329.264 314.844 329.15 314.688 329.054C314.544 328.946 314.364 328.85 314.148 328.766C313.944 328.67 313.716 328.568 313.464 328.46L311.934 327.812C311.634 327.692 311.34 327.536 311.052 327.344C310.776 327.152 310.524 326.93 310.296 326.678C310.08 326.414 309.906 326.114 309.774 325.778C309.642 325.43 309.576 325.04 309.576 324.608C309.576 324.128 309.678 323.678 309.882 323.258C310.086 322.826 310.374 322.454 310.746 322.142C311.118 321.818 311.556 321.566 312.06 321.386C312.576 321.206 313.14 321.116 313.752 321.116C314.436 321.116 315.108 321.248 315.768 321.512C316.44 321.776 317.028 322.16 317.532 322.664L316.182 324.338C315.798 324.038 315.414 323.81 315.03 323.654C314.646 323.486 314.22 323.402 313.752 323.402C313.296 323.402 312.93 323.498 312.654 323.69C312.39 323.87 312.258 324.128 312.258 324.464C312.258 324.644 312.3 324.8 312.384 324.932C312.48 325.052 312.606 325.166 312.762 325.274C312.93 325.37 313.122 325.466 313.338 325.562C313.554 325.646 313.788 325.742 314.04 325.85L315.552 326.462C316.272 326.75 316.836 327.146 317.244 327.65C317.664 328.154 317.874 328.82 317.874 329.648C317.874 330.14 317.772 330.608 317.568 331.052C317.376 331.484 317.088 331.868 316.704 332.204C316.332 332.528 315.87 332.792 315.318 332.996C314.766 333.188 314.142 333.284 313.446 333.284ZM322.578 333.284C322.026 333.284 321.552 333.2 321.156 333.032C320.772 332.864 320.454 332.63 320.202 332.33C319.962 332.03 319.782 331.67 319.662 331.25C319.554 330.818 319.5 330.344 319.5 329.828V326.21H318.276V324.248L319.644 324.14L319.95 321.764H322.146V324.14H324.288V326.21H322.146V329.792C322.146 330.296 322.248 330.662 322.452 330.89C322.668 331.106 322.95 331.214 323.298 331.214C323.442 331.214 323.586 331.196 323.73 331.16C323.886 331.124 324.024 331.082 324.144 331.034L324.558 332.96C324.318 333.032 324.036 333.104 323.712 333.176C323.388 333.248 323.01 333.284 322.578 333.284ZM329.548 333.284C328.984 333.284 328.438 333.182 327.91 332.978C327.382 332.762 326.914 332.456 326.506 332.06C326.11 331.664 325.792 331.178 325.552 330.602C325.312 330.014 325.192 329.348 325.192 328.604C325.192 327.86 325.312 327.2 325.552 326.624C325.792 326.036 326.11 325.544 326.506 325.148C326.914 324.752 327.382 324.452 327.91 324.248C328.438 324.032 328.984 323.924 329.548 323.924C330.112 323.924 330.652 324.032 331.168 324.248C331.696 324.452 332.158 324.752 332.554 325.148C332.962 325.544 333.286 326.036 333.526 326.624C333.766 327.2 333.886 327.86 333.886 328.604C333.886 329.348 333.766 330.014 333.526 330.602C333.286 331.178 332.962 331.664 332.554 332.06C332.158 332.456 331.696 332.762 331.168 332.978C330.652 333.182 330.112 333.284 329.548 333.284ZM329.548 331.142C330.088 331.142 330.496 330.914 330.772 330.458C331.048 330.002 331.186 329.384 331.186 328.604C331.186 327.824 331.048 327.206 330.772 326.75C330.496 326.294 330.088 326.066 329.548 326.066C328.996 326.066 328.582 326.294 328.306 326.75C328.042 327.206 327.91 327.824 327.91 328.604C327.91 329.384 328.042 330.002 328.306 330.458C328.582 330.914 328.996 331.142 329.548 331.142ZM335.699 333.068V324.14H337.859L338.039 325.706H338.111C338.435 325.094 338.825 324.644 339.281 324.356C339.737 324.068 340.193 323.924 340.649 323.924C340.901 323.924 341.105 323.942 341.261 323.978C341.429 324.002 341.579 324.044 341.711 324.104L341.279 326.39C341.111 326.342 340.955 326.306 340.811 326.282C340.667 326.258 340.499 326.246 340.307 326.246C339.971 326.246 339.617 326.366 339.245 326.606C338.885 326.846 338.585 327.272 338.345 327.884V333.068H335.699ZM346.691 333.284C346.055 333.284 345.461 333.182 344.909 332.978C344.357 332.762 343.877 332.456 343.469 332.06C343.061 331.652 342.743 331.16 342.515 330.584C342.287 330.008 342.173 329.348 342.173 328.604C342.173 327.884 342.293 327.236 342.533 326.66C342.773 326.072 343.085 325.58 343.469 325.184C343.865 324.776 344.315 324.464 344.819 324.248C345.323 324.032 345.845 323.924 346.385 323.924C347.021 323.924 347.573 324.032 348.041 324.248C348.521 324.464 348.917 324.764 349.229 325.148C349.553 325.532 349.793 325.988 349.949 326.516C350.105 327.032 350.183 327.596 350.183 328.208C350.183 328.448 350.171 328.676 350.147 328.892C350.123 329.108 350.099 329.27 350.075 329.378H344.729C344.849 330.026 345.113 330.506 345.521 330.818C345.941 331.118 346.451 331.268 347.051 331.268C347.687 331.268 348.329 331.07 348.977 330.674L349.859 332.276C349.403 332.588 348.893 332.834 348.329 333.014C347.777 333.194 347.231 333.284 346.691 333.284ZM344.711 327.632H347.933C347.933 327.128 347.819 326.72 347.591 326.408C347.363 326.096 346.979 325.94 346.439 325.94C346.019 325.94 345.647 326.078 345.323 326.354C345.011 326.63 344.807 327.056 344.711 327.632ZM355.197 333.284C354.645 333.284 354.141 333.176 353.685 332.96C353.241 332.744 352.857 332.438 352.533 332.042C352.221 331.634 351.975 331.142 351.795 330.566C351.627 329.99 351.543 329.336 351.543 328.604C351.543 327.872 351.645 327.218 351.849 326.642C352.065 326.066 352.341 325.58 352.677 325.184C353.025 324.776 353.421 324.464 353.865 324.248C354.321 324.032 354.783 323.924 355.251 323.924C355.755 323.924 356.169 324.008 356.493 324.176C356.817 324.344 357.135 324.572 357.447 324.86L357.339 323.492V320.45H359.985V333.068H357.825L357.645 332.186H357.573C357.261 332.498 356.895 332.762 356.475 332.978C356.055 333.182 355.629 333.284 355.197 333.284ZM355.881 331.124C356.169 331.124 356.427 331.064 356.655 330.944C356.895 330.824 357.123 330.614 357.339 330.314V326.66C357.099 326.444 356.853 326.294 356.601 326.21C356.349 326.126 356.103 326.084 355.863 326.084C355.443 326.084 355.071 326.288 354.747 326.696C354.423 327.092 354.261 327.716 354.261 328.568C354.261 329.456 354.399 330.104 354.675 330.512C354.963 330.92 355.365 331.124 355.881 331.124ZM368.435 336.29C367.679 335.054 367.091 333.77 366.671 332.438C366.263 331.106 366.059 329.648 366.059 328.064C366.059 326.48 366.263 325.022 366.671 323.69C367.091 322.358 367.679 321.074 368.435 319.838L370.091 320.522C369.431 321.698 368.951 322.928 368.651 324.212C368.351 325.496 368.201 326.78 368.201 328.064C368.201 329.348 368.351 330.632 368.651 331.916C368.951 333.2 369.431 334.43 370.091 335.606L368.435 336.29ZM374.623 333.068V323.564H371.401V321.332H380.509V323.564H377.287V333.068H374.623ZM382.123 333.068V324.14H384.769V333.068H382.123ZM383.437 322.826C382.993 322.826 382.627 322.7 382.339 322.448C382.051 322.184 381.907 321.848 381.907 321.44C381.907 321.032 382.051 320.702 382.339 320.45C382.627 320.198 382.993 320.072 383.437 320.072C383.893 320.072 384.259 320.198 384.535 320.45C384.823 320.702 384.967 321.032 384.967 321.44C384.967 321.848 384.823 322.184 384.535 322.448C384.259 322.7 383.893 322.826 383.437 322.826ZM387.313 333.068V321.332H391.327C391.939 321.332 392.503 321.38 393.019 321.476C393.547 321.56 394.003 321.716 394.387 321.944C394.783 322.172 395.089 322.472 395.305 322.844C395.533 323.216 395.647 323.684 395.647 324.248C395.647 324.512 395.611 324.776 395.539 325.04C395.467 325.304 395.365 325.55 395.233 325.778C395.101 326.006 394.939 326.21 394.747 326.39C394.567 326.57 394.357 326.702 394.117 326.786V326.858C394.417 326.93 394.693 327.044 394.945 327.2C395.197 327.344 395.419 327.53 395.611 327.758C395.803 327.986 395.953 328.256 396.061 328.568C396.169 328.868 396.223 329.216 396.223 329.612C396.223 330.212 396.103 330.728 395.863 331.16C395.635 331.592 395.311 331.952 394.891 332.24C394.483 332.516 394.003 332.726 393.451 332.87C392.899 333.002 392.305 333.068 391.669 333.068H387.313ZM389.959 326.03H391.201C391.849 326.03 392.317 325.904 392.605 325.652C392.905 325.4 393.055 325.064 393.055 324.644C393.055 324.188 392.905 323.864 392.605 323.672C392.305 323.48 391.843 323.384 391.219 323.384H389.959V326.03ZM389.959 331.016H391.453C392.905 331.016 393.631 330.488 393.631 329.432C393.631 328.916 393.451 328.55 393.091 328.334C392.731 328.106 392.185 327.992 391.453 327.992H389.959V331.016ZM400.624 333.284C400.036 333.284 399.43 333.17 398.806 332.942C398.194 332.714 397.66 332.414 397.204 332.042L398.392 330.386C398.8 330.698 399.19 330.932 399.562 331.088C399.934 331.244 400.312 331.322 400.696 331.322C401.092 331.322 401.38 331.256 401.56 331.124C401.74 330.992 401.83 330.806 401.83 330.566C401.83 330.422 401.776 330.296 401.668 330.188C401.572 330.068 401.434 329.96 401.254 329.864C401.086 329.768 400.894 329.684 400.678 329.612C400.462 329.528 400.24 329.438 400.012 329.342C399.736 329.234 399.46 329.108 399.184 328.964C398.908 328.82 398.656 328.646 398.428 328.442C398.2 328.226 398.014 327.98 397.87 327.704C397.726 327.416 397.654 327.086 397.654 326.714C397.654 326.306 397.732 325.928 397.888 325.58C398.056 325.232 398.29 324.938 398.59 324.698C398.89 324.458 399.25 324.272 399.67 324.14C400.09 323.996 400.558 323.924 401.074 323.924C401.758 323.924 402.358 324.044 402.874 324.284C403.39 324.512 403.84 324.77 404.224 325.058L403.036 326.642C402.712 326.402 402.394 326.216 402.082 326.084C401.77 325.952 401.458 325.886 401.146 325.886C400.474 325.886 400.138 326.12 400.138 326.588C400.138 326.732 400.186 326.858 400.282 326.966C400.378 327.062 400.504 327.152 400.66 327.236C400.828 327.32 401.014 327.404 401.218 327.488C401.434 327.56 401.656 327.638 401.884 327.722C402.172 327.83 402.454 327.956 402.73 328.1C403.018 328.232 403.276 328.4 403.504 328.604C403.744 328.808 403.936 329.06 404.08 329.36C404.224 329.648 404.296 329.996 404.296 330.404C404.296 330.812 404.218 331.19 404.062 331.538C403.906 331.886 403.672 332.192 403.36 332.456C403.048 332.708 402.664 332.912 402.208 333.068C401.752 333.212 401.224 333.284 400.624 333.284ZM407.326 336.29L405.67 335.606C406.342 334.43 406.828 333.2 407.128 331.916C407.428 330.632 407.578 329.348 407.578 328.064C407.578 326.78 407.428 325.496 407.128 324.212C406.828 322.928 406.342 321.698 405.67 320.522L407.326 319.838C408.082 321.074 408.664 322.358 409.072 323.69C409.492 325.022 409.702 326.48 409.702 328.064C409.702 329.648 409.492 331.106 409.072 332.438C408.664 333.77 408.082 335.054 407.326 336.29Z" fill="black"/>
<path d="M18.4247 208.087C18.4247 208.831 18.2987 209.533 18.0467 210.193C17.7827 210.853 17.3987 211.435 16.8947 211.939C16.3907 212.431 15.7667 212.821 15.0227 213.109C14.2667 213.397 13.3967 213.541 12.4127 213.541C11.4407 213.541 10.5767 213.391 9.82074 213.091C9.05274 212.791 8.40474 212.389 7.87674 211.885C7.34874 211.381 6.94674 210.793 6.67074 210.121C6.39474 209.449 6.25674 208.741 6.25674 207.997C6.25674 207.241 6.41274 206.563 6.72474 205.963C7.02474 205.363 7.37874 204.865 7.78674 204.469L9.47874 205.873C9.20274 206.173 8.98074 206.491 8.81274 206.827C8.63274 207.151 8.54274 207.523 8.54274 207.943C8.54274 208.339 8.63274 208.717 8.81274 209.077C8.98074 209.425 9.22674 209.731 9.55074 209.995C9.87474 210.247 10.2707 210.451 10.7387 210.607C11.2067 210.751 11.7347 210.823 12.3227 210.823C13.5347 210.823 14.4767 210.565 15.1487 210.049C15.8087 209.533 16.1387 208.843 16.1387 207.979C16.1387 207.499 16.0367 207.073 15.8327 206.701C15.6167 206.317 15.3527 205.981 15.0407 205.693L16.6967 204.289C17.8487 205.273 18.4247 206.539 18.4247 208.087ZM18.4247 198.889C18.4247 199.453 18.3227 199.999 18.1187 200.527C17.9027 201.055 17.5967 201.523 17.2007 201.931C16.8047 202.327 16.3187 202.645 15.7427 202.885C15.1547 203.125 14.4887 203.245 13.7447 203.245C13.0007 203.245 12.3407 203.125 11.7647 202.885C11.1767 202.645 10.6847 202.327 10.2887 201.931C9.89274 201.523 9.59274 201.055 9.38874 200.527C9.17274 199.999 9.06474 199.453 9.06474 198.889C9.06474 198.325 9.17274 197.785 9.38874 197.269C9.59274 196.741 9.89274 196.279 10.2887 195.883C10.6847 195.475 11.1767 195.151 11.7647 194.911C12.3407 194.671 13.0007 194.551 13.7447 194.551C14.4887 194.551 15.1547 194.671 15.7427 194.911C16.3187 195.151 16.8047 195.475 17.2007 195.883C17.5967 196.279 17.9027 196.741 18.1187 197.269C18.3227 197.785 18.4247 198.325 18.4247 198.889ZM16.2827 198.889C16.2827 198.349 16.0547 197.941 15.5987 197.665C15.1427 197.389 14.5247 197.251 13.7447 197.251C12.9647 197.251 12.3467 197.389 11.8907 197.665C11.4347 197.941 11.2067 198.349 11.2067 198.889C11.2067 199.441 11.4347 199.855 11.8907 200.131C12.3467 200.395 12.9647 200.527 13.7447 200.527C14.5247 200.527 15.1427 200.395 15.5987 200.131C16.0547 199.855 16.2827 199.441 16.2827 198.889ZM18.2087 192.738L9.28074 192.738L9.28074 190.578L10.4327 190.398L10.4327 190.326C10.0607 189.954 9.74274 189.558 9.47874 189.138C9.20274 188.718 9.06474 188.214 9.06474 187.626C9.06474 186.99 9.19674 186.48 9.46074 186.096C9.71274 185.7 10.0787 185.388 10.5587 185.16C10.1507 184.764 9.80274 184.35 9.51474 183.918C9.21474 183.474 9.06474 182.952 9.06474 182.352C9.06474 181.392 9.38874 180.69 10.0367 180.246C10.6727 179.79 11.5487 179.562 12.6647 179.562L18.2087 179.562L18.2087 182.208L13.0067 182.208C12.3587 182.208 11.9147 182.298 11.6747 182.478C11.4347 182.646 11.3147 182.922 11.3147 183.306C11.3147 183.75 11.6027 184.26 12.1787 184.836L18.2087 184.836L18.2087 187.482L13.0067 187.482C12.3587 187.482 11.9147 187.572 11.6747 187.752C11.4347 187.92 11.3147 188.196 11.3147 188.58C11.3147 189.036 11.6027 189.54 12.1787 190.092L18.2087 190.092L18.2087 192.738ZM21.5207 177.305L9.28074 177.305L9.28074 175.145L10.1627 174.965L10.1627 174.893C9.85074 174.545 9.59274 174.155 9.38874 173.723C9.17274 173.279 9.06474 172.823 9.06474 172.355C9.06474 171.815 9.17274 171.329 9.38874 170.897C9.60474 170.465 9.91074 170.099 10.3067 169.799C10.7027 169.499 11.1827 169.271 11.7467 169.115C12.2987 168.947 12.9167 168.863 13.6007 168.863C14.3687 168.863 15.0527 168.971 15.6527 169.187C16.2407 169.391 16.7447 169.673 17.1647 170.033C17.5727 170.381 17.8847 170.783 18.1007 171.239C18.3167 171.683 18.4247 172.145 18.4247 172.625C18.4247 173.009 18.3467 173.381 18.1907 173.741C18.0227 174.101 17.7887 174.437 17.4887 174.749L18.9107 174.659L21.5207 174.659L21.5207 177.305ZM16.2647 173.237C16.2647 172.781 16.0607 172.391 15.6527 172.067C15.2327 171.743 14.5607 171.581 13.6367 171.581C12.0287 171.581 11.2247 172.097 11.2247 173.129C11.2247 173.645 11.4947 174.155 12.0347 174.659L15.6887 174.659C15.9047 174.419 16.0547 174.179 16.1387 173.939C16.2227 173.699 16.2647 173.465 16.2647 173.237ZM18.4247 164.304C18.4247 165.276 18.1067 165.984 17.4707 166.428C16.8347 166.86 15.9527 167.076 14.8247 167.076L9.28074 167.076L9.28073 164.43L14.4827 164.43C15.1307 164.43 15.5747 164.34 15.8147 164.16C16.0547 163.98 16.1747 163.698 16.1747 163.314C16.1747 162.978 16.0967 162.696 15.9407 162.468C15.7847 162.24 15.5327 161.994 15.1847 161.73L9.28073 161.73L9.28073 159.084L18.2087 159.084L18.2087 161.244L16.9667 161.442L16.9667 161.496C17.4227 161.88 17.7827 162.294 18.0467 162.738C18.2987 163.17 18.4247 163.692 18.4247 164.304ZM18.4247 153.318C18.4247 153.87 18.3407 154.344 18.1727 154.74C18.0047 155.124 17.7707 155.442 17.4707 155.694C17.1707 155.934 16.8107 156.114 16.3907 156.234C15.9587 156.342 15.4847 156.396 14.9687 156.396L11.3507 156.396L11.3507 157.62L9.38873 157.62L9.28073 156.252L6.90473 155.946L6.90473 153.75L9.28073 153.75L9.28073 151.608L11.3507 151.608L11.3507 153.75L14.9327 153.75C15.4367 153.75 15.8027 153.648 16.0307 153.444C16.2467 153.228 16.3547 152.946 16.3547 152.598C16.3547 152.454 16.3367 152.31 16.3007 152.166C16.2647 152.01 16.2227 151.872 16.1747 151.752L18.1007 151.338C18.1727 151.578 18.2447 151.86 18.3167 152.184C18.3887 152.508 18.4247 152.886 18.4247 153.318ZM18.4247 146.186C18.4247 146.822 18.3227 147.416 18.1187 147.968C17.9027 148.52 17.5967 149 17.2007 149.408C16.7927 149.816 16.3007 150.134 15.7247 150.362C15.1487 150.59 14.4887 150.704 13.7447 150.704C13.0247 150.704 12.3767 150.584 11.8007 150.344C11.2127 150.104 10.7207 149.792 10.3247 149.408C9.91673 149.012 9.60473 148.562 9.38873 148.058C9.17273 147.554 9.06473 147.032 9.06473 146.492C9.06473 145.856 9.17273 145.304 9.38873 144.836C9.60473 144.356 9.90473 143.96 10.2887 143.648C10.6727 143.324 11.1287 143.084 11.6567 142.928C12.1727 142.772 12.7367 142.694 13.3487 142.694C13.5887 142.694 13.8167 142.706 14.0327 142.73C14.2487 142.754 14.4107 142.778 14.5187 142.802L14.5187 148.148C15.1667 148.028 15.6467 147.764 15.9587 147.356C16.2587 146.936 16.4087 146.426 16.4087 145.826C16.4087 145.19 16.2107 144.548 15.8147 143.9L17.4167 143.018C17.7287 143.474 17.9747 143.984 18.1547 144.548C18.3347 145.1 18.4247 145.646 18.4247 146.186ZM12.7727 148.166L12.7727 144.944C12.2687 144.944 11.8607 145.058 11.5487 145.286C11.2367 145.514 11.0807 145.898 11.0807 146.438C11.0807 146.858 11.2187 147.23 11.4947 147.554C11.7707 147.866 12.1967 148.07 12.7727 148.166ZM21.4307 134.76C20.1947 135.516 18.9107 136.104 17.5787 136.524C16.2467 136.932 14.7887 137.136 13.2047 137.136C11.6207 137.136 10.1627 136.932 8.83073 136.524C7.49873 136.104 6.21473 135.516 4.97873 134.76L5.66273 133.104C6.83873 133.764 8.06873 134.244 9.35273 134.544C10.6367 134.844 11.9207 134.994 13.2047 134.994C14.4887 134.994 15.7727 134.844 17.0567 134.544C18.3407 134.244 19.5707 133.764 20.7467 133.104L21.4307 134.76ZM18.2087 129.022L9.28073 132.028L9.28073 129.364L13.4927 128.212C13.9367 128.092 14.3927 127.978 14.8607 127.87C15.3167 127.75 15.7787 127.63 16.2467 127.51L16.2467 127.438C15.7787 127.33 15.3167 127.222 14.8607 127.114C14.3927 126.994 13.9367 126.874 13.4927 126.754L9.28073 125.584L9.28073 123.046L18.2087 125.962L18.2087 129.022ZM18.4247 116.54C18.4247 117.284 18.2987 117.986 18.0467 118.646C17.7827 119.306 17.3987 119.888 16.8947 120.392C16.3907 120.884 15.7667 121.274 15.0227 121.562C14.2667 121.85 13.3967 121.994 12.4127 121.994C11.4407 121.994 10.5767 121.844 9.82073 121.544C9.05273 121.244 8.40473 120.842 7.87673 120.338C7.34873 119.834 6.94673 119.246 6.67073 118.574C6.39473 117.902 6.25673 117.194 6.25673 116.45C6.25673 115.694 6.41273 115.016 6.72473 114.416C7.02473 113.816 7.37873 113.318 7.78673 112.922L9.47873 114.326C9.20273 114.626 8.98073 114.944 8.81273 115.28C8.63273 115.604 8.54273 115.976 8.54273 116.396C8.54273 116.792 8.63273 117.17 8.81273 117.53C8.98073 117.878 9.22673 118.184 9.55073 118.448C9.87473 118.7 10.2707 118.904 10.7387 119.06C11.2067 119.204 11.7347 119.276 12.3227 119.276C13.5347 119.276 14.4767 119.018 15.1487 118.502C15.8087 117.986 16.1387 117.296 16.1387 116.432C16.1387 115.952 16.0367 115.526 15.8327 115.154C15.6167 114.77 15.3527 114.434 15.0407 114.146L16.6967 112.742C17.8487 113.726 18.4247 114.992 18.4247 116.54ZM18.2087 110.96L6.47273 110.96L6.47273 106.928C6.47273 106.28 6.53873 105.674 6.67073 105.11C6.79073 104.546 7.00073 104.054 7.30073 103.634C7.58873 103.214 7.97873 102.884 8.47073 102.644C8.95073 102.392 9.54473 102.266 10.2527 102.266C10.9367 102.266 11.5307 102.392 12.0347 102.644C12.5387 102.884 12.9527 103.214 13.2767 103.634C13.6007 104.054 13.8407 104.54 13.9967 105.092C14.1527 105.644 14.2307 106.232 14.2307 106.856L14.2307 108.314L18.2087 108.314L18.2087 110.96ZM12.1247 108.314L12.1247 107.018C12.1247 105.578 11.5007 104.858 10.2527 104.858C9.64073 104.858 9.20873 105.05 8.95673 105.434C8.70473 105.818 8.57873 106.37 8.57873 107.09L8.57873 108.314L12.1247 108.314ZM18.4247 95.611C18.4247 97.135 17.9747 98.299 17.0747 99.103C16.1747 99.907 14.7407 100.309 12.7727 100.309L6.47273 100.309L6.47273 97.645L13.0427 97.645C14.1947 97.645 14.9987 97.471 15.4547 97.123C15.9107 96.775 16.1387 96.271 16.1387 95.611C16.1387 94.951 15.9107 94.441 15.4547 94.081C14.9987 93.721 14.1947 93.541 13.0427 93.541L6.47273 93.541L6.47273 90.985L12.7727 90.985C14.7407 90.985 16.1747 91.381 17.0747 92.173C17.9747 92.953 18.4247 94.099 18.4247 95.611ZM18.4247 85.995C18.4247 86.583 18.3107 87.189 18.0827 87.813C17.8547 88.425 17.5547 88.959 17.1827 89.415L15.5267 88.227C15.8387 87.819 16.0727 87.429 16.2287 87.057C16.3847 86.685 16.4627 86.307 16.4627 85.923C16.4627 85.527 16.3967 85.239 16.2647 85.059C16.1327 84.879 15.9467 84.789 15.7067 84.789C15.5627 84.789 15.4367 84.843 15.3287 84.951C15.2087 85.047 15.1007 85.185 15.0047 85.365C14.9087 85.533 14.8247 85.725 14.7527 85.941C14.6687 86.157 14.5787 86.379 14.4827 86.607C14.3747 86.883 14.2487 87.159 14.1047 87.435C13.9607 87.711 13.7867 87.963 13.5827 88.191C13.3667 88.419 13.1207 88.605 12.8447 88.749C12.5567 88.893 12.2267 88.965 11.8547 88.965C11.4467 88.965 11.0687 88.887 10.7207 88.731C10.3727 88.563 10.0787 88.329 9.83873 88.029C9.59873 87.729 9.41273 87.369 9.28073 86.949C9.13673 86.529 9.06473 86.061 9.06473 85.545C9.06473 84.861 9.18473 84.261 9.42473 83.745C9.65273 83.229 9.91073 82.779 10.1987 82.395L11.7827 83.583C11.5427 83.907 11.3567 84.225 11.2247 84.537C11.0927 84.849 11.0267 85.161 11.0267 85.473C11.0267 86.145 11.2607 86.481 11.7287 86.481C11.8727 86.481 11.9987 86.433 12.1067 86.337C12.2027 86.241 12.2927 86.115 12.3767 85.959C12.4607 85.791 12.5447 85.605 12.6287 85.401C12.7007 85.185 12.7787 84.963 12.8627 84.735C12.9707 84.447 13.0967 84.165 13.2407 83.889C13.3727 83.601 13.5407 83.343 13.7447 83.115C13.9487 82.875 14.2007 82.683 14.5007 82.539C14.7887 82.395 15.1367 82.323 15.5447 82.323C15.9527 82.323 16.3307 82.401 16.6787 82.557C17.0267 82.713 17.3327 82.947 17.5967 83.259C17.8487 83.571 18.0527 83.955 18.2087 84.411C18.3527 84.867 18.4247 85.395 18.4247 85.995ZM21.4307 79.2925L20.7467 80.9485C19.5707 80.2765 18.3407 79.7905 17.0567 79.4905C15.7727 79.1905 14.4887 79.0405 13.2047 79.0405C11.9207 79.0405 10.6367 79.1905 9.35273 79.4905C8.06873 79.7905 6.83873 80.2765 5.66273 80.9485L4.97873 79.2925C6.21473 78.5365 7.49873 77.9545 8.83073 77.5465C10.1627 77.1265 11.6207 76.9165 13.2047 76.9165C14.7887 76.9165 16.2467 77.1265 17.5787 77.5465C18.9107 77.9545 20.1947 78.5365 21.4307 79.2925Z" fill="black"/>
<path d="M66.3662 30.144C66.0622 30.144 65.7822 30.112 65.5262 30.048C65.2782 29.992 65.0502 29.916 64.8422 29.82C64.6422 29.724 64.4582 29.616 64.2902 29.496C64.1302 29.368 63.9862 29.236 63.8582 29.1L64.3382 28.452C64.5622 28.684 64.8262 28.888 65.1302 29.064C65.4422 29.24 65.8222 29.328 66.2702 29.328C66.5022 29.328 66.7182 29.288 66.9182 29.208C67.1262 29.12 67.3062 29 67.4582 28.848C67.6102 28.696 67.7302 28.512 67.8182 28.296C67.9062 28.08 67.9502 27.84 67.9502 27.576C67.9502 27.048 67.8022 26.636 67.5062 26.34C67.2102 26.044 66.8142 25.896 66.3182 25.896C66.0542 25.896 65.8262 25.936 65.6342 26.016C65.4502 26.096 65.2422 26.212 65.0102 26.364L64.4822 26.028L64.7342 22.344H68.5622V23.196H65.5982L65.3942 25.464C65.5782 25.368 65.7622 25.292 65.9462 25.236C66.1302 25.18 66.3382 25.152 66.5702 25.152C66.8982 25.152 67.2062 25.2 67.4942 25.296C67.7822 25.392 68.0342 25.54 68.2502 25.74C68.4662 25.932 68.6342 26.18 68.7542 26.484C68.8822 26.78 68.9462 27.136 68.9462 27.552C68.9462 27.968 68.8742 28.336 68.7302 28.656C68.5862 28.976 68.3942 29.248 68.1542 29.472C67.9142 29.688 67.6382 29.856 67.3262 29.976C67.0222 30.088 66.7022 30.144 66.3662 30.144ZM72.511 30.144C71.735 30.144 71.131 29.8 70.699 29.112C70.267 28.424 70.051 27.436 70.051 26.148C70.051 24.86 70.267 23.88 70.699 23.208C71.131 22.536 71.735 22.2 72.511 22.2C73.279 22.2 73.879 22.536 74.311 23.208C74.743 23.88 74.959 24.86 74.959 26.148C74.959 27.436 74.743 28.424 74.311 29.112C73.879 29.8 73.279 30.144 72.511 30.144ZM72.511 29.352C72.735 29.352 72.935 29.292 73.111 29.172C73.295 29.044 73.451 28.852 73.579 28.596C73.715 28.332 73.819 28 73.891 27.6C73.963 27.192 73.999 26.708 73.999 26.148C73.999 25.588 73.963 25.108 73.891 24.708C73.819 24.308 73.715 23.984 73.579 23.736C73.451 23.48 73.295 23.292 73.111 23.172C72.935 23.052 72.735 22.992 72.511 22.992C72.287 22.992 72.083 23.052 71.899 23.172C71.715 23.292 71.555 23.48 71.419 23.736C71.291 23.984 71.191 24.308 71.119 24.708C71.047 25.108 71.011 25.588 71.011 26.148C71.011 27.268 71.147 28.084 71.419 28.596C71.699 29.1 72.063 29.352 72.511 29.352ZM78.4759 30.144C77.6999 30.144 77.0959 29.8 76.6639 29.112C76.2319 28.424 76.0159 27.436 76.0159 26.148C76.0159 24.86 76.2319 23.88 76.6639 23.208C77.0959 22.536 77.6999 22.2 78.4759 22.2C79.2439 22.2 79.8439 22.536 80.2759 23.208C80.7079 23.88 80.9239 24.86 80.9239 26.148C80.9239 27.436 80.7079 28.424 80.2759 29.112C79.8439 29.8 79.2439 30.144 78.4759 30.144ZM78.4759 29.352C78.6999 29.352 78.8999 29.292 79.0759 29.172C79.2599 29.044 79.4159 28.852 79.5439 28.596C79.6799 28.332 79.7839 28 79.8559 27.6C79.9279 27.192 79.9639 26.708 79.9639 26.148C79.9639 25.588 79.9279 25.108 79.8559 24.708C79.7839 24.308 79.6799 23.984 79.5439 23.736C79.4159 23.48 79.2599 23.292 79.0759 23.172C78.8999 23.052 78.6999 22.992 78.4759 22.992C78.2519 22.992 78.0479 23.052 77.8639 23.172C77.6799 23.292 77.5199 23.48 77.3839 23.736C77.2559 23.984 77.1559 24.308 77.0839 24.708C77.0119 25.108 76.9759 25.588 76.9759 26.148C76.9759 27.268 77.1119 28.084 77.3839 28.596C77.6639 29.1 78.0279 29.352 78.4759 29.352ZM67.2062 81V78.888H63.7622V78.24L67.0382 73.344H68.1422V78.096H69.1862V78.888H68.1422V81H67.2062ZM64.8062 78.096H67.2062V75.876C67.2062 75.668 67.2102 75.424 67.2182 75.144C67.2342 74.856 67.2502 74.608 67.2662 74.4H67.2182C67.1222 74.584 67.0222 74.764 66.9182 74.94C66.8142 75.116 66.7062 75.296 66.5942 75.48L64.8062 78.096ZM72.511 81.144C71.735 81.144 71.131 80.8 70.699 80.112C70.267 79.424 70.051 78.436 70.051 77.148C70.051 75.86 70.267 74.88 70.699 74.208C71.131 73.536 71.735 73.2 72.511 73.2C73.279 73.2 73.879 73.536 74.311 74.208C74.743 74.88 74.959 75.86 74.959 77.148C74.959 78.436 74.743 79.424 74.311 80.112C73.879 80.8 73.279 81.144 72.511 81.144ZM72.511 80.352C72.735 80.352 72.935 80.292 73.111 80.172C73.295 80.044 73.451 79.852 73.579 79.596C73.715 79.332 73.819 79 73.891 78.6C73.963 78.192 73.999 77.708 73.999 77.148C73.999 76.588 73.963 76.108 73.891 75.708C73.819 75.308 73.715 74.984 73.579 74.736C73.451 74.48 73.295 74.292 73.111 74.172C72.935 74.052 72.735 73.992 72.511 73.992C72.287 73.992 72.083 74.052 71.899 74.172C71.715 74.292 71.555 74.48 71.419 74.736C71.291 74.984 71.191 75.308 71.119 75.708C71.047 76.108 71.011 76.588 71.011 77.148C71.011 78.268 71.147 79.084 71.419 79.596C71.699 80.1 72.063 80.352 72.511 80.352ZM78.4759 81.144C77.6999 81.144 77.0959 80.8 76.6639 80.112C76.2319 79.424 76.0159 78.436 76.0159 77.148C76.0159 75.86 76.2319 74.88 76.6639 74.208C77.0959 73.536 77.6999 73.2 78.4759 73.2C79.2439 73.2 79.8439 73.536 80.2759 74.208C80.7079 74.88 80.9239 75.86 80.9239 77.148C80.9239 78.436 80.7079 79.424 80.2759 80.112C79.8439 80.8 79.2439 81.144 78.4759 81.144ZM78.4759 80.352C78.6999 80.352 78.8999 80.292 79.0759 80.172C79.2599 80.044 79.4159 79.852 79.5439 79.596C79.6799 79.332 79.7839 79 79.8559 78.6C79.9279 78.192 79.9639 77.708 79.9639 77.148C79.9639 76.588 79.9279 76.108 79.8559 75.708C79.7839 75.308 79.6799 74.984 79.5439 74.736C79.4159 74.48 79.2599 74.292 79.0759 74.172C78.8999 74.052 78.6999 73.992 78.4759 73.992C78.2519 73.992 78.0479 74.052 77.8639 74.172C77.6799 74.292 77.5199 74.48 77.3839 74.736C77.2559 74.984 77.1559 75.308 77.0839 75.708C77.0119 76.108 76.9759 76.588 76.9759 77.148C76.9759 78.268 77.1119 79.084 77.3839 79.596C77.6639 80.1 78.0279 80.352 78.4759 80.352ZM66.3902 132.144C66.0862 132.144 65.8062 132.112 65.5502 132.048C65.3022 131.992 65.0742 131.916 64.8662 131.82C64.6582 131.716 64.4702 131.6 64.3022 131.472C64.1422 131.344 63.9982 131.208 63.8702 131.064L64.3742 130.416C64.6062 130.656 64.8742 130.868 65.1782 131.052C65.4902 131.236 65.8742 131.328 66.3302 131.328C66.7942 131.328 67.1742 131.204 67.4702 130.956C67.7662 130.7 67.9142 130.356 67.9142 129.924C67.9142 129.7 67.8702 129.496 67.7822 129.312C67.7022 129.12 67.5662 128.956 67.3742 128.82C67.1822 128.684 66.9302 128.58 66.6182 128.508C66.3062 128.436 65.9222 128.4 65.4662 128.4V127.644C65.8742 127.644 66.2142 127.608 66.4862 127.536C66.7662 127.464 66.9902 127.364 67.1582 127.236C67.3342 127.108 67.4582 126.956 67.5302 126.78C67.6022 126.604 67.6382 126.416 67.6382 126.216C67.6382 125.84 67.5182 125.544 67.2782 125.328C67.0462 125.112 66.7262 125.004 66.3182 125.004C65.9982 125.004 65.7022 125.076 65.4302 125.22C65.1662 125.364 64.9182 125.552 64.6862 125.784L64.1582 125.16C64.4542 124.88 64.7782 124.652 65.1302 124.476C65.4902 124.292 65.8982 124.2 66.3542 124.2C66.6902 124.2 66.9982 124.244 67.2782 124.332C67.5582 124.42 67.7982 124.548 67.9982 124.716C68.2062 124.876 68.3662 125.076 68.4782 125.316C68.5902 125.556 68.6462 125.832 68.6462 126.144C68.6462 126.608 68.5182 126.988 68.2622 127.284C68.0062 127.58 67.6702 127.808 67.2542 127.968V128.016C67.4862 128.072 67.7022 128.156 67.9022 128.268C68.1022 128.372 68.2782 128.508 68.4302 128.676C68.5822 128.836 68.6982 129.024 68.7782 129.24C68.8662 129.456 68.9102 129.696 68.9102 129.96C68.9102 130.296 68.8422 130.6 68.7062 130.872C68.5782 131.144 68.3982 131.376 68.1662 131.568C67.9422 131.752 67.6782 131.896 67.3742 132C67.0702 132.096 66.7422 132.144 66.3902 132.144ZM72.511 132.144C71.735 132.144 71.131 131.8 70.699 131.112C70.267 130.424 70.051 129.436 70.051 128.148C70.051 126.86 70.267 125.88 70.699 125.208C71.131 124.536 71.735 124.2 72.511 124.2C73.279 124.2 73.879 124.536 74.311 125.208C74.743 125.88 74.959 126.86 74.959 128.148C74.959 129.436 74.743 130.424 74.311 131.112C73.879 131.8 73.279 132.144 72.511 132.144ZM72.511 131.352C72.735 131.352 72.935 131.292 73.111 131.172C73.295 131.044 73.451 130.852 73.579 130.596C73.715 130.332 73.819 130 73.891 129.6C73.963 129.192 73.999 128.708 73.999 128.148C73.999 127.588 73.963 127.108 73.891 126.708C73.819 126.308 73.715 125.984 73.579 125.736C73.451 125.48 73.295 125.292 73.111 125.172C72.935 125.052 72.735 124.992 72.511 124.992C72.287 124.992 72.083 125.052 71.899 125.172C71.715 125.292 71.555 125.48 71.419 125.736C71.291 125.984 71.191 126.308 71.119 126.708C71.047 127.108 71.011 127.588 71.011 128.148C71.011 129.268 71.147 130.084 71.419 130.596C71.699 131.1 72.063 131.352 72.511 131.352ZM78.4759 132.144C77.6999 132.144 77.0959 131.8 76.6639 131.112C76.2319 130.424 76.0159 129.436 76.0159 128.148C76.0159 126.86 76.2319 125.88 76.6639 125.208C77.0959 124.536 77.6999 124.2 78.4759 124.2C79.2439 124.2 79.8439 124.536 80.2759 125.208C80.7079 125.88 80.9239 126.86 80.9239 128.148C80.9239 129.436 80.7079 130.424 80.2759 131.112C79.8439 131.8 79.2439 132.144 78.4759 132.144ZM78.4759 131.352C78.6999 131.352 78.8999 131.292 79.0759 131.172C79.2599 131.044 79.4159 130.852 79.5439 130.596C79.6799 130.332 79.7839 130 79.8559 129.6C79.9279 129.192 79.9639 128.708 79.9639 128.148C79.9639 127.588 79.9279 127.108 79.8559 126.708C79.7839 126.308 79.6799 125.984 79.5439 125.736C79.4159 125.48 79.2599 125.292 79.0759 125.172C78.8999 125.052 78.6999 124.992 78.4759 124.992C78.2519 124.992 78.0479 125.052 77.8639 125.172C77.6799 125.292 77.5199 125.48 77.3839 125.736C77.2559 125.984 77.1559 126.308 77.0839 126.708C77.0119 127.108 76.9759 127.588 76.9759 128.148C76.9759 129.268 77.1119 130.084 77.3839 130.596C77.6639 131.1 78.0279 131.352 78.4759 131.352ZM64.0382 183V182.412C64.6142 181.836 65.1262 181.316 65.5742 180.852C66.0222 180.388 66.3982 179.96 66.7022 179.568C67.0062 179.168 67.2382 178.804 67.3982 178.476C67.5582 178.14 67.6382 177.816 67.6382 177.504C67.6382 177.064 67.5182 176.704 67.2782 176.424C67.0382 176.144 66.6742 176.004 66.1862 176.004C65.8662 176.004 65.5702 176.096 65.2982 176.28C65.0262 176.456 64.7782 176.672 64.5542 176.928L63.9902 176.364C64.3102 176.012 64.6502 175.732 65.0102 175.524C65.3702 175.308 65.8022 175.2 66.3062 175.2C67.0182 175.2 67.5782 175.408 67.9862 175.824C68.3942 176.232 68.5982 176.776 68.5982 177.456C68.5982 177.816 68.5182 178.18 68.3582 178.548C68.2062 178.908 67.9902 179.284 67.7102 179.676C67.4382 180.06 67.1102 180.464 66.7262 180.888C66.3502 181.304 65.9342 181.748 65.4782 182.22C65.6862 182.204 65.9022 182.188 66.1262 182.172C66.3502 182.156 66.5622 182.148 66.7622 182.148H68.9822V183H64.0382ZM72.511 183.144C71.735 183.144 71.131 182.8 70.699 182.112C70.267 181.424 70.051 180.436 70.051 179.148C70.051 177.86 70.267 176.88 70.699 176.208C71.131 175.536 71.735 175.2 72.511 175.2C73.279 175.2 73.879 175.536 74.311 176.208C74.743 176.88 74.959 177.86 74.959 179.148C74.959 180.436 74.743 181.424 74.311 182.112C73.879 182.8 73.279 183.144 72.511 183.144ZM72.511 182.352C72.735 182.352 72.935 182.292 73.111 182.172C73.295 182.044 73.451 181.852 73.579 181.596C73.715 181.332 73.819 181 73.891 180.6C73.963 180.192 73.999 179.708 73.999 179.148C73.999 178.588 73.963 178.108 73.891 177.708C73.819 177.308 73.715 176.984 73.579 176.736C73.451 176.48 73.295 176.292 73.111 176.172C72.935 176.052 72.735 175.992 72.511 175.992C72.287 175.992 72.083 176.052 71.899 176.172C71.715 176.292 71.555 176.48 71.419 176.736C71.291 176.984 71.191 177.308 71.119 177.708C71.047 178.108 71.011 178.588 71.011 179.148C71.011 180.268 71.147 181.084 71.419 181.596C71.699 182.1 72.063 182.352 72.511 182.352ZM78.4759 183.144C77.6999 183.144 77.0959 182.8 76.6639 182.112C76.2319 181.424 76.0159 180.436 76.0159 179.148C76.0159 177.86 76.2319 176.88 76.6639 176.208C77.0959 175.536 77.6999 175.2 78.4759 175.2C79.2439 175.2 79.8439 175.536 80.2759 176.208C80.7079 176.88 80.9239 177.86 80.9239 179.148C80.9239 180.436 80.7079 181.424 80.2759 182.112C79.8439 182.8 79.2439 183.144 78.4759 183.144ZM78.4759 182.352C78.6999 182.352 78.8999 182.292 79.0759 182.172C79.2599 182.044 79.4159 181.852 79.5439 181.596C79.6799 181.332 79.7839 181 79.8559 180.6C79.9279 180.192 79.9639 179.708 79.9639 179.148C79.9639 178.588 79.9279 178.108 79.8559 177.708C79.7839 177.308 79.6799 176.984 79.5439 176.736C79.4159 176.48 79.2599 176.292 79.0759 176.172C78.8999 176.052 78.6999 175.992 78.4759 175.992C78.2519 175.992 78.0479 176.052 77.8639 176.172C77.6799 176.292 77.5199 176.48 77.3839 176.736C77.2559 176.984 77.1559 177.308 77.0839 177.708C77.0119 178.108 76.9759 178.588 76.9759 179.148C76.9759 180.268 77.1119 181.084 77.3839 181.596C77.6639 182.1 78.0279 182.352 78.4759 182.352ZM64.5062 234V233.184H66.2582V227.544H64.8662V226.908C65.2182 226.844 65.5222 226.768 65.7782 226.68C66.0422 226.584 66.2782 226.472 66.4862 226.344H67.2422V233.184H68.8262V234H64.5062ZM72.511 234.144C71.735 234.144 71.131 233.8 70.699 233.112C70.267 232.424 70.051 231.436 70.051 230.148C70.051 228.86 70.267 227.88 70.699 227.208C71.131 226.536 71.735 226.2 72.511 226.2C73.279 226.2 73.879 226.536 74.311 227.208C74.743 227.88 74.959 228.86 74.959 230.148C74.959 231.436 74.743 232.424 74.311 233.112C73.879 233.8 73.279 234.144 72.511 234.144ZM72.511 233.352C72.735 233.352 72.935 233.292 73.111 233.172C73.295 233.044 73.451 232.852 73.579 232.596C73.715 232.332 73.819 232 73.891 231.6C73.963 231.192 73.999 230.708 73.999 230.148C73.999 229.588 73.963 229.108 73.891 228.708C73.819 228.308 73.715 227.984 73.579 227.736C73.451 227.48 73.295 227.292 73.111 227.172C72.935 227.052 72.735 226.992 72.511 226.992C72.287 226.992 72.083 227.052 71.899 227.172C71.715 227.292 71.555 227.48 71.419 227.736C71.291 227.984 71.191 228.308 71.119 228.708C71.047 229.108 71.011 229.588 71.011 230.148C71.011 231.268 71.147 232.084 71.419 232.596C71.699 233.1 72.063 233.352 72.511 233.352ZM78.4759 234.144C77.6999 234.144 77.0959 233.8 76.6639 233.112C76.2319 232.424 76.0159 231.436 76.0159 230.148C76.0159 228.86 76.2319 227.88 76.6639 227.208C77.0959 226.536 77.6999 226.2 78.4759 226.2C79.2439 226.2 79.8439 226.536 80.2759 227.208C80.7079 227.88 80.9239 228.86 80.9239 230.148C80.9239 231.436 80.7079 232.424 80.2759 233.112C79.8439 233.8 79.2439 234.144 78.4759 234.144ZM78.4759 233.352C78.6999 233.352 78.8999 233.292 79.0759 233.172C79.2599 233.044 79.4159 232.852 79.5439 232.596C79.6799 232.332 79.7839 232 79.8559 231.6C79.9279 231.192 79.9639 230.708 79.9639 230.148C79.9639 229.588 79.9279 229.108 79.8559 228.708C79.7839 228.308 79.6799 227.984 79.5439 227.736C79.4159 227.48 79.2599 227.292 79.0759 227.172C78.8999 227.052 78.6999 226.992 78.4759 226.992C78.2519 226.992 78.0479 227.052 77.8639 227.172C77.6799 227.292 77.5199 227.48 77.3839 227.736C77.2559 227.984 77.1559 228.308 77.0839 228.708C77.0119 229.108 76.9759 229.588 76.9759 230.148C76.9759 231.268 77.1119 232.084 77.3839 232.596C77.6639 233.1 78.0279 233.352 78.4759 233.352ZM78.4759 285.144C77.6999 285.144 77.0959 284.8 76.6639 284.112C76.2319 283.424 76.0159 282.436 76.0159 281.148C76.0159 279.86 76.2319 278.88 76.6639 278.208C77.0959 277.536 77.6999 277.2 78.4759 277.2C79.2439 277.2 79.8439 277.536 80.2759 278.208C80.7079 278.88 80.9239 279.86 80.9239 281.148C80.9239 282.436 80.7079 283.424 80.2759 284.112C79.8439 284.8 79.2439 285.144 78.4759 285.144ZM78.4759 284.352C78.6999 284.352 78.8999 284.292 79.0759 284.172C79.2599 284.044 79.4159 283.852 79.5439 283.596C79.6799 283.332 79.7839 283 79.8559 282.6C79.9279 282.192 79.9639 281.708 79.9639 281.148C79.9639 280.588 79.9279 280.108 79.8559 279.708C79.7839 279.308 79.6799 278.984 79.5439 278.736C79.4159 278.48 79.2599 278.292 79.0759 278.172C78.8999 278.052 78.6999 277.992 78.4759 277.992C78.2519 277.992 78.0479 278.052 77.8639 278.172C77.6799 278.292 77.5199 278.48 77.3839 278.736C77.2559 278.984 77.1559 279.308 77.0839 279.708C77.0119 280.108 76.9759 280.588 76.9759 281.148C76.9759 282.268 77.1119 283.084 77.3839 283.596C77.6639 284.1 78.0279 284.352 78.4759 284.352Z" fill="#828282"/>
<path d="M97.0984 297.292C96.3224 297.292 95.7184 296.948 95.2864 296.26C94.8544 295.572 94.6384 294.584 94.6384 293.296C94.6384 292.008 94.8544 291.028 95.2864 290.356C95.7184 289.684 96.3224 289.348 97.0984 289.348C97.8664 289.348 98.4664 289.684 98.8984 290.356C99.3304 291.028 99.5464 292.008 99.5464 293.296C99.5464 294.584 99.3304 295.572 98.8984 296.26C98.4664 296.948 97.8664 297.292 97.0984 297.292ZM97.0984 296.5C97.3224 296.5 97.5224 296.44 97.6984 296.32C97.8824 296.192 98.0384 296 98.1664 295.744C98.3024 295.48 98.4064 295.148 98.4784 294.748C98.5504 294.34 98.5864 293.856 98.5864 293.296C98.5864 292.736 98.5504 292.256 98.4784 291.856C98.4064 291.456 98.3024 291.132 98.1664 290.884C98.0384 290.628 97.8824 290.44 97.6984 290.32C97.5224 290.2 97.3224 290.14 97.0984 290.14C96.8744 290.14 96.6704 290.2 96.4864 290.32C96.3024 290.44 96.1424 290.628 96.0064 290.884C95.8784 291.132 95.7784 291.456 95.7064 291.856C95.6344 292.256 95.5984 292.736 95.5984 293.296C95.5984 294.416 95.7344 295.232 96.0064 295.744C96.2864 296.248 96.6504 296.5 97.0984 296.5Z" fill="#828282"/>
<path d="M197.398 297.148V296.56C197.974 295.984 198.486 295.464 198.934 295C199.382 294.536 199.758 294.108 200.062 293.716C200.366 293.316 200.598 292.952 200.758 292.624C200.918 292.288 200.998 291.964 200.998 291.652C200.998 291.212 200.878 290.852 200.638 290.572C200.398 290.292 200.034 290.152 199.546 290.152C199.226 290.152 198.93 290.244 198.658 290.428C198.386 290.604 198.138 290.82 197.914 291.076L197.35 290.512C197.67 290.16 198.01 289.88 198.37 289.672C198.73 289.456 199.162 289.348 199.666 289.348C200.378 289.348 200.938 289.556 201.346 289.972C201.754 290.38 201.958 290.924 201.958 291.604C201.958 291.964 201.878 292.328 201.718 292.696C201.566 293.056 201.35 293.432 201.07 293.824C200.798 294.208 200.47 294.612 200.086 295.036C199.71 295.452 199.294 295.896 198.838 296.368C199.046 296.352 199.262 296.336 199.486 296.32C199.71 296.304 199.922 296.296 200.122 296.296H202.342V297.148H197.398Z" fill="#828282"/>
<path d="M297.206 297.148V295.036H293.762V294.388L297.038 289.492H298.142V294.244H299.186V295.036H298.142V297.148H297.206ZM294.806 294.244H297.206V292.024C297.206 291.816 297.21 291.572 297.218 291.292C297.234 291.004 297.25 290.756 297.266 290.548H297.218C297.122 290.732 297.022 290.912 296.918 291.088C296.814 291.264 296.706 291.444 296.594 291.628L294.806 294.244Z" fill="#828282"/>
<path d="M395.469 297.292C395.093 297.292 394.745 297.216 394.425 297.064C394.105 296.912 393.825 296.684 393.585 296.38C393.353 296.068 393.169 295.684 393.033 295.228C392.897 294.764 392.829 294.224 392.829 293.608C392.829 292.84 392.909 292.188 393.069 291.652C393.229 291.108 393.445 290.668 393.717 290.332C393.989 289.988 394.297 289.74 394.641 289.588C394.993 289.428 395.361 289.348 395.745 289.348C396.161 289.348 396.517 289.428 396.813 289.588C397.117 289.74 397.377 289.932 397.593 290.164L397.041 290.776C396.881 290.592 396.689 290.448 396.465 290.344C396.249 290.232 396.021 290.176 395.781 290.176C395.517 290.176 395.265 290.232 395.025 290.344C394.785 290.456 394.573 290.64 394.389 290.896C394.205 291.152 394.057 291.488 393.945 291.904C393.833 292.312 393.773 292.82 393.765 293.428C394.005 293.132 394.285 292.9 394.605 292.732C394.925 292.556 395.241 292.468 395.553 292.468C396.217 292.468 396.745 292.664 397.137 293.056C397.537 293.448 397.737 294.04 397.737 294.832C397.737 295.2 397.677 295.536 397.557 295.84C397.437 296.136 397.273 296.392 397.065 296.608C396.857 296.824 396.617 296.992 396.345 297.112C396.073 297.232 395.781 297.292 395.469 297.292ZM395.469 296.512C395.661 296.512 395.837 296.472 395.997 296.392C396.157 296.312 396.297 296.2 396.417 296.056C396.537 295.904 396.629 295.728 396.693 295.528C396.765 295.32 396.801 295.088 396.801 294.832C396.801 294.328 396.685 293.932 396.453 293.644C396.221 293.356 395.865 293.212 395.385 293.212C395.137 293.212 394.869 293.292 394.581 293.452C394.293 293.604 394.029 293.86 393.789 294.22C393.853 294.972 394.025 295.544 394.305 295.936C394.593 296.32 394.981 296.512 395.469 296.512Z" fill="#828282"/>
<path d="M493.949 297.292C493.589 297.292 493.253 297.24 492.941 297.136C492.637 297.032 492.373 296.888 492.149 296.704C491.933 296.512 491.761 296.288 491.633 296.032C491.505 295.776 491.441 295.496 491.441 295.192C491.441 294.944 491.481 294.716 491.561 294.508C491.649 294.292 491.757 294.1 491.885 293.932C492.021 293.756 492.173 293.604 492.341 293.476C492.517 293.34 492.697 293.224 492.881 293.128V293.08C492.601 292.88 492.353 292.64 492.137 292.36C491.921 292.072 491.813 291.724 491.813 291.316C491.813 291.02 491.869 290.752 491.981 290.512C492.093 290.272 492.245 290.068 492.437 289.9C492.629 289.724 492.857 289.588 493.121 289.492C493.385 289.396 493.673 289.348 493.985 289.348C494.321 289.348 494.621 289.4 494.885 289.504C495.149 289.6 495.373 289.74 495.557 289.924C495.749 290.1 495.893 290.316 495.989 290.572C496.093 290.82 496.145 291.092 496.145 291.388C496.145 291.588 496.109 291.78 496.037 291.964C495.973 292.148 495.889 292.32 495.785 292.48C495.689 292.64 495.577 292.784 495.449 292.912C495.329 293.04 495.209 293.148 495.089 293.236V293.284C495.257 293.38 495.421 293.492 495.581 293.62C495.741 293.74 495.881 293.88 496.001 294.04C496.129 294.192 496.229 294.368 496.301 294.568C496.381 294.768 496.421 294.996 496.421 295.252C496.421 295.54 496.361 295.808 496.241 296.056C496.121 296.304 495.953 296.52 495.737 296.704C495.521 296.888 495.261 297.032 494.957 297.136C494.653 297.24 494.317 297.292 493.949 297.292ZM494.489 292.972C494.745 292.74 494.941 292.496 495.077 292.24C495.221 291.984 495.293 291.716 495.293 291.436C495.293 291.052 495.177 290.732 494.945 290.476C494.713 290.212 494.385 290.08 493.961 290.08C493.601 290.08 493.305 290.192 493.073 290.416C492.841 290.64 492.725 290.94 492.725 291.316C492.725 291.548 492.773 291.748 492.869 291.916C492.965 292.076 493.093 292.22 493.253 292.348C493.421 292.476 493.609 292.592 493.817 292.696C494.033 292.792 494.257 292.884 494.489 292.972ZM493.973 296.56C494.421 296.56 494.781 296.436 495.053 296.188C495.333 295.94 495.473 295.616 495.473 295.216C495.473 294.968 495.417 294.756 495.305 294.58C495.193 294.404 495.041 294.252 494.849 294.124C494.657 293.988 494.433 293.868 494.177 293.764C493.929 293.652 493.669 293.54 493.397 293.428C493.093 293.636 492.837 293.88 492.629 294.16C492.429 294.432 492.329 294.744 492.329 295.096C492.329 295.312 492.369 295.508 492.449 295.684C492.537 295.86 492.653 296.016 492.797 296.152C492.949 296.28 493.125 296.38 493.325 296.452C493.525 296.524 493.741 296.56 493.973 296.56Z" fill="#828282"/>
<path d="M549.429 70.6364C548.944 70.6364 548.491 70.5571 548.071 70.3984C547.661 70.2304 547.301 69.9924 546.993 69.6844C546.685 69.3764 546.443 68.9984 546.265 68.5504C546.088 68.0931 545.999 67.5751 545.999 66.9964C545.999 66.4177 546.097 65.9044 546.293 65.4564C546.489 64.9991 546.751 64.6164 547.077 64.3084C547.413 64.0004 547.801 63.7671 548.239 63.6084C548.678 63.4404 549.135 63.3564 549.611 63.3564C550.041 63.3564 550.419 63.4264 550.745 63.5664C551.081 63.7064 551.38 63.8837 551.641 64.0984L550.675 65.4284C550.349 65.1577 550.036 65.0224 549.737 65.0224C549.233 65.0224 548.837 65.1997 548.547 65.5544C548.258 65.9091 548.113 66.3897 548.113 66.9964C548.113 67.6031 548.258 68.0837 548.547 68.4384C548.846 68.7931 549.219 68.9704 549.667 68.9704C549.891 68.9704 550.106 68.9237 550.311 68.8304C550.526 68.7277 550.727 68.6064 550.913 68.4664L551.725 69.8104C551.38 70.1091 551.007 70.3237 550.605 70.4544C550.204 70.5757 549.812 70.6364 549.429 70.6364ZM555.432 70.6364C554.704 70.6364 554.088 70.5244 553.584 70.3004C553.08 70.0671 552.665 69.7591 552.338 69.3764L553.29 68.0744C553.561 68.3357 553.855 68.5504 554.172 68.7184C554.499 68.8864 554.854 68.9704 555.236 68.9704C555.675 68.9704 556.025 68.8817 556.286 68.7044C556.548 68.5177 556.678 68.2564 556.678 67.9204C556.678 67.7244 556.641 67.5471 556.566 67.3884C556.501 67.2297 556.38 67.0991 556.202 66.9964C556.025 66.8844 555.782 66.8004 555.474 66.7444C555.166 66.6791 554.77 66.6464 554.284 66.6464V65.1904C554.686 65.1904 555.017 65.1624 555.278 65.1064C555.549 65.0504 555.764 64.9711 555.922 64.8684C556.09 64.7564 556.207 64.6304 556.272 64.4904C556.347 64.3411 556.384 64.1777 556.384 64.0004C556.384 63.6924 556.291 63.4544 556.104 63.2864C555.918 63.1091 555.647 63.0204 555.292 63.0204C554.975 63.0204 554.686 63.0904 554.424 63.2304C554.172 63.3704 553.906 63.5617 553.626 63.8044L552.59 62.5444C553.001 62.1897 553.43 61.9144 553.878 61.7184C554.336 61.5131 554.84 61.4104 555.39 61.4104C555.848 61.4104 556.263 61.4664 556.636 61.5784C557.019 61.6811 557.341 61.8397 557.602 62.0544C557.873 62.2597 558.083 62.5117 558.232 62.8104C558.382 63.109 558.456 63.4544 558.456 63.8464C558.456 64.3131 558.326 64.7097 558.064 65.0364C557.812 65.3537 557.448 65.6151 556.972 65.8204V65.8764C557.486 66.0257 557.906 66.2824 558.232 66.6464C558.568 67.0011 558.736 67.4677 558.736 68.0464C558.736 68.4571 558.648 68.8257 558.47 69.1524C558.293 69.4697 558.055 69.7404 557.756 69.9644C557.458 70.1791 557.108 70.3471 556.706 70.4684C556.305 70.5804 555.88 70.6364 555.432 70.6364ZM563.361 70.6364C562.932 70.6364 562.512 70.5524 562.101 70.3844C561.7 70.2164 561.34 69.9551 561.023 69.6004C560.715 69.2457 560.468 68.7931 560.281 68.2424C560.094 67.6824 560.001 67.0104 560.001 66.2264C560.001 65.3957 560.099 64.6771 560.295 64.0704C560.5 63.4637 560.766 62.9644 561.093 62.5724C561.429 62.1804 561.812 61.8911 562.241 61.7044C562.68 61.5084 563.132 61.4104 563.599 61.4104C564.187 61.4104 564.696 61.5177 565.125 61.7324C565.554 61.9377 565.909 62.185 566.189 62.4744L565.111 63.7064C564.952 63.5384 564.747 63.3937 564.495 63.2724C564.243 63.1417 563.986 63.0764 563.725 63.0764C563.482 63.0764 563.254 63.1231 563.039 63.2164C562.824 63.3097 562.633 63.4684 562.465 63.6924C562.306 63.9071 562.176 64.1917 562.073 64.5464C561.97 64.9011 561.91 65.3351 561.891 65.8484C562.003 65.6991 562.134 65.5684 562.283 65.4564C562.432 65.3351 562.586 65.2371 562.745 65.1624C562.904 65.0784 563.062 65.0177 563.221 64.9804C563.38 64.9337 563.529 64.9104 563.669 64.9104C564.052 64.9104 564.402 64.9664 564.719 65.0784C565.046 65.1904 565.326 65.3584 565.559 65.5824C565.802 65.8064 565.988 66.0911 566.119 66.4364C566.25 66.7817 566.315 67.1877 566.315 67.6544C566.315 68.1211 566.236 68.5364 566.077 68.9004C565.918 69.2644 565.704 69.5771 565.433 69.8384C565.172 70.0997 564.859 70.3004 564.495 70.4404C564.14 70.5711 563.762 70.6364 563.361 70.6364ZM563.319 69.0964C563.627 69.0964 563.888 68.9844 564.103 68.7604C564.327 68.5271 564.439 68.1584 564.439 67.6544C564.439 67.1784 564.327 66.8471 564.103 66.6604C563.888 66.4644 563.613 66.3664 563.277 66.3664C563.044 66.3664 562.806 66.4364 562.563 66.5764C562.33 66.7071 562.12 66.9311 561.933 67.2484C561.98 67.6031 562.05 67.8971 562.143 68.1304C562.236 68.3637 562.344 68.5551 562.465 68.7044C562.586 68.8444 562.717 68.9471 562.857 69.0124C563.006 69.0684 563.16 69.0964 563.319 69.0964Z" fill="#660099"/>
<path d="M549.429 192.953C548.944 192.953 548.491 192.874 548.071 192.715C547.661 192.547 547.301 192.309 546.993 192.001C546.685 191.693 546.443 191.315 546.265 190.867C546.088 190.41 545.999 189.892 545.999 189.313C545.999 188.735 546.097 188.221 546.293 187.773C546.489 187.316 546.751 186.933 547.077 186.625C547.413 186.317 547.801 186.084 548.239 185.925C548.678 185.757 549.135 185.673 549.611 185.673C550.041 185.673 550.419 185.743 550.745 185.883C551.081 186.023 551.38 186.201 551.641 186.415L550.675 187.745C550.349 187.475 550.036 187.339 549.737 187.339C549.233 187.339 548.837 187.517 548.547 187.871C548.258 188.226 548.113 188.707 548.113 189.313C548.113 189.92 548.258 190.401 548.547 190.755C548.846 191.11 549.219 191.287 549.667 191.287C549.891 191.287 550.106 191.241 550.311 191.147C550.526 191.045 550.727 190.923 550.913 190.783L551.725 192.127C551.38 192.426 551.007 192.641 550.605 192.771C550.204 192.893 549.812 192.953 549.429 192.953ZM553.01 192.785V191.119H554.942V185.981H553.276V184.707C553.762 184.614 554.172 184.502 554.508 184.371C554.844 184.241 555.171 184.082 555.488 183.895H557V191.119H558.666V192.785H553.01ZM559.945 192.785V191.609C560.514 191.077 561.032 190.583 561.499 190.125C561.975 189.659 562.381 189.225 562.717 188.823C563.062 188.413 563.328 188.035 563.515 187.689C563.711 187.335 563.809 186.999 563.809 186.681C563.809 186.243 563.697 185.911 563.473 185.687C563.249 185.454 562.941 185.337 562.549 185.337C562.222 185.337 561.933 185.431 561.681 185.617C561.429 185.795 561.191 186.005 560.967 186.247L559.847 185.141C560.286 184.675 560.734 184.325 561.191 184.091C561.648 183.849 562.194 183.727 562.829 183.727C563.268 183.727 563.664 183.797 564.019 183.937C564.383 184.068 564.696 184.259 564.957 184.511C565.218 184.754 565.419 185.048 565.559 185.393C565.699 185.739 565.769 186.126 565.769 186.555C565.769 186.929 565.69 187.311 565.531 187.703C565.372 188.086 565.158 188.473 564.887 188.865C564.626 189.248 564.322 189.635 563.977 190.027C563.641 190.41 563.291 190.788 562.927 191.161C563.151 191.133 563.398 191.11 563.669 191.091C563.949 191.063 564.196 191.049 564.411 191.049H566.203V192.785H559.945Z" fill="#9737AB"/>
<path d="M556.825 246.135C556.34 246.135 555.887 246.055 555.467 245.897C555.057 245.729 554.697 245.491 554.389 245.183C554.081 244.875 553.839 244.497 553.661 244.049C553.484 243.591 553.395 243.073 553.395 242.495C553.395 241.916 553.493 241.403 553.689 240.955C553.885 240.497 554.147 240.115 554.473 239.807C554.809 239.499 555.197 239.265 555.635 239.107C556.074 238.939 556.531 238.855 557.007 238.855C557.437 238.855 557.815 238.925 558.141 239.065C558.477 239.205 558.776 239.382 559.037 239.597L558.071 240.927C557.745 240.656 557.432 240.521 557.133 240.521C556.629 240.521 556.233 240.698 555.943 241.053C555.654 241.407 555.509 241.888 555.509 242.495C555.509 243.101 555.654 243.582 555.943 243.937C556.242 244.291 556.615 244.469 557.063 244.469C557.287 244.469 557.502 244.422 557.707 244.329C557.922 244.226 558.123 244.105 558.309 243.965L559.121 245.309C558.776 245.607 558.403 245.822 558.001 245.953C557.6 246.074 557.208 246.135 556.825 246.135ZM563.543 245.967V243.839H559.693V242.425L562.941 237.077H565.461V242.271H566.483V243.839H565.461V245.967H563.543ZM561.667 242.271H563.543V240.829C563.543 240.539 563.552 240.208 563.571 239.835C563.589 239.452 563.608 239.121 563.627 238.841H563.571C563.459 239.083 563.342 239.331 563.221 239.583C563.099 239.835 562.973 240.087 562.843 240.339L561.667 242.271Z" fill="#D150EC"/>
<path d="M588.74 297.148V296.332H590.492V290.692H589.1V290.056C589.452 289.992 589.756 289.916 590.012 289.828C590.276 289.732 590.512 289.62 590.72 289.492H591.476V296.332H593.06V297.148H588.74ZM596.745 297.292C595.969 297.292 595.365 296.948 594.933 296.26C594.501 295.572 594.285 294.584 594.285 293.296C594.285 292.008 594.501 291.028 594.933 290.356C595.365 289.684 595.969 289.348 596.745 289.348C597.513 289.348 598.113 289.684 598.545 290.356C598.977 291.028 599.193 292.008 599.193 293.296C599.193 294.584 598.977 295.572 598.545 296.26C598.113 296.948 597.513 297.292 596.745 297.292ZM596.745 296.5C596.969 296.5 597.169 296.44 597.345 296.32C597.529 296.192 597.685 296 597.813 295.744C597.949 295.48 598.053 295.148 598.125 294.748C598.197 294.34 598.233 293.856 598.233 293.296C598.233 292.736 598.197 292.256 598.125 291.856C598.053 291.456 597.949 291.132 597.813 290.884C597.685 290.628 597.529 290.44 597.345 290.32C597.169 290.2 596.969 290.14 596.745 290.14C596.521 290.14 596.317 290.2 596.133 290.32C595.949 290.44 595.789 290.628 595.653 290.884C595.525 291.132 595.425 291.456 595.353 291.856C595.281 292.256 595.245 292.736 595.245 293.296C595.245 294.416 595.381 295.232 595.653 295.744C595.933 296.248 596.297 296.5 596.745 296.5Z" fill="#828282"/>
<path d="M606.525 30.144C606.221 30.144 605.941 30.112 605.685 30.048C605.437 29.992 605.209 29.916 605.001 29.82C604.801 29.724 604.617 29.616 604.449 29.496C604.289 29.368 604.145 29.236 604.017 29.1L604.497 28.452C604.721 28.684 604.985 28.888 605.289 29.064C605.601 29.24 605.981 29.328 606.429 29.328C606.661 29.328 606.877 29.288 607.077 29.208C607.285 29.12 607.465 29 607.617 28.848C607.769 28.696 607.889 28.512 607.977 28.296C608.065 28.08 608.109 27.84 608.109 27.576C608.109 27.048 607.961 26.636 607.665 26.34C607.369 26.044 606.973 25.896 606.477 25.896C606.213 25.896 605.985 25.936 605.793 26.016C605.609 26.096 605.401 26.212 605.169 26.364L604.641 26.028L604.893 22.344H608.721V23.196H605.757L605.553 25.464C605.737 25.368 605.921 25.292 606.105 25.236C606.289 25.18 606.497 25.152 606.729 25.152C607.057 25.152 607.365 25.2 607.653 25.296C607.941 25.392 608.193 25.54 608.409 25.74C608.625 25.932 608.793 26.18 608.913 26.484C609.041 26.78 609.105 27.136 609.105 27.552C609.105 27.968 609.033 28.336 608.889 28.656C608.745 28.976 608.553 29.248 608.313 29.472C608.073 29.688 607.797 29.856 607.485 29.976C607.181 30.088 606.861 30.144 606.525 30.144ZM612.67 30.144C611.894 30.144 611.29 29.8 610.858 29.112C610.426 28.424 610.21 27.436 610.21 26.148C610.21 24.86 610.426 23.88 610.858 23.208C611.29 22.536 611.894 22.2 612.67 22.2C613.438 22.2 614.038 22.536 614.47 23.208C614.902 23.88 615.118 24.86 615.118 26.148C615.118 27.436 614.902 28.424 614.47 29.112C614.038 29.8 613.438 30.144 612.67 30.144ZM612.67 29.352C612.894 29.352 613.094 29.292 613.27 29.172C613.454 29.044 613.61 28.852 613.738 28.596C613.874 28.332 613.978 28 614.05 27.6C614.122 27.192 614.158 26.708 614.158 26.148C614.158 25.588 614.122 25.108 614.05 24.708C613.978 24.308 613.874 23.984 613.738 23.736C613.61 23.48 613.454 23.292 613.27 23.172C613.094 23.052 612.894 22.992 612.67 22.992C612.446 22.992 612.242 23.052 612.058 23.172C611.874 23.292 611.714 23.48 611.578 23.736C611.45 23.984 611.35 24.308 611.278 24.708C611.206 25.108 611.17 25.588 611.17 26.148C611.17 27.268 611.306 28.084 611.578 28.596C611.858 29.1 612.222 29.352 612.67 29.352ZM618.635 30.144C617.859 30.144 617.255 29.8 616.823 29.112C616.391 28.424 616.175 27.436 616.175 26.148C616.175 24.86 616.391 23.88 616.823 23.208C617.255 22.536 617.859 22.2 618.635 22.2C619.403 22.2 620.003 22.536 620.435 23.208C620.867 23.88 621.083 24.86 621.083 26.148C621.083 27.436 620.867 28.424 620.435 29.112C620.003 29.8 619.403 30.144 618.635 30.144ZM618.635 29.352C618.859 29.352 619.059 29.292 619.235 29.172C619.419 29.044 619.575 28.852 619.703 28.596C619.839 28.332 619.943 28 620.015 27.6C620.087 27.192 620.123 26.708 620.123 26.148C620.123 25.588 620.087 25.108 620.015 24.708C619.943 24.308 619.839 23.984 619.703 23.736C619.575 23.48 619.419 23.292 619.235 23.172C619.059 23.052 618.859 22.992 618.635 22.992C618.411 22.992 618.207 23.052 618.023 23.172C617.839 23.292 617.679 23.48 617.543 23.736C617.415 23.984 617.315 24.308 617.243 24.708C617.171 25.108 617.135 25.588 617.135 26.148C617.135 27.268 617.271 28.084 617.543 28.596C617.823 29.1 618.187 29.352 618.635 29.352ZM624.6 30.144C623.824 30.144 623.22 29.8 622.788 29.112C622.356 28.424 622.14 27.436 622.14 26.148C622.14 24.86 622.356 23.88 622.788 23.208C623.22 22.536 623.824 22.2 624.6 22.2C625.368 22.2 625.968 22.536 626.4 23.208C626.832 23.88 627.048 24.86 627.048 26.148C627.048 27.436 626.832 28.424 626.4 29.112C625.968 29.8 625.368 30.144 624.6 30.144ZM624.6 29.352C624.824 29.352 625.024 29.292 625.2 29.172C625.384 29.044 625.54 28.852 625.668 28.596C625.804 28.332 625.908 28 625.98 27.6C626.052 27.192 626.088 26.708 626.088 26.148C626.088 25.588 626.052 25.108 625.98 24.708C625.908 24.308 625.804 23.984 625.668 23.736C625.54 23.48 625.384 23.292 625.2 23.172C625.024 23.052 624.824 22.992 624.6 22.992C624.376 22.992 624.172 23.052 623.988 23.172C623.804 23.292 623.644 23.48 623.508 23.736C623.38 23.984 623.28 24.308 623.208 24.708C623.136 25.108 623.1 25.588 623.1 26.148C623.1 27.268 623.236 28.084 623.508 28.596C623.788 29.1 624.152 29.352 624.6 29.352ZM607.365 81V78.888H603.921V78.24L607.197 73.344H608.301V78.096H609.345V78.888H608.301V81H607.365ZM604.965 78.096H607.365V75.876C607.365 75.668 607.369 75.424 607.377 75.144C607.393 74.856 607.409 74.608 607.425 74.4H607.377C607.281 74.584 607.181 74.764 607.077 74.94C606.973 75.116 606.865 75.296 606.753 75.48L604.965 78.096ZM612.67 81.144C611.894 81.144 611.29 80.8 610.858 80.112C610.426 79.424 610.21 78.436 610.21 77.148C610.21 75.86 610.426 74.88 610.858 74.208C611.29 73.536 611.894 73.2 612.67 73.2C613.438 73.2 614.038 73.536 614.47 74.208C614.902 74.88 615.118 75.86 615.118 77.148C615.118 78.436 614.902 79.424 614.47 80.112C614.038 80.8 613.438 81.144 612.67 81.144ZM612.67 80.352C612.894 80.352 613.094 80.292 613.27 80.172C613.454 80.044 613.61 79.852 613.738 79.596C613.874 79.332 613.978 79 614.05 78.6C614.122 78.192 614.158 77.708 614.158 77.148C614.158 76.588 614.122 76.108 614.05 75.708C613.978 75.308 613.874 74.984 613.738 74.736C613.61 74.48 613.454 74.292 613.27 74.172C613.094 74.052 612.894 73.992 612.67 73.992C612.446 73.992 612.242 74.052 612.058 74.172C611.874 74.292 611.714 74.48 611.578 74.736C611.45 74.984 611.35 75.308 611.278 75.708C611.206 76.108 611.17 76.588 611.17 77.148C611.17 78.268 611.306 79.084 611.578 79.596C611.858 80.1 612.222 80.352 612.67 80.352ZM618.635 81.144C617.859 81.144 617.255 80.8 616.823 80.112C616.391 79.424 616.175 78.436 616.175 77.148C616.175 75.86 616.391 74.88 616.823 74.208C617.255 73.536 617.859 73.2 618.635 73.2C619.403 73.2 620.003 73.536 620.435 74.208C620.867 74.88 621.083 75.86 621.083 77.148C621.083 78.436 620.867 79.424 620.435 80.112C620.003 80.8 619.403 81.144 618.635 81.144ZM618.635 80.352C618.859 80.352 619.059 80.292 619.235 80.172C619.419 80.044 619.575 79.852 619.703 79.596C619.839 79.332 619.943 79 620.015 78.6C620.087 78.192 620.123 77.708 620.123 77.148C620.123 76.588 620.087 76.108 620.015 75.708C619.943 75.308 619.839 74.984 619.703 74.736C619.575 74.48 619.419 74.292 619.235 74.172C619.059 74.052 618.859 73.992 618.635 73.992C618.411 73.992 618.207 74.052 618.023 74.172C617.839 74.292 617.679 74.48 617.543 74.736C617.415 74.984 617.315 75.308 617.243 75.708C617.171 76.108 617.135 76.588 617.135 77.148C617.135 78.268 617.271 79.084 617.543 79.596C617.823 80.1 618.187 80.352 618.635 80.352ZM624.6 81.144C623.824 81.144 623.22 80.8 622.788 80.112C622.356 79.424 622.14 78.436 622.14 77.148C622.14 75.86 622.356 74.88 622.788 74.208C623.22 73.536 623.824 73.2 624.6 73.2C625.368 73.2 625.968 73.536 626.4 74.208C626.832 74.88 627.048 75.86 627.048 77.148C627.048 78.436 626.832 79.424 626.4 80.112C625.968 80.8 625.368 81.144 624.6 81.144ZM624.6 80.352C624.824 80.352 625.024 80.292 625.2 80.172C625.384 80.044 625.54 79.852 625.668 79.596C625.804 79.332 625.908 79 625.98 78.6C626.052 78.192 626.088 77.708 626.088 77.148C626.088 76.588 626.052 76.108 625.98 75.708C625.908 75.308 625.804 74.984 625.668 74.736C625.54 74.48 625.384 74.292 625.2 74.172C625.024 74.052 624.824 73.992 624.6 73.992C624.376 73.992 624.172 74.052 623.988 74.172C623.804 74.292 623.644 74.48 623.508 74.736C623.38 74.984 623.28 75.308 623.208 75.708C623.136 76.108 623.1 76.588 623.1 77.148C623.1 78.268 623.236 79.084 623.508 79.596C623.788 80.1 624.152 80.352 624.6 80.352ZM606.549 132.144C606.245 132.144 605.965 132.112 605.709 132.048C605.461 131.992 605.233 131.916 605.025 131.82C604.817 131.716 604.629 131.6 604.461 131.472C604.301 131.344 604.157 131.208 604.029 131.064L604.533 130.416C604.765 130.656 605.033 130.868 605.337 131.052C605.649 131.236 606.033 131.328 606.489 131.328C606.953 131.328 607.333 131.204 607.629 130.956C607.925 130.7 608.073 130.356 608.073 129.924C608.073 129.7 608.029 129.496 607.941 129.312C607.861 129.12 607.725 128.956 607.533 128.82C607.341 128.684 607.089 128.58 606.777 128.508C606.465 128.436 606.081 128.4 605.625 128.4V127.644C606.033 127.644 606.373 127.608 606.645 127.536C606.925 127.464 607.149 127.364 607.317 127.236C607.493 127.108 607.617 126.956 607.689 126.78C607.761 126.604 607.797 126.416 607.797 126.216C607.797 125.84 607.677 125.544 607.437 125.328C607.205 125.112 606.885 125.004 606.477 125.004C606.157 125.004 605.861 125.076 605.589 125.22C605.325 125.364 605.077 125.552 604.845 125.784L604.317 125.16C604.613 124.88 604.937 124.652 605.289 124.476C605.649 124.292 606.057 124.2 606.513 124.2C606.849 124.2 607.157 124.244 607.437 124.332C607.717 124.42 607.957 124.548 608.157 124.716C608.365 124.876 608.525 125.076 608.637 125.316C608.749 125.556 608.805 125.832 608.805 126.144C608.805 126.608 608.677 126.988 608.421 127.284C608.165 127.58 607.829 127.808 607.413 127.968V128.016C607.645 128.072 607.861 128.156 608.061 128.268C608.261 128.372 608.437 128.508 608.589 128.676C608.741 128.836 608.857 129.024 608.937 129.24C609.025 129.456 609.069 129.696 609.069 129.96C609.069 130.296 609.001 130.6 608.865 130.872C608.737 131.144 608.557 131.376 608.325 131.568C608.101 131.752 607.837 131.896 607.533 132C607.229 132.096 606.901 132.144 606.549 132.144ZM612.67 132.144C611.894 132.144 611.29 131.8 610.858 131.112C610.426 130.424 610.21 129.436 610.21 128.148C610.21 126.86 610.426 125.88 610.858 125.208C611.29 124.536 611.894 124.2 612.67 124.2C613.438 124.2 614.038 124.536 614.47 125.208C614.902 125.88 615.118 126.86 615.118 128.148C615.118 129.436 614.902 130.424 614.47 131.112C614.038 131.8 613.438 132.144 612.67 132.144ZM612.67 131.352C612.894 131.352 613.094 131.292 613.27 131.172C613.454 131.044 613.61 130.852 613.738 130.596C613.874 130.332 613.978 130 614.05 129.6C614.122 129.192 614.158 128.708 614.158 128.148C614.158 127.588 614.122 127.108 614.05 126.708C613.978 126.308 613.874 125.984 613.738 125.736C613.61 125.48 613.454 125.292 613.27 125.172C613.094 125.052 612.894 124.992 612.67 124.992C612.446 124.992 612.242 125.052 612.058 125.172C611.874 125.292 611.714 125.48 611.578 125.736C611.45 125.984 611.35 126.308 611.278 126.708C611.206 127.108 611.17 127.588 611.17 128.148C611.17 129.268 611.306 130.084 611.578 130.596C611.858 131.1 612.222 131.352 612.67 131.352ZM618.635 132.144C617.859 132.144 617.255 131.8 616.823 131.112C616.391 130.424 616.175 129.436 616.175 128.148C616.175 126.86 616.391 125.88 616.823 125.208C617.255 124.536 617.859 124.2 618.635 124.2C619.403 124.2 620.003 124.536 620.435 125.208C620.867 125.88 621.083 126.86 621.083 128.148C621.083 129.436 620.867 130.424 620.435 131.112C620.003 131.8 619.403 132.144 618.635 132.144ZM618.635 131.352C618.859 131.352 619.059 131.292 619.235 131.172C619.419 131.044 619.575 130.852 619.703 130.596C619.839 130.332 619.943 130 620.015 129.6C620.087 129.192 620.123 128.708 620.123 128.148C620.123 127.588 620.087 127.108 620.015 126.708C619.943 126.308 619.839 125.984 619.703 125.736C619.575 125.48 619.419 125.292 619.235 125.172C619.059 125.052 618.859 124.992 618.635 124.992C618.411 124.992 618.207 125.052 618.023 125.172C617.839 125.292 617.679 125.48 617.543 125.736C617.415 125.984 617.315 126.308 617.243 126.708C617.171 127.108 617.135 127.588 617.135 128.148C617.135 129.268 617.271 130.084 617.543 130.596C617.823 131.1 618.187 131.352 618.635 131.352ZM624.6 132.144C623.824 132.144 623.22 131.8 622.788 131.112C622.356 130.424 622.14 129.436 622.14 128.148C622.14 126.86 622.356 125.88 622.788 125.208C623.22 124.536 623.824 124.2 624.6 124.2C625.368 124.2 625.968 124.536 626.4 125.208C626.832 125.88 627.048 126.86 627.048 128.148C627.048 129.436 626.832 130.424 626.4 131.112C625.968 131.8 625.368 132.144 624.6 132.144ZM624.6 131.352C624.824 131.352 625.024 131.292 625.2 131.172C625.384 131.044 625.54 130.852 625.668 130.596C625.804 130.332 625.908 130 625.98 129.6C626.052 129.192 626.088 128.708 626.088 128.148C626.088 127.588 626.052 127.108 625.98 126.708C625.908 126.308 625.804 125.984 625.668 125.736C625.54 125.48 625.384 125.292 625.2 125.172C625.024 125.052 624.824 124.992 624.6 124.992C624.376 124.992 624.172 125.052 623.988 125.172C623.804 125.292 623.644 125.48 623.508 125.736C623.38 125.984 623.28 126.308 623.208 126.708C623.136 127.108 623.1 127.588 623.1 128.148C623.1 129.268 623.236 130.084 623.508 130.596C623.788 131.1 624.152 131.352 624.6 131.352ZM604.197 183V182.412C604.773 181.836 605.285 181.316 605.733 180.852C606.181 180.388 606.557 179.96 606.861 179.568C607.165 179.168 607.397 178.804 607.557 178.476C607.717 178.14 607.797 177.816 607.797 177.504C607.797 177.064 607.677 176.704 607.437 176.424C607.197 176.144 606.833 176.004 606.345 176.004C606.025 176.004 605.729 176.096 605.457 176.28C605.185 176.456 604.937 176.672 604.713 176.928L604.149 176.364C604.469 176.012 604.809 175.732 605.169 175.524C605.529 175.308 605.961 175.2 606.465 175.2C607.177 175.2 607.737 175.408 608.145 175.824C608.553 176.232 608.757 176.776 608.757 177.456C608.757 177.816 608.677 178.18 608.517 178.548C608.365 178.908 608.149 179.284 607.869 179.676C607.597 180.06 607.269 180.464 606.885 180.888C606.509 181.304 606.093 181.748 605.637 182.22C605.845 182.204 606.061 182.188 606.285 182.172C606.509 182.156 606.721 182.148 606.921 182.148H609.141V183H604.197ZM612.67 183.144C611.894 183.144 611.29 182.8 610.858 182.112C610.426 181.424 610.21 180.436 610.21 179.148C610.21 177.86 610.426 176.88 610.858 176.208C611.29 175.536 611.894 175.2 612.67 175.2C613.438 175.2 614.038 175.536 614.47 176.208C614.902 176.88 615.118 177.86 615.118 179.148C615.118 180.436 614.902 181.424 614.47 182.112C614.038 182.8 613.438 183.144 612.67 183.144ZM612.67 182.352C612.894 182.352 613.094 182.292 613.27 182.172C613.454 182.044 613.61 181.852 613.738 181.596C613.874 181.332 613.978 181 614.05 180.6C614.122 180.192 614.158 179.708 614.158 179.148C614.158 178.588 614.122 178.108 614.05 177.708C613.978 177.308 613.874 176.984 613.738 176.736C613.61 176.48 613.454 176.292 613.27 176.172C613.094 176.052 612.894 175.992 612.67 175.992C612.446 175.992 612.242 176.052 612.058 176.172C611.874 176.292 611.714 176.48 611.578 176.736C611.45 176.984 611.35 177.308 611.278 177.708C611.206 178.108 611.17 178.588 611.17 179.148C611.17 180.268 611.306 181.084 611.578 181.596C611.858 182.1 612.222 182.352 612.67 182.352ZM618.635 183.144C617.859 183.144 617.255 182.8 616.823 182.112C616.391 181.424 616.175 180.436 616.175 179.148C616.175 177.86 616.391 176.88 616.823 176.208C617.255 175.536 617.859 175.2 618.635 175.2C619.403 175.2 620.003 175.536 620.435 176.208C620.867 176.88 621.083 177.86 621.083 179.148C621.083 180.436 620.867 181.424 620.435 182.112C620.003 182.8 619.403 183.144 618.635 183.144ZM618.635 182.352C618.859 182.352 619.059 182.292 619.235 182.172C619.419 182.044 619.575 181.852 619.703 181.596C619.839 181.332 619.943 181 620.015 180.6C620.087 180.192 620.123 179.708 620.123 179.148C620.123 178.588 620.087 178.108 620.015 177.708C619.943 177.308 619.839 176.984 619.703 176.736C619.575 176.48 619.419 176.292 619.235 176.172C619.059 176.052 618.859 175.992 618.635 175.992C618.411 175.992 618.207 176.052 618.023 176.172C617.839 176.292 617.679 176.48 617.543 176.736C617.415 176.984 617.315 177.308 617.243 177.708C617.171 178.108 617.135 178.588 617.135 179.148C617.135 180.268 617.271 181.084 617.543 181.596C617.823 182.1 618.187 182.352 618.635 182.352ZM624.6 183.144C623.824 183.144 623.22 182.8 622.788 182.112C622.356 181.424 622.14 180.436 622.14 179.148C622.14 177.86 622.356 176.88 622.788 176.208C623.22 175.536 623.824 175.2 624.6 175.2C625.368 175.2 625.968 175.536 626.4 176.208C626.832 176.88 627.048 177.86 627.048 179.148C627.048 180.436 626.832 181.424 626.4 182.112C625.968 182.8 625.368 183.144 624.6 183.144ZM624.6 182.352C624.824 182.352 625.024 182.292 625.2 182.172C625.384 182.044 625.54 181.852 625.668 181.596C625.804 181.332 625.908 181 625.98 180.6C626.052 180.192 626.088 179.708 626.088 179.148C626.088 178.588 626.052 178.108 625.98 177.708C625.908 177.308 625.804 176.984 625.668 176.736C625.54 176.48 625.384 176.292 625.2 176.172C625.024 176.052 624.824 175.992 624.6 175.992C624.376 175.992 624.172 176.052 623.988 176.172C623.804 176.292 623.644 176.48 623.508 176.736C623.38 176.984 623.28 177.308 623.208 177.708C623.136 178.108 623.1 178.588 623.1 179.148C623.1 180.268 623.236 181.084 623.508 181.596C623.788 182.1 624.152 182.352 624.6 182.352ZM604.665 234V233.184H606.417V227.544H605.025V226.908C605.377 226.844 605.681 226.768 605.937 226.68C606.201 226.584 606.437 226.472 606.645 226.344H607.401V233.184H608.985V234H604.665ZM612.67 234.144C611.894 234.144 611.29 233.8 610.858 233.112C610.426 232.424 610.21 231.436 610.21 230.148C610.21 228.86 610.426 227.88 610.858 227.208C611.29 226.536 611.894 226.2 612.67 226.2C613.438 226.2 614.038 226.536 614.47 227.208C614.902 227.88 615.118 228.86 615.118 230.148C615.118 231.436 614.902 232.424 614.47 233.112C614.038 233.8 613.438 234.144 612.67 234.144ZM612.67 233.352C612.894 233.352 613.094 233.292 613.27 233.172C613.454 233.044 613.61 232.852 613.738 232.596C613.874 232.332 613.978 232 614.05 231.6C614.122 231.192 614.158 230.708 614.158 230.148C614.158 229.588 614.122 229.108 614.05 228.708C613.978 228.308 613.874 227.984 613.738 227.736C613.61 227.48 613.454 227.292 613.27 227.172C613.094 227.052 612.894 226.992 612.67 226.992C612.446 226.992 612.242 227.052 612.058 227.172C611.874 227.292 611.714 227.48 611.578 227.736C611.45 227.984 611.35 228.308 611.278 228.708C611.206 229.108 611.17 229.588 611.17 230.148C611.17 231.268 611.306 232.084 611.578 232.596C611.858 233.1 612.222 233.352 612.67 233.352ZM618.635 234.144C617.859 234.144 617.255 233.8 616.823 233.112C616.391 232.424 616.175 231.436 616.175 230.148C616.175 228.86 616.391 227.88 616.823 227.208C617.255 226.536 617.859 226.2 618.635 226.2C619.403 226.2 620.003 226.536 620.435 227.208C620.867 227.88 621.083 228.86 621.083 230.148C621.083 231.436 620.867 232.424 620.435 233.112C620.003 233.8 619.403 234.144 618.635 234.144ZM618.635 233.352C618.859 233.352 619.059 233.292 619.235 233.172C619.419 233.044 619.575 232.852 619.703 232.596C619.839 232.332 619.943 232 620.015 231.6C620.087 231.192 620.123 230.708 620.123 230.148C620.123 229.588 620.087 229.108 620.015 228.708C619.943 228.308 619.839 227.984 619.703 227.736C619.575 227.48 619.419 227.292 619.235 227.172C619.059 227.052 618.859 226.992 618.635 226.992C618.411 226.992 618.207 227.052 618.023 227.172C617.839 227.292 617.679 227.48 617.543 227.736C617.415 227.984 617.315 228.308 617.243 228.708C617.171 229.108 617.135 229.588 617.135 230.148C617.135 231.268 617.271 232.084 617.543 232.596C617.823 233.1 618.187 233.352 618.635 233.352ZM624.6 234.144C623.824 234.144 623.22 233.8 622.788 233.112C622.356 232.424 622.14 231.436 622.14 230.148C622.14 228.86 622.356 227.88 622.788 227.208C623.22 226.536 623.824 226.2 624.6 226.2C625.368 226.2 625.968 226.536 626.4 227.208C626.832 227.88 627.048 228.86 627.048 230.148C627.048 231.436 626.832 232.424 626.4 233.112C625.968 233.8 625.368 234.144 624.6 234.144ZM624.6 233.352C624.824 233.352 625.024 233.292 625.2 233.172C625.384 233.044 625.54 232.852 625.668 232.596C625.804 232.332 625.908 232 625.98 231.6C626.052 231.192 626.088 230.708 626.088 230.148C626.088 229.588 626.052 229.108 625.98 228.708C625.908 228.308 625.804 227.984 625.668 227.736C625.54 227.48 625.384 227.292 625.2 227.172C625.024 227.052 624.824 226.992 624.6 226.992C624.376 226.992 624.172 227.052 623.988 227.172C623.804 227.292 623.644 227.48 623.508 227.736C623.38 227.984 623.28 228.308 623.208 228.708C623.136 229.108 623.1 229.588 623.1 230.148C623.1 231.268 623.236 232.084 623.508 232.596C623.788 233.1 624.152 233.352 624.6 233.352ZM606.705 285.144C605.929 285.144 605.325 284.8 604.893 284.112C604.461 283.424 604.245 282.436 604.245 281.148C604.245 279.86 604.461 278.88 604.893 278.208C605.325 277.536 605.929 277.2 606.705 277.2C607.473 277.2 608.073 277.536 608.505 278.208C608.937 278.88 609.153 279.86 609.153 281.148C609.153 282.436 608.937 283.424 608.505 284.112C608.073 284.8 607.473 285.144 606.705 285.144ZM606.705 284.352C606.929 284.352 607.129 284.292 607.305 284.172C607.489 284.044 607.645 283.852 607.773 283.596C607.909 283.332 608.013 283 608.085 282.6C608.157 282.192 608.193 281.708 608.193 281.148C608.193 280.588 608.157 280.108 608.085 279.708C608.013 279.308 607.909 278.984 607.773 278.736C607.645 278.48 607.489 278.292 607.305 278.172C607.129 278.052 606.929 277.992 606.705 277.992C606.481 277.992 606.277 278.052 606.093 278.172C605.909 278.292 605.749 278.48 605.613 278.736C605.485 278.984 605.385 279.308 605.313 279.708C605.241 280.108 605.205 280.588 605.205 281.148C605.205 282.268 605.341 283.084 605.613 283.596C605.893 284.1 606.257 284.352 606.705 284.352Z" fill="#828282"/>
<path d="M676.37 200.583L664.634 200.583L664.634 197.685L669.854 195.795C670.202 195.675 670.562 195.561 670.934 195.453C671.294 195.345 671.654 195.231 672.014 195.111L672.014 195.039C671.654 194.919 671.294 194.811 670.934 194.715C670.562 194.607 670.202 194.493 669.854 194.373L664.634 192.519L664.634 189.639L676.37 189.639L676.37 192.051L672.068 192.051C671.78 192.051 671.462 192.039 671.114 192.015C670.766 191.991 670.418 191.961 670.07 191.925C669.71 191.889 669.362 191.853 669.026 191.817C668.678 191.781 668.36 191.745 668.072 191.709L668.072 191.781L670.862 192.735L675.344 194.409L675.344 195.867L670.862 197.541L668.072 198.477L668.072 198.549C668.36 198.513 668.678 198.477 669.026 198.441C669.362 198.405 669.71 198.369 670.07 198.333C670.418 198.297 670.766 198.267 671.114 198.243C671.462 198.219 671.78 198.207 672.068 198.207L676.37 198.207L676.37 200.583ZM676.586 183.093C676.586 183.729 676.484 184.323 676.28 184.875C676.064 185.427 675.758 185.907 675.362 186.315C674.954 186.723 674.462 187.041 673.886 187.269C673.31 187.497 672.65 187.611 671.906 187.611C671.186 187.611 670.538 187.491 669.962 187.251C669.374 187.011 668.882 186.699 668.486 186.315C668.078 185.919 667.766 185.469 667.55 184.965C667.334 184.461 667.226 183.939 667.226 183.399C667.226 182.763 667.334 182.211 667.55 181.743C667.766 181.263 668.066 180.867 668.45 180.555C668.834 180.231 669.29 179.991 669.818 179.835C670.334 179.679 670.898 179.601 671.51 179.601C671.75 179.601 671.978 179.613 672.194 179.637C672.41 179.661 672.572 179.685 672.68 179.709L672.68 185.055C673.328 184.935 673.808 184.671 674.12 184.263C674.42 183.843 674.57 183.333 674.57 182.733C674.57 182.097 674.372 181.455 673.976 180.807L675.578 179.925C675.89 180.381 676.136 180.891 676.316 181.455C676.496 182.007 676.586 182.553 676.586 183.093ZM670.934 185.073L670.934 181.851C670.43 181.851 670.022 181.965 669.71 182.193C669.398 182.421 669.242 182.805 669.242 183.345C669.242 183.765 669.38 184.137 669.656 184.461C669.932 184.773 670.358 184.977 670.934 185.073ZM676.37 177.772L667.442 177.772L667.442 175.612L668.594 175.432L668.594 175.36C668.222 174.988 667.904 174.592 667.64 174.172C667.364 173.752 667.226 173.248 667.226 172.66C667.226 172.024 667.358 171.514 667.622 171.13C667.874 170.734 668.24 170.422 668.72 170.194C668.312 169.798 667.964 169.384 667.676 168.952C667.376 168.508 667.226 167.986 667.226 167.386C667.226 166.426 667.55 165.724 668.198 165.28C668.834 164.824 669.71 164.596 670.826 164.596L676.37 164.596L676.37 167.242L671.168 167.242C670.52 167.242 670.076 167.332 669.836 167.512C669.596 167.68 669.476 167.956 669.476 168.34C669.476 168.784 669.764 169.294 670.34 169.87L676.37 169.87L676.37 172.516L671.168 172.516C670.52 172.516 670.076 172.606 669.836 172.786C669.596 172.954 669.476 173.23 669.476 173.614C669.476 174.07 669.764 174.574 670.34 175.126L676.37 175.126L676.37 177.772ZM676.586 158.505C676.586 159.069 676.484 159.615 676.28 160.143C676.064 160.671 675.758 161.139 675.362 161.547C674.966 161.943 674.48 162.261 673.904 162.501C673.316 162.741 672.65 162.861 671.906 162.861C671.162 162.861 670.502 162.741 669.926 162.501C669.338 162.261 668.846 161.943 668.45 161.547C668.054 161.139 667.754 160.671 667.55 160.143C667.334 159.615 667.226 159.069 667.226 158.505C667.226 157.941 667.334 157.401 667.55 156.885C667.754 156.357 668.054 155.895 668.45 155.499C668.846 155.091 669.338 154.767 669.926 154.527C670.502 154.287 671.162 154.167 671.906 154.167C672.65 154.167 673.316 154.287 673.904 154.527C674.48 154.767 674.966 155.091 675.362 155.499C675.758 155.895 676.064 156.357 676.28 156.885C676.484 157.401 676.586 157.941 676.586 158.505ZM674.444 158.505C674.444 157.965 674.216 157.557 673.76 157.281C673.304 157.005 672.686 156.867 671.906 156.867C671.126 156.867 670.508 157.005 670.052 157.281C669.596 157.557 669.368 157.965 669.368 158.505C669.368 159.057 669.596 159.471 670.052 159.747C670.508 160.011 671.126 160.143 671.906 160.143C672.686 160.143 673.304 160.011 673.76 159.747C674.216 159.471 674.444 159.057 674.444 158.505ZM676.37 152.354L667.442 152.354L667.442 150.194L669.008 150.014L669.008 149.942C668.396 149.618 667.946 149.228 667.658 148.772C667.37 148.316 667.226 147.86 667.226 147.404C667.226 147.152 667.244 146.948 667.28 146.792C667.304 146.624 667.346 146.474 667.406 146.342L669.692 146.774C669.644 146.942 669.608 147.098 669.584 147.242C669.56 147.386 669.548 147.554 669.548 147.746C669.548 148.082 669.668 148.436 669.908 148.808C670.148 149.168 670.574 149.468 671.186 149.708L676.37 149.708L676.37 152.354ZM679.862 144.069C679.862 144.345 679.844 144.579 679.808 144.771C679.784 144.963 679.742 145.149 679.682 145.329L677.666 144.861C677.69 144.777 677.714 144.681 677.738 144.573C677.762 144.465 677.774 144.363 677.774 144.267C677.774 143.823 677.666 143.481 677.45 143.241C677.234 143.001 676.952 142.821 676.604 142.701L676.136 142.575L667.442 146.013L667.442 143.349L671.276 142.071C671.684 141.939 672.098 141.819 672.518 141.711C672.938 141.603 673.37 141.489 673.814 141.369L673.814 141.297C673.394 141.201 672.974 141.105 672.554 141.009C672.122 140.901 671.696 140.793 671.276 140.685L667.442 139.605L667.442 137.067L676.46 140.163C677.024 140.379 677.516 140.607 677.936 140.847C678.368 141.075 678.722 141.345 678.998 141.657C679.286 141.957 679.502 142.305 679.646 142.701C679.79 143.085 679.862 143.541 679.862 144.069ZM679.592 129.567C678.356 130.323 677.072 130.911 675.74 131.331C674.408 131.739 672.95 131.943 671.366 131.943C669.782 131.943 668.324 131.739 666.992 131.331C665.66 130.911 664.376 130.323 663.14 129.567L663.824 127.911C665 128.571 666.23 129.051 667.514 129.351C668.798 129.651 670.082 129.801 671.366 129.801C672.65 129.801 673.934 129.651 675.218 129.351C676.502 129.051 677.732 128.571 678.908 127.911L679.592 129.567ZM676.586 120.482C676.586 121.286 676.46 122.042 676.208 122.75C675.944 123.446 675.56 124.052 675.056 124.568C674.552 125.084 673.928 125.492 673.184 125.792C672.428 126.08 671.558 126.224 670.574 126.224C669.602 126.224 668.738 126.074 667.982 125.774C667.214 125.474 666.566 125.066 666.038 124.55C665.51 124.022 665.108 123.41 664.832 122.714C664.556 122.018 664.418 121.28 664.418 120.5C664.418 119.648 664.574 118.916 664.886 118.304C665.198 117.692 665.552 117.194 665.948 116.81L667.64 118.196C667.376 118.496 667.154 118.814 666.974 119.15C666.794 119.486 666.704 119.906 666.704 120.41C666.704 120.866 666.794 121.286 666.974 121.67C667.142 122.042 667.388 122.366 667.712 122.642C668.036 122.918 668.432 123.134 668.9 123.29C669.368 123.434 669.896 123.506 670.484 123.506C671.696 123.506 672.638 123.236 673.31 122.696C673.97 122.144 674.3 121.316 674.3 120.212C674.3 119.972 674.27 119.738 674.21 119.51C674.15 119.282 674.06 119.096 673.94 118.952L671.924 118.952L671.924 120.896L669.764 120.896L669.764 116.612L675.164 116.612C675.56 117.02 675.896 117.56 676.172 118.232C676.448 118.904 676.586 119.654 676.586 120.482ZM676.37 114.403L667.442 114.403L667.442 111.757L676.37 111.757L676.37 114.403ZM666.128 113.089C666.128 113.533 666.002 113.899 665.75 114.187C665.486 114.475 665.15 114.619 664.742 114.619C664.334 114.619 664.004 114.475 663.752 114.187C663.5 113.899 663.374 113.533 663.374 113.089C663.374 112.633 663.5 112.267 663.752 111.991C664.004 111.703 664.334 111.559 664.742 111.559C665.15 111.559 665.486 111.703 665.75 111.991C666.002 112.267 666.128 112.633 666.128 113.089ZM676.37 109.212L664.634 109.212L664.634 105.198C664.634 104.586 664.682 104.022 664.778 103.506C664.862 102.978 665.018 102.522 665.246 102.138C665.474 101.742 665.774 101.436 666.146 101.22C666.518 100.992 666.986 100.878 667.55 100.878C667.814 100.878 668.078 100.914 668.342 100.986C668.606 101.058 668.852 101.16 669.08 101.292C669.308 101.424 669.512 101.586 669.692 101.778C669.872 101.958 670.004 102.168 670.088 102.408L670.16 102.408C670.232 102.108 670.346 101.832 670.502 101.58C670.646 101.328 670.832 101.106 671.06 100.914C671.288 100.722 671.558 100.572 671.87 100.464C672.17 100.356 672.518 100.302 672.914 100.302C673.514 100.302 674.03 100.422 674.462 100.662C674.894 100.89 675.254 101.214 675.542 101.634C675.818 102.042 676.028 102.522 676.172 103.074C676.304 103.626 676.37 104.22 676.37 104.856L676.37 109.212ZM669.332 106.566L669.332 105.324C669.332 104.676 669.206 104.208 668.954 103.92C668.702 103.62 668.366 103.47 667.946 103.47C667.49 103.47 667.166 103.62 666.974 103.92C666.782 104.22 666.686 104.682 666.686 105.306L666.686 106.566L669.332 106.566ZM674.318 106.566L674.318 105.072C674.318 103.62 673.79 102.894 672.734 102.894C672.218 102.894 671.852 103.074 671.636 103.434C671.408 103.794 671.294 104.34 671.294 105.072L671.294 106.566L674.318 106.566ZM676.586 95.902C676.586 96.49 676.472 97.096 676.244 97.72C676.016 98.332 675.716 98.866 675.344 99.322L673.688 98.134C674 97.726 674.234 97.336 674.39 96.964C674.546 96.592 674.624 96.214 674.624 95.83C674.624 95.434 674.558 95.146 674.426 94.966C674.294 94.786 674.108 94.696 673.868 94.696C673.724 94.696 673.598 94.75 673.49 94.858C673.37 94.954 673.262 95.092 673.166 95.272C673.07 95.44 672.986 95.632 672.914 95.848C672.83 96.064 672.74 96.286 672.644 96.514C672.536 96.79 672.41 97.066 672.266 97.342C672.122 97.618 671.948 97.87 671.744 98.098C671.528 98.326 671.282 98.512 671.006 98.656C670.718 98.8 670.388 98.872 670.016 98.872C669.608 98.872 669.23 98.794 668.882 98.638C668.534 98.47 668.24 98.236 668 97.936C667.76 97.636 667.574 97.276 667.442 96.856C667.298 96.436 667.226 95.968 667.226 95.452C667.226 94.768 667.346 94.168 667.586 93.652C667.814 93.136 668.072 92.686 668.36 92.302L669.944 93.49C669.704 93.814 669.518 94.132 669.386 94.444C669.254 94.756 669.188 95.068 669.188 95.38C669.188 96.052 669.422 96.388 669.89 96.388C670.034 96.388 670.16 96.34 670.268 96.244C670.364 96.148 670.454 96.022 670.538 95.866C670.622 95.698 670.706 95.512 670.79 95.308C670.862 95.092 670.94 94.87 671.024 94.642C671.132 94.354 671.258 94.072 671.402 93.796C671.534 93.508 671.702 93.25 671.906 93.022C672.11 92.782 672.362 92.59 672.662 92.446C672.95 92.302 673.298 92.23 673.706 92.23C674.114 92.23 674.492 92.308 674.84 92.464C675.188 92.62 675.494 92.854 675.758 93.166C676.01 93.478 676.214 93.862 676.37 94.318C676.514 94.774 676.586 95.302 676.586 95.902ZM679.592 89.1995L678.908 90.8555C677.732 90.1835 676.502 89.6975 675.218 89.3975C673.934 89.0975 672.65 88.9475 671.366 88.9475C670.082 88.9475 668.798 89.0975 667.514 89.3975C666.23 89.6975 665 90.1835 663.824 90.8555L663.14 89.1995C664.376 88.4435 665.66 87.8615 666.992 87.4535C668.324 87.0335 669.782 86.8235 671.366 86.8235C672.95 86.8235 674.408 87.0335 675.74 87.4535C677.072 87.8615 678.356 88.4435 679.592 89.1995Z" fill="black"/>
<path d="M92.8499 280.766L590 75" stroke="#660099" stroke-width="3"/>
<path d="M580.563 70.306L591.012 74.6436L586.675 85.0929" stroke="#660099" stroke-width="3"/>
<line x1="93.6839" y1="280.347" x2="591.777" y2="205.517" stroke="#9737AB" stroke-width="3"/>
<path d="M583.375 198.507L591.9 205.946L584.462 214.47" stroke="#9737AB" stroke-width="3"/>
<path d="M93.7361 280.34L589 257" stroke="#D150EC" stroke-width="3"/>
<path d="M582.007 249.719L591.043 256.527L584.235 265.563" stroke="#D150EC" stroke-width="3"/>
</svg>
