<svg width="11" height="11" viewBox="0 0 11 11" fill="none" xmlns="http://www.w3.org/2000/svg">
<path d="M5.62203 0.11459C5.43202 0.278555 5.41861 0.55585 5.59114 0.736323L6.03878 1.20289C7.24532 2.46176 8.48099 3.7602 9.59548 5.12365C8.40059 5.12255 7.10836 5.09889 5.84466 5.07523C4.00275 5.04002 2.09861 5.0037 0.456051 5.03837C0.198998 5.04167 0.000243811 5.22653 0.000243826 5.48623C0.00490681 5.72998 0.218232 5.922 0.475867 5.91759C2.09918 5.88403 3.99466 5.92034 5.82598 5.95446C7.07682 5.97811 8.35681 6.00177 9.54591 6.00397C9.24748 6.3473 8.94905 6.69063 8.64945 7.03395C8.11438 7.64853 7.57813 8.26311 7.03897 8.887C6.61756 9.37447 6.22062 9.835 5.75432 10.2322C5.56315 10.3951 5.54741 10.6741 5.72052 10.8545C5.89304 11.035 6.18798 11.0488 6.37917 10.8859C6.89851 10.4441 7.33683 9.93514 7.77048 9.43343C8.29856 8.81995 8.83364 8.20703 9.36872 7.59461C9.87874 7.0092 10.3899 6.42378 10.8947 5.83833C10.9122 5.81797 10.9216 5.79321 10.935 5.7712C10.9455 5.75359 10.9583 5.73764 10.9664 5.71838C10.9868 5.66721 11.0002 5.61439 11.0002 5.55992L11.0002 5.55442C10.9991 5.46914 10.9659 5.39431 10.9198 5.32718C10.914 5.31948 10.9169 5.30848 10.9105 5.30188C9.63457 3.64081 8.15821 2.10074 6.72604 0.607002L6.28131 0.143726C6.10702 -0.0367338 5.8121 -0.0493958 5.62207 0.114566L5.62203 0.11459Z" fill="#1D6EFE"/>
</svg>
