<svg width="49" height="53" viewBox="0 0 49 53" fill="none" xmlns="http://www.w3.org/2000/svg">
<path d="M24.5 1.20239C15.1495 1.20239 1.19788 3.07442 1.19788 8.28573V44.6637C1.19788 45.4732 1.19788 48.003 8.37156 49.9256C12.6758 51.0893 18.4147 51.747 24.5495 51.747C30.6347 51.747 36.3737 51.0893 40.7274 49.9256C47.901 47.9524 47.901 45.4732 47.901 44.6637V8.28573C47.8516 3.07442 33.9 1.20239 24.5 1.20239ZM24.5 3.07442C38.9463 3.07442 46.5158 6.4643 46.5158 8.28573C46.5158 10.1072 38.9463 13.5476 24.5 13.5476C10.0537 13.5476 2.48419 10.1577 2.48419 8.28573C2.48419 6.4137 10.0537 3.07442 24.5 3.07442ZM46.5158 32.8244C44.9326 35.1518 36.72 37.5804 24.6979 37.5804C10.1031 37.5804 2.48419 34.1399 2.48419 32.3185V22.6042C3.47367 23.4643 5.25472 24.4762 8.42103 25.3363C12.7747 26.5 18.5631 27.1577 24.6979 27.1577C33.1579 27.1577 42.9042 25.7917 46.5158 22.8066V32.8244ZM46.5158 20.5298C44.9821 22.8572 36.4231 25.2857 24.6979 25.2857C10.1526 25.2857 2.53367 21.8452 2.53367 20.0238H2.48419V10.8661C6.14524 14.1548 16.8316 15.4197 24.5 15.4197C32.1684 15.4197 42.8547 14.1548 46.5158 10.8661V20.5298ZM24.5 49.9256C10.0537 49.9256 2.48419 46.4851 2.48419 44.6637V34.8988C3.47367 35.7589 5.25472 36.7708 8.42103 37.631C12.7747 38.7947 18.5631 39.4524 24.6979 39.4524C34.741 39.4524 43.3 37.6816 46.5158 35.1012V44.6637C46.5158 46.4851 38.9463 49.9256 24.5 49.9256Z" fill="url(#paint0_linear)" stroke="url(#paint1_linear)" stroke-width="0.75" stroke-miterlimit="10"/>
<defs>
<linearGradient id="paint0_linear" x1="1.18551" y1="26.4874" x2="47.8318" y2="26.4874" gradientUnits="userSpaceOnUse">
<stop stop-color="#660099"/>
<stop offset="1" stop-color="#133675"/>
</linearGradient>
<linearGradient id="paint1_linear" x1="0.999981" y1="26.4874" x2="48.0173" y2="26.4874" gradientUnits="userSpaceOnUse">
<stop stop-color="#660099"/>
<stop offset="1" stop-color="#133675"/>
</linearGradient>
</defs>
</svg>
