<svg width="48" height="46" viewBox="0 0 48 46" fill="none" xmlns="http://www.w3.org/2000/svg">
<path fill-rule="evenodd" clip-rule="evenodd" d="M24.3148 4.62666C13.6629 4.62666 5.02773 12.8693 5.02773 23.0371C5.02773 33.2049 13.6629 41.4476 24.3148 41.4476C34.9669 41.4476 43.602 33.2049 43.602 23.0371C43.602 12.8693 34.9669 4.62666 24.3148 4.62666ZM0.979004 23.0371C0.979004 10.7349 11.4268 0.761963 24.3148 0.761963C37.2029 0.761963 47.6507 10.7349 47.6507 23.0371C47.6507 35.3393 37.2029 45.3123 24.3148 45.3123C11.4268 45.3123 0.979004 35.3393 0.979004 23.0371ZM15.4522 11.4922H24.6257C31.3545 11.4922 36.8093 16.6991 36.8093 23.1221C36.8093 29.545 31.3545 34.7519 24.6257 34.7519H15.4522V11.4922ZM19.5009 15.3569V26.5025C20.7683 25.0693 22.1153 23.9226 23.6412 23.0625C26.2015 21.6192 29.0647 21.0924 32.4834 21.1051C31.5531 17.7944 28.3876 15.3569 24.6257 15.3569H19.5009ZM32.5287 24.9702C29.5252 24.9527 27.4393 25.4097 25.7 26.3902C24.1303 27.275 22.6835 28.674 21.1046 30.8872H24.6257C28.4512 30.8872 31.66 28.3665 32.5287 24.9702Z" fill="#C1C1C1"/>
</svg>
