<svg width="118" height="118" viewBox="0 0 118 118" fill="none" xmlns="http://www.w3.org/2000/svg">
<rect width="118" height="118" fill="#111111"/>
<path fill-rule="evenodd" clip-rule="evenodd" d="M59.5 33.3784C44.6649 33.3784 32.6387 44.8496 32.6387 59C32.6387 73.1504 44.6649 84.6216 59.5 84.6216C74.3351 84.6216 86.3613 73.1504 86.3613 59C86.3613 44.8496 74.3351 33.3784 59.5 33.3784ZM27 59C27 41.8792 41.5507 28 59.5 28C77.4493 28 92 41.8792 92 59C92 76.1208 77.4493 90 59.5 90C41.5507 90 27 76.1208 27 59ZM47.1569 42.9331H59.9328C69.3041 42.9331 76.901 50.1795 76.901 59.1182C76.901 68.057 69.3041 75.3032 59.9328 75.3032H47.1569V42.9331ZM52.7955 48.3116V63.8228C54.5607 61.8281 56.4366 60.2324 58.5617 59.0353C62.1275 57.0267 66.1152 56.2936 70.8764 56.3113C69.5807 51.7038 65.1721 48.3116 59.9328 48.3116H52.7955ZM70.9394 61.6902C66.7565 61.6659 63.8514 62.302 61.4291 63.6664C59.243 64.8978 57.2279 66.8448 55.0291 69.9248H59.9328C65.2607 69.9248 69.7296 66.4169 70.9394 61.6902Z" fill="#C1C1C1"/>
</svg>
