<svg width="54" height="54" viewBox="0 0 54 54" fill="none" xmlns="http://www.w3.org/2000/svg">
<path d="M27.0001 2.69995C39.2197 2.69995 49.6018 13.1814 49.6801 25.3632C49.6822 25.8273 49.3869 26.2407 48.946 26.3905C48.5072 26.5402 48.02 26.3905 47.7394 26.0213C47.0518 25.1037 45.071 23.7601 43.2001 23.7601C41.2721 23.7601 39.3293 25.0868 38.6776 26.0044C38.4729 26.285 38.1439 26.4495 37.7958 26.4453C37.4478 26.4432 37.123 26.2723 36.9226 25.9875C36.275 25.0679 34.3386 23.76 32.4001 23.76C30.7083 23.76 28.9048 24.897 28.0801 25.785V45.36C28.0801 47.7373 29.4786 49.14 31.8601 49.14C34.2416 49.14 35.6401 47.7373 35.6401 45.36C35.6358 45.0711 35.7476 44.7926 35.9501 44.5859C36.1547 44.3792 36.4311 44.2632 36.7201 44.2632C37.0091 44.2632 37.2854 44.3792 37.49 44.5859C37.6925 44.7926 37.8043 45.0711 37.8001 45.36C37.8001 48.7308 35.2351 51.3 31.8601 51.3C28.4851 51.3 25.9201 48.7308 25.9201 45.36V25.785C25.0953 24.897 23.2918 23.76 21.6001 23.76C19.6616 23.76 17.7251 25.0679 17.0776 25.9875C16.8772 26.2723 16.5523 26.4432 16.2043 26.4453C15.8562 26.4495 15.5272 26.285 15.3226 26.0044C14.6708 25.0868 12.728 23.7601 10.8001 23.7601C8.92909 23.7601 6.94837 25.1037 6.26073 26.0213C5.98019 26.3905 5.49291 26.5402 5.05416 26.3905C4.61329 26.2428 4.31797 25.8272 4.32008 25.3632C4.39813 13.1814 14.7804 2.69995 27.0001 2.69995H27.0001ZM31.2357 5.3493C35.2477 9.40141 37.8486 15.7486 38.745 23.0176C39.9409 22.1928 41.4745 21.6001 43.2 21.6001C44.7292 21.6001 46.0982 22.0915 47.2331 22.7813C46.0265 14.3692 39.4431 7.22661 31.2356 5.34957L31.2357 5.3493ZM22.7642 5.3493C14.5567 7.22666 7.97305 14.3689 6.76669 22.781C7.90155 22.0913 9.27051 21.5998 10.7998 21.5998C12.5253 21.5998 14.0589 22.1925 15.2548 23.0173C16.1514 15.7483 18.7522 9.40119 22.7641 5.34903L22.7642 5.3493ZM28.0798 5.46742V22.9499C29.2548 22.161 30.744 21.5999 32.3998 21.5999C33.9798 21.5999 35.391 22.0998 36.5342 22.8149C35.4858 15.1345 32.3639 8.7625 28.08 5.46742H28.0798ZM25.9198 5.46742C21.6357 8.76229 18.5137 15.1345 17.4656 22.8149C18.6089 22.0999 20.0201 21.5999 21.6 21.5999C23.2558 21.5999 24.745 22.161 25.92 22.9499L25.9198 5.46742Z" fill="url(#paint0_linear)"/>
<defs>
<linearGradient id="paint0_linear" x1="4.32007" y1="27.0206" x2="49.7526" y2="27.0206" gradientUnits="userSpaceOnUse">
<stop stop-color="#660099"/>
<stop offset="1" stop-color="#133675"/>
</linearGradient>
</defs>
</svg>
