<svg width="32" height="32" viewBox="0 0 32 32" fill="none" xmlns="http://www.w3.org/2000/svg">
<path d="M16 0C7.17796 0 0 7.17796 0 16C0 24.822 7.17796 32 16 32C24.822 32 32 24.822 32 16C32 7.17796 24.822 0 16 0ZM16 30.2222C8.15822 30.2222 1.77778 23.8418 1.77778 16C1.77778 8.15822 8.15822 1.77778 16 1.77778C23.8418 1.77778 30.2222 8.15822 30.2222 16C30.2222 23.8418 23.8418 30.2222 16 30.2222Z" fill="url(#paint0_linear)"/>
<path d="M16.8571 15H21.1429C21.617 15 22 15.383 22 15.8571C22 16.3312 21.617 16.7143 21.1429 16.7143H16.8571H15.1429H10.8571C10.383 16.7143 10 16.3312 10 15.8571C10 15.383 10.383 15 10.8571 15H15.1429H16.8571Z" fill="url(#paint1_linear)"/>
<path d="M21.1429 15.1429H16.8571V10.8571C16.8571 10.383 16.4741 10 16 10C15.5259 10 15.1429 10.383 15.1429 10.8571V15.1429H10.8571C10.383 15.1429 10 15.5259 10 16C10 16.4741 10.383 16.8571 10.8571 16.8571H15.1429V21.1429C15.1429 21.617 15.5259 22 16 22C16.4741 22 16.8571 21.617 16.8571 21.1429V16.8571H21.1429C21.617 16.8571 22 16.4741 22 16C22 15.5259 21.617 15.1429 21.1429 15.1429Z" fill="url(#paint2_linear)"/>
<defs>
<linearGradient id="paint0_linear" x1="0" y1="16.0135" x2="32.0512" y2="16.0135" gradientUnits="userSpaceOnUse">
<stop stop-color="#660099"/>
<stop offset="1" stop-color="#133675"/>
</linearGradient>
<linearGradient id="paint1_linear" x1="10" y1="15.8579" x2="22.0192" y2="15.8579" gradientUnits="userSpaceOnUse">
<stop stop-color="#660099"/>
<stop offset="1" stop-color="#133675"/>
</linearGradient>
<linearGradient id="paint2_linear" x1="10" y1="16.0051" x2="22.0192" y2="16.0051" gradientUnits="userSpaceOnUse">
<stop stop-color="#660099"/>
<stop offset="1" stop-color="#133675"/>
</linearGradient>
</defs>
</svg>
