<svg width="83" height="31" viewBox="0 0 83 31" fill="none" xmlns="http://www.w3.org/2000/svg">
<path d="M48.6156 6.1084C49.7445 6.1084 50.8291 6.1084 51.8915 6.1084C52.0575 6.31869 51.9911 6.5395 51.9911 6.73929C51.9911 10.3669 52.0133 13.9945 51.98 17.6221C51.969 18.5579 52.3785 18.8944 53.297 18.8839C53.3745 18.8839 53.4409 18.8839 53.5184 18.8839C54.4812 18.8734 54.8243 18.5684 54.8243 17.6536C54.8243 15.3614 54.8243 13.0587 54.8243 10.7665C54.8243 9.39953 54.8243 8.03261 54.8243 6.66568C54.8243 6.49745 54.78 6.31869 54.9018 6.11891C55.9753 6.11891 57.0709 6.11891 58.1555 6.11891C58.2662 6.29766 58.2219 6.47642 58.2219 6.64465C58.2219 11.6707 58.2219 16.6968 58.2219 21.7334C58.2219 23.5209 57.7128 25.1612 56.4622 26.5281C55.3334 27.7584 53.8615 28.4523 52.2235 28.8519C51.305 29.0832 50.3642 29.2515 49.3793 29.1779C49.3793 28.1053 49.3793 27.0644 49.3793 25.9708C49.9326 25.9183 50.4639 25.9288 50.984 25.8341C51.7698 25.6764 52.5113 25.4556 53.1753 25.014C54.4259 24.1833 54.9018 23.0267 54.8132 21.6177C54.5698 21.4705 54.3263 21.5336 54.0939 21.5336C53.131 21.5336 52.1793 21.5336 51.2385 21.3023C49.501 20.8712 48.5824 19.8407 48.5824 18.1478C48.5603 14.2258 48.5714 10.3038 48.5714 6.37127C48.5824 6.28715 48.6046 6.22406 48.6156 6.1084Z" fill="#6D6785"/>
<path d="M82.3928 21.4804C82.2821 21.4909 82.2047 21.512 82.1272 21.512C80.0798 21.512 78.0323 21.512 75.9849 21.4909C74.3912 21.4804 73.4726 20.7129 72.9525 19.2618C72.7754 18.7782 72.709 18.2735 72.709 17.7688C72.7201 15.0875 72.709 12.4063 72.709 9.7251C72.709 7.49601 74.2363 6.00294 76.5825 5.91882C76.9699 5.90831 77.3572 5.92934 77.7446 5.92934C78.1319 5.92934 78.4861 6.09757 78.9398 6.13963C78.9398 5.42463 78.9398 4.73067 78.9398 4.02619C78.9398 3.34274 78.9398 2.66981 78.9398 1.96533C80.113 1.96533 81.2308 1.96533 82.3707 1.96533C82.3928 8.48438 82.3928 14.9614 82.3928 21.4804ZM78.962 13.8363C78.962 12.522 78.962 11.2077 78.962 9.89334C78.962 9.54636 78.9066 9.2204 78.5968 9.01011C78.0213 8.61056 77.4015 8.61056 76.7596 8.85239C76.173 9.0732 76.1177 9.54636 76.1177 10.0721C76.1288 12.0383 76.1177 13.994 76.1177 15.9603C76.1177 16.6122 76.1177 17.2536 76.1177 17.9055C76.1177 18.3366 76.339 18.6415 76.7485 18.8097C77.1248 18.9674 77.5232 19.0305 77.9327 18.9464C78.5636 18.7992 78.9841 18.4943 78.973 17.7372C78.9398 16.4229 78.962 15.1296 78.962 13.8363Z" fill="#6D6785"/>
<path d="M60.4575 21.4804C60.4575 16.3491 60.4575 11.26 60.4575 6.1813C60.5793 6.04461 60.7342 6.08667 60.8781 6.08667C62.5714 6.08667 64.2646 6.07616 65.969 6.08667C66.8986 6.09719 67.7951 6.24439 68.6472 6.62293C69.931 7.19073 70.5508 8.17912 70.6283 9.48295C70.6725 10.2821 70.6504 11.0917 70.6504 11.9014C70.6504 14.8981 70.6504 17.8948 70.6504 20.881C70.6504 21.0703 70.6947 21.2595 70.5951 21.4804C69.4884 21.4804 68.3706 21.4804 67.2638 21.4804C67.1532 21.2911 67.2085 21.0913 67.2085 20.902C67.2085 17.348 67.2085 13.794 67.2085 10.24C67.2085 9.36729 67.0425 9.08339 66.3563 8.82052C65.6259 8.54714 64.652 8.70486 64.1872 9.16751C63.9326 9.41986 63.9105 9.72479 63.9105 10.0402C63.9105 13.1 63.9105 16.1704 63.9105 19.2302C63.9105 19.9662 63.9105 20.6917 63.9105 21.4698C62.7374 21.4804 61.6306 21.4804 60.4575 21.4804Z" fill="#6D6785"/>
<path d="M24.8214 24.9389C23.9692 25.7064 23.0285 26.3794 22.121 27.0944C20.9146 28.0617 19.6862 29.008 18.4688 29.9754C17.3178 30.8901 16.2332 30.8796 15.0933 29.9859C13.0459 28.3666 10.9874 26.7579 8.92886 25.1386C8.86246 25.0861 8.80713 25.0125 8.74072 24.9494C8.86246 24.7706 9.02847 24.6339 9.20554 24.5078C9.98025 23.8979 10.766 23.2986 11.5407 22.6887C12.9463 21.5742 14.3297 20.4491 15.7573 19.3556C16.0893 19.1033 16.3328 18.7142 16.8198 18.6511C16.9304 18.7037 17.0633 18.7458 17.1518 18.8194C18.5241 19.9024 19.8854 20.9854 21.2577 22.0684C22.4087 22.9621 23.5154 23.9084 24.6996 24.7496C24.7107 24.8022 24.7439 24.8337 24.8103 24.8337C24.8214 24.8758 24.8214 24.9073 24.8214 24.9389Z" fill="#774C9E"/>
<path d="M24.8212 24.9391C24.8212 24.9075 24.8101 24.876 24.8101 24.8339C24.8101 24.8024 24.7991 24.7814 24.7991 24.7498L24.8101 24.7393C24.9983 24.5921 24.9097 24.3818 24.9097 24.2031C24.9097 20.2813 24.9097 16.37 24.9097 12.4482C24.9097 12.3431 24.9097 12.2379 24.9097 12.1328C24.9761 12.1118 25.0647 12.1118 25.12 12.0802C25.6512 11.6596 26.1714 11.2286 26.7026 10.7975C27.4552 10.1982 28.2077 9.58835 28.9714 8.99956C29.7239 8.40025 30.4876 7.81145 31.2512 7.22266C31.8046 6.79157 32.3468 6.37101 32.9002 5.95044C32.9777 6.11867 32.9445 6.29741 32.9445 6.46564C32.9445 10.2087 32.9334 13.9517 32.9555 17.6948C32.9555 18.3256 32.7563 18.7567 32.2362 19.1563C29.8346 21.0068 27.4662 22.8993 25.0868 24.7708C25.0093 24.8339 24.9097 24.8865 24.8212 24.9391Z" fill="#00919B"/>
<path d="M8.64121 24.8767C7.54556 24.1091 6.53844 23.2469 5.47598 22.4268C3.98191 21.2597 2.50997 20.082 1.01589 18.9149C0.761347 18.7151 0.617473 18.5154 0.617473 18.1684C0.617473 14.2464 0.606406 10.335 0.595338 6.41308C0.595338 6.25536 0.573204 6.09764 0.639607 5.95044C1.60246 6.68646 2.5653 7.42248 3.51709 8.17953C4.92262 9.28356 6.29496 10.4191 7.72263 11.5126C8.01038 11.7335 8.22066 12.0804 8.63014 12.154C8.63014 12.1856 8.64121 12.2171 8.64121 12.2487C8.65228 16.4545 8.65228 20.6603 8.64121 24.8767Z" fill="#D51987"/>
<path d="M38.7993 1.98584C41.4333 1.98584 44.0341 1.98584 46.6902 1.98584C46.6902 2.93212 46.6902 3.86789 46.6902 4.86674C45.2847 4.86674 43.857 4.86674 42.3961 4.86674C42.3961 6.81187 42.3961 8.69392 42.3961 10.6391C43.8238 10.6391 45.2515 10.6391 46.7013 10.6391C46.7013 11.6274 46.7013 12.5421 46.7013 13.5094C45.2736 13.5094 43.857 13.5094 42.374 13.5094C42.374 16.1906 42.374 18.8191 42.374 21.4792C41.1456 21.4792 39.9946 21.4792 38.7993 21.4792C38.7993 14.9919 38.7993 8.50466 38.7993 1.98584Z" fill="#6D6785"/>
<path d="M8.65218 12.2485C8.65218 12.217 8.65218 12.1855 8.64111 12.1539C8.64111 8.15833 8.64111 4.17328 8.64111 0.177702C9.24981 0.0935844 9.76997 0.324907 10.2127 0.682406C12.2048 2.23858 14.1858 3.80526 16.1668 5.36143C16.3771 5.52967 16.5874 5.6979 16.7977 5.86614V5.9082C16.7312 5.93974 16.6648 5.97128 16.6095 6.01334C14.8609 7.39076 13.1012 8.76819 11.3526 10.1561C10.4783 10.8501 9.57076 11.502 8.75179 12.2485C8.72965 12.2485 8.68538 12.2485 8.65218 12.2485Z" fill="#DF5F9A"/>
<path d="M16.7976 5.90911V5.86705C18.1478 4.79458 19.498 3.72211 20.8482 2.64963C21.634 2.02928 22.4308 1.40893 23.2166 0.778065C23.7035 0.389031 24.2348 0.0946264 24.9099 0.178742C24.9099 4.16371 24.9099 8.1592 24.9099 12.1442C24.8545 12.1442 24.7992 12.1442 24.7439 12.1442C24.6111 12.0495 24.4782 11.9654 24.3454 11.8603C21.8332 9.87305 19.3209 7.89634 16.7976 5.90911Z" fill="#01ABAA"/>
<path d="M8.6521 12.2485C8.6853 12.2485 8.72957 12.2485 8.76277 12.2485C10.8434 13.8888 12.9129 15.5396 15.0046 17.1693C15.6023 17.632 16.1335 18.1682 16.8196 18.5047C16.8086 18.5573 16.8086 18.6098 16.7975 18.6519C16.3216 18.715 16.0671 19.104 15.7351 19.3564C14.3074 20.4394 12.924 21.5749 11.5185 22.6895C10.7438 23.2993 9.95802 23.8987 9.18332 24.5085C9.01731 24.6452 8.84024 24.7714 8.7185 24.9501C8.66317 24.9501 8.62996 24.9186 8.6189 24.866C8.6521 20.6602 8.6521 16.4544 8.6521 12.2485Z" fill="#DE418F"/>
<path d="M24.9209 12.1441C24.9209 8.15902 24.9209 4.16339 24.9209 0.178289C25.5628 0.125715 26.0498 0.430644 26.5146 0.788147C28.2411 2.14455 29.9676 3.51148 31.6941 4.86789C32.0482 5.15178 32.4024 5.42517 32.7565 5.70907C32.834 5.77216 32.9557 5.81422 32.9115 5.95091C32.3581 6.3715 31.8158 6.80261 31.2624 7.2232C30.4988 7.81203 29.7352 8.41137 28.9826 9.0002C28.2189 9.59954 27.4664 10.1989 26.7138 10.7982C26.1826 11.2188 25.6624 11.6499 25.1312 12.081C25.0758 12.1231 24.9873 12.1231 24.9209 12.1441Z" fill="#049FA5"/>
<path d="M8.64105 0.179073C8.64105 4.17462 8.64105 8.15966 8.64105 12.1552C8.23157 12.0816 8.02129 11.7346 7.73354 11.5138C6.31695 10.4308 4.93356 9.29524 3.52803 8.18069C2.57625 7.43415 1.61341 6.69813 0.65057 5.95159C0.595234 5.8149 0.72804 5.77284 0.80551 5.70976C2.9304 4.03793 5.05529 2.36611 7.19125 0.694289C7.60074 0.368336 8.06556 0.1265 8.64105 0.179073Z" fill="#DE418F"/>
<path d="M16.8086 18.6625C16.8197 18.6099 16.8197 18.5573 16.8307 18.5153C16.8861 18.4732 16.9525 18.4311 17.0078 18.3891C19.509 16.4123 22.0102 14.446 24.5114 12.4693C24.622 12.3852 24.7659 12.3221 24.7548 12.1433C24.8102 12.1433 24.8655 12.1433 24.9209 12.1433C24.9209 12.2485 24.9209 12.3536 24.9209 12.4588C24.7327 12.5954 24.8102 12.7847 24.8102 12.9424C24.8102 16.875 24.8102 20.818 24.8102 24.7505L24.7991 24.761C24.7659 24.761 24.7327 24.761 24.6995 24.761C23.5043 23.9199 22.3975 22.9735 21.2576 22.0798C19.8853 21.0073 18.524 19.9137 17.1517 18.8307C17.0521 18.7466 16.9193 18.715 16.8086 18.6625Z" fill="#049FA5"/>
<path d="M24.6997 24.7612C24.733 24.7612 24.7664 24.7612 24.7997 24.7612C24.7997 24.793 24.7997 24.8142 24.8108 24.846C24.7553 24.846 24.7219 24.8142 24.6997 24.7612Z" fill="#01ABAA"/>
<path d="M24.8105 24.7506C24.8105 20.818 24.8105 16.875 24.8105 12.9424C24.8105 12.7742 24.733 12.5849 24.9212 12.4587C24.9212 16.3808 24.9212 20.2923 24.9212 24.2143C24.9101 24.3931 24.9986 24.6033 24.8105 24.7506Z" fill="#01ABAA"/>
</svg>
