<svg width="118" height="118" viewBox="0 0 118 118" fill="none" xmlns="http://www.w3.org/2000/svg">
<rect width="118" height="118" fill="#F5F5F5"/>
<path d="M76.6521 80.8902C74.7299 82.6215 72.608 84.1394 70.5611 85.7521C67.8401 87.9341 65.0692 90.0686 62.3232 92.2505C59.7271 94.3139 57.2807 94.2902 54.7095 92.2742C50.0913 88.6219 45.4481 84.9932 40.805 81.3408C40.6552 81.2222 40.5304 81.0562 40.3806 80.9139C40.6552 80.5107 41.0297 80.2024 41.4291 79.9178C43.1765 78.5422 44.9489 77.1904 46.6963 75.8148C49.8666 73.3008 52.987 70.7631 56.2072 68.2966C56.9561 67.7274 57.5053 66.8499 58.6037 66.7076C58.8533 66.8262 59.1529 66.921 59.3526 67.087C62.448 69.5299 65.5185 71.9727 68.6139 74.4155C71.2101 76.4314 73.7064 78.566 76.3775 80.4633C76.4024 80.5819 76.4773 80.653 76.6271 80.653C76.6521 80.7479 76.6521 80.819 76.6521 80.8902Z" fill="#774C9E"/>
<path d="M76.6525 80.8908C76.6525 80.8197 76.6275 80.7485 76.6275 80.6537C76.6275 80.5825 76.6025 80.5351 76.6025 80.464L76.6275 80.4402C77.0519 80.1082 76.8522 79.6339 76.8522 79.2307C76.8522 70.3847 76.8522 61.5625 76.8522 52.7165C76.8522 52.4793 76.8522 52.2421 76.8522 52.005C77.0019 51.9576 77.2016 51.9576 77.3265 51.8864C78.5247 50.9378 79.6979 49.9654 80.8962 48.9931C82.5937 47.6413 84.2911 46.2658 86.0136 44.9377C87.7111 43.5859 89.4335 42.2578 91.156 40.9297C92.4041 39.9574 93.6273 39.0087 94.8754 38.0601C95.0502 38.4395 94.9753 38.8427 94.9753 39.2222C94.9753 47.665 94.9503 56.1078 95.0003 64.5506C95.0003 65.9736 94.5509 66.9459 93.3777 67.8471C87.9607 72.0211 82.6186 76.29 77.2516 80.5114C77.0768 80.6537 76.8522 80.7723 76.6525 80.8908Z" fill="#00919B"/>
<path d="M40.1562 80.7501C37.6849 79.0187 35.4132 77.074 33.0168 75.2241C29.6467 72.5915 26.3266 69.9353 22.9566 67.3027C22.3824 66.8521 22.0579 66.4015 22.0579 65.6188C22.0579 56.7725 22.033 47.9499 22.008 39.1036C22.008 38.7479 21.9581 38.3921 22.1078 38.0601C24.2796 39.7203 26.4514 41.3804 28.5983 43.088C31.7686 45.5783 34.864 48.1397 38.0843 50.6062C38.7333 51.1042 39.2076 51.8869 40.1313 52.0529C40.1313 52.1241 40.1562 52.1952 40.1562 52.2664C40.1812 61.753 40.1812 71.2397 40.1562 80.7501Z" fill="#D51987"/>
<path d="M40.181 52.266C40.181 52.1948 40.181 52.1237 40.156 52.0525C40.156 43.0401 40.156 34.0514 40.156 25.039C41.529 24.8493 42.7023 25.3711 43.7008 26.1774C48.1942 29.6875 52.6626 33.2213 57.131 36.7314C57.6053 37.1109 58.0796 37.4904 58.5539 37.8699V37.9647C58.4041 38.0359 58.2543 38.107 58.1295 38.2019C54.1853 41.3088 50.2162 44.4157 46.272 47.5463C44.2999 49.1116 42.2529 50.5821 40.4056 52.266C40.3557 52.266 40.2559 52.266 40.181 52.266Z" fill="#DF5F9A"/>
<path d="M58.5544 37.9665V37.8716C61.6 35.4526 64.6455 33.0335 67.691 30.6144C69.4633 29.2152 71.2607 27.8159 73.0331 26.3929C74.1315 25.5154 75.3297 24.8514 76.8525 25.0411C76.8525 34.0296 76.8525 43.0418 76.8525 52.0303C76.7276 52.0303 76.6028 52.0303 76.478 52.0303C76.1784 51.8169 75.8789 51.6271 75.5793 51.39C69.9127 46.9076 64.246 42.4489 58.5544 37.9665Z" fill="#01ABAA"/>
<path d="M40.1813 52.2658C40.2562 52.2658 40.3561 52.2658 40.431 52.2658C45.124 55.9656 49.7921 59.6891 54.5101 63.3652C55.8581 64.4087 57.0563 65.6183 58.604 66.3772C58.5791 66.4958 58.5791 66.6144 58.5541 66.7093C57.4807 66.8516 56.9065 67.7291 56.1577 68.2983C52.9374 70.7411 49.8171 73.3025 46.6468 75.8164C44.8993 77.192 43.127 78.5438 41.3796 79.9194C41.0051 80.2277 40.6057 80.5123 40.3311 80.9155C40.2063 80.9155 40.1314 80.8444 40.1064 80.7258C40.1813 71.2391 40.1813 61.7525 40.1813 52.2658Z" fill="#DE418F"/>
<path d="M76.8767 52.0305C76.8767 43.0417 76.8767 34.0291 76.8767 25.0403C78.3246 24.9218 79.423 25.6096 80.4714 26.4159C84.3657 29.4755 88.26 32.5587 92.1542 35.6182C92.9531 36.2586 93.7519 36.8752 94.5507 37.5156C94.7254 37.6579 95 37.7527 94.9002 38.0611C93.652 39.0097 92.4288 39.9821 91.1807 40.9308C89.4582 42.259 87.7357 43.6109 86.0382 44.939C84.3158 46.2909 82.6183 47.6428 80.9208 48.9947C79.7225 49.9433 78.5493 50.9158 77.351 51.8882C77.2262 51.983 77.0265 51.983 76.8767 52.0305Z" fill="#049FA5"/>
<path d="M40.1564 25.0423C40.1564 34.0547 40.1564 43.0433 40.1564 52.0557C39.2328 51.8897 38.7585 51.107 38.1095 50.609C34.9142 48.1661 31.7938 45.6047 28.6235 43.0908C26.4767 41.4069 24.3049 39.7467 22.1331 38.0628C22.0083 37.7545 22.3078 37.6596 22.4826 37.5173C27.2755 33.7464 32.0684 29.9754 36.8863 26.2044C37.8099 25.4692 38.8583 24.9237 40.1564 25.0423Z" fill="#DE418F"/>
<path d="M58.5786 66.733C58.6036 66.6145 58.6036 66.4959 58.6285 66.401C58.7534 66.3061 58.9031 66.2113 59.028 66.1164C64.6696 61.6576 70.3113 57.2225 75.953 52.7637C76.2026 52.5739 76.5271 52.4316 76.5022 52.0284C76.627 52.0284 76.7518 52.0284 76.8766 52.0284C76.8766 52.2656 76.8766 52.5028 76.8766 52.74C76.4522 53.0483 76.627 53.4752 76.627 53.8309C76.627 62.7011 76.627 71.5951 76.627 80.4653L76.602 80.489C76.5271 80.489 76.4522 80.489 76.3774 80.489C73.6813 78.5916 71.185 76.4571 68.6138 74.4411C65.5184 72.022 62.4479 69.5554 59.3525 67.1125C59.1278 66.9228 58.8282 66.8516 58.5786 66.733Z" fill="#049FA5"/>
<path d="M76.3777 80.4894C76.4529 80.4894 76.5281 80.4894 76.6033 80.4894C76.6033 80.5611 76.6033 80.609 76.6284 80.6807C76.503 80.6807 76.4278 80.609 76.3777 80.4894Z" fill="#01ABAA"/>
<path d="M76.6272 80.4656C76.6272 71.5953 76.6272 62.7014 76.6272 53.8312C76.6272 53.4517 76.4524 53.0248 76.8768 52.7402C76.8768 61.5867 76.8768 70.4095 76.8768 79.256C76.8519 79.6592 77.0516 80.1335 76.6272 80.4656Z" fill="#01ABAA"/>
</svg>
