<svg width="158" height="158" viewBox="0 0 158 158" fill="none" xmlns="http://www.w3.org/2000/svg">
<g filter="url(#filter0_d)">
<rect x="4" y="2" width="150" height="150" fill="white"/>
<rect x="4.5" y="2.5" width="149" height="149" stroke="#DFDFDF"/>
</g>
<g clip-path="url(#clip0)">
<path d="M43.3 71.7875C43.3 68.9458 41.3909 66.8792 38.2727 66.8792H31.2727V81.9917H34.4545V76.5667H36.8091L39.7364 81.9917H43.3636L39.9909 76.2437C41.6455 75.9208 43.3 74.5 43.3 71.7875Z" fill="#5E36AC"/>
<path d="M52.2091 66.6855C47.6909 66.6855 44.4455 69.9793 44.4455 74.5001C44.4455 79.021 47.7545 82.3147 52.2091 82.3147C56.7273 82.3147 60.0364 79.021 60.0364 74.5001C60.0364 69.9793 56.7273 66.6855 52.2091 66.6855ZM52.2091 79.473C49.4727 79.473 47.6909 77.3418 47.6909 74.5001C47.6909 71.6585 49.4727 69.5272 52.2091 69.5272C54.9455 69.5272 56.7273 71.6585 56.7273 74.5001C56.7273 77.3418 54.9455 79.473 52.2091 79.473Z" fill="#5E36AC"/>
<path d="M69.0091 69.5272C70.6636 69.5272 72 70.496 72.6364 71.723L75.3727 70.3668C74.2909 68.4939 72.4455 66.6855 69.0091 66.6855C64.6818 66.6855 61.1818 69.8501 61.1818 74.5001C61.1818 79.1501 64.6182 82.3147 69.0091 82.3147C72.3818 82.3147 74.2909 80.5064 75.3727 78.5689L72.6364 77.2772C72 78.5043 70.6636 79.473 69.0091 79.473C66.4 79.473 64.4273 77.3418 64.4273 74.5001C64.4273 71.6585 66.4 69.5272 69.0091 69.5272Z" fill="#5E36AC"/>
<path d="M89.3091 66.9438H85.4273L80.1455 73.6605V66.9438H76.9636V82.0563H80.1455V77.4063L81.2909 75.9855L85.8091 82.0563H89.6909L83.3909 74.048L89.3091 66.9438Z" fill="#5E36AC"/>
<path d="M96.3727 72.821C94.6545 72.4335 93.3818 72.1105 93.3818 71.0772C93.3818 70.173 94.1455 69.5272 95.5455 69.5272C97.0091 69.5272 98.6 70.0439 99.8091 71.2064L101.591 68.8168C100.127 67.4605 98.1545 66.6855 95.8 66.6855C92.3 66.6855 90.1364 68.7522 90.1364 71.271C90.1364 74.6293 93.2545 75.3397 95.6727 75.921C97.3909 76.3085 98.6636 76.696 98.6636 77.8585C98.6636 78.698 97.8364 79.5376 96.0545 79.5376C94.0182 79.5376 92.3636 78.6335 91.3455 77.471L89.6273 79.9251C91.0273 81.346 93.0636 82.3147 95.9273 82.3147C99.9364 82.3147 101.909 80.248 101.909 77.471C101.909 74.1126 98.7909 73.3376 96.3727 72.821Z" fill="#5E36AC"/>
<path d="M103.818 82.0563H114.382V79.2793H107V75.7272H114.255V72.9501H107V69.7209H114.382V66.9438H103.818V82.0563Z" fill="#5E36AC"/>
<path d="M115.591 66.9438V69.7855H119.918V82.0563H123.1V69.7855H127.491V66.9438H115.591Z" fill="#5E36AC"/>
<path d="M32.2273 62.1V59H23V60.55V62.1V86.9V88.45V90H32.2273V86.9H26.0545V62.1H32.2273Z" fill="#64BFDC"/>
<path d="M125.773 62.1V59H135V60.55V62.1V86.9V88.45V90H125.773V86.9H131.945V62.1H125.773Z" fill="#64BFDC"/>
</g>
<defs>
<filter id="filter0_d" x="0" y="0" width="158" height="158" filterUnits="userSpaceOnUse" color-interpolation-filters="sRGB">
<feFlood flood-opacity="0" result="BackgroundImageFix"/>
<feColorMatrix in="SourceAlpha" type="matrix" values="0 0 0 0 0 0 0 0 0 0 0 0 0 0 0 0 0 0 127 0"/>
<feOffset dy="2"/>
<feGaussianBlur stdDeviation="2"/>
<feColorMatrix type="matrix" values="0 0 0 0 0 0 0 0 0 0 0 0 0 0 0 0 0 0 0.2 0"/>
<feBlend mode="normal" in2="BackgroundImageFix" result="effect1_dropShadow"/>
<feBlend mode="normal" in="SourceGraphic" in2="effect1_dropShadow" result="shape"/>
</filter>
<clipPath id="clip0">
<rect width="112" height="31" fill="white" transform="translate(23 59)"/>
</clipPath>
</defs>
</svg>
