<svg width="158" height="158" viewBox="0 0 158 158" fill="none" xmlns="http://www.w3.org/2000/svg">
<g filter="url(#filter0_d)">
<rect x="4" y="2" width="150" height="150" fill="white"/>
<rect x="4.5" y="2.5" width="149" height="149" stroke="#DFDFDF"/>
</g>
<path d="M72.8193 79.6872C72.8193 81.1981 70.5309 81.1981 70.5309 79.6872C70.5928 78.1134 72.8193 78.1134 72.8193 79.6872Z" fill="url(#paint0_linear)"/>
<path d="M57.6667 82.2685C57.6667 83.7166 55.502 83.7166 55.502 82.2685C55.502 80.8203 57.6667 80.8203 57.6667 82.2685Z" fill="url(#paint1_linear)"/>
<path d="M91.3116 69.3612H89.3944V40.0221C89.3944 38.3851 88.0956 37 86.4257 37H39.298C37.69 37 36.3293 38.3222 36.3293 40.0221V69.2982H34.4739C33.1133 69.2982 32 70.4315 32 71.8166V73.2647C32 74.6498 33.1133 75.7831 34.4739 75.7831H48.5751V82.7716C48.5751 84.3456 49.812 85.6677 51.4201 85.6677H61.9341C63.3566 85.6677 64.5317 84.5974 64.7173 83.2123H82.653C84.0755 83.2123 85.3124 82.0161 85.3124 80.505V75.846H91.4972C92.8578 75.846 93.9711 74.7128 93.9711 73.3277V71.8796C93.8474 70.4315 92.7341 69.3612 91.3116 69.3612ZM38.2466 40.0221C38.2466 39.4554 38.7414 38.9517 39.298 38.9517H86.5494C87.106 38.9517 87.6008 39.4554 87.6008 40.0221V41.2183H38.1847L38.2466 40.0221ZM48.5751 73.8943H34.4739C34.1647 73.8943 33.9173 73.6425 33.9173 73.3277V71.8796C33.9173 71.5648 34.1647 71.313 34.4739 71.313H48.5751V73.8943ZM62.7381 82.7716C62.7381 83.2753 62.3052 83.716 61.8104 83.716H51.2964C50.8016 83.716 50.3687 83.2753 50.3687 82.7716V80.9458H62.7381V82.7716ZM62.7381 78.994H50.4305V65.017H62.8L62.7381 78.994ZM62.7381 63.0653H50.4305V62.6875C50.4305 62.1838 50.8634 61.7431 51.3582 61.7431H61.8723C62.3671 61.7431 62.8 62.1838 62.8 62.6875L62.7381 63.0653ZM83.3333 80.505C83.3333 80.9458 82.9622 81.2606 82.5912 81.2606H64.6554V77.9867H83.2715V80.505H83.3333ZM83.3333 76.0979H64.6554V62.7505C64.6554 61.1765 63.4185 59.8543 61.8104 59.8543H60.1406V54.5028H83.2715V76.0979H83.3333ZM83.3333 52.488H60.1406V51.5437C60.1406 51.1029 60.5116 50.7881 60.8827 50.7881H82.4675C82.9004 50.7881 83.2096 51.1659 83.2096 51.5437V52.488H83.3333ZM82.5293 48.8364H60.9446C59.5221 48.8364 58.2851 50.0326 58.2851 51.5437V59.8543H51.3582C49.812 59.8543 48.5133 61.1135 48.5133 62.7505V69.3612H38.2466V43.17H87.6626V69.2982H85.2506V51.5437C85.2506 50.0956 84.0136 48.8364 82.5293 48.8364ZM91.992 73.3277C91.992 73.6425 91.7446 73.8943 91.4353 73.8943H85.2506V71.25H91.4353C91.7446 71.25 91.992 71.5018 91.992 71.8166V73.3277Z" fill="url(#paint2_linear)"/>
<path d="M111.037 84.6543C103.387 84.6543 96.91 90.2834 95.38 97.6325H97.777C99.256 91.4822 104.611 86.8955 111.037 86.8955C118.636 86.8955 124.705 93.2543 124.705 100.968C124.705 108.682 118.636 114.989 111.037 114.989C104.662 114.989 99.358 110.611 97.828 104.565H95.431C97.012 111.809 103.489 117.23 111.088 117.23C119.86 117.23 127 109.985 127 101.02C127 92.0555 119.86 84.6543 111.037 84.6543ZM110.782 90.8567C106.447 90.8567 102.775 93.6712 101.398 97.6325H103.897C105.121 94.9743 107.722 93.0979 110.782 93.0979C115.015 93.0979 118.432 96.6422 118.432 100.968C118.432 105.294 115.015 108.786 110.782 108.786C107.824 108.786 105.274 107.066 103.999 104.565H101.5C102.928 108.369 106.549 111.028 110.782 111.028C116.239 111.028 120.727 106.545 120.727 100.968C120.727 95.3912 116.239 90.8567 110.782 90.8567ZM90.943 93.2543C90.892 93.2543 90.841 93.2543 90.841 93.3064H90.739C90.382 93.4106 90.127 93.6191 89.974 93.984L86.914 100.655L84.517 105.815L82.987 100.812C82.834 100.343 82.375 99.9779 81.916 99.9779H77.122C76.51 99.9779 76 100.551 76 101.125C76 101.698 76.561 102.271 77.122 102.271H81.049L83.191 109.308C83.446 110.194 84.874 110.298 85.282 109.516L88.954 101.594L90.892 97.3197L92.524 101.542C92.677 101.959 93.085 102.271 93.544 102.271H107.212C107.773 103.939 109.303 105.138 111.088 105.138C113.332 105.138 115.168 103.262 115.168 100.968C115.168 98.6749 113.332 96.7985 111.088 96.7985C109.201 96.7985 107.569 98.1537 107.11 99.9779H94.36L92.014 94.0361C91.81 93.567 91.402 93.2543 90.943 93.2543Z" fill="url(#paint3_linear)"/>
<defs>
<filter id="filter0_d" x="0" y="0" width="158" height="158" filterUnits="userSpaceOnUse" color-interpolation-filters="sRGB">
<feFlood flood-opacity="0" result="BackgroundImageFix"/>
<feColorMatrix in="SourceAlpha" type="matrix" values="0 0 0 0 0 0 0 0 0 0 0 0 0 0 0 0 0 0 127 0"/>
<feOffset dy="2"/>
<feGaussianBlur stdDeviation="2"/>
<feColorMatrix type="matrix" values="0 0 0 0 0 0 0 0 0 0 0 0 0 0 0 0 0 0 0.2 0"/>
<feBlend mode="normal" in2="BackgroundImageFix" result="effect1_dropShadow"/>
<feBlend mode="normal" in="SourceGraphic" in2="effect1_dropShadow" result="shape"/>
</filter>
<linearGradient id="paint0_linear" x1="70.5309" y1="79.6634" x2="72.8193" y2="79.6634" gradientUnits="userSpaceOnUse">
<stop stop-color="#660099"/>
<stop offset="1" stop-color="#133675"/>
</linearGradient>
<linearGradient id="paint1_linear" x1="55.502" y1="82.2683" x2="57.6667" y2="82.2683" gradientUnits="userSpaceOnUse">
<stop stop-color="#660099"/>
<stop offset="1" stop-color="#133675"/>
</linearGradient>
<linearGradient id="paint2_linear" x1="32" y1="61.3294" x2="93.9711" y2="61.3294" gradientUnits="userSpaceOnUse">
<stop stop-color="#660099"/>
<stop offset="1" stop-color="#133675"/>
</linearGradient>
<linearGradient id="paint3_linear" x1="76" y1="100.939" x2="127" y2="100.939" gradientUnits="userSpaceOnUse">
<stop stop-color="#660099"/>
<stop offset="1" stop-color="#133675"/>
</linearGradient>
</defs>
</svg>
