<svg width="22" height="22" viewBox="0 0 22 22" fill="none" xmlns="http://www.w3.org/2000/svg">
<path d="M12.5279 6.52699C12.5279 7.37089 11.8438 8.0541 10.9999 8.0541C10.156 8.0541 9.47192 7.37089 9.47192 6.52699C9.47192 5.68309 10.156 4.99902 10.9999 4.99902C11.8438 4.99902 12.5279 5.68309 12.5279 6.52699Z" fill="url(#paint0_linear)"/>
<path d="M12.271 10.7119V15.7479C12.271 16.4501 11.7021 17.0189 11 17.0189C10.2979 17.0189 9.729 16.4501 9.729 15.7479V10.7119C9.729 10.0107 10.2979 9.44092 11 9.44092C11.7021 9.44092 12.271 10.0107 12.271 10.7119Z" fill="url(#paint1_linear)"/>
<path d="M11 0C4.92514 0 0 4.92514 0 11C0 17.0749 4.92514 22 11 22C17.0749 22 22 17.0749 22 11C22 4.92514 17.0749 0 11 0ZM17.3954 17.3954C15.7042 19.115 13.3958 20.0886 10.9835 20.099C8.57208 20.1093 6.25526 19.1554 4.55026 17.4495C2.8444 15.7445 1.89046 13.4277 1.9008 11.0163C1.91111 8.60398 2.88479 6.29574 4.60438 4.60438C6.29563 2.88477 8.60398 1.91114 11.0163 1.9008C13.4277 1.89049 15.7445 2.8444 17.4495 4.55026C19.1554 6.25526 20.1093 8.57208 20.099 10.9835C20.0887 13.3958 19.115 15.704 17.3954 17.3954Z" fill="url(#paint2_linear)"/>
<path d="M11 0C4.92514 0 0 4.92514 0 11C0 17.0749 4.92514 22 11 22C17.0749 22 22 17.0749 22 11C22 4.92514 17.0749 0 11 0ZM17.3954 17.3954C15.7042 19.115 13.3958 20.0886 10.9835 20.099C8.57208 20.1093 6.25526 19.1554 4.55026 17.4495C2.8444 15.7445 1.89046 13.4277 1.9008 11.0163C1.91111 8.60398 2.88479 6.29574 4.60438 4.60438C6.29563 2.88477 8.60398 1.91114 11.0163 1.9008C13.4277 1.89049 15.7445 2.8444 17.4495 4.55026C19.1554 6.25526 20.1093 8.57208 20.099 10.9835C20.0887 13.3958 19.115 15.704 17.3954 17.3954Z" fill="url(#paint3_linear)"/>
<defs>
<linearGradient id="paint0_linear" x1="9.42791" y1="4.97747" x2="12.7685" y2="7.84672" gradientUnits="userSpaceOnUse">
<stop stop-color="#1D6EFE"/>
<stop offset="1" stop-color="#63BFDE"/>
</linearGradient>
<linearGradient id="paint1_linear" x1="9.69239" y1="9.38745" x2="14.1512" y2="10.6718" gradientUnits="userSpaceOnUse">
<stop stop-color="#1D6EFE"/>
<stop offset="1" stop-color="#63BFDE"/>
</linearGradient>
<linearGradient id="paint2_linear" x1="-0.31685" y1="-0.155236" x2="23.7381" y2="20.5" gradientUnits="userSpaceOnUse">
<stop stop-color="#1D6EFE"/>
<stop offset="1" stop-color="#63BFDE"/>
</linearGradient>
<linearGradient id="paint3_linear" x1="-0.31685" y1="-0.155236" x2="23.7381" y2="20.5" gradientUnits="userSpaceOnUse">
<stop stop-color="#1D6EFE"/>
<stop offset="1" stop-color="#63BFDE"/>
</linearGradient>
</defs>
</svg>
