<svg width="38" height="38" viewBox="0 0 38 38" fill="none" xmlns="http://www.w3.org/2000/svg">
<g clip-path="url(#clip0)">
<path d="M11.0831 26.283L26.2831 11.083C26.4583 10.9078 26.7418 10.9078 26.917 11.083C27.0921 11.2581 27.0921 11.5417 26.917 11.7168L11.717 26.9168C11.5418 27.092 11.2583 27.092 11.0831 26.9168C10.908 26.7416 10.908 26.4581 11.0831 26.283Z" stroke="url(#paint0_linear)"/>
<path d="M11.0839 16.15C11.1648 16.0691 11.2769 16.0193 11.4008 16.0186C11.6487 16.0186 11.8491 16.219 11.8483 16.4661L11.8476 26.1523L21.533 26.1523C21.7809 26.1523 21.9813 26.3527 21.9806 26.5999C21.9806 26.8478 21.7802 27.0482 21.533 27.0474L11.3992 27.0474C11.1513 27.0474 10.9509 26.847 10.9516 26.5999L10.9516 16.4661C10.9516 16.3428 11.0021 16.2315 11.0838 16.1499L11.0839 16.15Z" fill="url(#paint1_linear)" stroke="url(#paint2_linear)"/>
</g>
<path d="M29 24V34H4V9H12" stroke="url(#paint3_linear)" stroke-width="2" stroke-linecap="round"/>
<defs>
<linearGradient id="paint0_linear" x1="27.0001" y1="10.9999" x2="7.50006" y2="26.9999" gradientUnits="userSpaceOnUse">
<stop stop-color="#9737AB"/>
<stop offset="1" stop-color="#133675"/>
</linearGradient>
<linearGradient id="paint1_linear" x1="16.7795" y1="21.2114" x2="11.0692" y2="26.9216" gradientUnits="userSpaceOnUse">
<stop stop-color="#660099"/>
<stop offset="1" stop-color="#133675"/>
</linearGradient>
<linearGradient id="paint2_linear" x1="19.3167" y1="29.4497" x2="8.5503" y2="18.6833" gradientUnits="userSpaceOnUse">
<stop stop-color="#9737AB"/>
<stop offset="1" stop-color="#133675"/>
</linearGradient>
<linearGradient id="paint3_linear" x1="16.5" y1="9" x2="16.5" y2="34" gradientUnits="userSpaceOnUse">
<stop stop-color="#9737AB"/>
<stop offset="1" stop-color="#133675"/>
</linearGradient>
<clipPath id="clip0">
<rect width="26.87" height="26.87" fill="white" transform="translate(38 19) rotate(135)"/>
</clipPath>
</defs>
</svg>
