<svg width="26" height="34" viewBox="0 0 26 34" fill="none" xmlns="http://www.w3.org/2000/svg">
<path d="M1.27345 2.15807C1.82241 1.79649 2.49279 1.49959 3.28076 1.2427C4.46089 0.852575 5.91546 0.546175 7.56425 0.331133C9.21303 0.116086 11.0542 0 13.0036 0C16.3983 0 19.4665 0.355872 21.7557 0.955316C22.9022 1.2579 23.8545 1.61379 24.5958 2.07053C24.9637 2.29889 25.2886 2.55771 25.5463 2.88885C25.8039 3.21617 26 3.64817 26 4.13155V29.8685C26 30.3518 25.8039 30.7838 25.5463 31.1112C25.3166 31.4042 25.044 31.6326 24.7284 31.8419C24.1795 32.2016 23.5091 32.5004 22.7211 32.7573C21.541 33.1474 20.0864 33.4538 18.4376 33.6689C16.7888 33.8839 14.9477 34 12.9982 34C9.60353 34 6.5354 33.6441 4.24617 33.0447C3.09968 32.7421 2.14737 32.3862 1.40606 31.9295C1.03821 31.7011 0.71331 31.4423 0.453747 31.1112C0.196064 30.7838 0 30.3518 0 29.8684V4.13155C0 3.64817 0.196064 3.21618 0.453747 2.88884C0.68342 2.59577 0.959778 2.36741 1.27159 2.15807H1.27345ZM23.9216 3.9698C23.6975 3.76427 23.2194 3.48643 22.5584 3.24283C21.5688 2.86793 20.1721 2.5368 18.5326 2.30651C16.8931 2.07815 15.0053 1.94493 12.9981 1.94493C9.74344 1.94493 6.78765 2.29509 4.72404 2.84125C3.69142 3.10958 2.87917 3.43503 2.40115 3.73187C2.16214 3.8784 2.00903 4.01923 1.95114 4.09726L1.93247 4.1258C1.95674 4.16006 1.99969 4.21334 2.07998 4.28566C2.30405 4.49119 2.78209 4.76903 3.4431 5.01263C4.43274 5.38753 5.82761 5.71866 7.46894 5.94895C9.1084 6.17731 10.9962 6.30862 13.0035 6.30862C16.2581 6.30862 19.2139 5.95846 21.2775 5.41231C22.3101 5.14397 23.1224 4.81853 23.6004 4.52169C23.8394 4.37515 23.9925 4.23433 24.0504 4.1563L24.0691 4.12775C24.0448 4.0935 24.0019 4.0345 23.9216 3.9679V3.9698ZM2.08035 30.0341C2.30442 30.2396 2.78247 30.5175 3.44348 30.7611C4.43312 31.136 5.82798 31.4671 7.46931 31.6974C9.10877 31.9257 10.9966 32.0571 13.0038 32.0571C16.2585 32.0571 19.2143 31.7069 21.2779 31.1607C22.3105 30.8924 23.1227 30.567 23.6008 30.2701C23.8398 30.1236 23.9929 29.9828 24.0508 29.9047L24.0881 29.8457V6.4707C23.6811 6.67624 23.2329 6.85512 22.725 7.02638C21.5449 7.41651 20.0922 7.72291 18.4415 7.93795C16.7927 8.153 14.9516 8.26909 13.0021 8.26909C9.60741 8.26909 6.53929 7.91321 4.25005 7.31377C3.34631 7.07589 2.57139 6.80184 1.91784 6.4764V29.8514C1.92718 29.8667 1.97013 29.939 2.08029 30.036L2.08035 30.0341Z" fill="url(#paint0_linear)"/>
<defs>
<linearGradient id="paint0_linear" x1="26" y1="17.0144" x2="-0.0415819" y2="17.0144" gradientUnits="userSpaceOnUse">
<stop stop-color="#660099"/>
<stop offset="1" stop-color="#133675"/>
</linearGradient>
</defs>
</svg>
