<svg width="31" height="48" viewBox="0 0 31 48" fill="none" xmlns="http://www.w3.org/2000/svg">
<g clip-path="url(#clip0)">
<path d="M8.43373 35.3882C8.43373 34.8235 8.61608 34.3059 8.98078 33.9294C9.2999 33.6 9.7102 33.4588 10.1661 33.5059L20.5146 34.0235C21.5175 34.0706 22.3381 34.9177 22.3381 35.9059V38.4471H22.2014C22.2925 38.6824 22.3381 38.8706 22.3381 39.1059V41.6471H22.2014C22.2925 41.8824 22.3381 42.1177 22.3381 42.353V44.8941L19.5117 44.753C19.4205 45.553 19.0558 46.2588 18.4631 46.8235C17.8249 47.4824 16.9587 47.8118 16.0925 47.8118H15.9102L14.7705 47.7647C12.9925 47.6706 11.5793 46.2118 11.4881 44.3765L8.43373 44.2353V41.8824C8.43373 41.553 8.47931 41.2706 8.61608 40.9883H8.43373V38.6353C8.43373 38.353 8.47931 38.0706 8.57049 37.7883H8.43373V35.3882ZM9.52784 43.0588L21.1984 43.6235V42.353C21.1984 41.9765 20.8337 41.6471 20.4234 41.6L10.0749 41.0824H10.0293C9.89255 41.0824 9.80137 41.1294 9.7102 41.2235C9.57343 41.3647 9.52784 41.553 9.52784 41.8353V43.0588ZM9.52784 39.8118L21.1984 40.3765V39.0588C21.1984 38.6824 20.8337 38.353 20.4234 38.3059L10.0749 37.7883H10.0293C9.89255 37.7883 9.80137 37.8353 9.7102 37.9294C9.57343 38.0706 9.52784 38.2588 9.52784 38.5412V39.8118ZM21.1984 35.9059C21.1984 35.5294 20.8337 35.2 20.4234 35.153L10.0749 34.6353H10.0293C9.89255 34.6353 9.80137 34.6824 9.7102 34.7765C9.57343 34.9177 9.52784 35.1059 9.52784 35.3882V36.6588L21.1984 37.2235V35.9059Z" fill="url(#paint0_linear)" stroke="url(#paint1_linear)" stroke-miterlimit="10"/>
<path d="M15.4999 0.235352C23.9337 0.235352 30.772 7.43535 30.772 16.2824C30.772 22.5412 27.3073 29.1295 22.3381 32.4236C20.2867 33.7883 17.9617 34.5883 15.4999 34.5883C7.06609 34.5883 0.227856 25.1295 0.227856 16.2824C0.227856 7.43535 7.06609 0.235352 15.4999 0.235352ZM17.8249 33.2236V23.2001H12.9014V33.1765C13.722 33.3177 14.5882 33.4118 15.4999 33.4118C16.2749 33.4118 17.0955 33.3648 17.8249 33.2236ZM11.8529 21.3177C11.8529 20.8942 11.5337 20.6118 11.169 20.6118C10.7587 20.6118 10.4852 20.9412 10.4852 21.3177C10.4852 21.7412 10.8043 22.0236 11.169 22.0236C11.5337 22.0236 11.8529 21.6942 11.8529 21.3177ZM11.8073 32.8942V23.0589C11.6249 23.153 11.397 23.2001 11.169 23.2001C10.1661 23.2001 9.3455 22.353 9.3455 21.3177C9.3455 20.2824 10.1661 19.4354 11.169 19.4354C12.172 19.4354 12.9926 20.2824 12.9926 21.3177C12.9926 21.553 12.947 21.8354 12.8558 22.0236H18.0529C17.9617 21.7883 17.9161 21.553 17.9161 21.3177C17.9161 20.2824 18.7367 19.4354 19.7396 19.4354C20.7426 19.4354 21.5631 20.2824 21.5631 21.3177C21.5631 22.353 20.7426 23.2001 19.7396 23.2001C19.4661 23.2001 19.1926 23.153 18.9646 23.0118V32.9883C20.1043 32.7059 21.1984 32.1412 22.247 31.4354C26.669 28.3295 29.6779 21.9295 29.6779 16.2824C29.6779 8.04711 23.2955 1.36476 15.4999 1.36476C7.70433 1.36476 1.32197 8.04711 1.32197 16.2824C1.32197 23.153 5.78962 31.2001 11.8073 32.8942ZM19.0102 21.3177C19.0102 21.7412 19.3293 22.0236 19.694 22.0236C20.1043 22.0236 20.3779 21.6942 20.3779 21.3177C20.3779 20.8942 20.0587 20.6118 19.694 20.6118C19.3293 20.5648 19.0102 20.8942 19.0102 21.3177Z" fill="url(#paint2_linear)" stroke="url(#paint3_linear)" stroke-miterlimit="10"/>
<path d="M14.1322 20.5649H14.7704C14.7704 20.8943 15.0439 21.1767 15.3631 21.1767C15.6822 21.1767 15.9557 20.8943 15.9557 20.5649C15.9557 20.2355 15.6822 19.9531 15.3631 19.9531C15.0439 19.9531 14.7704 20.2355 14.7704 20.5649H14.1322H13.4939C13.4939 19.4826 14.3145 18.6355 15.3631 18.6355C16.4116 18.6355 17.2322 19.4826 17.2322 20.5649C17.2322 21.6473 16.4116 22.4943 15.3631 22.4943C14.3145 22.4943 13.4939 21.6473 13.4939 20.5649H14.1322Z" fill="url(#paint4_linear)"/>
<path d="M14.1322 20.5649H14.7704C14.7704 20.8943 15.0439 21.1767 15.3631 21.1767C15.6822 21.1767 15.9557 20.8943 15.9557 20.5649C15.9557 20.2355 15.6822 19.9531 15.3631 19.9531C15.0439 19.9531 14.7704 20.2355 14.7704 20.5649H14.1322ZM14.1322 20.5649H13.4939C13.4939 19.4826 14.3145 18.6355 15.3631 18.6355C16.4116 18.6355 17.2322 19.4826 17.2322 20.5649C17.2322 21.6473 16.4116 22.4943 15.3631 22.4943C14.3145 22.4943 13.4939 21.6473 13.4939 20.5649H14.1322Z" stroke="url(#paint5_linear)" stroke-miterlimit="10"/>
</g>
<defs>
<linearGradient id="paint0_linear" x1="22.3168" y1="40.6295" x2="8.42288" y2="40.6295" gradientUnits="userSpaceOnUse">
<stop stop-color="#660099"/>
<stop offset="1" stop-color="#133675"/>
</linearGradient>
<linearGradient id="paint1_linear" x1="21.2259" y1="33.7051" x2="9.16719" y2="45.387" gradientUnits="userSpaceOnUse">
<stop stop-color="#660099"/>
<stop offset="1" stop-color="#133675"/>
</linearGradient>
<linearGradient id="paint2_linear" x1="30.772" y1="17.4053" x2="0.213906" y2="17.4053" gradientUnits="userSpaceOnUse">
<stop stop-color="#660099"/>
<stop offset="1" stop-color="#133675"/>
</linearGradient>
<linearGradient id="paint3_linear" x1="26.8493" y1="5.18175" x2="3.41494" y2="27.8838" gradientUnits="userSpaceOnUse">
<stop stop-color="#660099"/>
<stop offset="1" stop-color="#133675"/>
</linearGradient>
<linearGradient id="paint4_linear" x1="17.2336" y1="20.5767" x2="13.5047" y2="20.5767" gradientUnits="userSpaceOnUse">
<stop stop-color="#660099"/>
<stop offset="1" stop-color="#133675"/>
</linearGradient>
<linearGradient id="paint5_linear" x1="16.8488" y1="19.0494" x2="13.7958" y2="22.007" gradientUnits="userSpaceOnUse">
<stop stop-color="#660099"/>
<stop offset="1" stop-color="#133675"/>
</linearGradient>
<clipPath id="clip0">
<rect width="31" height="48" fill="white" transform="matrix(-1 0 0 1 31 0)"/>
</clipPath>
</defs>
</svg>
