<svg width="105" height="30" viewBox="0 0 105 30" fill="none" xmlns="http://www.w3.org/2000/svg">
<g clip-path="url(#clip0)">
<path d="M96.2279 10.6782C95.9738 10.6782 95.7266 10.7313 95.5078 10.8567L88.5851 14.9057C88.1371 15.1672 87.8647 15.6609 87.8647 16.1862V24.2694C87.8647 24.7943 88.1371 25.2873 88.5851 25.5495L90.393 26.6065C91.2714 27.0449 91.5952 27.0381 91.995 27.0381C93.2954 27.0381 94.038 26.2389 94.038 24.85V16.8708C94.038 16.758 93.9416 16.6773 93.8323 16.6773H92.9651C92.854 16.6773 92.7594 16.758 92.7594 16.8708V24.85C92.7594 25.4655 92.1261 26.0847 91.0986 25.5644L89.2171 24.448C89.1505 24.4113 89.0994 24.3466 89.0994 24.2694V16.186C89.0994 16.1094 89.1499 16.0314 89.2171 15.9925L96.1252 11.9586C96.1564 11.9402 96.1919 11.9304 96.228 11.9304C96.2642 11.9304 96.2997 11.9402 96.3309 11.9586L103.239 15.9927C103.305 16.0329 103.357 16.1071 103.357 16.1864V24.2696C103.357 24.3468 103.318 24.4258 103.254 24.4631L96.3309 28.4971C96.2716 28.5329 96.1899 28.5329 96.1252 28.4971L94.3467 27.4254C94.3196 27.4105 94.2893 27.4028 94.2585 27.4028C94.2277 27.4028 94.1974 27.4105 94.1704 27.4254C93.6795 27.7072 93.5871 27.7399 93.1267 27.9017C93.0133 27.9418 92.8411 28.0041 93.1855 28.1996L95.5078 29.5838C95.7268 29.7117 95.9753 29.7785 96.2281 29.7774C96.4809 29.779 96.7295 29.7122 96.9482 29.584L103.871 25.5497C104.319 25.2859 104.591 24.7945 104.591 24.2696V16.1862C104.591 15.6611 104.319 15.1682 103.871 14.9061L96.9482 10.8571C96.7313 10.7315 96.4825 10.6784 96.2281 10.6784L96.2279 10.6782Z" fill="#83CD29"/>
<path d="M98.0799 16.4541C96.1086 16.4541 94.9346 17.3038 94.9346 18.7169C94.9346 20.2496 96.0998 20.6709 97.9919 20.8604C100.255 21.0849 100.432 21.4215 100.432 21.8727C100.432 22.6554 99.8155 22.9892 98.3594 22.9892C96.5296 22.9892 96.1276 22.5265 95.993 21.6048C95.977 21.5059 95.9017 21.426 95.8018 21.426H94.9052C94.7949 21.426 94.6995 21.5225 94.6995 21.6346C94.6995 22.8145 95.3331 24.2098 98.3594 24.2098C100.55 24.2098 101.813 23.339 101.813 21.8131C101.813 20.3007 100.793 19.8946 98.6678 19.6101C96.5208 19.3223 96.3161 19.1814 96.3161 18.6722C96.3161 18.2518 96.4898 17.6895 98.0799 17.6895C99.5005 17.6895 100.025 17.9998 100.241 18.97C100.259 19.061 100.339 19.1336 100.432 19.1336H101.328C101.384 19.1336 101.437 19.0993 101.475 19.0591C101.513 19.0163 101.539 18.9681 101.534 18.9104C101.395 17.2399 100.295 16.4541 98.0799 16.4541Z" fill="#83CD29"/>
<path d="M55.5287 0.0792587C55.4513 0.0793107 55.3752 0.0997756 55.308 0.138638C55.2413 0.178211 55.1858 0.234721 55.1472 0.3026C55.1085 0.370479 55.088 0.447385 55.0876 0.525741V11.9137C55.0876 12.0255 55.0363 12.1256 54.9407 12.1817C54.8939 12.2093 54.8406 12.2239 54.7864 12.2239C54.7322 12.2239 54.6789 12.2093 54.6321 12.1817L52.7947 11.1099C52.6607 11.0314 52.5086 10.9901 52.3538 10.9901C52.199 10.9901 52.0469 11.0314 51.9128 11.1099L44.5784 15.3971C44.3043 15.5574 44.1376 15.8655 44.1376 16.1862V24.7606C44.1376 25.0808 44.3045 25.3742 44.5784 25.5346L51.9128 29.8219C52.0468 29.9006 52.1989 29.9421 52.3538 29.9421C52.5087 29.9421 52.6608 29.9006 52.7947 29.8219L60.1291 25.5346C60.2634 25.4563 60.3749 25.3435 60.4524 25.2076C60.5298 25.0717 60.5704 24.9175 60.5702 24.7606V3.38402C60.57 3.22343 60.5277 3.06576 60.4477 2.92713C60.3676 2.7885 60.2527 2.67386 60.1146 2.59491L55.7491 0.123741C55.6806 0.0850518 55.6047 0.0782242 55.5287 0.0792587ZM8.34723 10.7824C8.2075 10.788 8.07594 10.8128 7.95051 10.8865L0.615897 15.1738C0.481542 15.252 0.369994 15.3648 0.292571 15.5007C0.215147 15.6366 0.174603 15.7909 0.175053 15.9478L0.189761 27.4552C0.189761 27.6151 0.27127 27.7639 0.410183 27.8421C0.476782 27.8826 0.553013 27.904 0.630708 27.904C0.708403 27.904 0.784634 27.8826 0.851233 27.8421L5.20187 25.3115C5.47745 25.1456 5.65742 24.8572 5.65742 24.5373V19.1634C5.65742 18.8427 5.82391 18.5485 6.09847 18.3892L7.95031 17.3026C8.0842 17.2237 8.23648 17.1826 8.39135 17.1834C8.54252 17.1834 8.69778 17.2217 8.8322 17.3026L10.6842 18.3892C10.8187 18.4673 10.9304 18.5801 11.0078 18.7161C11.0853 18.852 11.1258 19.0064 11.1253 19.1634V24.5371C11.1253 24.857 11.3071 25.1475 11.5808 25.3113L15.9315 27.8421C15.9981 27.8826 16.0743 27.904 16.152 27.904C16.2297 27.904 16.3059 27.8826 16.3725 27.8421C16.4396 27.8028 16.4952 27.7463 16.5339 27.6784C16.5727 27.6105 16.5931 27.5334 16.5932 27.455L16.6075 15.9478C16.6083 15.7908 16.568 15.6364 16.4905 15.5004C16.413 15.3644 16.3012 15.2517 16.1666 15.1738L8.8322 10.8865C8.7082 10.8128 8.57623 10.7882 8.43548 10.7824H8.34723ZM74.2541 10.8865C74.1009 10.8865 73.9508 10.9258 73.8133 11.0057L66.4789 15.293C66.3446 15.3712 66.2331 15.484 66.1556 15.6199C66.0782 15.7558 66.0375 15.9101 66.0378 16.067V24.6414C66.0378 24.9639 66.2172 25.2561 66.4934 25.4156L73.7692 29.6135C74.0378 29.7687 74.3659 29.7805 74.6364 29.628L79.0458 27.1422C79.1858 27.0635 79.2803 26.9166 79.281 26.7553C79.2817 26.6767 79.2617 26.5993 79.2229 26.5312C79.1841 26.4632 79.1281 26.4069 79.0605 26.3682L71.682 22.0808C71.5439 22.001 71.4469 21.8394 71.4469 21.6788V18.9995C71.4469 18.8392 71.5449 18.6923 71.682 18.6124L73.9749 17.2726C74.0419 17.2333 74.118 17.2126 74.1954 17.2126C74.2729 17.2126 74.3489 17.2333 74.4159 17.2726L76.7086 18.6124C76.7758 18.6515 76.8316 18.7079 76.8703 18.7758C76.9091 18.8438 76.9294 18.9209 76.9292 18.9993V21.1132C76.929 21.1916 76.9493 21.2687 76.988 21.3367C77.0267 21.4046 77.0825 21.461 77.1497 21.5001C77.2871 21.5806 77.4534 21.5808 77.5905 21.5001L81.9855 18.9104C82.1196 18.8318 82.2309 18.7189 82.3083 18.583C82.3857 18.4471 82.4265 18.293 82.4265 18.1362V16.0672C82.4265 15.7475 82.259 15.4535 81.9855 15.293L74.6952 11.0057C74.5612 10.9272 74.409 10.8861 74.2541 10.8867V10.8865ZM52.3243 17.2877C52.3627 17.2877 52.4076 17.2972 52.4419 17.3173L54.9554 18.791C55.0237 18.8309 55.0731 18.9048 55.0731 18.9844V21.9319C55.0731 22.0119 55.0241 22.0856 54.9554 22.1255L52.4419 23.5993C52.4084 23.6187 52.3704 23.6289 52.3317 23.6289C52.2931 23.6289 52.2551 23.6187 52.2215 23.5993L49.7082 22.1255C49.6398 22.0854 49.5905 22.0119 49.5905 21.9319V18.9844C49.5905 18.9046 49.64 18.8313 49.7082 18.791L52.2215 17.3175C52.2524 17.298 52.2881 17.2877 52.3245 17.2879V17.2877H52.3243Z" fill="#404137"/>
<path d="M30.3799 10.8418C30.2271 10.8418 30.0759 10.8811 29.939 10.961L22.6046 15.2334C22.3303 15.3933 22.1636 15.702 22.1636 16.0223V24.5967C22.1636 24.9174 22.3305 25.2104 22.6046 25.3709L29.939 29.658C30.073 29.7368 30.2251 29.7783 30.38 29.7783C30.5349 29.7783 30.687 29.7368 30.8209 29.658L38.1553 25.3709C38.2896 25.2926 38.4011 25.1797 38.4785 25.0438C38.5559 24.9079 38.5965 24.7536 38.5962 24.5967V16.0223C38.5962 15.7016 38.4295 15.3933 38.1553 15.2334L30.8209 10.961C30.6869 10.8826 30.5347 10.8414 30.3799 10.8418ZM74.2395 18.4935C74.2102 18.4935 74.1778 18.4935 74.1514 18.5084L72.7404 19.3419C72.7141 19.3567 72.6921 19.3783 72.6766 19.4044C72.6611 19.4306 72.6527 19.4604 72.6522 19.4909V21.1283C72.6522 21.1899 72.6873 21.2464 72.7404 21.2772L74.1514 22.0959C74.2043 22.127 74.2607 22.127 74.313 22.0959L75.724 21.277C75.7502 21.2622 75.7721 21.2406 75.7876 21.2145C75.8031 21.1884 75.8116 21.1587 75.8122 21.1283V19.4907C75.8116 19.4603 75.8031 19.4305 75.7876 19.4045C75.7721 19.3784 75.7502 19.3568 75.724 19.3419L74.313 18.5081C74.2869 18.4926 74.2689 18.4937 74.2395 18.4937V18.4935Z" fill="#83CD29"/>
</g>
<defs>
<clipPath id="clip0">
<rect width="104.595" height="30" fill="white"/>
</clipPath>
</defs>
</svg>
