<svg xmlns="http://www.w3.org/2000/svg" xmlns:xlink="http://www.w3.org/1999/xlink" viewBox="0 0 2372.09 1807"><defs><style>.cls-1,.cls-101,.cls-102,.cls-103,.cls-104,.cls-105,.cls-106,.cls-107,.cls-11,.cls-12,.cls-13,.cls-136,.cls-137,.cls-138,.cls-139,.cls-14,.cls-140,.cls-141,.cls-144,.cls-146,.cls-15,.cls-16,.cls-17,.cls-18,.cls-19,.cls-2,.cls-20,.cls-21,.cls-22,.cls-23,.cls-24,.cls-25,.cls-26,.cls-27,.cls-28,.cls-30,.cls-31,.cls-32,.cls-33,.cls-34,.cls-35,.cls-36,.cls-37,.cls-38,.cls-39,.cls-4,.cls-40,.cls-41,.cls-42,.cls-44,.cls-45,.cls-46,.cls-48,.cls-49,.cls-50,.cls-51,.cls-52,.cls-53,.cls-54,.cls-55,.cls-56,.cls-57,.cls-58,.cls-59,.cls-6,.cls-60,.cls-61,.cls-62,.cls-81,.cls-82,.cls-89,.cls-90,.cls-91,.cls-93,.cls-94,.cls-95,.cls-96,.cls-97,.cls-98,.cls-99{fill:none;}.cls-101,.cls-102,.cls-103,.cls-104,.cls-105,.cls-106,.cls-107,.cls-2,.cls-4,.cls-48,.cls-49,.cls-50,.cls-51,.cls-52,.cls-53,.cls-54,.cls-55,.cls-56,.cls-57,.cls-58,.cls-59,.cls-6,.cls-60,.cls-61,.cls-89,.cls-90,.cls-91,.cls-93,.cls-94,.cls-95,.cls-96,.cls-97,.cls-98,.cls-99{stroke-linejoin:bevel;}.cls-10,.cls-101,.cls-102,.cls-103,.cls-104,.cls-105,.cls-106,.cls-107,.cls-11,.cls-12,.cls-13,.cls-136,.cls-137,.cls-138,.cls-139,.cls-14,.cls-140,.cls-141,.cls-142,.cls-144,.cls-145,.cls-146,.cls-147,.cls-15,.cls-16,.cls-17,.cls-18,.cls-19,.cls-2,.cls-20,.cls-21,.cls-22,.cls-23,.cls-24,.cls-25,.cls-26,.cls-27,.cls-28,.cls-30,.cls-31,.cls-32,.cls-33,.cls-34,.cls-35,.cls-36,.cls-37,.cls-38,.cls-39,.cls-4,.cls-40,.cls-41,.cls-42,.cls-6,.cls-62,.cls-75,.cls-8,.cls-89,.cls-9,.cls-90,.cls-91,.cls-93,.cls-94,.cls-95,.cls-96,.cls-97,.cls-98,.cls-99{stroke-width:5px;}.cls-2,.cls-4,.cls-6{stroke-dasharray:12 12;}.cls-2{stroke:url(#New_Gradient_Swatchsfdsf);}.cls-3{fill:url(#New_Gradient_Swatchsfdsf-2);}.cls-4{stroke:url(#New_Gradient_Swatchsfdsf-3);}.cls-5{fill:url(#New_Gradient_Swatchsfdsf-4);}.cls-6{stroke:url(#New_Gradient_Swatchsfdsf-5);}.cls-7{fill:url(#New_Gradient_Swatchsfdsf-6);}.cls-10,.cls-11,.cls-12,.cls-13,.cls-136,.cls-137,.cls-138,.cls-139,.cls-140,.cls-141,.cls-142,.cls-144,.cls-145,.cls-146,.cls-147,.cls-15,.cls-17,.cls-18,.cls-19,.cls-20,.cls-21,.cls-22,.cls-23,.cls-24,.cls-25,.cls-26,.cls-27,.cls-28,.cls-29,.cls-30,.cls-31,.cls-32,.cls-33,.cls-34,.cls-35,.cls-36,.cls-37,.cls-38,.cls-39,.cls-40,.cls-41,.cls-42,.cls-44,.cls-45,.cls-46,.cls-62,.cls-75,.cls-8,.cls-81,.cls-82,.cls-9{stroke-miterlimit:10;}.cls-8{fill:url(#New_Gradient_Swatch_2);stroke:url(#New_Gradient_Swatch_2-2);}.cls-9{fill:url(#New_Gradient_Swatch_2-3);stroke:url(#New_Gradient_Swatch_2-4);}.cls-10{fill:url(#New_Gradient_Swatch_2-5);stroke:url(#New_Gradient_Swatch_2-6);}.cls-11,.cls-14,.cls-15,.cls-16,.cls-17,.cls-18,.cls-19,.cls-20,.cls-21,.cls-22,.cls-23,.cls-24,.cls-25,.cls-26,.cls-27,.cls-28,.cls-29,.cls-32,.cls-33,.cls-34,.cls-35,.cls-36,.cls-37,.cls-48,.cls-49,.cls-50,.cls-51,.cls-52,.cls-53,.cls-54,.cls-55,.cls-56,.cls-57,.cls-58,.cls-59,.cls-60,.cls-61{stroke-linecap:round;}.cls-11{stroke:url(#New_Gradient_Swatch_2-7);}.cls-12{stroke:url(#New_Gradient_Swatch_2-8);}.cls-13{stroke:url(#New_Gradient_Swatch_2-9);}.cls-14,.cls-16{stroke-linejoin:round;}.cls-14{stroke:url(#New_Gradient_Swatch_2-10);}.cls-15{stroke:url(#New_Gradient_Swatch_2-11);}.cls-16{stroke:url(#New_Gradient_Swatch_2-12);}.cls-17{stroke:url(#New_Gradient_Swatch_2-13);}.cls-18{stroke:url(#New_Gradient_Swatch_2-14);}.cls-19{stroke:url(#New_Gradient_Swatch_2-15);}.cls-20{stroke:url(#New_Gradient_Swatch_2-16);}.cls-21{stroke:url(#New_Gradient_Swatch_2-17);}.cls-22{stroke:url(#New_Gradient_Swatch_2-18);}.cls-23{stroke:url(#New_Gradient_Swatch_2-19);}.cls-24{stroke:url(#New_Gradient_Swatch_2-20);}.cls-25{stroke:url(#New_Gradient_Swatch_2-21);}.cls-26{stroke:url(#New_Gradient_Swatch_2-22);}.cls-27{stroke:url(#New_Gradient_Swatch_2-23);}.cls-28{stroke:url(#New_Gradient_Swatch_2-24);}.cls-29{fill:url(#New_Gradient_Swatch_2-25);stroke:url(#New_Gradient_Swatch_2-26);}.cls-30{stroke:url(#New_Gradient_Swatch_2-27);}.cls-31{stroke:url(#New_Gradient_Swatch_2-28);}.cls-32{stroke:url(#New_Gradient_Swatch_2-29);}.cls-33{stroke:url(#New_Gradient_Swatch_2-30);}.cls-34{stroke:url(#New_Gradient_Swatch_2-31);}.cls-35{stroke:url(#New_Gradient_Swatch_2-32);}.cls-36{stroke:url(#New_Gradient_Swatch_2-33);}.cls-37{stroke:url(#New_Gradient_Swatch_2-34);}.cls-38{stroke:url(#New_Gradient_Swatch_2-35);}.cls-39{stroke:url(#New_Gradient_Swatch_2-36);}.cls-40{stroke:url(#New_Gradient_Swatch_2-37);}.cls-41{stroke:url(#New_Gradient_Swatch_2-38);}.cls-42{stroke:url(#New_Gradient_Swatch_2-39);}.cls-43{fill:#4d4d4d;}.cls-44,.cls-45,.cls-46,.cls-48,.cls-52,.cls-81,.cls-82{stroke:#cbcbcb;}.cls-44,.cls-45,.cls-46,.cls-81,.cls-82{stroke-width:3px;}.cls-45{stroke-dasharray:12.34 12.34;}.cls-46{stroke-dasharray:12.03 12.03;}.cls-47{clip-path:url(#clip-path);}.cls-48,.cls-49,.cls-50,.cls-51,.cls-53,.cls-54,.cls-55,.cls-56,.cls-57,.cls-58,.cls-59,.cls-60,.cls-61{stroke-width:15px;}.cls-49{stroke:url(#New_Gradient_Swatch_2-40);}.cls-50{stroke:url(#New_Gradient_Swatch_2-41);}.cls-51{stroke:url(#New_Gradient_Swatch_2-42);}.cls-52{stroke-width:12px;}.cls-53{stroke:url(#New_Gradient_Swatch_2-43);}.cls-54{stroke:url(#New_Gradient_Swatch_2-44);}.cls-55{stroke:url(#New_Gradient_Swatch_2-45);}.cls-56{stroke:url(#New_Gradient_Swatch_2-46);}.cls-57{stroke:url(#New_Gradient_Swatch_2-47);}.cls-58{stroke:url(#New_Gradient_Swatch_2-48);}.cls-59{stroke:url(#New_Gradient_Swatch_1);}.cls-60{stroke:#609;}.cls-61{stroke:url(#New_Gradient_Swatch_2-49);}.cls-62,.cls-75{stroke:#e5e5e5;}.cls-63{clip-path:url(#clip-path-2);}.cls-64,.cls-75{fill:#f1f1f1;}.cls-65{fill:#e5e5e5;}.cls-66{fill:url(#New_Gradient_Swatch_2-50);}.cls-67{fill:url(#New_Gradient_Swatch_1-2);}.cls-68{fill:#cbcbcb;}.cls-69{fill:url(#New_Gradient_Swatch_1-3);}.cls-70{fill:url(#New_Gradient_Swatch_2-51);}.cls-71{fill:url(#New_Gradient_Swatch_2-52);}.cls-72{fill:url(#New_Gradient_Swatch_2-53);}.cls-73{fill:url(#New_Gradient_Swatch_2-54);}.cls-74{clip-path:url(#clip-path-3);}.cls-75{fill-rule:evenodd;}.cls-76{fill:url(#New_Gradient_Swatch_2-55);}.cls-77{fill:url(#New_Gradient_Swatch_2-56);}.cls-78{fill:url(#New_Gradient_Swatch_1-4);}.cls-79{fill:url(#New_Gradient_Swatch_1-5);}.cls-80{fill:url(#New_Gradient_Swatch_2-57);}.cls-81{stroke-dasharray:12.33 12.33;}.cls-82{stroke-dasharray:12.06 12.06;}.cls-83{fill:#609;}.cls-84{fill:#63c0dd;}.cls-109,.cls-110,.cls-111,.cls-112,.cls-113,.cls-114,.cls-118,.cls-119,.cls-120,.cls-121,.cls-122,.cls-123,.cls-127,.cls-128,.cls-129,.cls-130,.cls-131,.cls-132,.cls-85,.cls-86{opacity:0.8;}.cls-85{fill:url(#linear-gradient);}.cls-86{fill:url(#linear-gradient-2);}.cls-87{fill:url(#New_Gradient_Swatchsfdsf-7);}.cls-88{fill:url(#New_Gradient_Swatchsfdsf-8);}.cls-89{stroke:url(#New_Gradient_Swatchsfdsf-9);}.cls-90{stroke-dasharray:12.18 12.18;stroke:url(#New_Gradient_Swatchsfdsf-10);}.cls-91{stroke:url(#New_Gradient_Swatchsfdsf-11);}.cls-92{fill:url(#New_Gradient_Swatchsfdsf-12);}.cls-93{stroke:url(#New_Gradient_Swatchsfdsf-13);}.cls-94{stroke-dasharray:11.83 11.83;stroke:url(#New_Gradient_Swatchsfdsf-14);}.cls-95{stroke:url(#New_Gradient_Swatchsfdsf-15);}.cls-96{stroke-dasharray:12.6 12.6;stroke:url(#New_Gradient_Swatchsfdsf-16);}.cls-97{stroke:url(#New_Gradient_Swatchsfdsf-17);}.cls-98{stroke-dasharray:12.65 12.65;stroke:url(#New_Gradient_Swatchsfdsf-18);}.cls-99{stroke:url(#New_Gradient_Swatchsfdsf-19);}.cls-100{fill:url(#New_Gradient_Swatchsfdsf-20);}.cls-101{stroke:url(#New_Gradient_Swatchsfdsf-21);}.cls-102{stroke-dasharray:11.55 11.55;stroke:url(#New_Gradient_Swatchsfdsf-22);}.cls-103{stroke:url(#New_Gradient_Swatchsfdsf-23);}.cls-104{stroke-dasharray:13 13;stroke:url(#New_Gradient_Swatchsfdsf-24);}.cls-105{stroke:url(#New_Gradient_Swatchsfdsf-25);}.cls-106{stroke-dasharray:12.8 12.8;stroke:url(#New_Gradient_Swatchsfdsf-26);}.cls-107{stroke:url(#New_Gradient_Swatchsfdsf-27);}.cls-108{fill:url(#New_Gradient_Swatchsfdsf-28);}.cls-109{fill:url(#New_Gradient_Swatch_2-58);}.cls-110{fill:url(#New_Gradient_Swatch_2-59);}.cls-111{fill:url(#New_Gradient_Swatch_2-60);}.cls-112{fill:url(#New_Gradient_Swatch_2-61);}.cls-113{fill:url(#New_Gradient_Swatch_2-62);}.cls-114{fill:url(#New_Gradient_Swatch_2-63);}.cls-115{fill:url(#New_Gradient_Swatch_2-64);}.cls-116{fill:url(#New_Gradient_Swatch_2-65);}.cls-117{fill:url(#New_Gradient_Swatch_2-66);}.cls-118{fill:url(#New_Gradient_Swatch_2-67);}.cls-119{fill:url(#New_Gradient_Swatch_2-68);}.cls-120{fill:url(#New_Gradient_Swatch_2-69);}.cls-121{fill:url(#New_Gradient_Swatch_2-70);}.cls-122{fill:url(#New_Gradient_Swatch_2-71);}.cls-123{fill:url(#New_Gradient_Swatch_2-72);}.cls-124{fill:url(#New_Gradient_Swatch_2-73);}.cls-125{fill:url(#New_Gradient_Swatch_2-74);}.cls-126{fill:url(#New_Gradient_Swatch_2-75);}.cls-127{fill:url(#New_Gradient_Swatch_2-76);}.cls-128{fill:url(#New_Gradient_Swatch_2-77);}.cls-129{fill:url(#New_Gradient_Swatch_2-78);}.cls-130{fill:url(#New_Gradient_Swatch_2-79);}.cls-131{fill:url(#New_Gradient_Swatch_2-80);}.cls-132{fill:url(#New_Gradient_Swatch_2-81);}.cls-133{fill:url(#New_Gradient_Swatch_2-82);}.cls-134{fill:url(#New_Gradient_Swatch_2-83);}.cls-135{fill:url(#New_Gradient_Swatch_2-84);}.cls-136{stroke:url(#New_Gradient_Swatch_1-6);}.cls-137{stroke:url(#New_Gradient_Swatch_1-7);}.cls-138{stroke:url(#New_Gradient_Swatch_1-8);}.cls-139{stroke:url(#New_Gradient_Swatch_1-9);}.cls-140{stroke:url(#New_Gradient_Swatch_1-10);}.cls-141{stroke:#662d90;}.cls-142{fill:url(#New_Gradient_Swatch_1-11);stroke:url(#New_Gradient_Swatch_1-12);}.cls-143{fill:#fff;}.cls-144{stroke:url(#New_Gradient_Swatch_1-13);}.cls-145{fill:url(#New_Gradient_Swatch_1-14);stroke:url(#New_Gradient_Swatch_1-15);}.cls-146{stroke:url(#New_Gradient_Swatch_1-16);}.cls-147{fill:url(#New_Gradient_Swatch_1-17);stroke:url(#New_Gradient_Swatch_1-18);}.cls-148{fill:url(#New_Gradient_Swatchsfdsf-29);}.cls-149{fill:url(#New_Gradient_Swatchsfdsf-30);}.cls-150{fill:url(#New_Gradient_Swatchsfdsf-31);}</style><linearGradient id="New_Gradient_Swatchsfdsf" x1="768.06" y1="426.2" x2="478.06" y2="426.2" gradientUnits="userSpaceOnUse"><stop offset="0" stop-color="#f0f"/><stop offset="1" stop-color="#662d90"/></linearGradient><linearGradient id="New_Gradient_Swatchsfdsf-2" x1="768.06" y1="320.67" x2="478.06" y2="320.67" xlink:href="#New_Gradient_Swatchsfdsf"/><linearGradient id="New_Gradient_Swatchsfdsf-3" x1="796.56" y1="541" x2="796.56" y2="305.98" xlink:href="#New_Gradient_Swatchsfdsf"/><linearGradient id="New_Gradient_Swatchsfdsf-4" x1="796.56" y1="541" x2="796.56" y2="305.98" xlink:href="#New_Gradient_Swatchsfdsf"/><linearGradient id="New_Gradient_Swatchsfdsf-5" x1="1115.06" y1="423.22" x2="825.06" y2="423.22" xlink:href="#New_Gradient_Swatchsfdsf"/><linearGradient id="New_Gradient_Swatchsfdsf-6" x1="1115.06" y1="314.7" x2="825.06" y2="314.7" xlink:href="#New_Gradient_Swatchsfdsf"/><linearGradient id="New_Gradient_Swatch_2" x1="414.76" y1="148.56" x2="423.83" y2="148.56" gradientUnits="userSpaceOnUse"><stop offset="0" stop-color="#609"/><stop offset="1" stop-color="#133675"/></linearGradient><linearGradient id="New_Gradient_Swatch_2-2" x1="412.26" y1="148.56" x2="426.33" y2="148.56" xlink:href="#New_Gradient_Swatch_2"/><linearGradient id="New_Gradient_Swatch_2-3" x1="434.32" y1="148.56" x2="443.39" y2="148.56" xlink:href="#New_Gradient_Swatch_2"/><linearGradient id="New_Gradient_Swatch_2-4" x1="431.82" y1="148.56" x2="445.89" y2="148.56" xlink:href="#New_Gradient_Swatch_2"/><linearGradient id="New_Gradient_Swatch_2-5" x1="453.89" y1="148.56" x2="462.96" y2="148.56" xlink:href="#New_Gradient_Swatch_2"/><linearGradient id="New_Gradient_Swatch_2-6" x1="451.39" y1="148.56" x2="465.46" y2="148.56" xlink:href="#New_Gradient_Swatch_2"/><linearGradient id="New_Gradient_Swatch_2-7" x1="464.06" y1="222.44" x2="498.28" y2="222.44" xlink:href="#New_Gradient_Swatch_2"/><linearGradient id="New_Gradient_Swatch_2-8" x1="400" y1="205.83" x2="561.33" y2="205.83" xlink:href="#New_Gradient_Swatch_2"/><linearGradient id="New_Gradient_Swatch_2-9" x1="400" y1="148.56" x2="561.33" y2="148.56" xlink:href="#New_Gradient_Swatch_2"/><linearGradient id="New_Gradient_Swatch_2-10" x1="424.06" y1="209.11" x2="455.01" y2="209.11" xlink:href="#New_Gradient_Swatch_2"/><linearGradient id="New_Gradient_Swatch_2-11" x1="424.18" y1="235.24" x2="455.01" y2="235.24" xlink:href="#New_Gradient_Swatch_2"/><linearGradient id="New_Gradient_Swatch_2-12" x1="507.06" y1="208.11" x2="538.01" y2="208.11" xlink:href="#New_Gradient_Swatch_2"/><linearGradient id="New_Gradient_Swatch_2-13" x1="507.06" y1="234.24" x2="537.89" y2="234.24" xlink:href="#New_Gradient_Swatch_2"/><linearGradient id="New_Gradient_Swatch_2-14" x1="685.61" y1="197.92" x2="906.54" y2="197.92" xlink:href="#New_Gradient_Swatch_2"/><linearGradient id="New_Gradient_Swatch_2-15" x1="751.25" y1="283" x2="838.31" y2="283" xlink:href="#New_Gradient_Swatch_2"/><linearGradient id="New_Gradient_Swatch_2-16" x1="715.84" y1="232.47" x2="720.84" y2="232.47" xlink:href="#New_Gradient_Swatch_2"/><linearGradient id="New_Gradient_Swatch_2-17" x1="733.76" y1="218.22" x2="738.76" y2="218.22" xlink:href="#New_Gradient_Swatch_2"/><linearGradient id="New_Gradient_Swatch_2-18" x1="751.69" y1="222.97" x2="756.69" y2="222.97" xlink:href="#New_Gradient_Swatch_2"/><linearGradient id="New_Gradient_Swatch_2-19" x1="769.61" y1="214.33" x2="774.61" y2="214.33" xlink:href="#New_Gradient_Swatch_2"/><linearGradient id="New_Gradient_Swatch_2-20" x1="787.53" y1="200.51" x2="792.53" y2="200.51" xlink:href="#New_Gradient_Swatch_2"/><linearGradient id="New_Gradient_Swatch_2-21" x1="822.51" y1="241.54" x2="875.88" y2="241.54" xlink:href="#New_Gradient_Swatch_2"/><linearGradient id="New_Gradient_Swatch_2-22" x1="821.65" y1="223.4" x2="875.02" y2="223.4" xlink:href="#New_Gradient_Swatch_2"/><linearGradient id="New_Gradient_Swatch_2-23" x1="822.08" y1="178.49" x2="875.45" y2="178.49" xlink:href="#New_Gradient_Swatch_2"/><linearGradient id="New_Gradient_Swatch_2-24" x1="849.72" y1="177.63" x2="875.02" y2="177.63" xlink:href="#New_Gradient_Swatch_2"/><linearGradient id="New_Gradient_Swatch_2-25" x1="850.56" y1="170.07" x2="868" y2="170.07" xlink:href="#New_Gradient_Swatch_2"/><linearGradient id="New_Gradient_Swatch_2-26" x1="849.67" y1="169.96" x2="868.62" y2="169.96" xlink:href="#New_Gradient_Swatch_2"/><linearGradient id="New_Gradient_Swatch_2-27" x1="1076.44" y1="204.83" x2="1182.06" y2="204.83" xlink:href="#New_Gradient_Swatch_2"/><linearGradient id="New_Gradient_Swatch_2-28" x1="1056.58" y1="204.83" x2="1081.01" y2="204.83" xlink:href="#New_Gradient_Swatch_2"/><linearGradient id="New_Gradient_Swatch_2-29" x1="1107.1" y1="182.38" x2="1164.79" y2="182.38" xlink:href="#New_Gradient_Swatch_2"/><linearGradient id="New_Gradient_Swatch_2-30" x1="1107.1" y1="205.27" x2="1164.79" y2="205.27" xlink:href="#New_Gradient_Swatch_2"/><linearGradient id="New_Gradient_Swatch_2-31" x1="1107.1" y1="229.45" x2="1164.79" y2="229.45" xlink:href="#New_Gradient_Swatch_2"/><linearGradient id="New_Gradient_Swatch_2-32" x1="1093.72" y1="182.38" x2="1103.03" y2="182.38" xlink:href="#New_Gradient_Swatch_2"/><linearGradient id="New_Gradient_Swatch_2-33" x1="1093.72" y1="205.7" x2="1103.03" y2="205.7" xlink:href="#New_Gradient_Swatch_2"/><linearGradient id="New_Gradient_Swatch_2-34" x1="1093.72" y1="229.88" x2="1103.03" y2="229.88" xlink:href="#New_Gradient_Swatch_2"/><linearGradient id="New_Gradient_Swatch_2-35" x1="1044.92" y1="148.26" x2="1073.24" y2="148.26" xlink:href="#New_Gradient_Swatch_2"/><linearGradient id="New_Gradient_Swatch_2-36" x1="1044.92" y1="176.55" x2="1073.24" y2="176.55" xlink:href="#New_Gradient_Swatch_2"/><linearGradient id="New_Gradient_Swatch_2-37" x1="1044.92" y1="204.83" x2="1073.24" y2="204.83" xlink:href="#New_Gradient_Swatch_2"/><linearGradient id="New_Gradient_Swatch_2-38" x1="1044.92" y1="233.12" x2="1073.24" y2="233.12" xlink:href="#New_Gradient_Swatch_2"/><linearGradient id="New_Gradient_Swatch_2-39" x1="1044.92" y1="261.41" x2="1073.24" y2="261.41" xlink:href="#New_Gradient_Swatch_2"/><clipPath id="clip-path"><circle class="cls-1" cx="318.53" cy="1526.32" r="107.91"/></clipPath><linearGradient id="New_Gradient_Swatch_2-40" x1="283.09" y1="1570.28" x2="298.28" y2="1570.28" xlink:href="#New_Gradient_Swatch_2"/><linearGradient id="New_Gradient_Swatch_2-41" x1="227.23" y1="1524.43" x2="270.16" y2="1524.43" xlink:href="#New_Gradient_Swatch_2"/><linearGradient id="New_Gradient_Swatch_2-42" x1="255.16" y1="1506.85" x2="298.09" y2="1506.85" xlink:href="#New_Gradient_Swatch_2"/><linearGradient id="New_Gradient_Swatch_2-43" x1="311.02" y1="1507.37" x2="353.94" y2="1507.37" xlink:href="#New_Gradient_Swatch_2"/><linearGradient id="New_Gradient_Swatch_2-44" x1="310.89" y1="1603.06" x2="326.02" y2="1603.06" xlink:href="#New_Gradient_Swatch_2"/><linearGradient id="New_Gradient_Swatch_2-45" x1="282.96" y1="1627.44" x2="298.09" y2="1627.44" xlink:href="#New_Gradient_Swatch_2"/><linearGradient id="New_Gradient_Swatch_2-46" x1="316.19" y1="1582.62" x2="432.56" y2="1466.25" xlink:href="#New_Gradient_Swatch_2"/><linearGradient id="New_Gradient_Swatch_2-47" x1="375.14" y1="1489.53" x2="429.45" y2="1435.22" xlink:href="#New_Gradient_Swatch_2"/><linearGradient id="New_Gradient_Swatch_2-48" x1="394.47" y1="1543.51" x2="409.99" y2="1527.99" xlink:href="#New_Gradient_Swatch_2"/><linearGradient id="New_Gradient_Swatch_1" x1="338.81" y1="1527.67" x2="353.94" y2="1527.67" xlink:href="#New_Gradient_Swatch_2"/><linearGradient id="New_Gradient_Swatch_2-49" x1="396.12" y1="1585.5" x2="408.35" y2="1573.27" xlink:href="#New_Gradient_Swatch_2"/><clipPath id="clip-path-2"><circle id="Database_-_Ring_-_Mask" data-name="Database - Ring - Mask" class="cls-1" cx="1281.63" cy="1532.59" r="106.57"/></clipPath><linearGradient id="New_Gradient_Swatch_2-50" x1="1269.95" y1="1496.36" x2="1292.15" y2="1496.36" xlink:href="#New_Gradient_Swatch_2"/><linearGradient id="New_Gradient_Swatch_1-2" x1="1269.95" y1="1530.22" x2="1292.15" y2="1530.22" xlink:href="#New_Gradient_Swatch_2"/><linearGradient id="New_Gradient_Swatch_1-3" x1="1299.92" y1="1496.36" x2="1322.12" y2="1496.36" xlink:href="#New_Gradient_Swatch_2"/><linearGradient id="New_Gradient_Swatch_2-51" x1="1299.92" y1="1530.22" x2="1322.12" y2="1530.22" xlink:href="#New_Gradient_Swatch_2"/><linearGradient id="New_Gradient_Swatch_2-52" x1="1299.92" y1="1564.22" x2="1322.12" y2="1564.22" xlink:href="#New_Gradient_Swatch_2"/><linearGradient id="New_Gradient_Swatch_2-53" x1="1269.92" y1="1440.36" x2="1292.12" y2="1440.36" xlink:href="#New_Gradient_Swatch_2"/><linearGradient id="New_Gradient_Swatch_2-54" x1="1269.92" y1="1621.36" x2="1292.12" y2="1621.36" xlink:href="#New_Gradient_Swatch_2"/><clipPath id="clip-path-3"><circle class="cls-1" cx="802.51" cy="1529.99" r="106.91"/></clipPath><linearGradient id="New_Gradient_Swatch_2-55" x1="849.28" y1="1518.64" x2="876.01" y2="1518.64" xlink:href="#New_Gradient_Swatch_2"/><linearGradient id="New_Gradient_Swatch_2-56" x1="849.28" y1="1556.72" x2="876.01" y2="1556.72" xlink:href="#New_Gradient_Swatch_2"/><linearGradient id="New_Gradient_Swatch_1-4" x1="811.2" y1="1556.72" x2="837.92" y2="1556.72" xlink:href="#New_Gradient_Swatch_2"/><linearGradient id="New_Gradient_Swatch_1-5" x1="729.68" y1="1554.72" x2="756.41" y2="1554.72" xlink:href="#New_Gradient_Swatch_2"/><linearGradient id="New_Gradient_Swatch_2-57" x1="770.44" y1="1596.81" x2="797.16" y2="1596.81" xlink:href="#New_Gradient_Swatch_2"/><linearGradient id="linear-gradient" x1="1082.95" y1="976" x2="1577.89" y2="976" gradientUnits="userSpaceOnUse"><stop offset="0" stop-color="#f0f"/><stop offset="1" stop-color="#133675"/></linearGradient><linearGradient id="linear-gradient-2" x1="14.13" y1="976" x2="509.07" y2="976" gradientUnits="userSpaceOnUse"><stop offset="0" stop-color="#133675"/><stop offset="1" stop-color="#f0f"/></linearGradient><linearGradient id="New_Gradient_Swatchsfdsf-7" x1="336.12" y1="1315.5" x2="695.12" y2="1315.5" gradientTransform="translate(40 20)" xlink:href="#New_Gradient_Swatchsfdsf"/><linearGradient id="New_Gradient_Swatchsfdsf-8" x1="872.12" y1="1335.5" x2="1224.12" y2="1335.5" xlink:href="#New_Gradient_Swatchsfdsf"/><linearGradient id="New_Gradient_Swatchsfdsf-9" x1="797.41" y1="1205.81" x2="886.27" y2="1310.02" xlink:href="#New_Gradient_Swatchsfdsf"/><linearGradient id="New_Gradient_Swatchsfdsf-10" x1="755.35" y1="1241.67" x2="844.21" y2="1345.88" xlink:href="#New_Gradient_Swatchsfdsf"/><linearGradient id="New_Gradient_Swatchsfdsf-11" x1="716.3" y1="1274.97" x2="805.16" y2="1379.18" xlink:href="#New_Gradient_Swatchsfdsf"/><linearGradient id="New_Gradient_Swatchsfdsf-12" x1="790.71" y1="1211.52" x2="879.57" y2="1315.73" xlink:href="#New_Gradient_Swatchsfdsf"/><linearGradient id="New_Gradient_Swatchsfdsf-13" x1="421.75" y1="1167.18" x2="504.14" y2="1244.8" xlink:href="#New_Gradient_Swatchsfdsf"/><linearGradient id="New_Gradient_Swatchsfdsf-14" x1="403.99" y1="1186.03" x2="486.38" y2="1263.65" xlink:href="#New_Gradient_Swatchsfdsf"/><linearGradient id="New_Gradient_Swatchsfdsf-15" x1="387.74" y1="1203.28" x2="470.13" y2="1280.9" xlink:href="#New_Gradient_Swatchsfdsf"/><linearGradient id="New_Gradient_Swatchsfdsf-16" x1="350.78" y1="1242.51" x2="433.17" y2="1320.13" xlink:href="#New_Gradient_Swatchsfdsf"/><linearGradient id="New_Gradient_Swatchsfdsf-17" x1="316.79" y1="1278.59" x2="399.18" y2="1356.21" xlink:href="#New_Gradient_Swatchsfdsf"/><linearGradient id="New_Gradient_Swatchsfdsf-18" x1="290.16" y1="1306.85" x2="372.55" y2="1384.48" xlink:href="#New_Gradient_Swatchsfdsf"/><linearGradient id="New_Gradient_Swatchsfdsf-19" x1="268.14" y1="1330.23" x2="350.53" y2="1407.85" xlink:href="#New_Gradient_Swatchsfdsf"/><linearGradient id="New_Gradient_Swatchsfdsf-20" x1="415.66" y1="1173.64" x2="498.05" y2="1251.26" xlink:href="#New_Gradient_Swatchsfdsf"/><linearGradient id="New_Gradient_Swatchsfdsf-21" x1="1123.53" y1="1205.42" x2="1251.44" y2="1401.34" xlink:href="#New_Gradient_Swatchsfdsf"/><linearGradient id="New_Gradient_Swatchsfdsf-22" x1="1107.05" y1="1216.18" x2="1234.96" y2="1412.1" xlink:href="#New_Gradient_Swatchsfdsf"/><linearGradient id="New_Gradient_Swatchsfdsf-23" x1="1093.71" y1="1224.89" x2="1221.61" y2="1420.81" xlink:href="#New_Gradient_Swatchsfdsf"/><linearGradient id="New_Gradient_Swatchsfdsf-24" x1="1148.62" y1="1189.04" x2="1276.53" y2="1384.96" xlink:href="#New_Gradient_Swatchsfdsf"/><linearGradient id="New_Gradient_Swatchsfdsf-25" x1="1198.98" y1="1156.16" x2="1326.89" y2="1352.08" xlink:href="#New_Gradient_Swatchsfdsf"/><linearGradient id="New_Gradient_Swatchsfdsf-26" x1="1175.9" y1="1171.23" x2="1303.81" y2="1367.15" xlink:href="#New_Gradient_Swatchsfdsf"/><linearGradient id="New_Gradient_Swatchsfdsf-27" x1="1155.35" y1="1184.65" x2="1283.25" y2="1380.57" xlink:href="#New_Gradient_Swatchsfdsf"/><linearGradient id="New_Gradient_Swatchsfdsf-28" x1="1117.1" y1="1209.62" x2="1245" y2="1405.54" xlink:href="#New_Gradient_Swatchsfdsf"/><linearGradient id="New_Gradient_Swatch_2-58" x1="383.79" y1="1125.23" x2="420.54" y2="1125.23" xlink:href="#New_Gradient_Swatch_2"/><linearGradient id="New_Gradient_Swatch_2-59" x1="404.1" y1="1106.13" x2="420.54" y2="1106.13" xlink:href="#New_Gradient_Swatch_2"/><linearGradient id="New_Gradient_Swatch_2-60" x1="368.86" y1="1142.57" x2="420.54" y2="1142.57" xlink:href="#New_Gradient_Swatch_2"/><linearGradient id="New_Gradient_Swatch_2-61" x1="390.1" y1="1106.13" x2="398.37" y2="1106.13" xlink:href="#New_Gradient_Swatch_2"/><linearGradient id="New_Gradient_Swatch_2-62" x1="385.11" y1="1081.85" x2="407.69" y2="1081.85" xlink:href="#New_Gradient_Swatch_2"/><linearGradient id="New_Gradient_Swatch_2-63" x1="394.63" y1="1081.62" x2="398.63" y2="1081.62" xlink:href="#New_Gradient_Swatch_2"/><linearGradient id="New_Gradient_Swatch_2-64" x1="426.02" y1="1127.17" x2="511.81" y2="1127.17" xlink:href="#New_Gradient_Swatch_2"/><linearGradient id="New_Gradient_Swatch_2-65" x1="481.59" y1="1071.09" x2="522.11" y2="1071.09" xlink:href="#New_Gradient_Swatch_2"/><linearGradient id="New_Gradient_Swatch_2-66" x1="512.81" y1="1126.59" x2="553.33" y2="1126.59" xlink:href="#New_Gradient_Swatch_2"/><linearGradient id="New_Gradient_Swatch_2-67" x1="699.27" y1="1144.34" x2="750.95" y2="1144.34" xlink:href="#New_Gradient_Swatch_2"/><linearGradient id="New_Gradient_Swatch_2-68" x1="689.79" y1="1126.99" x2="758.95" y2="1126.99" xlink:href="#New_Gradient_Swatch_2"/><linearGradient id="New_Gradient_Swatch_2-69" x1="720.01" y1="1107.89" x2="750.95" y2="1107.89" xlink:href="#New_Gradient_Swatch_2"/><linearGradient id="New_Gradient_Swatch_2-70" x1="702.1" y1="1107.89" x2="710.37" y2="1107.89" xlink:href="#New_Gradient_Swatch_2"/><linearGradient id="New_Gradient_Swatch_2-71" x1="718.11" y1="1083.62" x2="740.69" y2="1083.62" xlink:href="#New_Gradient_Swatch_2"/><linearGradient id="New_Gradient_Swatch_2-72" x1="725.63" y1="1083.62" x2="733.16" y2="1083.62" xlink:href="#New_Gradient_Swatch_2"/><linearGradient id="New_Gradient_Swatch_2-73" x1="759.02" y1="1127.17" x2="844.81" y2="1127.17" xlink:href="#New_Gradient_Swatch_2"/><linearGradient id="New_Gradient_Swatch_2-74" x1="814.59" y1="1071.09" x2="855.11" y2="1071.09" xlink:href="#New_Gradient_Swatch_2"/><linearGradient id="New_Gradient_Swatch_2-75" x1="845.81" y1="1126.59" x2="886.33" y2="1126.59" xlink:href="#New_Gradient_Swatch_2"/><linearGradient id="New_Gradient_Swatch_2-76" x1="1016.79" y1="1126.99" x2="1085.95" y2="1126.99" xlink:href="#New_Gradient_Swatch_2"/><linearGradient id="New_Gradient_Swatch_2-77" x1="1047.01" y1="1107.89" x2="1077.95" y2="1107.89" xlink:href="#New_Gradient_Swatch_2"/><linearGradient id="New_Gradient_Swatch_2-78" x1="1026.27" y1="1144.34" x2="1077.95" y2="1144.34" xlink:href="#New_Gradient_Swatch_2"/><linearGradient id="New_Gradient_Swatch_2-79" x1="1029.1" y1="1107.89" x2="1037.37" y2="1107.89" xlink:href="#New_Gradient_Swatch_2"/><linearGradient id="New_Gradient_Swatch_2-80" x1="1045.11" y1="1083.62" x2="1067.69" y2="1083.62" xlink:href="#New_Gradient_Swatch_2"/><linearGradient id="New_Gradient_Swatch_2-81" x1="1052.63" y1="1083.62" x2="1060.16" y2="1083.62" xlink:href="#New_Gradient_Swatch_2"/><linearGradient id="New_Gradient_Swatch_2-82" x1="1086.02" y1="1127.17" x2="1171.81" y2="1127.17" xlink:href="#New_Gradient_Swatch_2"/><linearGradient id="New_Gradient_Swatch_2-83" x1="1141.59" y1="1071.09" x2="1182.11" y2="1071.09" xlink:href="#New_Gradient_Swatch_2"/><linearGradient id="New_Gradient_Swatch_2-84" x1="1172.81" y1="1126.59" x2="1213.33" y2="1126.59" xlink:href="#New_Gradient_Swatch_2"/><linearGradient id="New_Gradient_Swatch_1-6" x1="963.04" y1="869.3" x2="992.39" y2="898.65" xlink:href="#New_Gradient_Swatch_2"/><linearGradient id="New_Gradient_Swatch_1-7" x1="1592" y1="898.65" x2="1621.35" y2="869.3" gradientTransform="matrix(-1, 0, 0, 1, 2537.75, 0)" xlink:href="#New_Gradient_Swatch_2"/><linearGradient id="New_Gradient_Swatch_1-8" x1="646.27" y1="869.3" x2="675.62" y2="898.65" xlink:href="#New_Gradient_Swatch_2"/><linearGradient id="New_Gradient_Swatch_1-9" x1="1908.77" y1="898.65" x2="1938.12" y2="869.3" gradientTransform="matrix(-1, 0, 0, 1, 2537.75, 0)" xlink:href="#New_Gradient_Swatch_2"/><linearGradient id="New_Gradient_Swatch_1-10" x1="718.78" y1="883.01" x2="873.23" y2="883.01" xlink:href="#New_Gradient_Swatch_2"/><linearGradient id="New_Gradient_Swatch_1-11" x1="721.28" y1="828.26" x2="870.73" y2="828.26" xlink:href="#New_Gradient_Swatch_2"/><linearGradient id="New_Gradient_Swatch_1-12" x1="718.78" y1="828.26" x2="873.23" y2="828.26" xlink:href="#New_Gradient_Swatch_2"/><linearGradient id="New_Gradient_Swatch_1-13" x1="1035.55" y1="883.01" x2="1190" y2="883.01" xlink:href="#New_Gradient_Swatch_2"/><linearGradient id="New_Gradient_Swatch_1-14" x1="1038.05" y1="828.26" x2="1187.5" y2="828.26" xlink:href="#New_Gradient_Swatch_2"/><linearGradient id="New_Gradient_Swatch_1-15" x1="1035.55" y1="828.26" x2="1190" y2="828.26" xlink:href="#New_Gradient_Swatch_2"/><linearGradient id="New_Gradient_Swatch_1-16" x1="402.01" y1="883.01" x2="556.46" y2="883.01" xlink:href="#New_Gradient_Swatch_2"/><linearGradient id="New_Gradient_Swatch_1-17" x1="404.51" y1="828.26" x2="553.96" y2="828.26" xlink:href="#New_Gradient_Swatch_2"/><linearGradient id="New_Gradient_Swatch_1-18" x1="402.01" y1="828.26" x2="556.46" y2="828.26" xlink:href="#New_Gradient_Swatch_2"/><linearGradient id="New_Gradient_Swatchsfdsf-29" x1="459.18" y1="1018.09" x2="485.02" y2="1018.09" xlink:href="#New_Gradient_Swatchsfdsf"/><linearGradient id="New_Gradient_Swatchsfdsf-30" x1="786.59" y1="1020" x2="812.43" y2="1020" xlink:href="#New_Gradient_Swatchsfdsf"/><linearGradient id="New_Gradient_Swatchsfdsf-31" x1="1113.13" y1="1018" x2="1138.97" y2="1018" xlink:href="#New_Gradient_Swatchsfdsf"/></defs><title>Rockset-Home-Illustration</title><g id="s"><polyline class="cls-2" points="480.56 313.39 480.56 413.15 765.57 413.15 765.57 539.01"/><polygon class="cls-3" points="460.12 329.96 463.78 333.37 480.56 315.31 497.35 333.37 501.01 329.96 480.56 307.97 460.12 329.96"/><line class="cls-4" x1="796.56" y1="311.4" x2="796.56" y2="541"/><polygon class="cls-5" points="776.12 327.97 779.78 331.38 796.56 313.32 813.35 331.38 817.01 327.97 796.56 305.98 776.12 327.97"/><polyline class="cls-6" points="1112.57 307.42 1112.57 413.15 827.57 413.15 827.57 539.01"/><polygon class="cls-7" points="1092.12 323.99 1095.78 327.4 1112.56 309.34 1129.35 327.4 1133.01 323.99 1112.56 302 1092.12 323.99"/><g id="Apps-C"><circle class="cls-8" cx="419.3" cy="148.56" r="4.53"/><circle class="cls-9" cx="438.86" cy="148.56" r="4.53"/><circle class="cls-10" cx="458.42" cy="148.56" r="4.53"/><line class="cls-11" x1="495.78" y1="196.38" x2="466.56" y2="248.5"/><rect class="cls-12" x="402.5" y="127.67" width="156.33" height="156.33" rx="10" ry="10"/><path class="cls-13" d="M412.5,127.83H548.83a10,10,0,0,1,10,10v31.46a0,0,0,0,1,0,0H402.5a0,0,0,0,1,0,0V137.83A10,10,0,0,1,412.5,127.83Z"/><line class="cls-14" x1="452.51" y1="196.14" x2="426.56" y2="222.08"/><line class="cls-15" x1="452.51" y1="248.4" x2="426.68" y2="222.08"/><line class="cls-16" x1="509.56" y1="195.14" x2="535.51" y2="221.08"/><line class="cls-17" x1="509.56" y1="247.4" x2="535.39" y2="221.08"/></g><g id="Dashboards-C"><rect class="cls-18" x="688.11" y="126.67" width="215.93" height="142.51" rx="10" ry="10"/><line class="cls-19" x1="753.75" y1="283" x2="835.81" y2="283"/><line class="cls-20" x1="718.34" y1="220.81" x2="718.34" y2="244.13"/><line class="cls-21" x1="736.26" y1="192.31" x2="736.26" y2="244.13"/><line class="cls-22" x1="754.19" y1="201.81" x2="754.19" y2="244.13"/><line class="cls-23" x1="772.11" y1="184.54" x2="772.11" y2="244.13"/><line class="cls-24" x1="790.03" y1="156.9" x2="790.03" y2="244.13"/><line class="cls-25" x1="825.01" y1="241.54" x2="873.38" y2="241.54"/><line class="cls-26" x1="824.15" y1="223.4" x2="872.52" y2="223.4"/><circle class="cls-27" cx="848.76" cy="178.49" r="24.18"/><line class="cls-28" x1="872.52" y1="177.63" x2="852.22" y2="177.63"/><polygon class="cls-29" points="868 165.76 855.57 178.5 850.57 176.5 865.61 161.65 868 165.76"/></g><g id="NoteBooks-C"><path class="cls-30" d="M1078.94,128.39h90.62a10,10,0,0,1,10,10V271.27a10,10,0,0,1-10,10h-90.62a0,0,0,0,1,0,0V128.39A0,0,0,0,1,1078.94,128.39Z"/><path class="cls-31" d="M1069.08,128.39h9.43a0,0,0,0,1,0,0V281.27a0,0,0,0,1,0,0h-9.43a10,10,0,0,1-10-10V138.39A10,10,0,0,1,1069.08,128.39Z"/><line class="cls-32" x1="1109.6" y1="182.38" x2="1162.29" y2="182.38"/><line class="cls-33" x1="1109.6" y1="205.27" x2="1162.29" y2="205.27"/><line class="cls-34" x1="1109.6" y1="229.45" x2="1162.29" y2="229.45"/><line class="cls-35" x1="1096.22" y1="182.38" x2="1100.53" y2="182.38"/><line class="cls-36" x1="1096.22" y1="205.7" x2="1100.53" y2="205.7"/><line class="cls-37" x1="1096.22" y1="229.88" x2="1100.53" y2="229.88"/><rect class="cls-38" x="1047.42" y="139.19" width="23.32" height="18.14" rx="4.49" ry="4.49"/><rect class="cls-39" x="1047.42" y="167.48" width="23.32" height="18.14" rx="4.49" ry="4.49"/><rect class="cls-40" x="1047.42" y="195.76" width="23.32" height="18.14" rx="4.49" ry="4.49"/><rect class="cls-41" x="1047.42" y="224.05" width="23.32" height="18.14" rx="4.49" ry="4.49"/><rect class="cls-42" x="1047.42" y="252.34" width="23.32" height="18.14" rx="4.49" ry="4.49"/></g><path class="cls-43" d="M361.27,40.69h4.51l10.66,31.5h-4.28l-3-9.61H357.71l-3,9.61h-4.08Zm-2.55,18.68h9.46l-1.49-4.8c-1.15-3.51-2.16-7-3.17-10.61h-.19c-1,3.65-2,7.1-3.12,10.61Z"/><path class="cls-43" d="M380.51,48.86h3.27l.33,2.68h.15c2.11-1.77,4.7-3.26,7.44-3.26,6,0,9.21,4.66,9.21,11.9,0,7.92-4.75,12.58-10.08,12.58a10.82,10.82,0,0,1-6.48-2.69l.1,4.08V82h-3.94Zm16.32,11.32c0-5.13-1.72-8.59-6.14-8.59-2,0-3.94,1.11-6.24,3.17V67a9.22,9.22,0,0,0,5.71,2.45C394,69.45,396.83,65.94,396.83,60.18Z"/><path class="cls-43" d="M407.15,48.86h3.27l.33,2.68h.15c2.11-1.77,4.7-3.26,7.44-3.26,6,0,9.21,4.66,9.21,11.9,0,7.92-4.75,12.58-10.08,12.58A10.82,10.82,0,0,1,411,70.07l.1,4.08V82h-3.94Zm16.32,11.32c0-5.13-1.72-8.59-6.14-8.59-2,0-3.94,1.11-6.24,3.17V67a9.22,9.22,0,0,0,5.71,2.45C420.64,69.45,423.47,65.94,423.47,60.18Z"/><path class="cls-43" d="M433.79,67.48V38h3.94V67.77c0,1.25.53,1.73,1.1,1.73a3.21,3.21,0,0,0,.87-.1l.53,3a5.36,5.36,0,0,1-2.26.38C435,72.76,433.79,70.89,433.79,67.48Z"/><path class="cls-43" d="M445.31,41.51a2.74,2.74,0,0,1,5.47,0,2.74,2.74,0,0,1-5.47,0Zm.72,7.35H450V72.19H446Z"/><path class="cls-43" d="M456.11,60.57c0-7.83,5.23-12.29,11.23-12.29A9.67,9.67,0,0,1,474.16,51l-2,2.59a6.83,6.83,0,0,0-4.65-2.07c-4.23,0-7.3,3.65-7.3,9s2.93,8.93,7.2,8.93a8.27,8.27,0,0,0,5.47-2.36l1.73,2.65a11.37,11.37,0,0,1-7.53,3C460.86,72.76,456.11,68.3,456.11,60.57Z"/><path class="cls-43" d="M477.81,66.14c0-5.09,4.37-7.64,14.3-8.74,0-3-1-5.86-4.8-5.86a12.68,12.68,0,0,0-7,2.5l-1.54-2.74a17.38,17.38,0,0,1,9.17-3c5.72,0,8.12,3.79,8.12,9.6V72.19h-3.27l-.33-2.79h-.15c-2.21,1.82-4.8,3.36-7.73,3.36C480.74,72.76,477.81,70.31,477.81,66.14Zm14.3.33V60c-7.77,1-10.46,2.88-10.46,5.86,0,2.64,1.82,3.74,4.13,3.74S489.86,68.49,492.11,66.47Z"/><path class="cls-43" d="M503.44,65V52.07H500v-3l3.65-.24.48-6.53h3.31v6.53h6.29v3.21h-6.29V65c0,2.88.92,4.51,3.6,4.51a8.34,8.34,0,0,0,2.64-.62l.77,3a14.42,14.42,0,0,1-4.32.86C505.12,72.76,503.44,69.59,503.44,65Z"/><path class="cls-43" d="M518.27,41.51a2.74,2.74,0,0,1,5.47,0,2.74,2.74,0,0,1-5.47,0Zm.72,7.35h3.94V72.19H519Z"/><path class="cls-43" d="M529.07,60.57c0-7.83,5.09-12.29,10.8-12.29s10.8,4.46,10.8,12.29-5.09,12.19-10.8,12.19S529.07,68.3,529.07,60.57Zm17.52,0c0-5.38-2.69-9-6.72-9s-6.72,3.65-6.72,9,2.74,8.93,6.72,8.93S546.59,65.9,546.59,60.57Z"/><path class="cls-43" d="M556.81,48.86h3.27l.34,3.35h.14c2.21-2.2,4.61-3.93,7.82-3.93,4.9,0,7.11,3.17,7.11,9.12V72.19h-3.94V57.93c0-4.37-1.34-6.24-4.41-6.24-2.4,0-4,1.25-6.39,3.6v16.9h-3.94Z"/><path class="cls-43" d="M580.48,69.54l2-2.64a10.44,10.44,0,0,0,6.86,2.79c3.07,0,4.61-1.63,4.61-3.65,0-2.4-2.78-3.46-5.33-4.42-3.31-1.2-7-2.78-7-6.72,0-3.74,3-6.62,8-6.62a11.65,11.65,0,0,1,7.25,2.64L595,53.42a8.59,8.59,0,0,0-5.33-2.07c-2.92,0-4.27,1.59-4.27,3.36,0,2.21,2.55,3,5.19,4,3.36,1.25,7.1,2.64,7.1,7.06,0,3.79-3,7-8.54,7A14,14,0,0,1,580.48,69.54Z"/><path class="cls-43" d="M680.36,40.69h7.88c9.69,0,14.88,5.62,14.88,15.61s-5.19,15.89-14.69,15.89h-8.07ZM688,68.92c7.34,0,11-4.66,11-12.62S695.29,44,688,44h-3.6v25Z"/><path class="cls-43" d="M708.06,66.14c0-5.09,4.37-7.64,14.31-8.74,0-3-1-5.86-4.81-5.86a12.71,12.71,0,0,0-7,2.5l-1.53-2.74a17.32,17.32,0,0,1,9.17-3c5.71,0,8.11,3.79,8.11,9.6V72.19h-3.26l-.34-2.79h-.15c-2.2,1.82-4.79,3.36-7.72,3.36C711,72.76,708.06,70.31,708.06,66.14Zm14.31.33V60c-7.78,1-10.47,2.88-10.47,5.86,0,2.64,1.83,3.74,4.13,3.74S720.11,68.49,722.37,66.47Z"/><path class="cls-43" d="M731.1,69.54l2-2.64a10.44,10.44,0,0,0,6.86,2.79c3.08,0,4.61-1.63,4.61-3.65,0-2.4-2.78-3.46-5.33-4.42-3.31-1.2-7-2.78-7-6.72,0-3.74,3-6.62,8-6.62a11.65,11.65,0,0,1,7.25,2.64l-1.87,2.5a8.64,8.64,0,0,0-5.33-2.07c-2.93,0-4.28,1.59-4.28,3.36,0,2.21,2.55,3,5.19,4,3.36,1.25,7.1,2.64,7.1,7.06,0,3.79-3,7-8.54,7A14,14,0,0,1,731.1,69.54Z"/><path class="cls-43" d="M753.8,38h3.94v9.31l-.14,4.8c2.2-2.11,4.56-3.84,7.77-3.84,4.9,0,7.11,3.17,7.11,9.12V72.19h-3.94V57.93c0-4.37-1.34-6.24-4.42-6.24-2.39,0-4,1.25-6.38,3.6v16.9H753.8Z"/><path class="cls-43" d="M783.56,69.79h-.14l-.34,2.4h-3.16V38h3.93v9.31l-.09,4.22a11.52,11.52,0,0,1,7.29-3.26c6.05,0,9.27,4.66,9.27,11.86,0,8-4.76,12.62-10.08,12.62A10.49,10.49,0,0,1,783.56,69.79Zm12.68-9.61c0-5.13-1.73-8.59-6.15-8.59-2,0-4,1.11-6.24,3.17V67a9.13,9.13,0,0,0,5.71,2.45C793.4,69.45,796.24,65.94,796.24,60.18Z"/><path class="cls-43" d="M804.73,60.57c0-7.83,5.09-12.29,10.8-12.29s10.8,4.46,10.8,12.29-5.09,12.19-10.8,12.19S804.73,68.3,804.73,60.57Zm17.52,0c0-5.38-2.69-9-6.72-9s-6.72,3.65-6.72,9,2.74,8.93,6.72,8.93S822.25,65.9,822.25,60.57Z"/><path class="cls-43" d="M830.36,66.14c0-5.09,4.37-7.64,14.31-8.74,0-3-1-5.86-4.8-5.86a12.65,12.65,0,0,0-7,2.5l-1.54-2.74a17.35,17.35,0,0,1,9.17-3c5.71,0,8.11,3.79,8.11,9.6V72.19h-3.26l-.34-2.79h-.14c-2.21,1.82-4.8,3.36-7.73,3.36C833.29,72.76,830.36,70.31,830.36,66.14Zm14.31.33V60c-7.78,1-10.47,2.88-10.47,5.86,0,2.64,1.83,3.74,4.13,3.74S842.41,68.49,844.67,66.47Z"/><path class="cls-43" d="M856,48.86h3.26l.34,4.22h.14c1.58-2.93,4-4.8,6.62-4.8a5.75,5.75,0,0,1,2.5.48l-.77,3.45a6.5,6.5,0,0,0-2.25-.38c-2,0-4.32,1.44-5.91,5.38v15H856Z"/><path class="cls-43" d="M870.49,60.57c0-7.59,4.8-12.29,10.13-12.29,2.69,0,4.46,1,6.53,2.69L887,47V38h4V72.19h-3.26l-.34-2.74h-.14a10.56,10.56,0,0,1-7.06,3.31C874.28,72.76,870.49,68.34,870.49,60.57ZM887,66.23V54a8.12,8.12,0,0,0-5.67-2.45c-3.74,0-6.72,3.6-6.72,8.93,0,5.57,2.35,8.93,6.43,8.93C883.16,69.45,885,68.39,887,66.23Z"/><path class="cls-43" d="M896.22,69.54l2-2.64a10.44,10.44,0,0,0,6.86,2.79c3.07,0,4.61-1.63,4.61-3.65,0-2.4-2.79-3.46-5.33-4.42-3.31-1.2-7-2.78-7-6.72,0-3.74,3-6.62,8-6.62a11.68,11.68,0,0,1,7.25,2.64l-1.88,2.5a8.59,8.59,0,0,0-5.33-2.07c-2.92,0-4.27,1.59-4.27,3.36,0,2.21,2.55,3,5.19,4,3.36,1.25,7.1,2.64,7.1,7.06,0,3.79-3,7-8.54,7A14,14,0,0,1,896.22,69.54Z"/><path class="cls-43" d="M1015.3,40.69h4.13l11.38,19.78,3.41,6.53h.19c-.19-3.17-.48-6.72-.48-10V40.69h3.79v31.5h-4.13l-11.42-19.83-3.41-6.48h-.19c.24,3.17.53,6.53.53,9.84V72.19h-3.8Z"/><path class="cls-43" d="M1044.25,60.57c0-7.83,5.09-12.29,10.8-12.29s10.8,4.46,10.8,12.29-5.09,12.19-10.8,12.19S1044.25,68.3,1044.25,60.57Zm17.52,0c0-5.38-2.69-9-6.72-9s-6.72,3.65-6.72,9,2.73,8.93,6.72,8.93S1061.77,65.9,1061.77,60.57Z"/><path class="cls-43" d="M1071.85,65V52.07h-3.46v-3l3.65-.24.48-6.53h3.31v6.53h6.29v3.21h-6.29V65c0,2.88.91,4.51,3.6,4.51a8.4,8.4,0,0,0,2.64-.62l.77,3a14.49,14.49,0,0,1-4.32.86C1073.53,72.76,1071.85,69.59,1071.85,65Z"/><path class="cls-43" d="M1085,60.57c0-7.63,5.14-12.29,10.46-12.29,6,0,9.32,4.27,9.32,10.94a14.72,14.72,0,0,1-.15,2.26h-15.74c.29,4.94,3.31,8.11,7.77,8.11a10.58,10.58,0,0,0,5.81-1.82l1.4,2.59a13.9,13.9,0,0,1-7.69,2.4C1089.94,72.76,1085,68.2,1085,60.57Zm16.32-1.92c0-4.71-2.11-7.25-5.76-7.25-3.26,0-6.24,2.64-6.72,7.25Z"/><path class="cls-43" d="M1114.18,69.79H1114l-.34,2.4h-3.17V38h3.94v9.31l-.1,4.22a11.56,11.56,0,0,1,7.3-3.26c6,0,9.27,4.66,9.27,11.86,0,8-4.76,12.62-10.09,12.62A10.46,10.46,0,0,1,1114.18,69.79Zm12.68-9.61c0-5.13-1.73-8.59-6.15-8.59-2,0-4,1.11-6.24,3.17V67a9.11,9.11,0,0,0,5.71,2.45C1124,69.45,1126.86,65.94,1126.86,60.18Z"/><path class="cls-43" d="M1135.35,60.57c0-7.83,5.09-12.29,10.8-12.29s10.8,4.46,10.8,12.29-5.09,12.19-10.8,12.19S1135.35,68.3,1135.35,60.57Zm17.52,0c0-5.38-2.69-9-6.72-9s-6.72,3.65-6.72,9,2.74,8.93,6.72,8.93S1152.87,65.9,1152.87,60.57Z"/><path class="cls-43" d="M1161.37,60.57c0-7.83,5.08-12.29,10.8-12.29s10.8,4.46,10.8,12.29-5.09,12.19-10.8,12.19S1161.37,68.3,1161.37,60.57Zm17.52,0c0-5.38-2.69-9-6.72-9s-6.72,3.65-6.72,9,2.73,8.93,6.72,8.93S1178.89,65.9,1178.89,60.57Z"/><path class="cls-43" d="M1189.11,38H1193V61.14h.14l9.94-12.28h4.37l-7.83,9.36,8.88,14h-4.32L1197.37,61,1193,66v6.15h-3.89Z"/><path class="cls-43" d="M1210.28,69.54l2-2.64a10.44,10.44,0,0,0,6.86,2.79c3.07,0,4.61-1.63,4.61-3.65,0-2.4-2.79-3.46-5.33-4.42-3.31-1.2-7-2.78-7-6.72,0-3.74,3-6.62,8-6.62a11.63,11.63,0,0,1,7.24,2.64l-1.87,2.5a8.59,8.59,0,0,0-5.33-2.07c-2.92,0-4.27,1.59-4.27,3.36,0,2.21,2.55,3,5.19,4,3.36,1.25,7.1,2.64,7.1,7.06,0,3.79-3,7-8.54,7A14,14,0,0,1,1210.28,69.54Z"/><line class="cls-44" x1="889.12" y1="521.38" x2="895.12" y2="521.38"/><line class="cls-45" x1="907.46" y1="521.38" x2="1197.45" y2="521.38"/><line class="cls-44" x1="1203.62" y1="521.38" x2="1209.62" y2="521.38"/><path class="cls-43" d="M1255.18,532.73l2.8-3.24a14.4,14.4,0,0,0,10.14,4.59c4.81,0,7.67-2.41,7.67-6,0-3.75-2.63-4.92-6.11-6.49l-5.26-2.3c-3.47-1.45-7.45-4.08-7.45-9.46,0-5.6,4.87-9.75,11.54-9.75a15.22,15.22,0,0,1,10.86,4.54l-2.52,3a11.71,11.71,0,0,0-8.34-3.48c-4.09,0-6.83,2.08-6.83,5.38,0,3.53,3.19,4.87,6.1,6.1l5.21,2.24c4.25,1.85,7.56,4.37,7.56,9.8,0,5.83-4.76,10.48-12.49,10.48A17.8,17.8,0,0,1,1255.18,532.73Z"/><path class="cls-43" d="M1299,538c-8-1.12-13.39-8.24-13.39-19,0-11.76,6.44-18.88,15.68-18.88s15.74,7.17,15.74,18.88c0,10.58-5.21,17.64-13,19,1.68,3.25,5,4.87,9,4.87a14.1,14.1,0,0,0,3.87-.5l.89,3.58a15.29,15.29,0,0,1-5.26.84A14.06,14.06,0,0,1,1299,538Zm13.16-19c0-9.13-4.31-14.79-10.87-14.79s-10.86,5.66-10.86,14.79c0,9.41,4.31,15.34,10.86,15.34S1312.19,528.37,1312.19,519Z"/><path class="cls-43" d="M1325,500.76h4.64v32.76h16.08v4H1325Z"/><path class="cls-43" d="M1360.91,523.94c0-9.13,5.93-14.33,12.6-14.33s12.6,5.2,12.6,14.33-5.94,14.23-12.6,14.23S1360.91,533,1360.91,523.94Zm20.44,0c0-6.27-3.14-10.53-7.84-10.53s-7.84,4.26-7.84,10.53,3.19,10.42,7.84,10.42S1381.35,530.16,1381.35,523.94Z"/><path class="cls-43" d="M1389.13,510.28h4.76l5.15,15.45c.79,2.69,1.68,5.44,2.52,8h.23c.78-2.57,1.68-5.32,2.46-8l5.15-15.45h4.54l-9.63,27.21h-5.38Z"/><path class="cls-43" d="M1417,523.94c0-8.9,6-14.33,12.21-14.33,6.94,0,10.86,5,10.86,12.76a18.07,18.07,0,0,1-.16,2.63H1421.5c.33,5.77,3.86,9.47,9.07,9.47a12.3,12.3,0,0,0,6.78-2.13l1.62,3a16.21,16.21,0,0,1-9,2.8C1422.73,538.17,1417,532.84,1417,523.94Zm19-2.24c0-5.49-2.46-8.45-6.72-8.45-3.81,0-7.28,3.08-7.84,8.45Z"/><path class="cls-43" d="M1446.75,510.28h3.81l.39,4.93h.17c1.85-3.42,4.65-5.6,7.73-5.6a6.61,6.61,0,0,1,2.91.56l-.89,4a7.68,7.68,0,0,0-2.64-.45c-2.29,0-5,1.68-6.88,6.27v17.47h-4.6Z"/><path class="cls-43" d="M1477.83,500.76h11.48c7.51,0,12.88,2.69,12.88,10.3,0,5.71-3.25,9.19-8.29,10.42l9.36,16H1498L1489.14,522h-6.66v15.51h-4.65Zm10.81,17.41c5.71,0,8.9-2.35,8.9-7.11s-3.19-6.55-8.9-6.55h-6.16v13.66Z"/><path class="cls-43" d="M1509.7,500.76h21.16v3.92h-16.52v11.53h14v4h-14v13.33h17.08v4H1509.7Z"/><path class="cls-43" d="M1536.52,532.73l2.8-3.24a14.4,14.4,0,0,0,10.14,4.59c4.81,0,7.67-2.41,7.67-6,0-3.75-2.63-4.92-6.11-6.49l-5.26-2.3c-3.47-1.45-7.45-4.08-7.45-9.46,0-5.6,4.87-9.75,11.54-9.75a15.22,15.22,0,0,1,10.86,4.54l-2.52,3a11.71,11.71,0,0,0-8.34-3.48c-4.09,0-6.83,2.08-6.83,5.38,0,3.53,3.19,4.87,6.1,6.1l5.21,2.24c4.25,1.85,7.56,4.37,7.56,9.8,0,5.83-4.76,10.48-12.49,10.48A17.8,17.8,0,0,1,1536.52,532.73Z"/><path class="cls-43" d="M1575.61,504.68h-11.09v-3.92h26.88v3.92h-11.09v32.81h-4.7Z"/><line class="cls-44" x1="1584.62" y1="1334.5" x2="1590.62" y2="1334.5"/><line class="cls-46" x1="1602.64" y1="1334.5" x2="1813.11" y2="1334.5"/><line class="cls-44" x1="1819.12" y1="1334.5" x2="1825.12" y2="1334.5"/><path class="cls-43" d="M1860.12,1345.88l2.8-3.25a14.36,14.36,0,0,0,10.14,4.59c4.81,0,7.67-2.4,7.67-6,0-3.75-2.63-4.93-6.11-6.49l-5.26-2.3c-3.47-1.46-7.45-4.09-7.45-9.46,0-5.6,4.87-9.75,11.54-9.75a15.22,15.22,0,0,1,10.86,4.54l-2.52,3a11.71,11.71,0,0,0-8.34-3.47c-4.09,0-6.83,2.07-6.83,5.38,0,3.52,3.19,4.87,6.1,6.1l5.21,2.24c4.25,1.85,7.56,4.37,7.56,9.8,0,5.82-4.76,10.47-12.49,10.47A17.83,17.83,0,0,1,1860.12,1345.88Z"/><path class="cls-43" d="M1890.25,1337.09c0-9.13,6.1-14.34,13.1-14.34a11.26,11.26,0,0,1,8,3.2l-2.35,3a8,8,0,0,0-5.43-2.41c-4.93,0-8.51,4.26-8.51,10.53s3.41,10.41,8.4,10.41a9.67,9.67,0,0,0,6.38-2.74l2,3.08a13.32,13.32,0,0,1-8.79,3.47C1895.79,1351.31,1890.25,1346.1,1890.25,1337.09Z"/><path class="cls-43" d="M1917.8,1310.77h4.59v10.86l-.17,5.6c2.58-2.46,5.32-4.48,9.08-4.48,5.71,0,8.28,3.7,8.28,10.64v17.25H1935V1334c0-5.1-1.57-7.28-5.15-7.28-2.8,0-4.7,1.45-7.45,4.2v19.71h-4.59Z"/><path class="cls-43" d="M1946.25,1337.09c0-8.91,6-14.34,12.21-14.34,6.94,0,10.86,5,10.86,12.77a18,18,0,0,1-.17,2.63h-18.37c.34,5.77,3.87,9.47,9.08,9.47a12.26,12.26,0,0,0,6.77-2.13l1.63,3a16.26,16.26,0,0,1-9,2.8C1952,1351.31,1946.25,1346,1946.25,1337.09Zm19-2.24c0-5.49-2.47-8.46-6.72-8.46-3.81,0-7.28,3.08-7.84,8.46Z"/><path class="cls-43" d="M1976,1323.42h3.81l.39,3.92h.17c2.35-2.57,5.21-4.59,8.45-4.59,4.15,0,6.39,2,7.51,5.21,2.85-3.08,5.65-5.21,9-5.21,5.6,0,8.29,3.7,8.29,10.64v17.25H2009V1334c0-5.1-1.62-7.28-5-7.28-2.12,0-4.31,1.4-6.83,4.2v19.71h-4.59V1334c0-5.1-1.62-7.28-5.1-7.28-2,0-4.31,1.4-6.83,4.2v19.71H1976Z"/><path class="cls-43" d="M2020.78,1343.58c0-5.93,5.1-8.9,16.69-10.19,0-3.47-1.12-6.83-5.6-6.83a14.84,14.84,0,0,0-8.12,2.91l-1.79-3.19a20.24,20.24,0,0,1,10.69-3.53c6.67,0,9.47,4.43,9.47,11.2v16.69h-3.81l-.39-3.25h-.17c-2.58,2.13-5.6,3.92-9,3.92C2024.2,1351.31,2020.78,1348.46,2020.78,1343.58Zm16.69.4v-7.56c-9.07,1.12-12.21,3.36-12.21,6.83,0,3.08,2.13,4.37,4.82,4.37S2034.84,1346.33,2037.47,1344Z"/><path class="cls-43" d="M2050.69,1345.15v-34.38h4.59v34.72c0,1.46.61,2,1.29,2a3.86,3.86,0,0,0,1-.11l.62,3.48a6.37,6.37,0,0,1-2.63.44C2052.09,1351.31,2050.69,1349.13,2050.69,1345.15Z"/><path class="cls-43" d="M2063,1337.09c0-8.91,6-14.34,12.21-14.34,6.94,0,10.86,5,10.86,12.77a16.73,16.73,0,0,1-.17,2.63h-18.36c.33,5.77,3.86,9.47,9.07,9.47a12.26,12.26,0,0,0,6.77-2.13l1.63,3a16.23,16.23,0,0,1-9,2.8C2068.72,1351.31,2063,1346,2063,1337.09Zm19-2.24c0-5.49-2.46-8.46-6.72-8.46-3.81,0-7.28,3.08-7.84,8.46Z"/><path class="cls-43" d="M2089.72,1347.56l2.29-3.08c2.36,1.9,4.76,3.25,8,3.25,3.59,0,5.38-1.91,5.38-4.26,0-2.8-3.25-4-6.22-5.15-3.86-1.4-8.12-3.25-8.12-7.84,0-4.37,3.47-7.73,9.35-7.73a13.58,13.58,0,0,1,8.46,3.08l-2.18,2.91a10.11,10.11,0,0,0-6.22-2.4c-3.42,0-5,1.84-5,3.92,0,2.57,3,3.53,6,4.7,3.92,1.46,8.29,3.08,8.29,8.23,0,4.43-3.53,8.12-10,8.12A16.35,16.35,0,0,1,2089.72,1347.56Z"/><path class="cls-43" d="M2113.18,1347.56l2.3-3.08c2.35,1.9,4.76,3.25,8,3.25,3.59,0,5.38-1.91,5.38-4.26,0-2.8-3.25-4-6.22-5.15-3.86-1.4-8.12-3.25-8.12-7.84,0-4.37,3.48-7.73,9.36-7.73a13.58,13.58,0,0,1,8.45,3.08l-2.18,2.91a10.11,10.11,0,0,0-6.22-2.4c-3.41,0-5,1.84-5,3.92,0,2.57,3,3.53,6.05,4.7,3.92,1.46,8.28,3.08,8.28,8.23,0,4.43-3.52,8.12-10,8.12A16.38,16.38,0,0,1,2113.18,1347.56Z"/><path class="cls-43" d="M2151.32,1313.9H2156v36.74h-4.64Z"/><path class="cls-43" d="M2165.6,1323.42h3.8l.4,3.92h.16c2.58-2.57,5.38-4.59,9.13-4.59,5.71,0,8.29,3.7,8.29,10.64v17.25h-4.59V1334c0-5.1-1.57-7.28-5.15-7.28-2.8,0-4.71,1.45-7.45,4.2v19.71h-4.59Z"/><path class="cls-43" d="M2194.15,1355.85c0-2.3,1.52-4.48,4-6.16v-.23a5,5,0,0,1-2.41-4.42,6.37,6.37,0,0,1,3-5v-.22a9.65,9.65,0,0,1-3.53-7.34c0-5.94,4.71-9.69,10.25-9.69a10.87,10.87,0,0,1,3.86.67h9.47V1327h-5.6a7.89,7.89,0,0,1,2.24,5.6c0,5.83-4.42,9.47-10,9.47a9.51,9.51,0,0,1-4.09-1,4.13,4.13,0,0,0-1.73,3.25c0,1.74,1.12,3,4.81,3h5.27c6.33,0,9.52,2,9.52,6.5,0,5-5.32,9.4-13.78,9.4C2198.75,1363.18,2194.15,1360.55,2194.15,1355.85Zm20.56-1.4c0-2.52-2-3.36-5.49-3.36h-4.7a13.05,13.05,0,0,1-3.53-.45c-2,1.4-2.8,3-2.8,4.59,0,2.91,3,4.76,7.89,4.76C2211.29,1360,2214.71,1357.3,2214.71,1354.45Zm-3.53-22c0-4-2.58-6.33-5.77-6.33s-5.77,2.35-5.77,6.33,2.63,6.5,5.77,6.5S2211.18,1336.42,2211.18,1332.44Z"/><path class="cls-43" d="M2221.65,1337.09c0-8.91,6-14.34,12.21-14.34,6.94,0,10.86,5,10.86,12.77a18.16,18.16,0,0,1-.16,2.63h-18.37c.33,5.77,3.86,9.47,9.07,9.47a12.3,12.3,0,0,0,6.78-2.13l1.62,3a16.21,16.21,0,0,1-9,2.8C2227.42,1351.31,2221.65,1346,2221.65,1337.09Zm19-2.24c0-5.49-2.46-8.46-6.72-8.46-3.81,0-7.28,3.08-7.84,8.46Z"/><path class="cls-43" d="M2248.42,1347.56l2.3-3.08c2.35,1.9,4.76,3.25,8,3.25,3.59,0,5.38-1.91,5.38-4.26,0-2.8-3.25-4-6.22-5.15-3.86-1.4-8.12-3.25-8.12-7.84,0-4.37,3.47-7.73,9.35-7.73a13.58,13.58,0,0,1,8.46,3.08l-2.18,2.91a10.11,10.11,0,0,0-6.22-2.4c-3.41,0-5,1.84-5,3.92,0,2.57,3,3.53,6,4.7,3.92,1.46,8.29,3.08,8.29,8.23,0,4.43-3.53,8.12-10,8.12A16.35,16.35,0,0,1,2248.42,1347.56Z"/><path class="cls-43" d="M2274.57,1342.24v-15.06h-4v-3.47l4.25-.29.56-7.61h3.87v7.61h7.34v3.76h-7.34v15.12c0,3.36,1.06,5.26,4.2,5.26a9.82,9.82,0,0,0,3.08-.73l.89,3.47a16.61,16.61,0,0,1-5,1C2276.53,1351.31,2274.57,1347.62,2274.57,1342.24Z"/><path class="cls-43" d="M2291.87,1314.86a3.2,3.2,0,0,1,6.39,0,3.2,3.2,0,0,1-6.39,0Zm.84,8.56h4.6v27.22h-4.6Z"/><path class="cls-43" d="M2304.47,1337.09c0-9.13,5.94-14.34,12.6-14.34s12.6,5.21,12.6,14.34-5.93,14.22-12.6,14.22S2304.47,1346.1,2304.47,1337.09Zm20.44,0c0-6.27-3.13-10.53-7.84-10.53s-7.84,4.26-7.84,10.53,3.2,10.41,7.84,10.41S2324.91,1343.3,2324.91,1337.09Z"/><path class="cls-43" d="M2336.84,1323.42h3.81l.39,3.92h.17c2.58-2.57,5.38-4.59,9.13-4.59,5.71,0,8.29,3.7,8.29,10.64v17.25H2354V1334c0-5.1-1.56-7.28-5.15-7.28-2.8,0-4.7,1.45-7.45,4.2v19.71h-4.59Z"/><g id="streams-up-color"><g class="cls-47"><line class="cls-48" x1="234.73" y1="1630.2" x2="234.73" y2="1418.67"/><line class="cls-48" x1="262.66" y1="1630.2" x2="262.66" y2="1460.82"/><line class="cls-48" x1="290.59" y1="1630.2" x2="290.59" y2="1460.82"/><line class="cls-48" x1="318.52" y1="1630.2" x2="318.52" y2="1418.41"/><line class="cls-48" x1="346.44" y1="1630.2" x2="346.44" y2="1418.67"/><path class="cls-49" d="M290.78,1595.18c0-17.93-.19-49.8-.19-49.8"/><path class="cls-50" d="M234.73,1630.2v-57.41c0-29.48,27.93-22.24,27.93-46V1418.67"/><path class="cls-51" d="M262.66,1595c0-29.48,27.93-22.24,27.93-46,0-17.07-.52-130.33-.52-130.33"/><path class="cls-52" d="M318.52,1598.65v-89"/><path class="cls-53" d="M346.44,1596.06c0-29.48-27.92-22.24-27.92-46V1418.67"/><path class="cls-54" d="M318.52,1608c0-3.67-.13-10-.13-10"/><path class="cls-55" d="M290.59,1629.12c0-1.24-.13-3.36-.13-3.36"/><line class="cls-56" x1="374.37" y1="1630.2" x2="374.37" y2="1418.67"/><line class="cls-48" x1="402.3" y1="1630.2" x2="402.3" y2="1460.82"/><path class="cls-57" d="M402.3,1506.07v-87.4"/><path class="cls-58" d="M402.3,1540.72c0-3.67-.13-10-.13-10"/><path class="cls-59" d="M346.44,1529.35c0-1.24-.13-3.36-.13-3.36"/><path class="cls-60" d="M346.44,1497.67c0-6.48-.13-17.58-.13-17.58"/><path class="cls-61" d="M402.3,1581.07c0-1.24-.13-3.37-.13-3.37"/></g></g><g id="Data_Streams_-_Ring" data-name="Data Streams - Ring"><circle class="cls-62" cx="318.49" cy="1525.99" r="107.57"/></g><path class="cls-43" d="M186.47,1677.69h7.87c9.7,0,14.89,5.62,14.89,15.61s-5.19,15.89-14.69,15.89h-8.07Zm7.59,28.23c7.34,0,11-4.66,11-12.62s-3.7-12.34-11-12.34h-3.6v25Z"/><path class="cls-43" d="M214.17,1703.14c0-5.09,4.37-7.64,14.3-8.74,0-3-1-5.86-4.8-5.86a12.68,12.68,0,0,0-7,2.5l-1.54-2.74a17.35,17.35,0,0,1,9.17-3c5.72,0,8.12,3.79,8.12,9.6v14.31h-3.27l-.33-2.79h-.15c-2.21,1.82-4.8,3.36-7.73,3.36C217.1,1709.76,214.17,1707.31,214.17,1703.14Zm14.3.33V1697c-7.77,1-10.46,2.88-10.46,5.86,0,2.64,1.82,3.74,4.13,3.74S226.22,1705.49,228.47,1703.47Z"/><path class="cls-43" d="M239.8,1702v-12.91h-3.46v-3l3.65-.24.48-6.53h3.31v6.53h6.29v3.21h-6.29v13c0,2.88.92,4.51,3.6,4.51a8.34,8.34,0,0,0,2.64-.62l.77,3a14.42,14.42,0,0,1-4.32.86C241.48,1709.76,239.8,1706.59,239.8,1702Z"/><path class="cls-43" d="M252.9,1703.14c0-5.09,4.37-7.64,14.31-8.74,0-3-1-5.86-4.8-5.86a12.65,12.65,0,0,0-7,2.5l-1.54-2.74a17.35,17.35,0,0,1,9.17-3c5.71,0,8.11,3.79,8.11,9.6v14.31h-3.26l-.34-2.79h-.14c-2.21,1.82-4.8,3.36-7.73,3.36C255.83,1709.76,252.9,1707.31,252.9,1703.14Zm14.31.33V1697c-7.78,1-10.47,2.88-10.47,5.86,0,2.64,1.83,3.74,4.13,3.74S265,1705.49,267.21,1703.47Z"/><path class="cls-43" d="M286.22,1705.1l2.4-2.78a12.32,12.32,0,0,0,8.68,3.94c4.13,0,6.58-2.07,6.58-5.14s-2.26-4.22-5.23-5.57l-4.51-2c-3-1.24-6.39-3.5-6.39-8.11,0-4.8,4.18-8.35,9.89-8.35A13,13,0,0,1,307,1681l-2.16,2.59a10.05,10.05,0,0,0-7.15-3c-3.5,0-5.86,1.78-5.86,4.61,0,3,2.74,4.18,5.24,5.23l4.46,1.92c3.65,1.59,6.48,3.75,6.48,8.4,0,5-4.08,9-10.7,9A15.22,15.22,0,0,1,286.22,1705.1Z"/><path class="cls-43" d="M313.29,1702v-12.91h-3.46v-3l3.65-.24.48-6.53h3.31v6.53h6.29v3.21h-6.29v13c0,2.88.91,4.51,3.6,4.51a8.34,8.34,0,0,0,2.64-.62l.77,3a14.42,14.42,0,0,1-4.32.86C315,1709.76,313.29,1706.59,313.29,1702Z"/><path class="cls-43" d="M328.84,1685.86h3.26l.34,4.22h.14c1.59-2.93,4-4.8,6.63-4.8a5.75,5.75,0,0,1,2.5.48l-.77,3.45a6.56,6.56,0,0,0-2.26-.38c-2,0-4.32,1.44-5.9,5.38v15h-3.94Z"/><path class="cls-43" d="M343.29,1697.57c0-7.63,5.13-12.29,10.46-12.29,6,0,9.32,4.27,9.32,10.94a14.72,14.72,0,0,1-.15,2.26H347.18c.28,4.94,3.31,8.11,7.77,8.11a10.58,10.58,0,0,0,5.81-1.82l1.39,2.59a13.84,13.84,0,0,1-7.68,2.4C348.23,1709.76,343.29,1705.2,343.29,1697.57Zm16.32-1.92c0-4.71-2.11-7.25-5.76-7.25-3.27,0-6.24,2.64-6.72,7.25Z"/><path class="cls-43" d="M366.71,1703.14c0-5.09,4.37-7.64,14.31-8.74,0-3-1-5.86-4.8-5.86a12.72,12.72,0,0,0-7,2.5l-1.53-2.74a17.32,17.32,0,0,1,9.17-3c5.71,0,8.11,3.79,8.11,9.6v14.31h-3.26l-.34-2.79h-.14c-2.21,1.82-4.8,3.36-7.73,3.36C369.64,1709.76,366.71,1707.31,366.71,1703.14Zm14.31.33V1697c-7.78,1-10.47,2.88-10.47,5.86,0,2.64,1.83,3.74,4.13,3.74S378.76,1705.49,381,1703.47Z"/><path class="cls-43" d="M392.34,1685.86h3.27l.33,3.35h.15c2-2.2,4.46-3.93,7.25-3.93,3.55,0,5.47,1.68,6.43,4.46,2.45-2.64,4.85-4.46,7.68-4.46,4.8,0,7.1,3.17,7.1,9.12v14.79h-3.93v-14.26c0-4.37-1.4-6.24-4.32-6.24-1.83,0-3.7,1.2-5.86,3.6v16.9H406.5v-14.26c0-4.37-1.39-6.24-4.36-6.24-1.73,0-3.7,1.2-5.86,3.6v16.9h-3.94Z"/><path class="cls-43" d="M429.54,1706.54l2-2.64a10.46,10.46,0,0,0,6.86,2.79c3.08,0,4.61-1.63,4.61-3.65,0-2.4-2.78-3.46-5.32-4.42-3.32-1.2-7-2.78-7-6.72,0-3.74,3-6.62,8-6.62a11.65,11.65,0,0,1,7.25,2.64l-1.87,2.5a8.64,8.64,0,0,0-5.33-2.07c-2.93,0-4.27,1.59-4.27,3.36,0,2.21,2.54,3,5.18,4,3.36,1.25,7.11,2.64,7.11,7.06,0,3.79-3,7-8.55,7A14,14,0,0,1,429.54,1706.54Z"/><path class="cls-43" d="M699.75,1677.69h7.87c9.7,0,14.88,5.62,14.88,15.61s-5.18,15.89-14.69,15.89h-8.06Zm7.58,28.23c7.35,0,11-4.66,11-12.62s-3.69-12.34-11-12.34h-3.6v25Z"/><path class="cls-43" d="M727.44,1703.14c0-5.09,4.37-7.64,14.31-8.74,0-3-1-5.86-4.8-5.86a12.65,12.65,0,0,0-7,2.5l-1.54-2.74a17.35,17.35,0,0,1,9.17-3c5.71,0,8.11,3.79,8.11,9.6v14.31h-3.26l-.34-2.79H742c-2.21,1.82-4.8,3.36-7.73,3.36C730.37,1709.76,727.44,1707.31,727.44,1703.14Zm14.31.33V1697c-7.78,1-10.47,2.88-10.47,5.86,0,2.64,1.83,3.74,4.13,3.74S739.49,1705.49,741.75,1703.47Z"/><path class="cls-43" d="M753.08,1702v-12.91h-3.46v-3l3.65-.24.48-6.53h3.31v6.53h6.29v3.21h-6.29v13c0,2.88.91,4.51,3.6,4.51a8.4,8.4,0,0,0,2.64-.62l.77,3a14.49,14.49,0,0,1-4.32.86C754.76,1709.76,753.08,1706.59,753.08,1702Z"/><path class="cls-43" d="M766.18,1703.14c0-5.09,4.37-7.64,14.3-8.74,0-3-1-5.86-4.8-5.86a12.71,12.71,0,0,0-7,2.5l-1.53-2.74a17.32,17.32,0,0,1,9.17-3c5.71,0,8.11,3.79,8.11,9.6v14.31H781.2l-.33-2.79h-.15c-2.2,1.82-4.8,3.36-7.72,3.36C769.11,1709.76,766.18,1707.31,766.18,1703.14Zm14.3.33V1697c-7.77,1-10.46,2.88-10.46,5.86,0,2.64,1.82,3.74,4.13,3.74S778.23,1705.49,780.48,1703.47Z"/><path class="cls-43" d="M801.8,1677.69h4v28.09h13.78v3.41H801.8Z"/><path class="cls-43" d="M823.3,1703.14c0-5.09,4.37-7.64,14.3-8.74,0-3-1-5.86-4.8-5.86a12.68,12.68,0,0,0-7,2.5l-1.53-2.74a17.32,17.32,0,0,1,9.17-3c5.71,0,8.11,3.79,8.11,9.6v14.31h-3.27l-.33-2.79h-.15c-2.2,1.82-4.8,3.36-7.73,3.36C826.23,1709.76,823.3,1707.31,823.3,1703.14Zm14.3.33V1697c-7.77,1-10.46,2.88-10.46,5.86,0,2.64,1.82,3.74,4.13,3.74S835.35,1705.49,837.6,1703.47Z"/><path class="cls-43" d="M848.93,1675h3.89v23.13H853l9.94-12.28h4.37l-7.83,9.36,8.88,14H864L857.19,1698l-4.37,5.09v6.15h-3.89Z"/><path class="cls-43" d="M870.1,1697.57c0-7.63,5.13-12.29,10.46-12.29,6,0,9.32,4.27,9.32,10.94a14.72,14.72,0,0,1-.15,2.26H874c.28,4.94,3.31,8.11,7.77,8.11a10.58,10.58,0,0,0,5.81-1.82l1.39,2.59a13.84,13.84,0,0,1-7.68,2.4C875,1709.76,870.1,1705.2,870.1,1697.57Zm16.32-1.92c0-4.71-2.11-7.25-5.76-7.25-3.27,0-6.24,2.64-6.72,7.25Z"/><path class="cls-43" d="M893,1706.54l2-2.64a10.46,10.46,0,0,0,6.86,2.79c3.08,0,4.61-1.63,4.61-3.65,0-2.4-2.78-3.46-5.33-4.42-3.31-1.2-7-2.78-7-6.72,0-3.74,3-6.62,8-6.62a11.65,11.65,0,0,1,7.25,2.64l-1.87,2.5a8.64,8.64,0,0,0-5.33-2.07c-2.93,0-4.27,1.59-4.27,3.36,0,2.21,2.54,3,5.18,4,3.36,1.25,7.1,2.64,7.1,7.06,0,3.79-3,7-8.54,7A14,14,0,0,1,893,1706.54Z"/><g id="DB-clip-color"><g class="cls-63"><rect class="cls-64" x="1230.26" y="1473.88" width="101.02" height="113.23" rx="7.5" ry="7.5"/><path class="cls-65" d="M1323.78,1476.38a5,5,0,0,1,5,5v98.23a5,5,0,0,1-5,5h-86a5,5,0,0,1-5-5v-98.23a5,5,0,0,1,5-5h86m0-5h-86a10,10,0,0,0-10,10v98.23a10,10,0,0,0,10,10h86a10,10,0,0,0,10-10v-98.23a10,10,0,0,0-10-10Z"/><rect class="cls-64" x="1230.26" y="1349.54" width="101.02" height="113.23" rx="7.5" ry="7.5"/><path class="cls-65" d="M1323.78,1352.05a5,5,0,0,1,5,5v98.24a5,5,0,0,1-5,5h-86a5,5,0,0,1-5-5V1357a5,5,0,0,1,5-5h86m0-5h-86a10,10,0,0,0-10,10v98.24a10,10,0,0,0,10,10h86a10,10,0,0,0,10-10V1357a10,10,0,0,0-10-10Z"/><rect class="cls-64" x="1230.26" y="1598.77" width="101.02" height="113.23" rx="7.5" ry="7.5"/><path class="cls-65" d="M1323.78,1601.27a5,5,0,0,1,5,5v98.24a5,5,0,0,1-5,5h-86a5,5,0,0,1-5-5v-98.24a5,5,0,0,1,5-5h86m0-5h-86a10,10,0,0,0-10,10v98.24a10,10,0,0,0,10,10h86a10,10,0,0,0,10-10v-98.24a10,10,0,0,0-10-10Z"/><rect class="cls-66" x="1269.95" y="1483.04" width="22.2" height="26.64" rx="5" ry="5"/><rect class="cls-67" x="1269.95" y="1516.89" width="22.2" height="26.64" rx="5" ry="5"/><rect class="cls-68" x="1239.42" y="1516.89" width="22.2" height="26.64" rx="5" ry="5"/><rect class="cls-68" x="1239.42" y="1483.04" width="22.2" height="26.64" rx="5" ry="5"/><rect class="cls-69" x="1299.92" y="1483.04" width="22.2" height="26.64" rx="5" ry="5"/><rect class="cls-70" x="1299.92" y="1516.89" width="22.2" height="26.64" rx="5" ry="5"/><rect class="cls-71" x="1299.92" y="1550.89" width="22.2" height="26.64" rx="5" ry="5"/><rect class="cls-68" x="1269.95" y="1551.03" width="22.2" height="26.64" rx="5" ry="5"/><rect class="cls-68" x="1239.42" y="1551.31" width="22.2" height="26.64" rx="5" ry="5"/><rect class="cls-68" x="1299.92" y="1427.04" width="22.2" height="26.64" rx="5" ry="5"/><rect class="cls-72" x="1269.92" y="1427.04" width="22.2" height="26.64" rx="5" ry="5"/><rect class="cls-68" x="1238.92" y="1427.04" width="22.2" height="26.64" rx="5" ry="5"/><rect class="cls-68" x="1299.92" y="1608.04" width="22.2" height="26.64" rx="5" ry="5"/><rect class="cls-73" x="1269.92" y="1608.04" width="22.2" height="26.64" rx="5" ry="5"/></g></g><g id="Database_-_Ring" data-name="Database - Ring"><circle class="cls-62" cx="1281.05" cy="1529.66" r="106.57"/></g><g id="lakes-clip-color"><g class="cls-74"><path class="cls-75" d="M903.55,1636.9H700.91c-3.07,0-5.59-3.15-5.59-7V1488.48c47.33,0,64-28.64,64-28.64s19.48,27.94,42.87,27.94c27.84,0,40.65-27.94,40.65-27.94,3.62,4.54,13.92,27.94,66.26,27.94V1629.9C909.14,1633.75,906.62,1636.9,903.55,1636.9Z"/><g id="data_lakes_shapes" data-name="data lakes shapes"><circle class="cls-76" cx="862.64" cy="1518.64" r="13.36"/><circle class="cls-77" cx="862.64" cy="1556.72" r="13.36"/><circle class="cls-78" cx="824.56" cy="1556.72" r="13.36"/><circle class="cls-79" cx="743.04" cy="1554.72" r="13.36"/><circle class="cls-68" cx="743.04" cy="1517.3" r="13.36"/><polygon class="cls-68" points="824.56 1504.11 839.89 1530.66 809.23 1530.66 824.56 1504.11"/><polygon class="cls-68" points="824.56 1583.62 839.89 1610.17 809.23 1610.17 824.56 1583.62"/><polygon class="cls-68" points="783.81 1504.11 799.14 1530.66 768.48 1530.66 783.81 1504.11"/><polygon class="cls-68" points="783.81 1541.53 799.14 1568.08 768.48 1568.08 783.81 1541.53"/><circle class="cls-80" cx="783.8" cy="1596.81" r="13.36"/></g></g></g><g id="Data_Lakes_-_Ring" data-name="Data Lakes - Ring"><circle class="cls-62" cx="802.51" cy="1525.32" r="106.91"/></g><path class="cls-43" d="M1710.23,1094.9h11.48c7.5,0,12.88,2.69,12.88,10.31,0,5.71-3.25,9.18-8.29,10.41l9.35,16h-5.26l-8.85-15.51h-6.66v15.51h-4.65Zm10.81,17.42c5.71,0,8.9-2.35,8.9-7.11s-3.19-6.55-8.9-6.55h-6.16v13.66Z"/><path class="cls-43" d="M1739.07,1118.09c0-8.91,6-14.34,12.21-14.34,6.94,0,10.86,5,10.86,12.77a16.73,16.73,0,0,1-.17,2.63h-18.36c.33,5.77,3.86,9.47,9.07,9.47a12.26,12.26,0,0,0,6.77-2.13l1.63,3a16.23,16.23,0,0,1-9,2.8C1744.84,1132.31,1739.07,1127,1739.07,1118.09Zm19-2.24c0-5.49-2.46-8.46-6.72-8.46-3.81,0-7.28,3.08-7.84,8.46Z"/><path class="cls-43" d="M1766.4,1124.58c0-5.93,5.09-8.9,16.68-10.19,0-3.47-1.12-6.83-5.6-6.83a14.87,14.87,0,0,0-8.12,2.91l-1.79-3.19a20.24,20.24,0,0,1,10.7-3.53c6.66,0,9.46,4.43,9.46,11.2v16.69h-3.81l-.39-3.25h-.17c-2.57,2.13-5.59,3.92-9,3.92C1769.81,1132.31,1766.4,1129.46,1766.4,1124.58Zm16.68.4v-7.56c-9.07,1.12-12.2,3.36-12.2,6.83,0,3.08,2.12,4.37,4.81,4.37S1780.45,1127.33,1783.08,1125Z"/><path class="cls-43" d="M1796.3,1126.15v-34.38h4.59v34.72c0,1.46.62,2,1.29,2a4,4,0,0,0,1-.11l.61,3.48a6.34,6.34,0,0,1-2.63.44C1797.7,1132.31,1796.3,1130.13,1796.3,1126.15Z"/><path class="cls-43" d="M1808.28,1115.85h12.88v3.53h-12.88Z"/><path class="cls-43" d="M1833.43,1098.82h-11.09v-3.92h26.88v3.92h-11.09v32.82h-4.7Z"/><path class="cls-43" d="M1854.54,1095.86a3.2,3.2,0,0,1,6.38,0,3.2,3.2,0,0,1-6.38,0Zm.84,8.56H1860v27.22h-4.59Z"/><path class="cls-43" d="M1869.15,1104.42H1873l.39,3.92h.17c2.35-2.57,5.21-4.59,8.46-4.59,4.14,0,6.38,2,7.5,5.21,2.86-3.08,5.66-5.21,9-5.21,5.6,0,8.29,3.7,8.29,10.64v17.25h-4.59V1115c0-5.1-1.62-7.28-5-7.28-2.13,0-4.31,1.4-6.83,4.2v19.71h-4.59V1115c0-5.1-1.63-7.28-5.1-7.28-2,0-4.31,1.4-6.83,4.2v19.71h-4.6Z"/><path class="cls-43" d="M1913.56,1118.09c0-8.91,6-14.34,12.21-14.34,6.94,0,10.86,5,10.86,12.77a18.16,18.16,0,0,1-.16,2.63H1918.1c.33,5.77,3.86,9.47,9.07,9.47a12.3,12.3,0,0,0,6.78-2.13l1.62,3a16.21,16.21,0,0,1-9,2.8C1919.33,1132.31,1913.56,1127,1913.56,1118.09Zm19-2.24c0-5.49-2.46-8.46-6.72-8.46-3.81,0-7.28,3.08-7.84,8.46Z"/><path class="cls-43" d="M1955,1094.9h4.65v36.74H1955Z"/><path class="cls-43" d="M1969.28,1104.42h3.81l.39,3.92h.17c2.58-2.57,5.37-4.59,9.13-4.59,5.71,0,8.28,3.7,8.28,10.64v17.25h-4.59V1115c0-5.1-1.57-7.28-5.15-7.28-2.8,0-4.7,1.45-7.45,4.2v19.71h-4.59Z"/><path class="cls-43" d="M1998,1118.09c0-8.85,5.6-14.34,11.82-14.34,3.13,0,5.21,1.18,7.61,3.14l-.22-4.65v-10.47h4.65v39.87H2018l-.39-3.19h-.17c-2.13,2.07-5,3.86-8.23,3.86C2002.38,1132.31,1998,1127.16,1998,1118.09Zm19.21,6.61v-14.23a9.48,9.48,0,0,0-6.61-2.85c-4.37,0-7.84,4.2-7.84,10.41,0,6.5,2.75,10.42,7.51,10.42C2012.74,1128.45,2014.92,1127.22,2017.16,1124.7Z"/><path class="cls-43" d="M2029,1118.09c0-8.91,6-14.34,12.2-14.34,7,0,10.87,5,10.87,12.77a18,18,0,0,1-.17,2.63h-18.37c.34,5.77,3.87,9.47,9.07,9.47a12.3,12.3,0,0,0,6.78-2.13l1.62,3a16.21,16.21,0,0,1-9,2.8C2034.74,1132.31,2029,1127,2029,1118.09Zm19-2.24c0-5.49-2.47-8.46-6.72-8.46-3.81,0-7.28,3.08-7.84,8.46Z"/><path class="cls-43" d="M2063.47,1117.42l-8.23-13h5l3.63,6c.84,1.45,1.74,3,2.69,4.53h.23c.78-1.51,1.62-3.08,2.46-4.53l3.3-6h4.82l-8.23,13.5,8.85,13.72h-5l-4-6.33c-1-1.62-2-3.3-3-4.87h-.23c-1,1.57-1.84,3.19-2.74,4.87l-3.7,6.33h-4.81Z"/><path class="cls-43" d="M2082.51,1095.86a3.2,3.2,0,0,1,6.39,0,3.2,3.2,0,0,1-6.39,0Zm.84,8.56h4.59v27.22h-4.59Z"/><path class="cls-43" d="M2097.13,1104.42h3.81l.39,3.92h.17c2.57-2.57,5.37-4.59,9.12-4.59,5.72,0,8.29,3.7,8.29,10.64v17.25h-4.59V1115c0-5.1-1.57-7.28-5.15-7.28-2.8,0-4.71,1.45-7.45,4.2v19.71h-4.59Z"/><path class="cls-43" d="M2125.69,1136.85c0-2.3,1.51-4.48,4-6.16v-.23a5,5,0,0,1-2.4-4.42,6.36,6.36,0,0,1,3-5v-.22a9.65,9.65,0,0,1-3.52-7.34c0-5.94,4.7-9.69,10.24-9.69a10.92,10.92,0,0,1,3.87.67h9.46V1108h-5.6a7.89,7.89,0,0,1,2.24,5.6c0,5.83-4.42,9.47-10,9.47a9.51,9.51,0,0,1-4.09-1,4.13,4.13,0,0,0-1.73,3.25c0,1.74,1.12,3,4.81,3h5.27c6.33,0,9.52,2,9.52,6.5,0,5-5.32,9.4-13.78,9.4C2130.28,1144.18,2125.69,1141.55,2125.69,1136.85Zm20.55-1.4c0-2.52-2-3.36-5.49-3.36h-4.7a13.1,13.1,0,0,1-3.53-.45c-2,1.4-2.8,3-2.8,4.59,0,2.91,3,4.76,7.9,4.76C2142.82,1141,2146.24,1138.3,2146.24,1135.45Zm-3.53-22c0-4-2.57-6.33-5.77-6.33s-5.76,2.35-5.76,6.33,2.63,6.5,5.76,6.5S2142.71,1117.42,2142.71,1113.44Z"/><line class="cls-44" x1="1324.62" y1="1117" x2="1330.62" y2="1117"/><line class="cls-81" x1="1342.95" y1="1117" x2="1657.45" y2="1117"/><line class="cls-44" x1="1663.62" y1="1117" x2="1669.62" y2="1117"/><path class="cls-43" d="M1106.57,1677.69h7.87c9.7,0,14.88,5.62,14.88,15.61s-5.18,15.89-14.69,15.89h-8.06Zm7.58,28.23c7.35,0,11-4.66,11-12.62s-3.69-12.34-11-12.34h-3.6v25Z"/><path class="cls-43" d="M1134.26,1703.14c0-5.09,4.37-7.64,14.31-8.74,0-3-1-5.86-4.8-5.86a12.65,12.65,0,0,0-7,2.5l-1.54-2.74a17.35,17.35,0,0,1,9.17-3c5.71,0,8.11,3.79,8.11,9.6v14.31h-3.26l-.34-2.79h-.14c-2.21,1.82-4.8,3.36-7.73,3.36C1137.19,1709.76,1134.26,1707.31,1134.26,1703.14Zm14.31.33V1697c-7.78,1-10.47,2.88-10.47,5.86,0,2.64,1.83,3.74,4.13,3.74S1146.31,1705.49,1148.57,1703.47Z"/><path class="cls-43" d="M1159.9,1702v-12.91h-3.46v-3l3.65-.24.48-6.53h3.31v6.53h6.29v3.21h-6.29v13c0,2.88.91,4.51,3.6,4.51a8.4,8.4,0,0,0,2.64-.62l.77,3a14.49,14.49,0,0,1-4.32.86C1161.58,1709.76,1159.9,1706.59,1159.9,1702Z"/><path class="cls-43" d="M1173,1703.14c0-5.09,4.37-7.64,14.31-8.74,0-3-1-5.86-4.81-5.86a12.71,12.71,0,0,0-7,2.5l-1.53-2.74a17.32,17.32,0,0,1,9.17-3c5.71,0,8.11,3.79,8.11,9.6v14.31H1188l-.34-2.79h-.15c-2.2,1.82-4.79,3.36-7.72,3.36C1175.93,1709.76,1173,1707.31,1173,1703.14Zm14.31.33V1697c-7.78,1-10.47,2.88-10.47,5.86,0,2.64,1.82,3.74,4.13,3.74S1185.05,1705.49,1187.31,1703.47Z"/><path class="cls-43" d="M1202.28,1706.79h-.14l-.34,2.4h-3.17V1675h3.94v9.31l-.1,4.22a11.54,11.54,0,0,1,7.3-3.26c6,0,9.26,4.66,9.26,11.86,0,8-4.75,12.62-10.08,12.62A10.44,10.44,0,0,1,1202.28,1706.79Zm12.67-9.61c0-5.13-1.73-8.59-6.14-8.59-2,0-4,1.11-6.24,3.17V1704a9.09,9.09,0,0,0,5.71,2.45C1212.12,1706.45,1215,1702.94,1215,1697.18Z"/><path class="cls-43" d="M1223.06,1703.14c0-5.09,4.37-7.64,14.31-8.74,0-3-1-5.86-4.8-5.86a12.65,12.65,0,0,0-7,2.5l-1.54-2.74a17.35,17.35,0,0,1,9.17-3c5.71,0,8.11,3.79,8.11,9.6v14.31h-3.26l-.34-2.79h-.14c-2.21,1.82-4.8,3.36-7.73,3.36C1226,1709.76,1223.06,1707.31,1223.06,1703.14Zm14.31.33V1697c-7.78,1-10.46,2.88-10.46,5.86,0,2.64,1.82,3.74,4.12,3.74S1235.11,1705.49,1237.37,1703.47Z"/><path class="cls-43" d="M1246.1,1706.54l2-2.64a10.47,10.47,0,0,0,6.87,2.79c3.07,0,4.6-1.63,4.6-3.65,0-2.4-2.78-3.46-5.32-4.42-3.32-1.2-7-2.78-7-6.72,0-3.74,3-6.62,8-6.62a11.63,11.63,0,0,1,7.25,2.64l-1.87,2.5a8.62,8.62,0,0,0-5.33-2.07c-2.93,0-4.27,1.59-4.27,3.36,0,2.21,2.54,3,5.18,4,3.36,1.25,7.11,2.64,7.11,7.06,0,3.79-3,7-8.55,7A14,14,0,0,1,1246.1,1706.54Z"/><path class="cls-43" d="M1267.08,1697.57c0-7.63,5.14-12.29,10.46-12.29,6,0,9.32,4.27,9.32,10.94a14.72,14.72,0,0,1-.15,2.26H1271c.29,4.94,3.31,8.11,7.77,8.11a10.58,10.58,0,0,0,5.81-1.82l1.4,2.59a13.9,13.9,0,0,1-7.69,2.4C1272,1709.76,1267.08,1705.2,1267.08,1697.57Zm16.32-1.92c0-4.71-2.11-7.25-5.76-7.25-3.26,0-6.24,2.64-6.72,7.25Z"/><path class="cls-43" d="M1290,1706.54l2-2.64a10.47,10.47,0,0,0,6.87,2.79c3.07,0,4.6-1.63,4.6-3.65,0-2.4-2.78-3.46-5.32-4.42-3.32-1.2-7-2.78-7-6.72,0-3.74,3-6.62,8-6.62a11.65,11.65,0,0,1,7.25,2.64l-1.87,2.5a8.64,8.64,0,0,0-5.33-2.07c-2.93,0-4.27,1.59-4.27,3.36,0,2.21,2.54,3,5.18,4,3.36,1.25,7.11,2.64,7.11,7.06,0,3.79-3,7-8.55,7A14,14,0,0,1,1290,1706.54Z"/><path class="cls-43" d="M1319.93,1701c0-4.22,3-6.86,6.19-9.07a16.89,16.89,0,0,1-2.07-7.39,7.12,7.12,0,0,1,7.3-7.44c3.89,0,6.19,2.54,6.19,6.24,0,4.13-3.6,6.77-7.1,9.31a40.46,40.46,0,0,0,8,8.83,27.62,27.62,0,0,0,4.42-9.31h3.69a35.72,35.72,0,0,1-5.52,11.28,20.87,20.87,0,0,0,5.91,3l-1.06,3.26a24.51,24.51,0,0,1-7.25-3.6,13.24,13.24,0,0,1-9.07,3.6C1323.82,1709.76,1319.93,1706.11,1319.93,1701Zm16,3a46.54,46.54,0,0,1-8.26-9.36c-2.2,1.77-3.93,3.65-3.93,6.09,0,3.51,2.73,5.81,6.19,5.81A9.2,9.2,0,0,0,1336,1704.05Zm-7-14c2.88-1.92,5.38-3.84,5.38-6.62,0-1.83-.87-3.46-3-3.46-2.35,0-3.89,2-3.89,4.56A13.26,13.26,0,0,0,1329,1690Z"/><path class="cls-43" d="M1361.54,1677.69h7.88c9.69,0,14.88,5.62,14.88,15.61s-5.19,15.89-14.69,15.89h-8.07Zm7.59,28.23c7.34,0,11-4.66,11-12.62s-3.7-12.34-11-12.34h-3.6v25Z"/><path class="cls-43" d="M1389.24,1703.14c0-5.09,4.36-7.64,14.3-8.74,0-3-1-5.86-4.8-5.86a12.65,12.65,0,0,0-7,2.5l-1.53-2.74a17.31,17.31,0,0,1,9.16-3c5.72,0,8.12,3.79,8.12,9.6v14.31h-3.27l-.33-2.79h-.15c-2.21,1.82-4.8,3.36-7.73,3.36C1392.17,1709.76,1389.24,1707.31,1389.24,1703.14Zm14.3.33V1697c-7.77,1-10.46,2.88-10.46,5.86,0,2.64,1.82,3.74,4.13,3.74S1401.29,1705.49,1403.54,1703.47Z"/><path class="cls-43" d="M1414.87,1702v-12.91h-3.46v-3l3.65-.24.48-6.53h3.31v6.53h6.29v3.21h-6.29v13c0,2.88.92,4.51,3.6,4.51a8.46,8.46,0,0,0,2.65-.62l.76,3a14.42,14.42,0,0,1-4.32.86C1416.55,1709.76,1414.87,1706.59,1414.87,1702Z"/><path class="cls-43" d="M1428,1703.14c0-5.09,4.37-7.64,14.31-8.74,0-3-1-5.86-4.8-5.86a12.65,12.65,0,0,0-7,2.5l-1.54-2.74a17.35,17.35,0,0,1,9.17-3c5.71,0,8.11,3.79,8.11,9.6v14.31H1443l-.34-2.79h-.14c-2.21,1.82-4.8,3.36-7.73,3.36C1430.9,1709.76,1428,1707.31,1428,1703.14Zm14.31.33V1697c-7.78,1-10.47,2.88-10.47,5.86,0,2.64,1.83,3.74,4.13,3.74S1440,1705.49,1442.28,1703.47Z"/><path class="cls-43" d="M1160.16,1737.69h4.13l3.31,17.14c.58,3.41,1.25,6.77,1.83,10.18h.19c.72-3.41,1.49-6.82,2.21-10.18l4.36-17.14h3.65l4.37,17.14c.77,3.31,1.54,6.77,2.3,10.18h.2c.57-3.41,1.15-6.82,1.77-10.18l3.32-17.14h3.84l-6.53,31.5h-4.8l-4.76-19c-.57-2.44-1-4.7-1.53-7.15h-.19c-.48,2.45-1.06,4.71-1.59,7.15l-4.65,19h-4.76Z"/><path class="cls-43" d="M1198.51,1763.14c0-5.09,4.37-7.64,14.31-8.74,0-3-1-5.86-4.8-5.86a12.65,12.65,0,0,0-7,2.5l-1.54-2.74a17.35,17.35,0,0,1,9.17-3c5.71,0,8.11,3.79,8.11,9.6v14.31h-3.26l-.34-2.79h-.14c-2.21,1.82-4.8,3.36-7.73,3.36C1201.44,1769.76,1198.51,1767.31,1198.51,1763.14Zm14.31.33V1757c-7.78,1-10.47,2.88-10.47,5.86,0,2.64,1.83,3.74,4.13,3.74S1210.56,1765.49,1212.82,1763.47Z"/><path class="cls-43" d="M1224.15,1745.86h3.26l.34,4.22h.14c1.58-2.93,4-4.8,6.62-4.8a5.75,5.75,0,0,1,2.5.48l-.77,3.45a6.5,6.5,0,0,0-2.25-.38c-2,0-4.32,1.44-5.91,5.38v15h-3.93Z"/><path class="cls-43" d="M1238.59,1757.57c0-7.63,5.14-12.29,10.47-12.29,6,0,9.31,4.27,9.31,10.94a16.25,16.25,0,0,1-.14,2.26h-15.75c.29,4.94,3.31,8.11,7.78,8.11a10.58,10.58,0,0,0,5.81-1.82l1.39,2.59a13.87,13.87,0,0,1-7.68,2.4C1243.54,1769.76,1238.59,1765.2,1238.59,1757.57Zm16.32-1.92c0-4.71-2.11-7.25-5.76-7.25-3.26,0-6.24,2.64-6.72,7.25Z"/><path class="cls-43" d="M1264.13,1735h3.93v9.31l-.14,4.8c2.21-2.11,4.56-3.84,7.78-3.84,4.89,0,7.1,3.17,7.1,9.12v14.79h-3.93v-14.26c0-4.37-1.35-6.24-4.42-6.24-2.4,0-4,1.25-6.39,3.6v16.9h-3.93Z"/><path class="cls-43" d="M1288.51,1757.57c0-7.83,5.09-12.29,10.8-12.29s10.8,4.46,10.8,12.29-5.09,12.19-10.8,12.19S1288.51,1765.3,1288.51,1757.57Zm17.52,0c0-5.38-2.69-9-6.72-9s-6.72,3.65-6.72,9,2.74,8.93,6.72,8.93S1306,1762.9,1306,1757.57Z"/><path class="cls-43" d="M1315.92,1760.64v-14.78h4v14.25c0,4.37,1.3,6.24,4.37,6.24,2.4,0,4.08-1.2,6.29-3.93v-16.56h3.94v23.33h-3.27l-.33-3.65h-.15c-2.16,2.54-4.46,4.22-7.68,4.22C1318.13,1769.76,1315.92,1766.59,1315.92,1760.64Z"/><path class="cls-43" d="M1339.77,1766.54l2-2.64a10.47,10.47,0,0,0,6.87,2.79c3.07,0,4.61-1.63,4.61-3.65,0-2.4-2.79-3.46-5.33-4.42-3.31-1.2-7-2.78-7-6.72,0-3.74,3-6.62,8-6.62a11.63,11.63,0,0,1,7.25,2.64l-1.87,2.5a8.59,8.59,0,0,0-5.33-2.07c-2.93,0-4.27,1.59-4.27,3.36,0,2.21,2.54,3,5.18,4,3.36,1.25,7.11,2.64,7.11,7.06,0,3.79-3,7-8.55,7A14,14,0,0,1,1339.77,1766.54Z"/><path class="cls-43" d="M1360.75,1757.57c0-7.63,5.14-12.29,10.46-12.29,6,0,9.32,4.27,9.32,10.94a14.72,14.72,0,0,1-.15,2.26h-15.74c.29,4.94,3.31,8.11,7.78,8.11a10.54,10.54,0,0,0,5.8-1.82l1.4,2.59a13.9,13.9,0,0,1-7.69,2.4C1365.69,1769.76,1360.75,1765.2,1360.75,1757.57Zm16.32-1.92c0-4.71-2.11-7.25-5.76-7.25-3.26,0-6.24,2.64-6.72,7.25Z"/><path class="cls-43" d="M1383.69,1766.54l2-2.64a10.47,10.47,0,0,0,6.87,2.79c3.07,0,4.6-1.63,4.6-3.65,0-2.4-2.78-3.46-5.32-4.42-3.32-1.2-7-2.78-7-6.72,0-3.74,3-6.62,8-6.62a11.63,11.63,0,0,1,7.25,2.64l-1.87,2.5a8.62,8.62,0,0,0-5.33-2.07c-2.93,0-4.27,1.59-4.27,3.36,0,2.21,2.54,3,5.18,4,3.36,1.25,7.11,2.64,7.11,7.06,0,3.79-3,7-8.55,7A14,14,0,0,1,1383.69,1766.54Z"/><path class="cls-43" d="M1590.28,897.88l2.8-3.25a14.36,14.36,0,0,0,10.14,4.59c4.81,0,7.67-2.4,7.67-6,0-3.75-2.63-4.93-6.11-6.49l-5.26-2.3c-3.47-1.46-7.45-4.09-7.45-9.46,0-5.6,4.87-9.75,11.54-9.75a15.22,15.22,0,0,1,10.86,4.54l-2.52,3a11.71,11.71,0,0,0-8.34-3.47c-4.09,0-6.83,2.07-6.83,5.38,0,3.52,3.19,4.87,6.1,6.1l5.21,2.24c4.25,1.85,7.56,4.37,7.56,9.8,0,5.82-4.76,10.47-12.49,10.47A17.83,17.83,0,0,1,1590.28,897.88Z"/><path class="cls-43" d="M1622.42,875.42h3.81l.39,3.92h.17c2.35-2.57,5.21-4.59,8.46-4.59,4.14,0,6.38,2,7.5,5.21,2.86-3.08,5.66-5.21,9-5.21,5.6,0,8.29,3.7,8.29,10.64v17.25h-4.59V886c0-5.1-1.63-7.28-5-7.28-2.13,0-4.31,1.4-6.83,4.2v19.71h-4.6V886c0-5.1-1.62-7.28-5.09-7.28-2,0-4.31,1.4-6.83,4.2v19.71h-4.6Z"/><path class="cls-43" d="M1667.17,895.58c0-5.93,5.09-8.9,16.68-10.19,0-3.47-1.12-6.83-5.59-6.83a14.81,14.81,0,0,0-8.12,2.91l-1.8-3.19a20.24,20.24,0,0,1,10.7-3.53c6.66,0,9.46,4.43,9.46,11.2v16.69h-3.81l-.39-3.25h-.16c-2.58,2.13-5.6,3.92-9,3.92C1670.58,903.31,1667.17,900.46,1667.17,895.58Zm16.68.4v-7.56c-9.07,1.12-12.2,3.36-12.2,6.83,0,3.08,2.12,4.37,4.81,4.37S1681.22,898.33,1683.85,896Z"/><path class="cls-43" d="M1697.07,875.42h3.81l.39,4.93h.17c1.85-3.41,4.65-5.6,7.73-5.6a6.81,6.81,0,0,1,2.91.56l-.9,4a7.59,7.59,0,0,0-2.63-.44c-2.29,0-5,1.68-6.89,6.27v17.47h-4.59Z"/><path class="cls-43" d="M1717.29,894.24V879.18h-4v-3.47l4.26-.29.56-7.61h3.86v7.61h7.34v3.76h-7.34V894.3c0,3.36,1.07,5.26,4.2,5.26a9.69,9.69,0,0,0,3.08-.73l.9,3.47a16.61,16.61,0,0,1-5,1C1719.25,903.31,1717.29,899.62,1717.29,894.24Z"/><path class="cls-43" d="M1744.39,897.88l2.8-3.25a14.36,14.36,0,0,0,10.14,4.59c4.81,0,7.67-2.4,7.67-6,0-3.75-2.63-4.93-6.11-6.49l-5.26-2.3c-3.47-1.46-7.45-4.09-7.45-9.46,0-5.6,4.87-9.75,11.54-9.75a15.22,15.22,0,0,1,10.86,4.54l-2.52,3a11.71,11.71,0,0,0-8.34-3.47c-4.09,0-6.83,2.07-6.83,5.38,0,3.52,3.19,4.87,6.1,6.1l5.21,2.24c4.25,1.85,7.56,4.37,7.56,9.8,0,5.82-4.76,10.47-12.49,10.47A17.83,17.83,0,0,1,1744.39,897.88Z"/><path class="cls-43" d="M1774.52,889.09c0-9.13,6.1-14.34,13.1-14.34a11.26,11.26,0,0,1,8,3.2l-2.35,3a8,8,0,0,0-5.43-2.41c-4.93,0-8.51,4.26-8.51,10.53s3.41,10.41,8.4,10.41a9.67,9.67,0,0,0,6.38-2.74l2,3.08a13.32,13.32,0,0,1-8.79,3.47C1780.06,903.31,1774.52,898.1,1774.52,889.09Z"/><path class="cls-43" d="M1802.07,862.77h4.59v10.86l-.17,5.6c2.58-2.46,5.32-4.48,9.08-4.48,5.71,0,8.28,3.7,8.28,10.64v17.25h-4.59V886c0-5.1-1.57-7.28-5.15-7.28-2.8,0-4.7,1.45-7.45,4.2v19.71h-4.59Z"/><path class="cls-43" d="M1830.52,889.09c0-8.91,6-14.34,12.21-14.34,6.94,0,10.86,5,10.86,12.77a18,18,0,0,1-.17,2.63h-18.37c.34,5.77,3.87,9.47,9.07,9.47a12.27,12.27,0,0,0,6.78-2.13l1.62,3a16.21,16.21,0,0,1-9,2.8C1836.28,903.31,1830.52,898,1830.52,889.09Zm19-2.24c0-5.49-2.47-8.46-6.72-8.46-3.81,0-7.28,3.08-7.84,8.46Z"/><path class="cls-43" d="M1860.31,875.42h3.81l.39,3.92h.17c2.35-2.57,5.2-4.59,8.45-4.59,4.15,0,6.39,2,7.51,5.21,2.85-3.08,5.65-5.21,9-5.21,5.6,0,8.28,3.7,8.28,10.64v17.25h-4.59V886c0-5.1-1.62-7.28-5-7.28-2.13,0-4.31,1.4-6.83,4.2v19.71h-4.59V886c0-5.1-1.63-7.28-5.1-7.28-2,0-4.31,1.4-6.83,4.2v19.71h-4.59Z"/><path class="cls-43" d="M1905.05,895.58c0-5.93,5.1-8.9,16.69-10.19,0-3.47-1.12-6.83-5.6-6.83a14.84,14.84,0,0,0-8.12,2.91l-1.79-3.19a20.24,20.24,0,0,1,10.69-3.53c6.67,0,9.47,4.43,9.47,11.2v16.69h-3.81l-.39-3.25H1922c-2.58,2.13-5.6,3.92-9,3.92C1908.47,903.31,1905.05,900.46,1905.05,895.58Zm16.69.4v-7.56c-9.07,1.12-12.21,3.36-12.21,6.83,0,3.08,2.13,4.37,4.82,4.37S1919.11,898.33,1921.74,896Z"/><path class="cls-43" d="M1931.93,899.56l2.3-3.08c2.35,1.9,4.76,3.25,8,3.25,3.58,0,5.37-1.91,5.37-4.26,0-2.8-3.25-4-6.21-5.15-3.87-1.4-8.12-3.25-8.12-7.84,0-4.37,3.47-7.73,9.35-7.73a13.58,13.58,0,0,1,8.45,3.08l-2.18,2.91a10.11,10.11,0,0,0-6.22-2.4c-3.41,0-5,1.84-5,3.92,0,2.57,3,3.53,6,4.7,3.92,1.46,8.29,3.08,8.29,8.23,0,4.43-3.53,8.12-10,8.12A16.38,16.38,0,0,1,1931.93,899.56Z"/><line class="cls-44" x1="1242.62" y1="888.5" x2="1248.62" y2="888.5"/><line class="cls-82" x1="1260.68" y1="888.5" x2="1544.09" y2="888.5"/><line class="cls-44" x1="1550.12" y1="888.5" x2="1556.12" y2="888.5"/><g id="Logo"><path class="cls-83" d="M666.16,606.42c0-10-6.85-17.31-18-17.31H623v53.7h11.43V623.57h8.38l10.55,19.24h13.12l-12.07-20.45C660.2,621,666.16,615.92,666.16,606.42Z"/><path class="cls-83" d="M698.29,588.22c-16.18,0-28,11.6-28,27.78s11.83,27.78,28,27.78,28.1-11.6,28.1-27.78S714.56,588.22,698.29,588.22Zm0,45.41C688.38,633.63,682,626,682,616s6.35-17.63,16.26-17.63,16.34,7.56,16.34,17.63-6.43,17.63-16.34,17.63Z"/><path class="cls-83" d="M758.78,598.37a14.68,14.68,0,0,1,13,7.81l9.83-4.84c-3.79-6.66-10.63-13.12-22.87-13.12-15.7,0-28.18,11.27-28.18,27.78s12.48,27.78,28.18,27.78c12.23,0,19-6.52,22.87-13.21l-9.83-4.75a14.53,14.53,0,0,1-13,7.81c-9.34,0-16.42-7.49-16.42-17.63S749.44,598.37,758.78,598.37Z"/><polygon class="cls-83" points="831.87 589.11 817.78 589.11 798.78 613.1 798.78 589.11 787.35 589.11 787.35 642.81 798.78 642.81 798.78 626.31 802.97 621.31 819.23 642.81 833.32 642.81 810.54 614.31 831.87 589.11"/><path class="cls-83" d="M857.21,610c-6.2-1.45-10.71-2.58-10.71-6.2,0-3.22,2.74-5.47,7.9-5.47a22.86,22.86,0,0,1,15.37,5.88l6.36-8.38c-5.31-4.91-12.4-7.49-20.93-7.49-12.64,0-20.37,7.25-20.37,16.19,0,12,11.27,14.41,20,16.42,6.2,1.45,10.87,2.82,10.87,6.85,0,3.06-3.07,6-9.34,6a23.53,23.53,0,0,1-17.07-7.22l-6.27,8.67c5.08,5.08,12.49,8.54,22.78,8.54,14.49,0,21.5-7.41,21.5-17.22C877.34,614.63,866.07,612,857.21,610Z"/><polygon class="cls-83" points="884.22 642.81 922.23 642.81 922.23 632.91 895.66 632.91 895.66 620.43 921.67 620.43 921.67 610.61 895.66 610.61 895.66 598.93 922.23 598.93 922.23 589.11 884.22 589.11 884.22 642.81"/><polygon class="cls-83" points="926.42 589.11 926.42 599.17 942.12 599.17 942.12 642.81 953.64 642.81 953.64 599.17 969.26 599.17 969.26 589.11 926.42 589.11"/><polygon class="cls-84" points="628.63 572.11 628.63 561 595.29 561 595.29 566.56 595.29 572.11 595.29 659.89 595.29 665.44 595.29 671 628.63 671 628.63 659.89 606.41 659.89 606.41 572.11 628.63 572.11"/><polygon class="cls-84" points="960.85 572.11 960.85 561 994.18 561 994.18 566.56 994.18 572.11 994.18 659.89 994.18 665.44 994.18 671 960.85 671 960.85 659.89 983.07 659.89 983.07 572.11 960.85 572.11"/></g><polyline id="Bracket-L-LB-Logo" class="cls-85" points="1122.95 621.39 1082.95 622 1082.95 612 1128.13 612 1577.89 1340 1332.95 1340 1332.89 1331 1561.89 1331"/><polyline id="Bracket-L-LB-Logo-2" data-name="Bracket-L-LB-Logo" class="cls-86" points="469.07 621.39 509.07 621 509.07 612 464.89 612 14.13 1340 260.07 1340 260.13 1331 30.13 1331"/><rect class="cls-87" x="376.12" y="1331" width="359" height="9" transform="translate(1111.24 2671) rotate(180)"/><rect class="cls-88" x="872.12" y="1331" width="352" height="9"/><line class="cls-89" x1="802.62" y1="1208.92" x2="802.62" y2="1214.92"/><line class="cls-90" x1="802.62" y1="1227.1" x2="802.62" y2="1367.12"/><line class="cls-91" x1="802.62" y1="1373.21" x2="802.62" y2="1379.21"/><polygon class="cls-92" points="782.17 1225.49 785.83 1228.9 802.62 1210.84 819.4 1228.9 823.07 1225.49 802.62 1203.5 782.17 1225.49"/><line class="cls-93" x1="468.83" y1="1208.53" x2="468.82" y2="1214.53"/><line class="cls-94" x1="468.81" y1="1226.37" x2="468.77" y2="1267.79"/><polyline class="cls-95" points="468.76 1273.7 468.75 1279.7 462.75 1279.71"/><line class="cls-96" x1="450.16" y1="1279.71" x2="330.46" y2="1279.78"/><polyline class="cls-97" points="324.17 1279.78 318.17 1279.78 318.16 1285.78"/><line class="cls-98" x1="318.16" y1="1298.43" x2="318.12" y2="1368"/><line class="cls-99" x1="318.12" y1="1374.32" x2="318.12" y2="1380.32"/><polygon class="cls-100" points="448.36 1225.08 452.02 1228.49 468.82 1210.45 485.59 1228.53 489.26 1225.12 468.83 1203.11 448.36 1225.08"/><line class="cls-101" x1="1128.17" y1="1209.42" x2="1128.03" y2="1215.42"/><line class="cls-102" x1="1127.76" y1="1226.97" x2="1126.82" y2="1267.38"/><polyline class="cls-103" points="1126.69 1273.16 1126.55 1279.15 1132.55 1279.14"/><line class="cls-104" x1="1145.55" y1="1279.1" x2="1269.05" y2="1278.74"/><polyline class="cls-105" points="1275.55 1278.72 1281.55 1278.7 1281.53 1284.7"/><line class="cls-106" x1="1281.47" y1="1297.5" x2="1281.17" y2="1367.92"/><line class="cls-107" x1="1281.14" y1="1374.32" x2="1281.12" y2="1380.32"/><polygon class="cls-108" points="1107.34 1225.51 1110.92 1229 1128.12 1211.34 1144.48 1229.79 1148.22 1226.46 1128.29 1204 1107.34 1225.51"/><polyline class="cls-109" points="383.79 1127.23 420.54 1127.23 420.54 1123.23 383.79 1123.23"/><polyline class="cls-110" points="420.54 1104.13 404.1 1104.13 404.1 1108.13 420.54 1108.13"/><polyline class="cls-111" points="420.54 1140.57 368.86 1140.57 368.86 1144.57 420.54 1144.57"/><polyline class="cls-112" points="398.37 1104.13 390.1 1104.13 390.1 1108.13 398.37 1108.13"/><polyline class="cls-113" points="385.11 1083.85 407.69 1083.85 407.69 1079.85 385.11 1079.85"/><polyline class="cls-114" points="394.63 1070.33 394.63 1092.91 398.63 1092.91 398.63 1070.33"/><path class="cls-115" d="M510.66,1138a1.94,1.94,0,0,1,1,1.08,2.41,2.41,0,0,1,.09,1.45,44.88,44.88,0,0,1-9.94,17,2.69,2.69,0,0,1-1.26.73,2,2,0,0,1-1.45-.19l-7.59-4.51a34.42,34.42,0,0,1-11,6.32v8.86a2.28,2.28,0,0,1-.45,1.35,2,2,0,0,1-1.17.81,46,46,0,0,1-19.88,0,2,2,0,0,1-1.17-.81,2.28,2.28,0,0,1-.45-1.35v-8.86a34.57,34.57,0,0,1-11-6.32l-7.59,4.51a2,2,0,0,1-1.44.19,2.77,2.77,0,0,1-1.27-.73,44.85,44.85,0,0,1-9.93-17,2.41,2.41,0,0,1,.09-1.45,1.94,1.94,0,0,1,1-1.08l7.59-4.52a37.31,37.31,0,0,1,0-12.65l-7.59-4.51a2,2,0,0,1-1-1.09,2.37,2.37,0,0,1-.09-1.44,44.82,44.82,0,0,1,9.93-17,2.75,2.75,0,0,1,1.27-.72,2,2,0,0,1,1.44.18l7.59,4.52a34.78,34.78,0,0,1,11-6.33v-8.85a2.28,2.28,0,0,1,.45-1.35,2,2,0,0,1,1.17-.82,46.28,46.28,0,0,1,19.88,0,2,2,0,0,1,1.17.82,2.28,2.28,0,0,1,.45,1.35v8.85a34.63,34.63,0,0,1,11,6.33l7.59-4.52a2.06,2.06,0,0,1,1.45-.18,2.67,2.67,0,0,1,1.26.72,44.84,44.84,0,0,1,9.94,17,2.37,2.37,0,0,1-.09,1.44,2,2,0,0,1-1,1.09l-7.59,4.51a37.31,37.31,0,0,1,0,12.65Zm-31.53-21a14.41,14.41,0,1,0,4.24,10.21A13.94,13.94,0,0,0,479.13,1117Z"/><path class="cls-116" d="M516.69,1076.4h2.89a2.26,2.26,0,0,0,1.54-.55,1.8,1.8,0,0,0,.63-1.44,15.72,15.72,0,0,0,0-6.69,1.62,1.62,0,0,0-.63-1.26,2.3,2.3,0,0,0-1.54-.54h-2.89a20.7,20.7,0,0,0-2.89-5.06l1.45-2.53a2.72,2.72,0,0,0,.27-1.54,1.89,1.89,0,0,0-.82-1.35,17.08,17.08,0,0,0-5.78-3.26,2.07,2.07,0,0,0-2.71.91l-1.44,2.71a15.66,15.66,0,0,0-5.79,0l-1.44-2.71a2.06,2.06,0,0,0-2.71-.91,22.39,22.39,0,0,0-5.78,3.26,1.92,1.92,0,0,0-.82,1.35,2.65,2.65,0,0,0,.28,1.54l1.44,2.53a21,21,0,0,0-2.89,5.06h-2.89a2.3,2.3,0,0,0-1.54.54,2.41,2.41,0,0,0-.81,1.26,17.87,17.87,0,0,0,.18,6.69,1.8,1.8,0,0,0,.63,1.44,2.26,2.26,0,0,0,1.54.55h2.89a18,18,0,0,0,2.89,4.87l-1.44,2.53a2.65,2.65,0,0,0-.28,1.54,1.92,1.92,0,0,0,.82,1.35,19.61,19.61,0,0,0,5.78,3.44,2.74,2.74,0,0,0,1.54-.09,2,2,0,0,0,1.17-1l1.44-2.53a15.24,15.24,0,0,0,5.79,0l1.44,2.53a1.94,1.94,0,0,0,1.18,1,2.7,2.7,0,0,0,1.53.09,19.61,19.61,0,0,0,5.78-3.44,1.89,1.89,0,0,0,.82-1.35,2.72,2.72,0,0,0-.27-1.54m-7.14-10.75a6.07,6.07,0,0,1-4.34,4.34,6.41,6.41,0,0,1-8.13-8.13,6.31,6.31,0,0,1,4.34-4.43,6.84,6.84,0,0,1,6.59,1.45C508.26,1068.57,508.77,1070.82,508.11,1073.05Z"/><path class="cls-117" d="M553,1123.23a1.65,1.65,0,0,0-.63-1.27,2.28,2.28,0,0,0-1.54-.54h-2.89a21.08,21.08,0,0,0-2.89-5.06l1.45-2.53a2.69,2.69,0,0,0,.27-1.53,1.93,1.93,0,0,0-.81-1.36,17.19,17.19,0,0,0-5.79-3.25,2.08,2.08,0,0,0-2.71.9L536,1111.3a15.6,15.6,0,0,0-5.78,0l-1.45-2.71a1.93,1.93,0,0,0-1.17-1,2,2,0,0,0-1.54.09,22.54,22.54,0,0,0-5.78,3.25,1.93,1.93,0,0,0-.81,1.36,2.69,2.69,0,0,0,.27,1.53l1.44,2.53a21.42,21.42,0,0,0-2.89,5.06h-2.89a2.27,2.27,0,0,0-1.53.54,2.44,2.44,0,0,0-.82,1.27,17.81,17.81,0,0,0,.18,6.68,1.79,1.79,0,0,0,.64,1.45,2.27,2.27,0,0,0,1.53.54h2.89a18.09,18.09,0,0,0,2.89,4.88l-1.44,2.53a2.71,2.71,0,0,0-.27,1.54,1.91,1.91,0,0,0,.81,1.35,19.71,19.71,0,0,0,5.78,3.43,2.73,2.73,0,0,0,1.54-.09,1.93,1.93,0,0,0,1.17-1l1.45-2.53a15.6,15.6,0,0,0,5.78,0l1.44,2.53a2,2,0,0,0,1.18,1,2.7,2.7,0,0,0,1.53.09,19.76,19.76,0,0,0,5.79-3.43,1.91,1.91,0,0,0,.81-1.35,2.71,2.71,0,0,0-.27-1.54l-1.45-2.53a17.83,17.83,0,0,0,2.89-4.88h2.89a2.28,2.28,0,0,0,1.54-.54,1.81,1.81,0,0,0,.63-1.45A15.36,15.36,0,0,0,553,1123.23Zm-13.64,5.33a6.09,6.09,0,0,1-4.33,4.34,6.42,6.42,0,0,1-8.14-8.14,6.32,6.32,0,0,1,4.34-4.42,6.88,6.88,0,0,1,6.6,1.44Q540.32,1125.21,539.33,1128.56Z"/><polyline class="cls-118" points="750.95 1140.57 699.27 1140.57 699.27 1148.1 750.95 1148.1"/><polyline class="cls-119" points="689.79 1130.76 758.95 1130.76 758.95 1123.23 689.79 1123.23"/><polyline class="cls-120" points="750.95 1104.13 720.01 1104.13 720.01 1111.66 750.95 1111.66"/><polyline class="cls-121" points="710.37 1104.13 702.1 1104.13 702.1 1111.66 710.37 1111.66"/><polyline class="cls-122" points="718.11 1087.38 740.69 1087.38 740.69 1079.85 718.11 1079.85"/><polyline class="cls-123" points="725.63 1072.33 725.63 1094.91 733.16 1094.91 733.16 1072.33"/><path class="cls-124" d="M843.66,1138a1.94,1.94,0,0,1,1,1.08,2.41,2.41,0,0,1,.09,1.45,44.88,44.88,0,0,1-9.94,17,2.69,2.69,0,0,1-1.26.73,2,2,0,0,1-1.45-.19l-7.59-4.51a34.42,34.42,0,0,1-11,6.32v8.86a2.28,2.28,0,0,1-.45,1.35,2,2,0,0,1-1.17.81,46,46,0,0,1-19.88,0,2,2,0,0,1-1.17-.81,2.28,2.28,0,0,1-.45-1.35v-8.86a34.57,34.57,0,0,1-11-6.32l-7.59,4.51a2,2,0,0,1-1.44.19,2.77,2.77,0,0,1-1.27-.73,44.85,44.85,0,0,1-9.93-17,2.41,2.41,0,0,1,.09-1.45,1.94,1.94,0,0,1,1-1.08l7.59-4.52a37.31,37.31,0,0,1,0-12.65l-7.59-4.51a2,2,0,0,1-1-1.09,2.37,2.37,0,0,1-.09-1.44,44.82,44.82,0,0,1,9.93-17,2.75,2.75,0,0,1,1.27-.72,2,2,0,0,1,1.44.18l7.59,4.52a34.78,34.78,0,0,1,11-6.33v-8.85a2.28,2.28,0,0,1,.45-1.35,2,2,0,0,1,1.17-.82,46.28,46.28,0,0,1,19.88,0,2,2,0,0,1,1.17.82,2.28,2.28,0,0,1,.45,1.35v8.85a34.63,34.63,0,0,1,11,6.33l7.59-4.52a2.06,2.06,0,0,1,1.45-.18,2.67,2.67,0,0,1,1.26.72,44.84,44.84,0,0,1,9.94,17,2.37,2.37,0,0,1-.09,1.44,2,2,0,0,1-1,1.09l-7.59,4.51a37.31,37.31,0,0,1,0,12.65Zm-31.53-21a14.41,14.41,0,1,0,4.24,10.21A13.94,13.94,0,0,0,812.13,1117Z"/><path class="cls-125" d="M854.75,1067.72a1.62,1.62,0,0,0-.63-1.26,2.3,2.3,0,0,0-1.54-.54h-2.89a20.7,20.7,0,0,0-2.89-5.06l1.45-2.53a2.72,2.72,0,0,0,.27-1.54,1.89,1.89,0,0,0-.82-1.35,17.08,17.08,0,0,0-5.78-3.26,2.07,2.07,0,0,0-2.71.91l-1.44,2.71a15.66,15.66,0,0,0-5.79,0l-1.44-2.71a2.06,2.06,0,0,0-2.71-.91,22.39,22.39,0,0,0-5.78,3.26,1.92,1.92,0,0,0-.82,1.35,2.65,2.65,0,0,0,.28,1.54l1.44,2.53a21,21,0,0,0-2.89,5.06h-2.89a2.3,2.3,0,0,0-1.54.54,2.41,2.41,0,0,0-.81,1.26,17.87,17.87,0,0,0,.18,6.69,1.8,1.8,0,0,0,.63,1.44,2.26,2.26,0,0,0,1.54.55h2.89a18,18,0,0,0,2.89,4.87l-1.44,2.53a2.65,2.65,0,0,0-.28,1.54,1.92,1.92,0,0,0,.82,1.35,19.61,19.61,0,0,0,5.78,3.44,2.74,2.74,0,0,0,1.54-.09,2,2,0,0,0,1.17-1l1.44-2.53a15.24,15.24,0,0,0,5.79,0l1.44,2.53a1.94,1.94,0,0,0,1.18,1,2.7,2.7,0,0,0,1.53.09,19.61,19.61,0,0,0,5.78-3.44,1.89,1.89,0,0,0,.82-1.35,2.72,2.72,0,0,0-.27-1.54l-1.45-2.53a17.78,17.78,0,0,0,2.89-4.87h2.89a2.26,2.26,0,0,0,1.54-.55,1.8,1.8,0,0,0,.63-1.44A15.72,15.72,0,0,0,854.75,1067.72Zm-13.64,5.33a6.07,6.07,0,0,1-4.34,4.34,6.41,6.41,0,0,1-8.13-8.13,6.31,6.31,0,0,1,4.34-4.43,6.84,6.84,0,0,1,6.59,1.45C841.26,1068.57,841.77,1070.82,841.11,1073.05Z"/><path class="cls-126" d="M886,1123.23a1.65,1.65,0,0,0-.63-1.27,2.28,2.28,0,0,0-1.54-.54h-2.89a21.08,21.08,0,0,0-2.89-5.06l1.45-2.53a2.69,2.69,0,0,0,.27-1.53,1.93,1.93,0,0,0-.81-1.36,17.19,17.19,0,0,0-5.79-3.25,2.08,2.08,0,0,0-2.71.9L869,1111.3a15.6,15.6,0,0,0-5.78,0l-1.45-2.71a1.93,1.93,0,0,0-1.17-1,2,2,0,0,0-1.54.09,22.54,22.54,0,0,0-5.78,3.25,1.93,1.93,0,0,0-.81,1.36,2.69,2.69,0,0,0,.27,1.53l1.44,2.53a21.42,21.42,0,0,0-2.89,5.06h-2.89a2.27,2.27,0,0,0-1.53.54,2.44,2.44,0,0,0-.82,1.27,17.81,17.81,0,0,0,.18,6.68,1.79,1.79,0,0,0,.64,1.45,2.27,2.27,0,0,0,1.53.54h2.89a18.09,18.09,0,0,0,2.89,4.88l-1.44,2.53a2.71,2.71,0,0,0-.27,1.54,1.91,1.91,0,0,0,.81,1.35,19.71,19.71,0,0,0,5.78,3.43,2.73,2.73,0,0,0,1.54-.09,1.93,1.93,0,0,0,1.17-1l1.45-2.53a15.6,15.6,0,0,0,5.78,0l1.44,2.53a2,2,0,0,0,1.18,1,2.7,2.7,0,0,0,1.53.09,19.76,19.76,0,0,0,5.79-3.43,1.91,1.91,0,0,0,.81-1.35,2.71,2.71,0,0,0-.27-1.54l-1.45-2.53a17.83,17.83,0,0,0,2.89-4.88h2.89a2.28,2.28,0,0,0,1.54-.54,1.81,1.81,0,0,0,.63-1.45A15.36,15.36,0,0,0,886,1123.23Zm-13.64,5.33a6.09,6.09,0,0,1-4.33,4.34,6.42,6.42,0,0,1-8.14-8.14,6.32,6.32,0,0,1,4.34-4.42,6.88,6.88,0,0,1,6.6,1.44Q873.32,1125.21,872.33,1128.56Z"/><polyline class="cls-127" points="1016.79 1130.76 1085.95 1130.76 1085.95 1123.23 1016.79 1123.23"/><polyline class="cls-128" points="1077.95 1104.13 1047.01 1104.13 1047.01 1111.66 1077.95 1111.66"/><polyline class="cls-129" points="1077.95 1140.57 1026.27 1140.57 1026.27 1148.1 1077.95 1148.1"/><polyline class="cls-130" points="1037.37 1104.13 1029.1 1104.13 1029.1 1111.66 1037.37 1111.66"/><polyline class="cls-131" points="1045.11 1087.38 1067.69 1087.38 1067.69 1079.85 1045.11 1079.85"/><polyline class="cls-132" points="1052.63 1072.33 1052.63 1094.91 1060.16 1094.91 1060.16 1072.33"/><path class="cls-133" d="M1170.66,1138a1.94,1.94,0,0,1,1,1.08,2.41,2.41,0,0,1,.09,1.45,44.88,44.88,0,0,1-9.94,17,2.69,2.69,0,0,1-1.26.73,2,2,0,0,1-1.45-.19l-7.59-4.51a34.42,34.42,0,0,1-11,6.32v8.86a2.28,2.28,0,0,1-.45,1.35,2,2,0,0,1-1.17.81,46,46,0,0,1-19.88,0,2,2,0,0,1-1.17-.81,2.28,2.28,0,0,1-.45-1.35v-8.86a34.57,34.57,0,0,1-11-6.32l-7.59,4.51a2,2,0,0,1-1.44.19,2.77,2.77,0,0,1-1.27-.73,44.85,44.85,0,0,1-9.93-17,2.41,2.41,0,0,1,.09-1.45,1.94,1.94,0,0,1,1-1.08l7.59-4.52a37.31,37.31,0,0,1,0-12.65l-7.59-4.51a2,2,0,0,1-1-1.09,2.37,2.37,0,0,1-.09-1.44,44.82,44.82,0,0,1,9.93-17,2.75,2.75,0,0,1,1.27-.72,2,2,0,0,1,1.44.18l7.59,4.52a34.78,34.78,0,0,1,11-6.33v-8.85a2.28,2.28,0,0,1,.45-1.35,2,2,0,0,1,1.17-.82,46.28,46.28,0,0,1,19.88,0,2,2,0,0,1,1.17.82,2.28,2.28,0,0,1,.45,1.35v8.85a34.63,34.63,0,0,1,11,6.33l7.59-4.52a2.06,2.06,0,0,1,1.45-.18,2.67,2.67,0,0,1,1.26.72,44.84,44.84,0,0,1,9.94,17,2.37,2.37,0,0,1-.09,1.44,2,2,0,0,1-1,1.09l-7.59,4.51a37.31,37.31,0,0,1,0,12.65Zm-31.53-21a14.41,14.41,0,1,0,4.24,10.21A13.94,13.94,0,0,0,1139.13,1117Z"/><path class="cls-134" d="M1181.75,1067.72a1.62,1.62,0,0,0-.63-1.26,2.3,2.3,0,0,0-1.54-.54h-2.89a20.7,20.7,0,0,0-2.89-5.06l1.45-2.53a2.72,2.72,0,0,0,.27-1.54,1.89,1.89,0,0,0-.82-1.35,17.08,17.08,0,0,0-5.78-3.26,2.07,2.07,0,0,0-2.71.91l-1.44,2.71a15.66,15.66,0,0,0-5.79,0l-1.44-2.71a2.06,2.06,0,0,0-2.71-.91,22.39,22.39,0,0,0-5.78,3.26,1.92,1.92,0,0,0-.82,1.35,2.65,2.65,0,0,0,.28,1.54l1.44,2.53a21,21,0,0,0-2.89,5.06h-2.89a2.3,2.3,0,0,0-1.54.54,2.41,2.41,0,0,0-.81,1.26,17.87,17.87,0,0,0,.18,6.69,1.8,1.8,0,0,0,.63,1.44,2.26,2.26,0,0,0,1.54.55h2.89a18,18,0,0,0,2.89,4.87l-1.44,2.53a2.65,2.65,0,0,0-.28,1.54,1.92,1.92,0,0,0,.82,1.35,19.61,19.61,0,0,0,5.78,3.44,2.74,2.74,0,0,0,1.54-.09,2,2,0,0,0,1.17-1l1.44-2.53a15.24,15.24,0,0,0,5.79,0l1.44,2.53a1.94,1.94,0,0,0,1.18,1,2.7,2.7,0,0,0,1.53.09,19.61,19.61,0,0,0,5.78-3.44,1.89,1.89,0,0,0,.82-1.35,2.72,2.72,0,0,0-.27-1.54l-1.45-2.53a17.78,17.78,0,0,0,2.89-4.87h2.89a2.26,2.26,0,0,0,1.54-.55,1.8,1.8,0,0,0,.63-1.44A15.72,15.72,0,0,0,1181.75,1067.72Zm-13.64,5.33a6.07,6.07,0,0,1-4.34,4.34,6.41,6.41,0,0,1-8.13-8.13,6.31,6.31,0,0,1,4.34-4.43,6.84,6.84,0,0,1,6.59,1.45C1168.26,1068.57,1168.77,1070.82,1168.11,1073.05Z"/><path class="cls-135" d="M1213,1123.23a1.65,1.65,0,0,0-.63-1.27,2.28,2.28,0,0,0-1.54-.54h-2.89a21.08,21.08,0,0,0-2.89-5.06l1.45-2.53a2.69,2.69,0,0,0,.27-1.53,1.93,1.93,0,0,0-.81-1.36,17.19,17.19,0,0,0-5.79-3.25,2.08,2.08,0,0,0-2.71.9l-1.44,2.71a15.6,15.6,0,0,0-5.78,0l-1.45-2.71a1.93,1.93,0,0,0-1.17-1,2,2,0,0,0-1.54.09,22.54,22.54,0,0,0-5.78,3.25,1.93,1.93,0,0,0-.81,1.36,2.69,2.69,0,0,0,.27,1.53l1.44,2.53a21.42,21.42,0,0,0-2.89,5.06h-2.89a2.27,2.27,0,0,0-1.53.54,2.44,2.44,0,0,0-.82,1.27,17.81,17.81,0,0,0,.18,6.68,1.79,1.79,0,0,0,.64,1.45,2.27,2.27,0,0,0,1.53.54h2.89a18.09,18.09,0,0,0,2.89,4.88l-1.44,2.53a2.71,2.71,0,0,0-.27,1.54,1.91,1.91,0,0,0,.81,1.35,19.71,19.71,0,0,0,5.78,3.43,2.73,2.73,0,0,0,1.54-.09,1.93,1.93,0,0,0,1.17-1l1.45-2.53a15.6,15.6,0,0,0,5.78,0l1.44,2.53a2,2,0,0,0,1.18,1,2.7,2.7,0,0,0,1.53.09,19.76,19.76,0,0,0,5.79-3.43,1.91,1.91,0,0,0,.81-1.35,2.71,2.71,0,0,0-.27-1.54l-1.45-2.53a17.83,17.83,0,0,0,2.89-4.88h2.89a2.28,2.28,0,0,0,1.54-.54,1.81,1.81,0,0,0,.63-1.45A15.36,15.36,0,0,0,1213,1123.23Zm-13.64,5.33a6.09,6.09,0,0,1-4.33,4.34,6.42,6.42,0,0,1-8.14-8.14,6.32,6.32,0,0,1,4.34-4.42,6.88,6.88,0,0,1,6.6,1.44Q1200.32,1125.21,1199.33,1128.56Z"/><g id="Union"><polygon class="cls-136" points="954.4 883.98 986.22 869.51 986.22 898.43 954.4 883.98"/><polygon class="cls-137" points="954.38 883.98 922.57 869.51 922.57 898.43 954.38 883.98"/></g><g id="Union-2" data-name="Union"><polygon class="cls-138" points="637.63 883.98 669.45 869.51 669.45 898.43 637.63 883.98"/><polygon class="cls-139" points="637.61 883.98 605.79 869.51 605.79 898.43 637.61 883.98"/></g><g id="Schema-Middle"><rect class="cls-140" x="721.28" y="808.28" width="149.45" height="149.45" rx="10" ry="10"/><line class="cls-141" x1="772.11" y1="954.76" x2="772.05" y2="810.21"/><line class="cls-141" x1="822.46" y1="954.76" x2="822.84" y2="807.36"/><path class="cls-142" d="M731.28,808.44H860.73a10,10,0,0,1,10,10v29.63a0,0,0,0,1,0,0H721.28a0,0,0,0,1,0,0V818.44A10,10,0,0,1,731.28,808.44Z"/><line class="cls-141" x1="723.66" y1="883.51" x2="868.07" y2="883.5"/><line class="cls-141" x1="723.66" y1="919.6" x2="868.3" y2="919.62"/><circle class="cls-143" cx="738.14" cy="828.45" r="4.31"/><circle class="cls-143" cx="756.73" cy="828.45" r="4.31"/><circle class="cls-143" cx="775.32" cy="828.45" r="4.31"/></g><g id="Schema-Middle-2" data-name="Schema-Middle"><rect class="cls-144" x="1038.05" y="808.28" width="149.45" height="149.45" rx="10" ry="10"/><line class="cls-141" x1="1088.88" y1="954.76" x2="1088.82" y2="810.21"/><line class="cls-141" x1="1139.23" y1="954.76" x2="1139.61" y2="807.36"/><path class="cls-145" d="M1048.05,808.44H1177.5a10,10,0,0,1,10,10v29.63a0,0,0,0,1,0,0H1038.05a0,0,0,0,1,0,0V818.44A10,10,0,0,1,1048.05,808.44Z"/><line class="cls-141" x1="1040.43" y1="883.51" x2="1184.84" y2="883.5"/><line class="cls-141" x1="1040.43" y1="919.6" x2="1185.07" y2="919.62"/><circle class="cls-143" cx="1055.85" cy="828.45" r="4.31"/><circle class="cls-143" cx="1074.43" cy="828.45" r="4.31"/><circle class="cls-143" cx="1093.02" cy="828.45" r="4.31"/></g><g id="Schema-Middle-3" data-name="Schema-Middle"><rect class="cls-146" x="404.51" y="808.28" width="149.45" height="149.45" rx="10" ry="10"/><line class="cls-141" x1="455.34" y1="954.76" x2="455.28" y2="810.21"/><line class="cls-141" x1="505.69" y1="954.76" x2="506.07" y2="807.36"/><path class="cls-147" d="M414.51,808.44H544a10,10,0,0,1,10,10v29.63a0,0,0,0,1,0,0H404.51a0,0,0,0,1,0,0V818.44A10,10,0,0,1,414.51,808.44Z"/><line class="cls-141" x1="406.89" y1="883.51" x2="551.3" y2="883.5"/><line class="cls-141" x1="406.89" y1="919.6" x2="551.53" y2="919.62"/><circle class="cls-143" cx="421.37" cy="828.45" r="4.31"/><circle class="cls-143" cx="439.96" cy="828.45" r="4.31"/><circle class="cls-143" cx="458.55" cy="828.45" r="4.31"/></g><path class="cls-148" d="M484.91,1008l-15.58,33.38a1.37,1.37,0,0,1-1.21.72,2,2,0,0,1-.4-.06,1.21,1.21,0,0,1-.87-1.41l5.68-23.31-11.71,2.91a1.31,1.31,0,0,1-.34,0,1.43,1.43,0,0,1-.9-.32,1.11,1.11,0,0,1-.37-1.12L465,995a1.29,1.29,0,0,1,1.27-.92h9.47A1.25,1.25,0,0,1,477,995.3a1.13,1.13,0,0,1-.14.52L472,1009.17l11.42-2.82a1.35,1.35,0,0,1,.35-.06,1.41,1.41,0,0,1,1,.43A1.16,1.16,0,0,1,484.91,1008Z"/><path class="cls-149" d="M812.32,1009.9l-15.58,33.38a1.37,1.37,0,0,1-1.21.72,2.16,2.16,0,0,1-.4-.06,1.21,1.21,0,0,1-.87-1.41l5.68-23.31-11.71,2.92a1.94,1.94,0,0,1-.34,0,1.42,1.42,0,0,1-.9-.31,1.14,1.14,0,0,1-.37-1.13l5.8-23.8a1.27,1.27,0,0,1,1.26-.92h9.47a1.25,1.25,0,0,1,1.29,1.21,1.13,1.13,0,0,1-.14.52l-4.93,13.36,11.42-2.83a1.24,1.24,0,0,1,1.33.38A1.14,1.14,0,0,1,812.32,1009.9Z"/><path class="cls-150" d="M1138.86,1007.9l-15.58,33.38a1.37,1.37,0,0,1-1.21.72,2,2,0,0,1-.4-.06,1.21,1.21,0,0,1-.87-1.41l5.68-23.31-11.71,2.92a1.94,1.94,0,0,1-.34,0,1.42,1.42,0,0,1-.9-.31,1.12,1.12,0,0,1-.37-1.13l5.79-23.8a1.29,1.29,0,0,1,1.27-.92h9.47a1.25,1.25,0,0,1,1.29,1.21,1.13,1.13,0,0,1-.14.52l-4.93,13.36,11.42-2.83a1.35,1.35,0,0,1,.35-.06,1.42,1.42,0,0,1,1,.44A1.14,1.14,0,0,1,1138.86,1007.9Z"/></g></svg>