<svg width="92" height="13" viewBox="0 0 92 13" fill="none" xmlns="http://www.w3.org/2000/svg">
<path d="M32.6477 11.9292L31.471 9.99126C32.0211 8.98584 32.0212 7.82014 32.0212 6.27559C32.0212 4.33761 32.0212 2.9242 30.8444 1.74393C30.0344 0.913366 28.9952 0.505371 27.6351 0.505371C26.275 0.505371 25.2205 0.971651 24.4258 1.74393C23.249 2.86591 23.249 4.27933 23.249 6.27559C23.249 8.21357 23.1879 9.62698 24.4258 10.8073C25.2969 11.6378 26.275 12.0458 27.6351 12.0458C28.0019 12.0458 28.3075 11.9875 28.6284 11.9292H32.6477ZM26.0916 9.45212C25.6637 8.98584 25.5414 8.44671 25.5414 6.27559C25.5414 4.10447 25.6637 3.56534 26.0916 3.09906C26.3972 2.74935 26.9627 2.51621 27.574 2.51621C28.1853 2.51621 28.7507 2.74935 29.0564 3.09906C29.4843 3.56534 29.6065 4.10447 29.6065 6.27559C29.6065 8.44671 29.4843 8.98584 29.0564 9.45212C28.7507 9.80183 28.1853 10.035 27.574 10.035C26.9627 10.035 26.4125 9.80183 26.0916 9.45212Z" fill="#3C3C3C"/>
<path d="M59.7437 0.625977H62.0207V11.9327H59.7437V0.625977Z" fill="#3C3C3C"/>
<path d="M4.54346 12.0408C2.7554 12.0408 1.39526 11.6911 0.218506 10.5691L1.70091 9.15571C2.43447 9.85513 3.48896 10.1028 4.54346 10.1028C5.9036 10.1028 6.63716 9.63657 6.63716 8.68943C6.63716 8.28143 6.5149 7.99 6.27038 7.74229C6.02586 7.50914 5.78134 7.45086 5.21589 7.33429L3.79461 7.15943C2.80125 7.04286 2.00656 6.69315 1.51752 6.21229C0.967349 5.68772 0.646416 4.91544 0.646416 3.9683C0.646416 1.97202 2.18995 0.558594 4.78798 0.558594C6.39264 0.558594 7.63053 0.90831 8.62389 1.85545L7.14149 3.21059C6.40792 2.51116 5.47569 2.43831 4.72685 2.43831C3.48896 2.43831 2.87766 3.07944 2.87766 3.85173C2.87766 4.14315 2.99992 4.43458 3.24444 4.6823C3.48896 4.91544 3.85574 5.03201 4.36007 5.14858L5.78134 5.32344C6.89697 5.44001 7.5694 5.73144 8.05844 6.21229C8.66974 6.79515 8.99067 7.62572 8.99067 8.63114C8.99067 10.8023 7.01923 12.0408 4.54346 12.0408Z" fill="#3C3C3C"/>
<path d="M12.3223 11.9327V0.625977H20.1621V2.56386H14.6605V5.21571H19.3522V7.22645H14.6605V9.99485H20.1621V11.9327H12.3223Z" fill="#3C3C3C"/>
<path d="M39.8612 12.0496C37.4465 12.0496 35.4751 10.4613 35.4751 8.04257V0.625977H37.8286V7.98429C37.8286 9.2811 38.6386 10.0388 39.8612 10.0388C41.0837 10.0388 41.8937 9.26653 41.8937 7.98429V0.625977H44.1708V8.04257C44.1861 10.4613 42.2758 12.0496 39.8612 12.0496Z" fill="#3C3C3C"/>
<path d="M55.1742 10.8073C54.3643 11.6378 53.3251 12.0458 51.9649 12.0458C50.6048 12.0458 49.5503 11.5795 48.7556 10.8073C47.5789 9.68526 47.5789 8.27185 47.5789 6.27559C47.5789 4.33761 47.5177 2.9242 48.7556 1.74393C49.5656 0.913366 50.6048 0.505371 51.9649 0.505371C53.3251 0.505371 54.3184 0.971651 55.1742 1.74393C56.351 2.86591 56.351 4.27933 56.351 6.27559C56.351 8.21357 56.351 9.62698 55.1742 10.8073ZM53.4473 3.09906C53.1417 2.74935 52.5762 2.51621 51.9649 2.51621C51.3536 2.51621 50.7882 2.74935 50.4825 3.09906C50.0546 3.56534 49.9324 4.10447 49.9324 6.27559C49.9324 8.44671 50.0546 8.98584 50.4825 9.45212C50.7882 9.80183 51.3536 10.035 51.9649 10.035C52.5762 10.035 53.1417 9.80183 53.4473 9.45212C53.8752 8.98584 53.9975 8.44671 53.9975 6.27559C54.0128 4.10447 53.8905 3.56534 53.4473 3.09906Z" fill="#3C3C3C"/>
<path d="M72.9627 11.9327L72.2903 9.93657H68.0876L67.3541 11.9327H64.9395L69.2644 0.625977H71.0524L75.3773 11.9327H72.9627ZM70.1813 3.91892L68.6989 8.0424H71.6637L70.1813 3.91892Z" fill="#3C3C3C"/>
<path d="M88.9639 0.625H91.9286V3.4519H88.9639V0.625Z" fill="#50B848"/>
<path d="M81.5522 9.51421V0.625977H80.0698V10.9276L81.5522 9.51421Z" fill="#50B848"/>
<path d="M82.5908 10.5176L81.1084 11.931H91.9132V10.5176H82.5908Z" fill="#50B848"/>
<path d="M84.5166 6.68741V0.625977H83.0342V8.10078L84.5166 6.68741Z" fill="#50B848"/>
<path d="M85.5556 7.68652L84.0732 9.09997H91.9131V7.68652H85.5556Z" fill="#50B848"/>
<path d="M87.4814 3.85993V0.625H85.999V5.2734L87.4814 3.85993Z" fill="#50B848"/>
<path d="M88.5205 4.86157L87.0381 6.27502H91.9132V4.86157H88.5205Z" fill="#50B848"/>
</svg>
