<?xml version="1.0" encoding="utf-8"?>
<!-- Generator: Adobe Illustrator 19.0.0, SVG Export Plug-In . SVG Version: 6.00 Build 0)  -->
<svg version="1.1" id="Layer_1" xmlns:sketch="http://www.bohemiancoding.com/sketch/ns"
	 xmlns="http://www.w3.org/2000/svg" xmlns:xlink="http://www.w3.org/1999/xlink" x="0px" y="0px" width="150px" height="21px"
	 viewBox="35 30 150 21" style="enable-background:new 35 30 150 21;" xml:space="preserve">
<style type="text/css">
	.st0{fill:#3C3C3C;}
	.st1{fill:#50B848;}
</style>
<title>Imported Layers</title>
<desc>Created with Sketch.</desc>
<g id="Master" sketch:type="MSPage">
	<g id="Sequoia-1b-Home" transform="translate(-100.000000, -64.000000)" sketch:type="MSArtboardGroup">
		<g id="Nav" sketch:type="MSLayerGroup">
			<g id="NAV" sketch:type="MSShapeGroup">
				<g id="Group" transform="translate(100.500000, 64.000000)">
					<g id="Imported-Layers" transform="translate(0.250000, 0.225500)">
						<path id="Fill-1" class="st0" d="M87.5,50.1l-1.9-3.3c0.9-1.7,0.9-3.7,0.9-6.3c0-3.3,0-5.7-1.9-7.7c-1.3-1.4-3-2.1-5.2-2.1
							c-2.2,0-3.9,0.8-5.2,2.1c-1.9,1.9-1.9,4.3-1.9,7.7c0,3.3-0.1,5.7,1.9,7.7c1.4,1.4,3,2.1,5.2,2.1c0.6,0,1.1-0.1,1.6-0.2H87.5
							L87.5,50.1z M76.9,45.9c-0.7-0.8-0.9-1.7-0.9-5.4c0-3.7,0.2-4.6,0.9-5.4c0.5-0.6,1.4-1,2.4-1c1,0,1.9,0.4,2.4,1
							c0.7,0.8,0.9,1.7,0.9,5.4c0,3.7-0.2,4.6-0.9,5.4c-0.5,0.6-1.4,1-2.4,1C78.3,46.9,77.4,46.5,76.9,45.9L76.9,45.9z"/>
						<path id="Fill-2" class="st0" d="M131.4,30.9h3.7v19.2h-3.7V30.9z"/>
						<path id="Fill-3" class="st0" d="M42,50.3c-2.9,0-5.1-0.6-7-2.5l2.4-2.4c1.2,1.2,2.9,1.6,4.6,1.6c2.2,0,3.4-0.8,3.4-2.4
							c0-0.7-0.2-1.2-0.6-1.6c-0.4-0.4-0.8-0.5-1.7-0.7l-2.3-0.3c-1.6-0.2-2.9-0.8-3.7-1.6c-0.9-0.9-1.4-2.2-1.4-3.8
							c0-3.4,2.5-5.8,6.7-5.8c2.6,0,4.6,0.6,6.2,2.2l-2.4,2.3c-1.2-1.2-2.7-1.3-3.9-1.3c-2,0-3,1.1-3,2.4c0,0.5,0.2,1,0.6,1.4
							c0.4,0.4,1,0.6,1.8,0.8l2.3,0.3c1.8,0.2,2.9,0.7,3.7,1.5c1,1,1.5,2.4,1.5,4.1C49.2,48.2,46,50.3,42,50.3"/>
						<path id="Fill-4" class="st0" d="M54.6,50.1V30.9h12.7v3.3h-8.9v4.5H66v3.4h-7.6v4.7h8.9v3.3H54.6"/>
						<path id="Fill-5" class="st0" d="M99.2,50.3c-3.9,0-7.1-2.7-7.1-6.8V30.9h3.8v12.5c0,2.2,1.3,3.5,3.3,3.5c2,0,3.3-1.3,3.3-3.5
							V30.9h3.7v12.6C106.2,47.6,103.1,50.3,99.2,50.3"/>
						<path id="Fill-6" class="st0" d="M124,48.2c-1.3,1.4-3,2.1-5.2,2.1c-2.2,0-3.9-0.8-5.2-2.1c-1.9-1.9-1.9-4.3-1.9-7.7
							c0-3.3-0.1-5.7,1.9-7.7c1.3-1.4,3-2.1,5.2-2.1c2.2,0,3.8,0.8,5.2,2.1c1.9,1.9,1.9,4.3,1.9,7.7C125.9,43.8,125.9,46.2,124,48.2
							 M121.2,35.1c-0.5-0.6-1.4-1-2.4-1c-1,0-1.9,0.4-2.4,1c-0.7,0.8-0.9,1.7-0.9,5.4c0,3.7,0.2,4.6,0.9,5.4c0.5,0.6,1.4,1,2.4,1
							c1,0,1.9-0.4,2.4-1c0.7-0.8,0.9-1.7,0.9-5.4C122.1,36.8,121.9,35.9,121.2,35.1"/>
						<path id="Fill-7" class="st0" d="M152.8,50.1l-1.1-3.4h-6.8l-1.2,3.4h-3.9l7-19.2h2.9l7,19.2H152.8L152.8,50.1z M148.3,36.5
							l-2.4,7h4.8L148.3,36.5L148.3,36.5z"/>
						<path id="Fill-8" class="st1" d="M178.7,30.9h4.8v4.8h-4.8V30.9z"/>
						<path id="Fill-9" class="st1" d="M166.7,46V30.9h-2.4v17.5L166.7,46"/>
						<path id="Fill-10" class="st1" d="M168.4,47.7l-2.4,2.4h17.5v-2.4H168.4"/>
						<path id="Fill-11" class="st1" d="M171.5,41.2V30.9h-2.4v12.7L171.5,41.2"/>
						<path id="Fill-12" class="st1" d="M173.2,42.9l-2.4,2.4h12.7v-2.4H173.2"/>
						<path id="Fill-13" class="st1" d="M176.3,36.4v-5.5h-2.4v7.9L176.3,36.4"/>
						<path id="Fill-14" class="st1" d="M178,38.1l-2.4,2.4h7.9v-2.4H178"/>
					</g>
				</g>
			</g>
		</g>
	</g>
</g>
</svg>
