<svg width="84" height="14" viewBox="0 0 84 14" fill="none" xmlns="http://www.w3.org/2000/svg">
<g clip-path="url(#clip0)">
<path d="M1.35603 11.1085C2.28414 12.0818 3.41353 12.6874 4.92311 12.6874C6.72343 12.6874 7.91991 11.5627 8.60202 9.98382C9.25058 8.49143 9.11639 8.76179 9.11639 8.76179L9.78732 6.9017C9.78732 6.9017 10.626 4.63065 10.7043 4.46843C11.2969 3.15988 12.5046 1.42956 15.0205 0.84558C15.5908 0.715806 16.1723 0.640105 16.9327 0.683362C18.364 0.769878 19.2809 1.32142 19.2809 1.32142L18.9231 1.86214C18.3975 1.62422 18.2186 1.3863 16.7314 1.33223C15.4455 1.28897 14.6068 1.84051 14.3049 2.14332C14.3049 2.14332 13.2873 2.67323 12.3816 5.18219C12.3816 5.18219 11.8001 7.3559 11.1963 8.96726C11.1963 8.96726 10.3129 11.5952 8.15474 12.6442C8.15474 12.6442 5.40394 14.3529 2.31769 12.6766C1.79213 12.3846 0.808105 11.5303 0.808105 11.5303L1.35603 11.1085Z" fill="#B30838"/>
<path d="M32.2635 11.5087C32.5095 11.6817 32.7108 11.8007 32.968 11.9304C33.9968 12.4712 35.0367 12.1575 35.4057 11.9304C35.484 11.8872 35.5846 11.8331 35.6517 11.7682C36.0319 11.433 36.4121 10.8382 36.8258 9.92975C36.9376 9.68101 37.7875 7.39916 37.7875 7.39916C37.7875 7.39916 38.369 5.60395 39.4536 4.13318C39.5878 3.96015 39.9344 3.46268 40.5271 2.99766C40.829 2.75974 41.2651 2.44612 41.6788 2.29472C42.0814 2.14331 42.5734 1.89458 43.7811 2.08924C44.1277 2.14331 44.1277 2.14331 44.8434 2.37042L44.6309 2.98684C44.4296 2.93277 43.7028 2.69485 43.1884 2.69485C42.7411 2.69485 42.2044 2.86789 41.8689 3.17069C41.2651 3.73304 40.8849 4.40354 40.4153 5.56069C40.2475 5.96083 39.7443 7.47486 39.599 7.90744C39.4201 8.42653 38.9281 9.73509 38.3242 10.6651C37.7987 11.4546 37.0495 12.2981 35.9872 12.7091C35.8753 12.7523 34.3993 13.2714 32.8338 12.6009C32.5431 12.482 31.8945 12.0278 31.8945 12.0278L32.2635 11.5087Z" fill="#B30838"/>
<path d="M27.3098 12.6331H25.4313V7.65841H19.8178V12.6223H17.8945V2.18628H19.8178V6.84732H25.4089V2.18628H27.3098V12.6331Z" fill="#B30838"/>
<path d="M57.7473 12.6331H55.7681V2.18628H57.7473V12.6331Z" fill="#B30838"/>
<path d="M31.2903 12.6331H29.311V2.18628H31.2903V12.6331Z" fill="#B30838"/>
<path d="M54.1244 3.04062H47.6276V6.79325H52.6819V7.59352H47.6276V11.7247H54.2139V12.6006L45.749 12.6331V2.18628H54.1244V3.04062Z" fill="#B30838"/>
<path d="M64.904 2.18628C65.3177 2.18628 65.6532 2.22954 66.011 2.26198C67.0957 2.35931 68.0238 2.75945 68.7618 3.50565C69.6787 4.42488 70.1484 5.64692 70.1707 7.1285C70.1707 10.4594 67.9231 12.6331 64.5573 12.6331H59.5254V2.18628C59.5254 2.18628 64.6021 2.18628 64.904 2.18628ZM61.5494 11.7787C61.5494 11.7787 62.6005 11.7787 63.2043 11.7787C64.8257 11.7787 65.888 11.6814 66.7938 11.0758C67.9008 10.3404 68.2251 9.0643 68.2251 7.2042C68.2251 5.79832 67.9455 4.94397 67.2634 4.18696C66.5477 3.40832 65.5525 3.04062 63.6069 3.04062C62.8912 3.04062 61.5494 3.04062 61.5494 3.04062V11.7787Z" fill="#B30838"/>
<path d="M77.4275 2.18628C77.4164 2.18628 77.4164 2.18628 77.4052 2.18628C73.7598 2.19709 71.2886 4.31673 71.2886 7.46375C71.2886 9.08592 71.87 10.3404 73.1113 11.3353C74.3077 12.2978 75.5489 12.5249 77.4052 12.6331H77.5282H77.4163C77.6959 12.6331 80.1895 12.5682 81.7103 11.3353C82.9403 10.3404 83.5329 9.08592 83.5329 7.46375C83.5441 4.31673 81.0841 2.19709 77.4275 2.18628ZM81.6544 7.46375C81.6544 10.3188 80.1112 11.9409 77.4275 11.8869C77.4275 11.8869 77.4275 11.8869 77.4163 11.8869C74.386 11.8328 73.1672 9.91864 73.1895 7.46375C73.1895 7.46375 73.1895 7.46375 73.1895 7.45294C73.1895 7.44212 73.1895 7.42049 73.1895 7.40968C73.1895 7.38805 73.1895 7.36642 73.1895 7.34479V7.33398C73.2119 5.45226 73.8493 4.08963 75.0681 3.37587C75.6719 3.00818 76.4547 2.80271 77.4163 2.81352C77.4275 2.81352 77.4275 2.81352 77.4387 2.81352C77.9978 2.81352 78.501 2.88922 78.9483 3.02981C78.9595 3.02981 78.9707 3.04062 78.9818 3.04062C79.0266 3.05144 79.0713 3.07307 79.116 3.08388C79.1608 3.0947 79.2055 3.11633 79.2502 3.13795C80.9834 3.80845 81.6544 5.43063 81.6544 7.35561C81.6544 7.37723 81.6544 7.38805 81.6544 7.40968C81.6544 7.42049 81.6544 7.44212 81.6544 7.46375Z" fill="#B30838"/>
</g>
<defs>
<clipPath id="clip0">
<rect width="82.7363" height="12.7287" fill="white" transform="translate(0.808105 0.672607)"/>
</clipPath>
</defs>
</svg>
