<svg width="94" height="16" viewBox="0 0 94 16" fill="none" xmlns="http://www.w3.org/2000/svg">
<path d="M0.573975 0.672607V15.5227H5.58545V14.449H1.85278V1.74631H5.58545V0.672607H0.573975ZM8.31112 12.527L9.17679 11.4907C10.4665 12.6697 11.7031 13.2592 13.4168 13.2592C15.077 13.2592 16.1724 12.3659 16.1724 11.1329V11.0969C16.1724 9.93592 15.554 9.27441 12.957 8.72091C10.1131 8.09541 8.80579 7.16615 8.80579 5.11099V5.07499C8.80579 3.10982 10.5195 1.66216 12.8691 1.66216C14.6707 1.66216 15.9599 2.18057 17.2143 3.19892L16.4016 4.28928C15.2537 3.34202 14.1054 2.93117 12.8334 2.93117C11.2261 2.93117 10.2015 3.82443 10.2015 4.95034V4.98634C10.2015 6.16534 10.8375 6.82685 13.5582 7.41635C16.3133 8.02386 17.5853 9.04221 17.5853 10.9543V10.9903C17.5853 13.1345 15.8186 14.5282 13.3634 14.5282C11.4028 14.5282 9.79513 13.8671 8.31112 12.527ZM19.8113 9.77482V9.73882C19.8113 7.13015 21.8253 4.91479 24.4925 4.91479C26.2239 4.91479 27.3011 5.64694 28.1491 6.5582L27.2485 7.52345C26.5238 6.75485 25.7115 6.12979 24.4749 6.12979C22.6203 6.12979 21.207 7.7201 21.207 9.70372V9.73927C21.207 11.7409 22.6556 13.3312 24.5637 13.3312C25.7292 13.3312 26.6302 12.7417 27.3541 11.9551L28.2198 12.7772C27.3011 13.8136 26.2062 14.5637 24.4925 14.5637C21.8253 14.5637 19.8113 12.3659 19.8113 9.77482ZM30.6936 14.4503H34.4738V1.76341H30.6931V0.690608H35.763V15.5227H30.6931L30.6936 14.4503ZM39.3639 6.09469L39.7897 5.58484C40.4239 6.16534 41.0323 6.45515 41.8753 6.45515C42.692 6.45515 43.2306 6.01549 43.2306 5.40889V5.39134C43.2306 4.81983 42.9267 4.49448 41.6492 4.22223C40.2499 3.91443 39.6071 3.45723 39.6071 2.44652V2.42852C39.6071 1.46191 40.4497 0.750008 41.6058 0.750008C42.4923 0.750008 43.1265 1.00471 43.7439 1.50601L43.3439 2.04197C42.779 1.57621 42.2141 1.37371 41.5885 1.37371C40.7976 1.37371 40.2934 1.81336 40.2934 2.36732V2.38487C40.2934 2.96537 40.6064 3.29027 41.9446 3.58053C43.3004 3.87933 43.926 4.38018 43.926 5.32114V5.33869C43.926 6.3935 43.0571 7.0793 41.849 7.0793C40.8841 7.0793 40.0937 6.75395 39.3639 6.09469ZM47.193 1.47946H45.1509V0.837759H49.9304V1.47946H47.8883V6.99065H47.193V1.47946ZM54.7272 4.73163L53.3456 1.60231L51.9549 4.73208H54.7272V4.73163ZM53.033 0.794108H53.6758L56.4481 6.9911H55.7093L54.9967 5.36524H51.6853L50.9642 6.9911H50.2602L53.0325 0.794108H53.033ZM58.0812 0.837759H58.7244L62.5567 5.76979V0.837309H63.2258V6.9911H62.6781L58.7502 1.94477V6.9911H58.0812V0.837759ZM66.067 1.47946V6.34939H67.4921C69.03 6.34939 70.0121 5.29459 70.0121 3.93198V3.91443C70.0121 2.55182 69.03 1.47946 67.4921 1.47946H66.067ZM65.3803 0.837759H67.4921C69.4038 0.837759 70.7247 2.16527 70.7247 3.89688V3.91443C70.7247 5.64649 69.4038 6.9911 67.4921 6.9911H65.3803V0.837759ZM76.0338 4.73163L74.6521 1.60231L73.2619 4.73208H76.0342L76.0338 4.73163ZM74.3396 0.794108H74.9828L77.7552 6.9911H77.0163L76.3033 5.36524H72.9924L72.2712 6.9911H71.5673L74.3396 0.794108ZM81.7691 3.97608C82.6815 3.97608 83.3333 3.50133 83.3333 2.71022V2.69222C83.3333 1.93622 82.7598 1.47946 81.7777 1.47946H79.9005V3.97563H81.7691V3.97608ZM79.2142 0.837759H81.8298C82.5773 0.837759 83.177 1.06636 83.5594 1.45291C83.8547 1.75171 84.0287 2.18282 84.0287 2.66612V2.68412C84.0287 3.70338 83.3333 4.30143 82.3775 4.47693L84.2457 6.9911H83.4031L81.6387 4.60023H79.9005V6.9911H79.2142V0.837759ZM86.6175 1.47946V6.34939H88.0427C89.581 6.34939 90.5631 5.29459 90.5631 3.93198V3.91443C90.5631 2.55182 89.581 1.47946 88.0427 1.47946H86.6175ZM85.9317 0.837759H88.0431C89.9548 0.837759 91.2761 2.16527 91.2761 3.89688V3.91443C91.2761 5.64649 89.9552 6.9911 88.0431 6.9911H85.9317V0.837759ZM39.3639 12.3578V12.3403C39.3639 10.5997 40.6499 9.15786 42.4402 9.15786C43.5437 9.15786 44.2041 9.55387 44.8125 10.1339L44.3432 10.6438C43.8309 10.1515 43.2569 9.80002 42.4316 9.80002C41.0844 9.80002 40.076 10.9075 40.076 12.3227V12.3407C40.076 13.7645 41.093 14.881 42.4316 14.881C43.2655 14.881 43.8132 14.5556 44.3953 13.9931L44.8474 14.4413C44.2132 15.0921 43.5178 15.5227 42.4139 15.5227C40.659 15.5227 39.3639 14.125 39.3639 12.3578ZM51.7732 12.3578V12.3403C51.7732 10.9426 50.7648 9.80002 49.3746 9.80002C47.9839 9.80002 46.9932 10.925 46.9932 12.3227V12.3407C46.9932 13.738 48.0011 14.881 49.3918 14.881C50.7825 14.881 51.7732 13.756 51.7732 12.3578ZM46.2807 12.3578V12.3403C46.2807 10.6438 47.5409 9.15786 49.3918 9.15786C51.2428 9.15786 52.4858 10.6262 52.4858 12.3227V12.3407C52.4858 14.0372 51.2255 15.5223 49.3746 15.5223C47.5237 15.5223 46.2807 14.0543 46.2807 12.3578ZM53.9277 12.3578V12.3403C53.9277 10.6528 55.153 9.15786 56.9777 9.15786C58.0032 9.15786 58.6374 9.45667 59.2458 9.97552L58.8028 10.5029C58.3335 10.0898 57.8121 9.80002 56.9514 9.80002C55.6046 9.80002 54.6398 10.9511 54.6398 12.3227V12.3407C54.6398 13.8086 55.5698 14.8986 57.047 14.8986C57.7428 14.8986 58.3856 14.6263 58.8028 14.2834V12.7534H56.9514V12.1297H59.4632V14.5822C58.7945 15.185 57.9246 15.5201 57.0216 15.5227C55.1091 15.5227 53.9277 14.116 53.9277 12.3578ZM61.4437 9.26316H62.087L65.9193 14.1952V9.26316H66.5884V15.4174H66.0412L62.1128 10.3711V15.4174H61.4437V9.26316ZM68.804 15.4174H69.4903V9.26316H68.804V15.4174ZM73.314 9.90532H71.2719V9.26316H76.0514V9.90487H74.0093V15.417H73.314V9.90532ZM77.6931 15.4174H78.3798V9.26316H77.6931V15.4174ZM85.7315 12.3578V12.3403C85.7315 10.9426 84.7236 9.80002 83.3329 9.80002C81.9426 9.80002 80.9519 10.925 80.9519 12.3227V12.3407C80.9519 13.738 81.9598 14.881 83.3505 14.881C84.7412 14.881 85.7315 13.756 85.7315 12.3578ZM80.2394 12.3578V12.3403C80.2394 10.6438 81.4992 9.15786 83.3505 9.15786C85.2015 9.15786 86.4445 10.6262 86.4445 12.3227V12.3407C86.4445 14.0372 85.1843 15.5223 83.3329 15.5223C81.4819 15.5223 80.2389 14.0543 80.2389 12.3578H80.2394ZM88.242 9.26316H88.8852L92.7176 14.1952V9.26316H93.3871V15.4174H92.8394L88.9115 10.3711V15.4174H88.2424L88.242 9.26316Z" fill="#111111"/>
</svg>
