<svg width="44" height="46" viewBox="0 0 44 46" fill="none" xmlns="http://www.w3.org/2000/svg">
<path d="M21.3851 22.174C20.3597 22.174 19.891 23.4767 19.891 24.6857C19.8851 25.6154 20.1273 26.3947 20.555 26.8263C20.7855 27.0587 21.0609 27.174 21.3734 27.174C22.4652 27.174 22.8538 25.8126 22.8538 24.6486C22.8538 23.4571 22.3929 22.174 21.3851 22.174L21.3851 22.174Z" fill="url(#paint0_linear)"/>
<path d="M42.0511 17.0155H38.0589V11.031C38.0589 11.0154 38.055 10.9998 38.053 10.9822C38.0511 10.9353 38.0472 10.8904 38.0394 10.8455C38.0315 10.8103 38.0198 10.7791 38.0101 10.7459C38.0023 10.7185 37.9964 10.6931 37.9847 10.6677C37.969 10.6306 37.9476 10.5955 37.928 10.5603C37.9183 10.5427 37.9085 10.5213 37.8968 10.5037C37.8616 10.4509 37.8206 10.4002 37.7757 10.3552L28.2032 0.78125C28.1993 0.777344 28.1954 0.77539 28.1915 0.771484C28.1505 0.730469 28.1055 0.693359 28.0567 0.662109C28.0313 0.644531 28.004 0.632812 27.9766 0.61914C27.9473 0.603515 27.9219 0.58789 27.8907 0.574219C27.8575 0.560547 27.8223 0.552734 27.7891 0.542969C27.7637 0.535156 27.7383 0.525391 27.713 0.519531C27.6524 0.507813 27.5899 0.5 27.5274 0.5H5.98441C5.45511 0.5 5.02736 0.927735 5.02736 1.45705V17.0156H1.03321C0.460956 17.0156 6.48852e-06 17.4804 0.00390649 18.0527L0 32.7361C0.0019535 33.3142 0.46875 33.7713 1.041 33.7713H5.02735V44.5428C5.02735 45.0721 5.45508 45.4998 5.9844 45.4998H37.1014C37.6307 45.4998 38.0584 45.0721 38.0584 44.5428V33.7713H42.0507C42.621 33.7713 43.0858 33.3143 43.0858 32.7361V18.0527C43.0858 17.4804 42.621 17.0156 42.0507 17.0156L42.0511 17.0155ZM28.4846 3.76753L34.7891 10.072L28.4846 10.074V3.76753ZM6.94159 2.41403H26.5686V11.031C26.5686 11.5603 26.9963 11.9881 27.5256 11.9881H36.1426V17.0156H6.94164L6.94159 2.41403ZM34.5961 27.174V29.8654L27.4026 29.8752L27.4045 19.6622H30.3928V27.1737L34.5961 27.174ZM25.4281 28.6096L25.9828 28.7346L25.1156 31.2697L24.6527 31.1232C23.5062 30.76 22.5277 30.3791 21.3753 29.8459C21.266 29.799 21.1312 29.7717 20.975 29.76C18.973 29.6154 16.9535 28.01 16.9535 24.752C16.9535 21.711 18.7972 19.584 21.4339 19.584C24.0023 19.584 25.7933 21.6348 25.7933 24.5664C25.7933 26.1523 25.2875 27.5215 24.4281 28.373C24.7659 28.457 25.1097 28.5351 25.4281 28.6093L25.4281 28.6096ZM11.3891 25.9709C9.69379 25.3049 8.83244 24.2365 8.83244 22.7893C8.83244 20.8654 10.309 19.5197 12.4262 19.5197C13.3969 19.5197 14.4809 19.8088 15.0512 20.0998L15.4125 20.2834L14.725 22.7756L14.1723 22.4768C13.9027 22.3323 13.2152 22.0979 12.5141 22.0979C11.9301 22.0979 11.8871 22.4905 11.8871 22.6115C11.8871 22.8127 11.8871 22.9592 13.0375 23.4494C14.6938 24.1369 15.4653 25.1565 15.4653 26.6525C15.4653 28.1994 14.4711 30.0041 11.6625 30.0041C10.6215 30.0041 9.30312 29.6369 8.77582 29.3088L8.49066 29.1311L8.91449 26.5569L9.53949 26.9182C9.95746 27.1584 10.9242 27.426 11.6508 27.426C12.1508 27.426 12.4497 27.1936 12.4497 26.8029C12.4497 26.6311 12.4497 26.3986 11.3891 25.9709L11.3891 25.9709ZM36.1451 43.5859H6.94209V33.7714H36.1431L36.1451 43.5859Z" fill="url(#paint1_linear)"/>
<defs>
<linearGradient id="paint0_linear" x1="19.8909" y1="24.6735" x2="22.8538" y2="24.6735" gradientUnits="userSpaceOnUse">
<stop stop-color="#660099"/>
<stop offset="1" stop-color="#133675"/>
</linearGradient>
<linearGradient id="paint1_linear" x1="0" y1="22.9958" x2="43.0858" y2="22.9958" gradientUnits="userSpaceOnUse">
<stop stop-color="#660099"/>
<stop offset="1" stop-color="#133675"/>
</linearGradient>
</defs>
</svg>
