<svg width="51" height="41" viewBox="0 0 51 41" fill="none" xmlns="http://www.w3.org/2000/svg">
<path d="M29.5881 7.12253V6.62878H1V26.7244H30.1313V6.62878H29.5881V7.12253H29.0944V25.6875H2.03688V7.66566H29.5881V7.12253H29.0944H29.5881Z" fill="url(#paint0_linear)"/>
<path d="M29.5881 7.12253V6.62878H1V26.7244H30.1313V6.62878H29.5881V7.12253ZM29.5881 7.12253H29.0944V25.6875H2.03687V7.66566H29.5881V7.12253ZM29.5881 7.12253H29.0944H29.5881Z" stroke="url(#paint1_linear)" stroke-miterlimit="10"/>
<path d="M29.5881 1.49375V1H1V7.66563H30.1313V1H29.5881V1.49375H29.0944V6.62875H2.03688V2.03688H29.5881V1.49375H29.0944H29.5881Z" fill="url(#paint2_linear)"/>
<path d="M29.5881 1.49375V1H1V7.66563H30.1313V1H29.5881V1.49375ZM29.5881 1.49375H29.0944V6.62875H2.03687V2.03687H29.5881V1.49375ZM29.5881 1.49375H29.0944H29.5881Z" stroke="url(#paint3_linear)" stroke-miterlimit="10"/>
<path d="M14.3313 18.8738C14.3313 18.2813 14.7757 17.8369 15.3682 17.8369C15.9607 17.8369 16.405 18.2813 16.405 18.8738C16.405 19.4663 15.9607 19.9107 15.3682 19.9107C14.7757 19.9107 14.3313 19.4663 14.3313 18.8738Z" fill="url(#paint4_linear)" stroke="url(#paint5_linear)" stroke-miterlimit="10"/>
<path d="M8.94947 20.2562C8.94947 19.3181 9.04822 18.7256 9.04822 17.8862C9.04822 17.3925 8.80135 16.8987 7.9126 16.8987V15.9606C8.80135 15.9606 9.04822 15.4669 9.04822 14.9731C9.04822 14.0844 8.94947 13.5412 8.94947 12.6031C8.94947 11.2206 9.44322 10.7762 10.5788 10.7762H11.2701V11.6156H10.9738C10.332 11.6156 10.1838 11.8625 10.1838 12.6525C10.1838 13.3931 10.2332 14.0844 10.2332 14.9237C10.2332 15.8619 9.98635 16.2569 9.34447 16.405V16.4544C9.93697 16.6025 10.2332 16.9975 10.2332 17.9356C10.2332 18.775 10.1838 19.4662 10.1838 20.2069C10.1838 20.9969 10.332 21.2437 10.9738 21.2437H11.2701V22.0831H10.5788C9.44322 22.0337 8.94947 21.6387 8.94947 20.2562Z" fill="url(#paint6_linear)" stroke="url(#paint7_linear)" stroke-miterlimit="10"/>
<path d="M19.8613 21.1943H20.1576C20.7995 21.1943 20.9476 20.9474 20.9476 20.1574C20.9476 19.4168 20.8982 18.7256 20.8982 17.8862C20.8982 16.9481 21.1451 16.5531 21.787 16.4049V16.3556C21.1945 16.2074 20.8982 15.8124 20.8982 14.8743C20.8982 14.0349 20.9476 13.3437 20.9476 12.6031C20.9476 11.8131 20.7995 11.5662 20.1576 11.5662H19.8613V10.7268H20.5526C21.6388 10.7268 22.182 11.1218 22.182 12.5537C22.182 13.4918 22.0832 14.0843 22.0832 14.9237C22.0832 15.4174 22.3301 15.9112 23.2188 15.9112V16.8493C22.3301 16.8493 22.0832 17.3431 22.0832 17.8368C22.0832 18.6762 22.182 19.2687 22.182 20.2068C22.182 21.5893 21.6882 22.0337 20.5526 22.0337H19.8613V21.1943Z" fill="url(#paint8_linear)" stroke="url(#paint9_linear)" stroke-miterlimit="10"/>
<path d="M21.0957 30.4768H30.5757V29.2424H21.0957" fill="url(#paint10_linear)"/>
<path d="M21.0957 30.4768H30.5757V29.2424H21.0957" stroke="url(#paint11_linear)" stroke-miterlimit="10"/>
<path d="M32.6494 35.0687H19.3181V36.2537H32.6494" fill="url(#paint12_linear)"/>
<path d="M32.6494 35.0687H19.3181V36.2537H32.6494" stroke="url(#paint13_linear)" stroke-miterlimit="10"/>
<path d="M34.5256 26.28H31.8594V27.5638H34.5256" fill="url(#paint14_linear)"/>
<path d="M34.5256 26.28H31.8594V27.5638H34.5256" stroke="url(#paint15_linear)" stroke-miterlimit="10"/>
<path d="M34.5256 29.1931H31.8594V30.4769H34.5256" fill="url(#paint16_linear)"/>
<path d="M34.5256 29.1931H31.8594V30.4769H34.5256" stroke="url(#paint17_linear)" stroke-miterlimit="10"/>
<path d="M34.5256 32.1062H31.8594V33.39H34.5256" fill="url(#paint18_linear)"/>
<path d="M34.5256 32.1062H31.8594V33.39H34.5256" stroke="url(#paint19_linear)" stroke-miterlimit="10"/>
<path d="M34.5256 35.0194H31.8594V36.3032H34.5256" fill="url(#paint20_linear)"/>
<path d="M34.5256 35.0194H31.8594V36.3032H34.5256" stroke="url(#paint21_linear)" stroke-miterlimit="10"/>
<path d="M47.7087 27.5638H50.375V26.28H47.7087" fill="url(#paint22_linear)"/>
<path d="M47.7087 27.5638H50.375V26.28H47.7087" stroke="url(#paint23_linear)" stroke-miterlimit="10"/>
<path d="M47.7087 30.4769H50.375V29.1931H47.7087" fill="url(#paint24_linear)"/>
<path d="M47.7087 30.4769H50.375V29.1931H47.7087" stroke="url(#paint25_linear)" stroke-miterlimit="10"/>
<path d="M47.7087 33.39H50.375V32.1062H47.7087" fill="url(#paint26_linear)"/>
<path d="M47.7087 33.39H50.375V32.1062H47.7087" stroke="url(#paint27_linear)" stroke-miterlimit="10"/>
<path d="M47.7087 36.3032H50.375V35.0194H47.7087" fill="url(#paint28_linear)"/>
<path d="M47.7087 36.3032H50.375V35.0194H47.7087" stroke="url(#paint29_linear)" stroke-miterlimit="10"/>
<path d="M37.4388 24.6506V21.9844H36.155V24.6506" fill="url(#paint30_linear)"/>
<path d="M37.4388 24.6506V21.9844H36.155V24.6506" stroke="url(#paint31_linear)" stroke-miterlimit="10"/>
<path d="M40.3519 24.6506V21.9844H39.0681V24.6506" fill="url(#paint32_linear)"/>
<path d="M40.3519 24.6506V21.9844H39.0681V24.6506" stroke="url(#paint33_linear)" stroke-miterlimit="10"/>
<path d="M43.265 24.6506V21.9844H41.9812V24.6506" fill="url(#paint34_linear)"/>
<path d="M43.265 24.6506V21.9844H41.9812V24.6506" stroke="url(#paint35_linear)" stroke-miterlimit="10"/>
<path d="M46.1783 24.6506V21.9844H44.8945V24.6506" fill="url(#paint36_linear)"/>
<path d="M46.1783 24.6506V21.9844H44.8945V24.6506" stroke="url(#paint37_linear)" stroke-miterlimit="10"/>
<path d="M44.8943 37.8337V40.5H46.178V37.8337" fill="url(#paint38_linear)"/>
<path d="M44.8943 37.8337V40.5H46.178V37.8337" stroke="url(#paint39_linear)" stroke-miterlimit="10"/>
<path d="M41.9812 37.8337V40.5H43.265V37.8337" fill="url(#paint40_linear)"/>
<path d="M41.9812 37.8337V40.5H43.265V37.8337" stroke="url(#paint41_linear)" stroke-miterlimit="10"/>
<path d="M39.0681 37.8337V40.5H40.3519V37.8337" fill="url(#paint42_linear)"/>
<path d="M39.0681 37.8337V40.5H40.3519V37.8337" stroke="url(#paint43_linear)" stroke-miterlimit="10"/>
<path d="M36.155 37.8337V40.5H37.4388V37.8337" fill="url(#paint44_linear)"/>
<path d="M36.155 37.8337V40.5H37.4388V37.8337" stroke="url(#paint45_linear)" stroke-miterlimit="10"/>
<path d="M34.5256 26.28H31.8594V27.5638H34.5256" fill="url(#paint46_linear)"/>
<path d="M34.5256 26.28H31.8594V27.5638H34.5256" stroke="url(#paint47_linear)" stroke-miterlimit="10"/>
<path d="M34.5256 29.1931H31.8594V30.4769H34.5256" fill="url(#paint48_linear)"/>
<path d="M34.5256 29.1931H31.8594V30.4769H34.5256" stroke="url(#paint49_linear)" stroke-miterlimit="10"/>
<path d="M34.5256 32.1062H31.8594V33.39H34.5256" fill="url(#paint50_linear)"/>
<path d="M34.5256 32.1062H31.8594V33.39H34.5256" stroke="url(#paint51_linear)" stroke-miterlimit="10"/>
<path d="M34.5256 35.0194H31.8594V36.3032H34.5256" fill="url(#paint52_linear)"/>
<path d="M34.5256 35.0194H31.8594V36.3032H34.5256" stroke="url(#paint53_linear)" stroke-miterlimit="10"/>
<path d="M45.4375 24.6506H36.7968C35.5625 24.6506 34.575 25.6381 34.575 26.8725V35.5625C34.575 36.7969 35.5625 37.7844 36.7968 37.7844H45.4868C46.7212 37.7844 47.7087 36.7969 47.7087 35.5625V26.8725C47.7087 25.6381 46.6718 24.6506 45.4375 24.6506ZM44.4006 33.39C44.4006 34.0319 43.9068 34.5256 43.2649 34.5256H38.92C38.2781 34.5256 37.7843 34.0319 37.7843 33.39V29.045C37.7843 28.4031 38.2781 27.9094 38.92 27.9094H43.2649C43.8574 27.9094 44.4006 28.4031 44.4006 29.045V33.39Z" fill="url(#paint54_linear)" stroke="url(#paint55_linear)" stroke-miterlimit="10"/>
<path d="M30.3288 32.0076H26.0825V33.2913H30.3288" fill="url(#paint56_linear)"/>
<path d="M30.3288 32.0076H26.0825V33.2913H30.3288" stroke="url(#paint57_linear)" stroke-miterlimit="10"/>
<path d="M25.4407 4.2588C25.4407 3.6663 25.885 3.22192 26.4775 3.22192C27.07 3.22192 27.5144 3.6663 27.5144 4.2588C27.5144 4.8513 27.07 5.29567 26.4775 5.29567C25.885 5.29567 25.4407 4.8513 25.4407 4.2588Z" fill="url(#paint58_linear)" stroke="url(#paint59_linear)" stroke-miterlimit="10"/>
<defs>
<linearGradient id="paint0_linear" x1="1.03383" y1="16.6938" x2="30.1547" y2="16.6938" gradientUnits="userSpaceOnUse">
<stop stop-color="#660099"/>
<stop offset="1" stop-color="#133675"/>
</linearGradient>
<linearGradient id="paint1_linear" x1="3.00551" y1="4.1193" x2="28.1156" y2="29.2294" gradientUnits="userSpaceOnUse">
<stop stop-color="#660099"/>
<stop offset="1" stop-color="#133675"/>
</linearGradient>
<linearGradient id="paint2_linear" x1="1.03383" y1="4.34344" x2="30.1547" y2="4.34344" gradientUnits="userSpaceOnUse">
<stop stop-color="#660099"/>
<stop offset="1" stop-color="#133675"/>
</linearGradient>
<linearGradient id="paint3_linear" x1="6.37151" y1="-4.86526" x2="24.7497" y2="13.513" gradientUnits="userSpaceOnUse">
<stop stop-color="#660099"/>
<stop offset="1" stop-color="#133675"/>
</linearGradient>
<linearGradient id="paint4_linear" x1="14.3546" y1="18.88" x2="16.4136" y2="18.88" gradientUnits="userSpaceOnUse">
<stop stop-color="#660099"/>
<stop offset="1" stop-color="#133675"/>
</linearGradient>
<linearGradient id="paint5_linear" x1="14.466" y1="17.9663" x2="16.2859" y2="19.7862" gradientUnits="userSpaceOnUse">
<stop stop-color="#660099"/>
<stop offset="1" stop-color="#133675"/>
</linearGradient>
<linearGradient id="paint6_linear" x1="7.93574" y1="16.3988" x2="11.2665" y2="16.3988" gradientUnits="userSpaceOnUse">
<stop stop-color="#660099"/>
<stop offset="1" stop-color="#133675"/>
</linearGradient>
<linearGradient id="paint7_linear" x1="7.15514" y1="12.9856" x2="13.9889" y2="19.8194" gradientUnits="userSpaceOnUse">
<stop stop-color="#660099"/>
<stop offset="1" stop-color="#133675"/>
</linearGradient>
<linearGradient id="paint8_linear" x1="19.8442" y1="16.3988" x2="23.1752" y2="16.3988" gradientUnits="userSpaceOnUse">
<stop stop-color="#660099"/>
<stop offset="1" stop-color="#133675"/>
</linearGradient>
<linearGradient id="paint9_linear" x1="17.1326" y1="12.9856" x2="23.9662" y2="19.8193" gradientUnits="userSpaceOnUse">
<stop stop-color="#660099"/>
<stop offset="1" stop-color="#133675"/>
</linearGradient>
<linearGradient id="paint10_linear" x1="21.0824" y1="29.8262" x2="30.5365" y2="29.8262" gradientUnits="userSpaceOnUse">
<stop stop-color="#660099"/>
<stop offset="1" stop-color="#133675"/>
</linearGradient>
<linearGradient id="paint11_linear" x1="23.1087" y1="26.9893" x2="28.8198" y2="32.7004" gradientUnits="userSpaceOnUse">
<stop stop-color="#660099"/>
<stop offset="1" stop-color="#133675"/>
</linearGradient>
<linearGradient id="paint12_linear" x1="19.3496" y1="35.6826" x2="32.6468" y2="35.6826" gradientUnits="userSpaceOnUse">
<stop stop-color="#660099"/>
<stop offset="1" stop-color="#133675"/>
</linearGradient>
<linearGradient id="paint13_linear" x1="22.0626" y1="31.874" x2="29.6697" y2="39.4811" gradientUnits="userSpaceOnUse">
<stop stop-color="#660099"/>
<stop offset="1" stop-color="#133675"/>
</linearGradient>
<linearGradient id="paint14_linear" x1="32.1984" y1="25.9471" x2="34.1813" y2="27.93" gradientUnits="userSpaceOnUse">
<stop stop-color="#660099"/>
<stop offset="1" stop-color="#133675"/>
</linearGradient>
<linearGradient id="paint15_linear" x1="31.8899" y1="25.7423" x2="34.2432" y2="28.0957" gradientUnits="userSpaceOnUse">
<stop stop-color="#660099"/>
<stop offset="1" stop-color="#133675"/>
</linearGradient>
<linearGradient id="paint16_linear" x1="32.1983" y1="28.86" x2="34.1813" y2="30.8431" gradientUnits="userSpaceOnUse">
<stop stop-color="#660099"/>
<stop offset="1" stop-color="#133675"/>
</linearGradient>
<linearGradient id="paint17_linear" x1="31.8899" y1="28.6552" x2="34.2433" y2="31.0085" gradientUnits="userSpaceOnUse">
<stop stop-color="#660099"/>
<stop offset="1" stop-color="#133675"/>
</linearGradient>
<linearGradient id="paint18_linear" x1="32.1982" y1="31.7727" x2="34.1813" y2="33.7559" gradientUnits="userSpaceOnUse">
<stop stop-color="#660099"/>
<stop offset="1" stop-color="#133675"/>
</linearGradient>
<linearGradient id="paint19_linear" x1="31.8899" y1="31.568" x2="34.2432" y2="33.9213" gradientUnits="userSpaceOnUse">
<stop stop-color="#660099"/>
<stop offset="1" stop-color="#133675"/>
</linearGradient>
<linearGradient id="paint20_linear" x1="32.1983" y1="34.6856" x2="34.1813" y2="36.6686" gradientUnits="userSpaceOnUse">
<stop stop-color="#660099"/>
<stop offset="1" stop-color="#133675"/>
</linearGradient>
<linearGradient id="paint21_linear" x1="31.8899" y1="34.4809" x2="34.2432" y2="36.8342" gradientUnits="userSpaceOnUse">
<stop stop-color="#660099"/>
<stop offset="1" stop-color="#133675"/>
</linearGradient>
<linearGradient id="paint22_linear" x1="50.0146" y1="25.9472" x2="48.0316" y2="27.9302" gradientUnits="userSpaceOnUse">
<stop stop-color="#660099"/>
<stop offset="1" stop-color="#133675"/>
</linearGradient>
<linearGradient id="paint23_linear" x1="47.9819" y1="25.7423" x2="50.3352" y2="28.0957" gradientUnits="userSpaceOnUse">
<stop stop-color="#660099"/>
<stop offset="1" stop-color="#133675"/>
</linearGradient>
<linearGradient id="paint24_linear" x1="50.0147" y1="28.8599" x2="48.0316" y2="30.8431" gradientUnits="userSpaceOnUse">
<stop stop-color="#660099"/>
<stop offset="1" stop-color="#133675"/>
</linearGradient>
<linearGradient id="paint25_linear" x1="47.9819" y1="28.6552" x2="50.3352" y2="31.0085" gradientUnits="userSpaceOnUse">
<stop stop-color="#660099"/>
<stop offset="1" stop-color="#133675"/>
</linearGradient>
<linearGradient id="paint26_linear" x1="50.0146" y1="31.7728" x2="48.0316" y2="33.7558" gradientUnits="userSpaceOnUse">
<stop stop-color="#660099"/>
<stop offset="1" stop-color="#133675"/>
</linearGradient>
<linearGradient id="paint27_linear" x1="47.9819" y1="31.568" x2="50.3352" y2="33.9213" gradientUnits="userSpaceOnUse">
<stop stop-color="#660099"/>
<stop offset="1" stop-color="#133675"/>
</linearGradient>
<linearGradient id="paint28_linear" x1="50.0145" y1="34.6857" x2="48.0315" y2="36.6687" gradientUnits="userSpaceOnUse">
<stop stop-color="#660099"/>
<stop offset="1" stop-color="#133675"/>
</linearGradient>
<linearGradient id="paint29_linear" x1="47.9819" y1="34.4809" x2="50.3352" y2="36.8342" gradientUnits="userSpaceOnUse">
<stop stop-color="#660099"/>
<stop offset="1" stop-color="#133675"/>
</linearGradient>
<linearGradient id="paint30_linear" x1="35.8243" y1="22.3211" x2="37.8074" y2="24.3042" gradientUnits="userSpaceOnUse">
<stop stop-color="#660099"/>
<stop offset="1" stop-color="#133675"/>
</linearGradient>
<linearGradient id="paint31_linear" x1="35.6249" y1="22.0073" x2="37.9783" y2="24.3607" gradientUnits="userSpaceOnUse">
<stop stop-color="#660099"/>
<stop offset="1" stop-color="#133675"/>
</linearGradient>
<linearGradient id="paint32_linear" x1="38.7371" y1="22.3212" x2="40.7201" y2="24.3042" gradientUnits="userSpaceOnUse">
<stop stop-color="#660099"/>
<stop offset="1" stop-color="#133675"/>
</linearGradient>
<linearGradient id="paint33_linear" x1="38.5377" y1="22.0073" x2="40.8911" y2="24.3607" gradientUnits="userSpaceOnUse">
<stop stop-color="#660099"/>
<stop offset="1" stop-color="#133675"/>
</linearGradient>
<linearGradient id="paint34_linear" x1="41.6499" y1="22.321" x2="43.633" y2="24.3041" gradientUnits="userSpaceOnUse">
<stop stop-color="#660099"/>
<stop offset="1" stop-color="#133675"/>
</linearGradient>
<linearGradient id="paint35_linear" x1="41.4505" y1="22.0073" x2="43.8039" y2="24.3607" gradientUnits="userSpaceOnUse">
<stop stop-color="#660099"/>
<stop offset="1" stop-color="#133675"/>
</linearGradient>
<linearGradient id="paint36_linear" x1="44.5629" y1="22.3211" x2="46.5459" y2="24.3041" gradientUnits="userSpaceOnUse">
<stop stop-color="#660099"/>
<stop offset="1" stop-color="#133675"/>
</linearGradient>
<linearGradient id="paint37_linear" x1="44.3636" y1="22.0073" x2="46.7169" y2="24.3607" gradientUnits="userSpaceOnUse">
<stop stop-color="#660099"/>
<stop offset="1" stop-color="#133675"/>
</linearGradient>
<linearGradient id="paint38_linear" x1="46.5051" y1="40.1379" x2="44.5217" y2="38.1545" gradientUnits="userSpaceOnUse">
<stop stop-color="#660099"/>
<stop offset="1" stop-color="#133675"/>
</linearGradient>
<linearGradient id="paint39_linear" x1="44.3632" y1="38.0995" x2="46.7168" y2="40.4532" gradientUnits="userSpaceOnUse">
<stop stop-color="#660099"/>
<stop offset="1" stop-color="#133675"/>
</linearGradient>
<linearGradient id="paint40_linear" x1="43.5922" y1="40.138" x2="41.6088" y2="38.1545" gradientUnits="userSpaceOnUse">
<stop stop-color="#660099"/>
<stop offset="1" stop-color="#133675"/>
</linearGradient>
<linearGradient id="paint41_linear" x1="41.4504" y1="38.0995" x2="43.8041" y2="40.4532" gradientUnits="userSpaceOnUse">
<stop stop-color="#660099"/>
<stop offset="1" stop-color="#133675"/>
</linearGradient>
<linearGradient id="paint42_linear" x1="40.6794" y1="40.138" x2="38.6961" y2="38.1546" gradientUnits="userSpaceOnUse">
<stop stop-color="#660099"/>
<stop offset="1" stop-color="#133675"/>
</linearGradient>
<linearGradient id="paint43_linear" x1="38.5375" y1="38.0995" x2="40.8912" y2="40.4532" gradientUnits="userSpaceOnUse">
<stop stop-color="#660099"/>
<stop offset="1" stop-color="#133675"/>
</linearGradient>
<linearGradient id="paint44_linear" x1="37.7669" y1="40.1379" x2="35.7836" y2="38.1545" gradientUnits="userSpaceOnUse">
<stop stop-color="#660099"/>
<stop offset="1" stop-color="#133675"/>
</linearGradient>
<linearGradient id="paint45_linear" x1="35.6247" y1="38.0995" x2="37.9784" y2="40.4532" gradientUnits="userSpaceOnUse">
<stop stop-color="#660099"/>
<stop offset="1" stop-color="#133675"/>
</linearGradient>
<linearGradient id="paint46_linear" x1="32.1984" y1="25.9471" x2="34.1813" y2="27.93" gradientUnits="userSpaceOnUse">
<stop stop-color="#660099"/>
<stop offset="1" stop-color="#133675"/>
</linearGradient>
<linearGradient id="paint47_linear" x1="31.8899" y1="25.7423" x2="34.2432" y2="28.0957" gradientUnits="userSpaceOnUse">
<stop stop-color="#660099"/>
<stop offset="1" stop-color="#133675"/>
</linearGradient>
<linearGradient id="paint48_linear" x1="32.1983" y1="28.86" x2="34.1813" y2="30.8431" gradientUnits="userSpaceOnUse">
<stop stop-color="#660099"/>
<stop offset="1" stop-color="#133675"/>
</linearGradient>
<linearGradient id="paint49_linear" x1="31.8899" y1="28.6552" x2="34.2433" y2="31.0085" gradientUnits="userSpaceOnUse">
<stop stop-color="#660099"/>
<stop offset="1" stop-color="#133675"/>
</linearGradient>
<linearGradient id="paint50_linear" x1="32.1982" y1="31.7727" x2="34.1813" y2="33.7559" gradientUnits="userSpaceOnUse">
<stop stop-color="#660099"/>
<stop offset="1" stop-color="#133675"/>
</linearGradient>
<linearGradient id="paint51_linear" x1="31.8899" y1="31.568" x2="34.2432" y2="33.9213" gradientUnits="userSpaceOnUse">
<stop stop-color="#660099"/>
<stop offset="1" stop-color="#133675"/>
</linearGradient>
<linearGradient id="paint52_linear" x1="32.1983" y1="34.6856" x2="34.1813" y2="36.6686" gradientUnits="userSpaceOnUse">
<stop stop-color="#660099"/>
<stop offset="1" stop-color="#133675"/>
</linearGradient>
<linearGradient id="paint53_linear" x1="31.8899" y1="34.4809" x2="34.2432" y2="36.8342" gradientUnits="userSpaceOnUse">
<stop stop-color="#660099"/>
<stop offset="1" stop-color="#133675"/>
</linearGradient>
<linearGradient id="paint54_linear" x1="35.1933" y1="25.3272" x2="47.04" y2="37.1739" gradientUnits="userSpaceOnUse">
<stop stop-color="#660099"/>
<stop offset="1" stop-color="#133675"/>
</linearGradient>
<linearGradient id="paint55_linear" x1="35.014" y1="25.1323" x2="47.2098" y2="37.3282" gradientUnits="userSpaceOnUse">
<stop stop-color="#660099"/>
<stop offset="1" stop-color="#133675"/>
</linearGradient>
<linearGradient id="paint56_linear" x1="26.0692" y1="32.6304" x2="30.2998" y2="32.6304" gradientUnits="userSpaceOnUse">
<stop stop-color="#660099"/>
<stop offset="1" stop-color="#133675"/>
</linearGradient>
<linearGradient id="paint57_linear" x1="26.5191" y1="31.081" x2="29.6477" y2="34.2096" gradientUnits="userSpaceOnUse">
<stop stop-color="#660099"/>
<stop offset="1" stop-color="#133675"/>
</linearGradient>
<linearGradient id="paint58_linear" x1="25.4371" y1="4.24911" x2="27.4947" y2="4.24911" gradientUnits="userSpaceOnUse">
<stop stop-color="#660099"/>
<stop offset="1" stop-color="#133675"/>
</linearGradient>
<linearGradient id="paint59_linear" x1="25.5477" y1="3.33529" x2="27.3673" y2="5.155" gradientUnits="userSpaceOnUse">
<stop stop-color="#660099"/>
<stop offset="1" stop-color="#133675"/>
</linearGradient>
</defs>
</svg>
