<svg width="95" height="38" viewBox="0 0 95 38" fill="none" xmlns="http://www.w3.org/2000/svg">
<path d="M43.6121 32.4922C42.2776 33.6205 40.8541 34.6172 39.2626 35.3882C37.1273 36.4319 34.8636 37.1089 32.4714 37.3628C32.0562 37.4098 31.6509 37.485 31.2456 37.5414C30.4845 37.5414 29.7332 37.5414 28.972 37.5414C28.8732 37.5132 28.7743 37.4662 28.6755 37.4474C28.2702 37.4004 27.855 37.3816 27.4497 37.3252C24.1876 36.8833 21.2121 35.7643 18.5431 33.9308C19.6997 33.7146 20.787 33.3479 21.736 32.6709C22.5664 32.0785 23.199 31.3357 23.7427 30.4989C25.1959 31.2229 26.738 31.6648 28.3591 31.8811C28.3591 32.4828 28.3591 33.094 28.3591 33.7146C29.5651 33.7146 30.7217 33.7146 31.9475 33.7146C31.9475 33.0846 31.9475 32.4828 31.9475 31.8811C33.4006 31.6836 34.8043 31.3169 36.1289 30.6869C36.3859 31.646 36.6331 32.6051 36.8901 33.5547C37.3448 33.5547 37.7303 33.5547 38.1356 33.5547C38.5409 32.2854 38.8177 31.0066 39.2329 29.7655C39.2626 29.7749 39.3021 29.7749 39.3317 29.7843C39.6876 31.0442 40.0435 32.3042 40.3994 33.5547C40.8343 33.5547 41.2297 33.5547 41.635 33.5547C42.0897 31.7494 42.5543 29.9629 43.0091 28.1576C42.6038 28.1576 42.2281 28.1576 41.8426 28.1576C41.5658 29.3423 41.289 30.5177 41.0122 31.7024C40.9035 31.599 40.864 31.5049 40.8343 31.4015C40.5378 30.3108 40.2412 29.2295 39.9446 28.1388C39.9644 28.1106 39.9743 28.0824 40.0039 28.0636C42.9893 25.0735 44.2447 21.5287 43.701 17.4386C43.3649 14.8623 42.2677 12.5868 40.4092 10.6875C36.6924 6.89822 32.1056 5.55364 26.817 6.72897C20.8562 8.05475 16.5265 13.0287 16.4375 19.037C16.398 21.5569 17.1196 23.8888 18.5629 26.0138C19.1757 26.9259 19.8776 27.7721 20.7574 28.4773C20.7475 28.5243 20.7574 28.5713 20.7376 28.6183C20.2236 29.7184 19.3438 30.4048 18.0983 30.5741C16.8132 30.7527 15.7357 30.3296 14.9152 29.3517C14.3814 28.7124 14.2035 27.9696 14.2035 27.1609C14.2134 24.0581 14.2035 20.9552 14.2035 17.8523C14.2035 17.6831 14.2035 17.5232 14.2035 17.3352C12.9876 17.3352 11.831 17.3352 10.6843 17.3352C10.7239 16.9591 10.7436 16.5829 10.8128 16.2162C11.6827 11.5337 14.0848 7.70685 18.0192 4.77322C20.9155 2.60121 24.2172 1.34126 27.8846 0.946347C28.2504 0.908737 28.6063 0.833515 28.972 0.7771C29.7332 0.7771 30.4845 0.7771 31.2456 0.7771C31.641 0.833515 32.0364 0.908737 32.4319 0.95575C36.0993 1.35066 39.4009 2.62942 42.2973 4.79203C46.113 7.64103 48.5349 11.3363 49.4048 15.8777C50.3439 20.7859 49.2862 25.3274 46.3503 29.4646C46.3107 29.5116 46.291 29.5774 46.2514 29.6244C46.1328 29.6432 46.0142 29.662 45.9054 29.6808C45.8955 29.8501 45.8758 29.9817 45.8659 30.1228C45.5001 30.5177 45.1443 30.9126 44.7785 31.2981C44.7785 30.7527 44.7785 30.2168 44.7785 29.662C44.3633 29.662 44.0174 29.662 43.6417 29.662C43.6417 29.8689 43.6417 30.0569 43.6417 30.245C43.6318 30.9878 43.6219 31.74 43.6121 32.4922ZM44.739 29.0791C44.739 28.7594 44.739 28.4679 44.739 28.1764C44.3633 28.1764 44.0174 28.1764 43.6813 28.1764C43.6813 28.4961 43.6813 28.7876 43.6813 29.0791C44.047 29.0791 44.393 29.0791 44.739 29.0791Z" fill="#FEF001"/>
<path d="M10.6449 17.4948C10.6647 17.4384 10.6746 17.382 10.6943 17.3256C11.8509 17.3256 12.9976 17.3256 14.2135 17.3256C14.2135 17.5136 14.2135 17.6735 14.2135 17.8427C14.2135 20.9455 14.2234 24.0484 14.2135 27.1512C14.2135 27.9598 14.3914 28.7026 14.9252 29.342C15.7457 30.3198 16.8232 30.7335 18.1083 30.5643C19.3538 30.395 20.2336 29.7087 20.7476 28.6086C20.7674 28.571 20.7575 28.5145 20.7674 28.4675C20.8465 28.0726 20.975 27.6871 20.9849 27.2922C21.0244 26.5118 21.0046 25.7314 20.9947 24.951C20.9651 23.362 20.9255 21.7729 20.8959 20.1839C20.8959 20.1087 20.9058 20.0241 20.9058 19.9489C20.9354 19.4787 20.9552 19.0086 20.9849 18.5291C21.0046 18.1248 21.0343 17.7205 21.0639 17.3162C22.2106 17.3162 23.3573 17.3162 24.5337 17.3162C24.5337 17.523 24.5337 17.6829 24.5337 17.8333C24.5337 19.9677 24.5337 22.0926 24.5337 24.227C24.5337 24.8664 24.5435 25.5151 24.5534 26.1545C24.5435 26.3426 24.5238 26.5306 24.5337 26.7093C24.6127 28.0444 24.3656 29.3044 23.733 30.4985C23.1893 31.3259 22.5566 32.0781 21.7262 32.6705C20.7674 33.3474 19.6899 33.7235 18.5333 33.9304C18.385 33.9398 18.2368 33.9492 18.0885 33.9492C16.1213 34.0526 14.4013 33.4791 12.9284 32.2379C12.7603 32.0969 12.5923 31.9371 12.3847 31.749C12.2661 31.8806 12.1771 32.0217 12.0585 32.1251C10.8723 33.197 9.45867 33.8176 7.8276 33.9398C4.36777 34.2125 1.25391 32.0123 0.482866 28.7872C0.43344 28.5992 0.364243 28.4111 0.304932 28.2231C0.304932 24.5843 0.304932 20.9549 0.304932 17.3162C1.47139 17.3162 2.63785 17.3162 3.85373 17.3162C3.85373 17.5136 3.85373 17.6829 3.85373 17.8521C3.85373 21.0019 3.85373 24.1518 3.85373 27.3016C3.85373 28.4487 4.33811 29.3796 5.33652 30.0189C6.43378 30.7241 7.62001 30.7994 8.79635 30.2258C10.0024 29.6428 10.6251 28.6556 10.6449 27.3768C10.6844 25.3083 10.6548 23.2397 10.6548 21.1712C10.6548 20.8797 10.6152 20.5882 10.5955 20.2968C10.6152 20.2215 10.6548 20.1557 10.6548 20.0805C10.6548 19.2343 10.6449 18.3598 10.6449 17.4948Z" fill="#029EE6"/>
<path d="M94.7093 32.6517C94.0865 33.6295 92.7718 33.9679 91.6745 33.4414C91.2593 33.244 90.9825 32.9338 90.8342 32.4449C91.1802 32.3885 91.5163 32.3321 91.8129 32.2851C92.0304 32.4825 92.1984 32.7175 92.4357 32.8115C92.663 32.8962 92.9596 32.868 93.2067 32.8209C93.3451 32.7927 93.523 32.6329 93.5626 32.5013C93.6219 32.3039 93.4242 32.2193 93.2364 32.1723C92.7816 32.05 92.317 31.9466 91.8623 31.8056C91.2593 31.6082 90.9529 31.2039 90.9825 30.7057C91.0122 30.2074 91.3779 29.7937 91.9414 29.6433C92.5048 29.4929 93.0881 29.5023 93.6417 29.6621C94.0964 29.7843 94.3929 30.0852 94.5412 30.5834C94.215 30.6493 93.9086 30.7151 93.6021 30.7715C93.1672 30.3108 92.7718 30.1792 92.2973 30.3672C92.1885 30.4048 92.06 30.5176 92.0501 30.6022C92.0402 30.6869 92.1687 30.8185 92.2676 30.8561C92.6037 30.9689 92.9596 31.0441 93.3056 31.1381C93.5527 31.2133 93.7998 31.2885 94.047 31.3731C94.3929 31.4954 94.5511 31.7868 94.6994 32.0782C94.7093 32.2757 94.7093 32.4637 94.7093 32.6517Z" fill="#029EE6"/>
<path d="M68.4242 28.158C68.8493 28.158 69.2052 28.158 69.5907 28.158C69.1261 29.9724 68.6714 31.7587 68.2167 33.5544C67.7916 33.5544 67.3962 33.5544 66.981 33.5544C66.6251 32.2758 66.2693 31.016 65.9134 29.7468C65.8837 29.7374 65.8442 29.728 65.8145 29.728C65.4587 30.9972 65.1028 32.2664 64.737 33.5544C64.3219 33.5544 63.9166 33.5544 63.4618 33.5544C63.017 31.7681 62.5722 29.9818 62.1174 28.158C62.5128 28.158 62.8885 28.158 63.3136 28.158C63.5805 29.2861 63.8375 30.4237 64.1044 31.5519C64.1439 31.5613 64.1835 31.5613 64.223 31.5707C64.5393 30.4425 64.8655 29.3143 65.1918 28.158C65.6465 28.158 66.1012 28.158 66.5757 28.158C66.892 29.3613 67.2182 30.5553 67.5346 31.7493C67.5543 31.7493 67.584 31.7493 67.6038 31.7399C67.8707 30.5553 68.1475 29.3613 68.4242 28.158Z" fill="#029EE6"/>
<path d="M59.6263 33.7323C59.31 33.5254 59.0134 33.3373 58.6872 33.1211C58.0348 33.6194 57.2835 33.7699 56.4433 33.6006C55.7513 33.4596 55.2571 33.1117 55.0791 32.4628C54.8814 31.7764 55.1582 31.2028 55.7315 30.7609C55.8996 30.6386 56.0775 30.5352 56.2653 30.413C56.1269 30.1873 55.9787 29.9804 55.8699 29.7548C55.5338 29.0683 55.86 28.3725 56.6113 28.1374C57.0759 27.9964 57.5504 27.987 58.015 28.1374C58.9838 28.4571 59.2111 29.5103 58.45 30.1591C58.2918 30.2907 58.1139 30.413 57.8964 30.5728C58.015 30.7327 58.1336 30.8925 58.2523 31.043C58.3709 31.1934 58.4895 31.3345 58.6477 31.5319C58.7465 31.3251 58.8157 31.1652 58.9146 30.9489C59.2111 31.0148 59.5275 31.0806 59.8932 31.1652C59.7449 31.5507 59.6065 31.9081 59.4484 32.3124C59.6955 32.4911 59.9723 32.6885 60.2688 32.9048C60.081 33.1775 59.8734 33.4314 59.6263 33.7323ZM56.9079 31.0994C56.4235 31.3251 56.1566 31.6354 56.1665 32.1055C56.1764 32.4158 56.3543 32.6415 56.6706 32.7355C57.1748 32.886 57.59 32.7355 57.9952 32.3688C57.6295 31.9457 57.2835 31.5413 56.9079 31.0994ZM57.3428 29.9522C57.6097 29.6983 58.0348 29.5761 57.9063 29.1436C57.8667 28.9931 57.6196 28.8615 57.4417 28.805C57.2143 28.7392 56.9474 28.8144 56.8683 29.0589C56.7299 29.4633 57.0957 29.6607 57.3428 29.9522Z" fill="#029EE6"/>
<path d="M83.2519 31.881C83.2618 32.4263 83.4595 32.7271 83.8253 32.8306C84.2405 32.9528 84.4975 32.8212 84.8434 32.3229C85.1598 32.3699 85.4959 32.4263 85.9209 32.4921C85.7627 32.7365 85.654 32.9528 85.5057 33.122C84.7841 33.9493 82.6984 33.9023 82.2437 32.5109C82.0559 31.9374 82.0361 31.3733 82.214 30.8092C82.4809 29.9725 83.2223 29.493 84.1713 29.5494C85.0807 29.6058 85.743 30.1793 85.9011 31.0819C85.9407 31.3263 85.9506 31.5801 85.9703 31.8716C85.051 31.881 84.1713 31.881 83.2519 31.881ZM84.8039 31.2323C84.8731 30.6494 84.3788 30.3297 83.9834 30.3579C83.509 30.3955 83.2519 30.6964 83.2816 31.2323C83.7857 31.2323 84.2899 31.2323 84.8039 31.2323Z" fill="#029EE6"/>
<path d="M76.5996 31.899C76.659 32.482 76.8567 32.7546 77.2224 32.8393C77.6475 32.9333 77.865 32.8205 78.1813 32.3127C78.4976 32.3597 78.8337 32.4161 79.1995 32.4726C79.0907 32.9615 78.7843 33.2718 78.3592 33.4692C77.0741 34.071 75.6704 33.3752 75.4628 32.0306C75.4134 31.7298 75.4332 31.4007 75.4925 31.0998C75.6803 30.0937 76.3921 29.5295 77.3905 29.5389C78.3988 29.5483 79.0809 30.1407 79.2588 31.1468C79.2983 31.3725 79.2885 31.6075 79.2983 31.8896C78.3889 31.899 77.4992 31.899 76.5996 31.899ZM78.1714 31.2314C78.2307 30.7143 77.8254 30.3382 77.3608 30.3664C76.8863 30.3946 76.6293 30.6767 76.6293 31.2314C77.1433 31.2314 77.6376 31.2314 78.1714 31.2314Z" fill="#029EE6"/>
<path d="M52.7164 31.899C51.7773 31.899 50.9074 31.899 50.0474 31.899C50.0079 32.388 50.1858 32.6983 50.5615 32.8205C50.9766 32.9616 51.2633 32.8205 51.5994 32.3221C51.807 32.3504 52.0146 32.3692 52.2221 32.4068C52.3506 32.4256 52.4693 32.4632 52.6077 32.5008C52.5088 32.9145 52.2518 33.1872 51.9157 33.3941C50.7592 34.0993 49.2072 33.5069 48.9205 32.2375C48.8415 31.8614 48.8316 31.4571 48.9008 31.0809C49.0787 30.103 49.7904 29.5388 50.769 29.5482C51.7674 29.5576 52.4396 30.0936 52.6373 31.0903C52.6966 31.3348 52.6966 31.5887 52.7164 31.899ZM51.5796 31.2314C51.6389 30.7142 51.2139 30.3381 50.769 30.3663C50.2946 30.3945 50.0277 30.6766 50.0375 31.2314C50.5417 31.2314 51.0458 31.2314 51.5796 31.2314Z" fill="#029EE6"/>
<path d="M86.5044 32.4548C86.9196 32.389 87.2458 32.3326 87.572 32.2855C87.9378 32.8403 88.3727 33.0284 88.9362 32.8309C89.0746 32.7839 89.213 32.6146 89.2525 32.483C89.2723 32.4172 89.0746 32.2385 88.9461 32.1915C88.4518 32.0317 87.9279 31.9282 87.4336 31.7684C86.9789 31.6179 86.7021 31.3076 86.6823 30.8187C86.6626 30.2639 86.9888 29.822 87.5621 29.6621C88.1454 29.5023 88.7385 29.5023 89.3119 29.6621C89.7666 29.7844 90.0632 30.0947 90.2312 30.5836C89.8951 30.6494 89.5689 30.7247 89.2624 30.7811C88.8868 30.3203 88.4222 30.1793 87.9576 30.3767C87.8686 30.4144 87.7302 30.5178 87.7302 30.5836C87.7401 30.687 87.8389 30.8187 87.9279 30.8563C88.1849 30.9503 88.4617 31.0067 88.7286 31.082C89.0252 31.1666 89.3316 31.2418 89.6183 31.3452C90.597 31.6838 90.4783 32.7275 89.994 33.1882C89.2525 33.8934 87.4534 33.8182 86.8108 33.0378C86.712 32.8779 86.6329 32.6899 86.5044 32.4548Z" fill="#029EE6"/>
<path d="M45.8662 30.1138C45.8761 29.9821 45.886 29.8411 45.9058 29.6719C46.0145 29.6531 46.1331 29.6343 46.2517 29.6155C46.4593 29.6249 46.6768 29.6437 46.9042 29.6531C46.9338 29.7659 46.9536 29.8693 46.9832 30.048C47.4281 29.5027 47.9421 29.3993 48.5747 29.7565C48.4759 30.0386 48.377 30.3112 48.2782 30.5838C48.1991 30.5838 48.1497 30.5933 48.1003 30.5838C47.4577 30.4052 47.1216 30.5933 47.0722 31.242C47.0228 31.8343 47.0327 32.436 47.0129 33.0283C47.0129 33.1975 47.0129 33.3667 47.0129 33.5547C46.6274 33.5547 46.2913 33.5547 45.8761 33.5547C45.8662 32.3984 45.8662 31.2608 45.8662 30.1138Z" fill="#029EE6"/>
<path d="M75.166 29.7662C75.0671 30.0483 74.9683 30.321 74.8694 30.5937C74.7805 30.5937 74.731 30.5937 74.6915 30.5843C74.049 30.4056 73.7129 30.6031 73.6634 31.2424C73.614 31.8348 73.6239 32.4272 73.614 33.0195C73.614 33.1888 73.614 33.358 73.614 33.5461C73.2285 33.5461 72.8924 33.5461 72.5266 33.5461C72.5266 32.2485 72.5266 30.9604 72.5266 29.6534C72.8429 29.6534 73.1494 29.6534 73.4855 29.6534C73.5151 29.7568 73.5448 29.8696 73.5843 30.0295C74.0193 29.5218 74.5333 29.3901 75.166 29.7662Z" fill="#029EE6"/>
<path d="M81.2551 28.1575C81.2551 29.9533 81.2551 31.7302 81.2551 33.5448C80.9092 33.5448 80.5829 33.5448 80.2073 33.5448C80.2073 31.7584 80.2073 29.9721 80.2073 28.1575C80.5632 28.1575 80.8993 28.1575 81.2551 28.1575Z" fill="#029EE6"/>
<path d="M43.6123 32.4914C43.6222 31.7393 43.6321 30.9872 43.642 30.2445C43.642 30.0565 43.642 29.8779 43.642 29.6616C44.0176 29.6616 44.3636 29.6616 44.7787 29.6616C44.7787 30.2069 44.7787 30.7522 44.7787 31.2975C44.7787 32.0402 44.7787 32.7829 44.7787 33.5538C44.3735 33.5538 44.0374 33.5538 43.6617 33.5538C43.6518 33.1965 43.6321 32.8393 43.6123 32.4914Z" fill="#029EE6"/>
<path d="M71.3305 33.5538C70.9746 33.5538 70.6385 33.5538 70.2727 33.5538C70.2727 32.2564 70.2727 30.9684 70.2727 29.6616C70.6286 29.6616 70.9647 29.6616 71.3305 29.6616C71.3305 30.959 71.3305 32.2376 71.3305 33.5538Z" fill="#029EE6"/>
<path d="M70.2627 29.0801C70.2627 28.7792 70.2627 28.4877 70.2627 28.168C70.6186 28.168 70.9547 28.168 71.3304 28.168C71.3304 28.4595 71.3304 28.751 71.3304 29.0801C70.9844 29.0801 70.6384 29.0801 70.2627 29.0801Z" fill="#029EE6"/>
<path d="M31.9478 27.6976C31.9478 29.0893 31.9478 30.4903 31.9478 31.882C31.9478 32.4838 31.9478 33.0856 31.9478 33.7156C30.7319 33.7156 29.5753 33.7156 28.3594 33.7156C28.3594 33.0856 28.3594 32.4838 28.3594 31.882C28.3594 30.4903 28.3594 29.0893 28.3594 27.6976C28.3594 26.3154 28.3594 24.9237 28.3594 23.5414C28.3594 23.1747 28.3594 22.7986 28.3594 22.4319C29.5852 22.4319 30.7418 22.4319 31.9478 22.4319C31.9478 22.8268 31.9478 23.1841 31.9478 23.5414C31.9478 24.9237 31.9478 26.3154 31.9478 27.6976Z" fill="#029EE6"/>
<path d="M36.1192 30.6958C35.9215 29.8588 35.7337 29.0313 35.5261 28.1661C35.9018 28.1661 36.2774 28.1661 36.6926 28.1661C36.8508 28.815 37.0188 29.4827 37.1869 30.1409C37.2857 30.6487 37.3944 31.1566 37.4933 31.6644C37.523 31.6738 37.5625 31.6738 37.5922 31.6832C37.78 30.9873 37.9678 30.2914 38.1556 29.5955C38.3039 29.1159 38.4522 28.6457 38.6004 28.1379C39.0552 28.1379 39.4901 28.1379 39.935 28.1379C40.2315 29.2288 40.5281 30.3102 40.8246 31.4011C40.8543 31.5045 40.8938 31.5985 41.0026 31.702C41.2794 30.5265 41.5562 29.351 41.8329 28.1567C42.2185 28.1567 42.5941 28.1567 42.9994 28.1567C42.5348 29.9717 42.0801 31.7584 41.6253 33.5545C41.2102 33.5545 40.8246 33.5545 40.3897 33.5545C40.0338 32.3038 39.6779 31.0437 39.3221 29.7836C39.2924 29.7742 39.2529 29.7742 39.2232 29.7648C38.808 31.0061 38.5313 32.2944 38.126 33.5545C37.7207 33.5545 37.3351 33.5545 36.8804 33.5545C36.6333 32.6141 36.3763 31.655 36.1192 30.6958Z" fill="#029EE6"/>
<path d="M44.7392 29.0802C44.3932 29.0802 44.0571 29.0802 43.6814 29.0802C43.6814 28.7888 43.6814 28.4973 43.6814 28.1777C44.0175 28.1777 44.3635 28.1777 44.7392 28.1777C44.7392 28.4785 44.7392 28.77 44.7392 29.0802Z" fill="#029EE6"/>
<path d="M10.645 17.4949C10.6549 18.36 10.6648 19.225 10.6648 20.0995C10.6648 20.1748 10.6252 20.2406 10.6055 20.3158C10.6154 19.3755 10.6252 18.4352 10.645 17.4949Z" fill="#FEF001"/>
<path d="M28.3592 27.6972C27.0938 27.4997 25.9472 27.0202 24.8894 26.3526C24.7807 26.2868 24.672 26.221 24.5632 26.1458C24.5533 25.5064 24.5435 24.8576 24.5435 24.2182C24.5435 22.0838 24.5435 19.9588 24.5435 17.8244C24.5435 17.674 24.5435 17.5142 24.5435 17.3073C23.3671 17.3073 22.2204 17.3073 21.0737 17.3073C21.7163 14.5805 23.3869 12.606 25.9867 11.3648C30.099 9.39969 35.2096 10.6314 37.7897 14.1762C37.8391 14.242 37.8688 14.3079 37.9083 14.3831C37.0483 14.3831 36.1883 14.3831 35.348 14.3831C35.348 15.0413 35.348 15.6054 35.348 16.2072C36.5639 16.2072 37.7403 16.2072 38.9265 16.2072C39.0451 16.6209 39.1637 17.0346 39.2725 17.4389C39.1143 17.4577 38.9562 17.5048 38.8079 17.5048C38.4026 17.5142 37.9874 17.5048 37.5821 17.5048C36.4947 17.5142 35.7434 18.0407 35.2096 18.8963C35.1602 18.6519 35.1306 18.4074 35.0712 18.1629C34.4287 15.5114 31.6806 13.9318 28.8831 14.5899C26.8269 15.0789 25.2354 16.8748 25.1366 18.8211C25.0278 20.9555 26.3129 22.836 28.369 23.5318C28.3592 24.9328 28.3592 26.315 28.3592 27.6972Z" fill="#FEF001"/>
<path d="M38.9168 16.2067C37.7405 16.2067 36.5542 16.2067 35.3383 16.2067C35.3383 15.605 35.3383 15.0408 35.3383 14.3826C36.1786 14.3826 37.0386 14.3826 37.8986 14.3826C38.2743 14.392 38.6499 14.392 39.0354 14.4014C40.3699 14.4202 41.4277 15.3135 41.6056 16.5641C41.7737 17.7488 40.9532 18.8772 39.678 19.2157C39.5989 19.2345 39.5198 19.2721 39.4506 19.3003C38.8278 19.3003 38.2051 19.2909 37.5823 19.3097C37.1374 19.3191 36.8607 19.6012 36.8705 19.9867C36.8804 20.3534 37.1374 20.6167 37.5625 20.6261C38.1556 20.6355 38.7389 20.6167 39.332 20.6167C39.9646 20.6167 40.6072 20.6167 41.2695 20.6167C41.2695 21.2373 41.2695 21.8015 41.2695 22.4409C40.4293 22.4409 39.5989 22.4409 38.7586 22.4409C38.3336 22.4315 37.9085 22.4315 37.4834 22.4221C36.485 22.3845 35.7436 21.9331 35.2691 21.0963C35.1604 20.9082 35.0912 20.7013 35.0022 20.4945C34.9627 19.9585 34.9825 19.4225 35.1999 18.9148C35.7337 18.0591 36.485 17.5326 37.5724 17.5232C37.9777 17.5232 38.3929 17.5326 38.7982 17.5232C38.9563 17.5232 39.1145 17.4761 39.2628 17.4573C39.6384 17.2693 39.7867 17.0248 39.7175 16.7427C39.6384 16.3854 39.3814 16.2161 38.9168 16.2067Z" fill="#029EE6"/>
<path d="M35.0019 20.4849C35.0909 20.6823 35.1601 20.8892 35.2688 21.0867C35.7433 21.9235 36.4847 22.3749 37.4831 22.4125C37.9082 22.4313 38.3332 22.4313 38.7583 22.4313C37.4436 25.3086 35.1601 27.0575 31.9375 27.7063C31.9375 26.3241 31.9375 24.9325 31.9375 23.5502C32.5504 23.3622 33.0743 23.0237 33.5587 22.6193C34.2506 22.0269 34.6658 21.2841 35.0019 20.4849Z" fill="#FEF001"/>
<path d="M38.8311 20.6642C38.238 20.6736 37.6547 20.6924 37.0616 20.6736C36.6365 20.6642 36.3795 20.4008 36.3696 20.034C36.3598 19.6483 36.6365 19.3661 37.0814 19.3567C37.7042 19.3379 38.3269 19.3473 38.9497 19.3473C38.9102 19.7894 38.8706 20.2315 38.8311 20.6642Z" fill="#FEF001"/>
<path d="M38.1655 29.5947C37.9777 30.2909 37.7899 30.9871 37.6021 31.6833C37.5724 31.6739 37.5329 31.6739 37.5032 31.6645C37.4044 31.1565 37.2956 30.6484 37.1968 30.1404C37.5131 29.9522 37.8393 29.7735 38.1655 29.5947Z" fill="#FEF001"/>
<path d="M30.1486 16.9397C31.4634 16.9397 32.5211 17.9269 32.5211 19.1492C32.5211 20.3902 31.4535 21.3774 30.1091 21.368C28.7944 21.3586 27.7663 20.3808 27.7762 19.1304C27.7861 17.9081 28.824 16.9397 30.1486 16.9397Z" fill="#029EE6"/>
</svg>
